%TF.GenerationSoftware,KiCad,Pcbnew,8.0.2*%
%TF.CreationDate,2024-05-01T01:53:47-07:00*%
%TF.ProjectId,DRIVER,44524956-4552-42e6-9b69-6361645f7063,rev?*%
%TF.SameCoordinates,Original*%
%TF.FileFunction,Soldermask,Top*%
%TF.FilePolarity,Negative*%
%FSLAX46Y46*%
G04 Gerber Fmt 4.6, Leading zero omitted, Abs format (unit mm)*
G04 Created by KiCad (PCBNEW 8.0.2) date 2024-05-01 01:53:47*
%MOMM*%
%LPD*%
G01*
G04 APERTURE LIST*
G04 Aperture macros list*
%AMRoundRect*
0 Rectangle with rounded corners*
0 $1 Rounding radius*
0 $2 $3 $4 $5 $6 $7 $8 $9 X,Y pos of 4 corners*
0 Add a 4 corners polygon primitive as box body*
4,1,4,$2,$3,$4,$5,$6,$7,$8,$9,$2,$3,0*
0 Add four circle primitives for the rounded corners*
1,1,$1+$1,$2,$3*
1,1,$1+$1,$4,$5*
1,1,$1+$1,$6,$7*
1,1,$1+$1,$8,$9*
0 Add four rect primitives between the rounded corners*
20,1,$1+$1,$2,$3,$4,$5,0*
20,1,$1+$1,$4,$5,$6,$7,0*
20,1,$1+$1,$6,$7,$8,$9,0*
20,1,$1+$1,$8,$9,$2,$3,0*%
G04 Aperture macros list end*
%ADD10O,1.800000X1.800000*%
%ADD11O,1.500000X1.500000*%
%ADD12O,1.700000X1.700000*%
%ADD13R,3.500000X1.700000*%
%ADD14R,1.700000X1.700000*%
%ADD15R,1.700000X3.500000*%
%ADD16RoundRect,0.100000X-0.083085X-0.224506X0.224506X0.083085X0.083085X0.224506X-0.224506X-0.083085X0*%
%ADD17R,1.050000X0.650000*%
%ADD18R,1.600000X1.600000*%
%ADD19O,1.600000X1.600000*%
%ADD20RoundRect,0.100000X-0.217500X-0.100000X0.217500X-0.100000X0.217500X0.100000X-0.217500X0.100000X0*%
%ADD21RoundRect,0.150000X0.150000X-0.587500X0.150000X0.587500X-0.150000X0.587500X-0.150000X-0.587500X0*%
G04 APERTURE END LIST*
D10*
%TO.C,U1*%
X82227000Y-159636000D03*
D11*
X81927000Y-156606000D03*
X77077000Y-156606000D03*
D10*
X76777000Y-159636000D03*
D12*
X88392000Y-159766000D03*
D13*
X89292000Y-159766000D03*
D12*
X88392000Y-157226000D03*
D13*
X89292000Y-157226000D03*
D14*
X88392000Y-154686000D03*
D13*
X89292000Y-154686000D03*
D12*
X88392000Y-152146000D03*
D13*
X89292000Y-152146000D03*
D12*
X88392000Y-149606000D03*
D13*
X89292000Y-149606000D03*
D12*
X88392000Y-147066000D03*
D13*
X89292000Y-147066000D03*
D12*
X88392000Y-144526000D03*
D13*
X89292000Y-144526000D03*
D14*
X88392000Y-141986000D03*
D13*
X89292000Y-141986000D03*
D12*
X88392000Y-139446000D03*
D13*
X89292000Y-139446000D03*
D12*
X88392000Y-136906000D03*
D13*
X89292000Y-136906000D03*
D12*
X88392000Y-134366000D03*
D13*
X89292000Y-134366000D03*
D12*
X88392000Y-131826000D03*
D13*
X89292000Y-131826000D03*
D14*
X88392000Y-129286000D03*
D13*
X89292000Y-129286000D03*
D12*
X88392000Y-126746000D03*
D13*
X89292000Y-126746000D03*
D12*
X88392000Y-124206000D03*
D13*
X89292000Y-124206000D03*
D12*
X88392000Y-121666000D03*
D13*
X89292000Y-121666000D03*
D12*
X88392000Y-119126000D03*
D13*
X89292000Y-119126000D03*
D14*
X88392000Y-116586000D03*
D13*
X89292000Y-116586000D03*
D12*
X88392000Y-114046000D03*
D13*
X89292000Y-114046000D03*
D12*
X88392000Y-111506000D03*
D13*
X89292000Y-111506000D03*
D12*
X70612000Y-111506000D03*
D13*
X69712000Y-111506000D03*
D12*
X70612000Y-114046000D03*
D13*
X69712000Y-114046000D03*
D14*
X70612000Y-116586000D03*
D13*
X69712000Y-116586000D03*
D12*
X70612000Y-119126000D03*
D13*
X69712000Y-119126000D03*
D12*
X70612000Y-121666000D03*
D13*
X69712000Y-121666000D03*
D12*
X70612000Y-124206000D03*
D13*
X69712000Y-124206000D03*
D12*
X70612000Y-126746000D03*
D13*
X69712000Y-126746000D03*
D14*
X70612000Y-129286000D03*
D13*
X69712000Y-129286000D03*
D12*
X70612000Y-131826000D03*
D13*
X69712000Y-131826000D03*
D12*
X70612000Y-134366000D03*
D13*
X69712000Y-134366000D03*
D12*
X70612000Y-136906000D03*
D13*
X69712000Y-136906000D03*
D12*
X70612000Y-139446000D03*
D13*
X69712000Y-139446000D03*
D14*
X70612000Y-141986000D03*
D13*
X69712000Y-141986000D03*
D12*
X70612000Y-144526000D03*
D13*
X69712000Y-144526000D03*
D12*
X70612000Y-147066000D03*
D13*
X69712000Y-147066000D03*
D12*
X70612000Y-149606000D03*
D13*
X69712000Y-149606000D03*
D12*
X70612000Y-152146000D03*
D13*
X69712000Y-152146000D03*
D14*
X70612000Y-154686000D03*
D13*
X69712000Y-154686000D03*
D12*
X70612000Y-157226000D03*
D13*
X69712000Y-157226000D03*
D12*
X70612000Y-159766000D03*
D13*
X69712000Y-159766000D03*
D12*
X82042000Y-111736000D03*
D15*
X82042000Y-110836000D03*
D14*
X79502000Y-111736000D03*
D15*
X79502000Y-110836000D03*
D12*
X76962000Y-111736000D03*
D15*
X76962000Y-110836000D03*
%TD*%
D16*
%TO.C,R4*%
X86833854Y-106968146D03*
X87410146Y-106391854D03*
%TD*%
D17*
%TO.C,SW1*%
X60409000Y-165549000D03*
X64559000Y-165549000D03*
X60409000Y-167699000D03*
X64534000Y-167699000D03*
%TD*%
D14*
%TO.C,J4*%
X51054000Y-178308000D03*
D12*
X53594000Y-178308000D03*
X56134000Y-178308000D03*
%TD*%
D18*
%TO.C,U3*%
X56134000Y-150622000D03*
D19*
X56134000Y-148082000D03*
X56134000Y-145542000D03*
X56134000Y-143002000D03*
X56134000Y-140462000D03*
X56134000Y-137922000D03*
X56134000Y-135382000D03*
X56134000Y-132842000D03*
X48514000Y-132842000D03*
X48514000Y-135382000D03*
X48514000Y-137922000D03*
X48514000Y-140462000D03*
X48514000Y-143002000D03*
X48514000Y-145542000D03*
X48514000Y-148082000D03*
X48514000Y-150622000D03*
%TD*%
D18*
%TO.C,U4*%
X56134000Y-129286000D03*
D19*
X56134000Y-126746000D03*
X56134000Y-124206000D03*
X56134000Y-121666000D03*
X56134000Y-119126000D03*
X56134000Y-116586000D03*
X56134000Y-114046000D03*
X56134000Y-111506000D03*
X48514000Y-111506000D03*
X48514000Y-114046000D03*
X48514000Y-116586000D03*
X48514000Y-119126000D03*
X48514000Y-121666000D03*
X48514000Y-124206000D03*
X48514000Y-126746000D03*
X48514000Y-129286000D03*
%TD*%
D20*
%TO.C,R3*%
X83767000Y-99060000D03*
X84582000Y-99060000D03*
%TD*%
D21*
%TO.C,Q2*%
X88204000Y-104315500D03*
X90104000Y-104315500D03*
X89154000Y-102440500D03*
%TD*%
D18*
%TO.C,U2*%
X56134000Y-171958000D03*
D19*
X56134000Y-169418000D03*
X56134000Y-166878000D03*
X56134000Y-164338000D03*
X56134000Y-161798000D03*
X56134000Y-159258000D03*
X56134000Y-156718000D03*
X56134000Y-154178000D03*
X48514000Y-154178000D03*
X48514000Y-156718000D03*
X48514000Y-159258000D03*
X48514000Y-161798000D03*
X48514000Y-164338000D03*
X48514000Y-166878000D03*
X48514000Y-169418000D03*
X48514000Y-171958000D03*
%TD*%
D14*
%TO.C,J5*%
X40894000Y-178816000D03*
D12*
X43434000Y-178816000D03*
%TD*%
D14*
%TO.C,J6*%
X93218000Y-96012000D03*
D12*
X93218000Y-98552000D03*
%TD*%
D14*
%TO.C,J3*%
X39878000Y-170450000D03*
D12*
X39878000Y-172990000D03*
%TD*%
D14*
%TO.C,J2*%
X87884000Y-95489000D03*
D12*
X87884000Y-92949000D03*
X87884000Y-90409000D03*
X87884000Y-87869000D03*
%TD*%
D18*
%TO.C,A1*%
X76962000Y-90424000D03*
D19*
X74422000Y-90424000D03*
X71882000Y-90424000D03*
X69342000Y-90424000D03*
X66802000Y-90424000D03*
X64262000Y-90424000D03*
X61722000Y-90424000D03*
X59182000Y-90424000D03*
X56642000Y-90424000D03*
X54102000Y-90424000D03*
X51562000Y-90424000D03*
X49022000Y-90424000D03*
X46482000Y-90424000D03*
X43942000Y-90424000D03*
X41402000Y-90424000D03*
X41402000Y-105664000D03*
X43942000Y-105664000D03*
X46482000Y-105664000D03*
X49022000Y-105664000D03*
X51562000Y-105664000D03*
X54102000Y-105664000D03*
X56642000Y-105664000D03*
X59182000Y-105664000D03*
X61722000Y-105664000D03*
X64262000Y-105664000D03*
X66802000Y-105664000D03*
X69342000Y-105664000D03*
X71882000Y-105664000D03*
X74422000Y-105664000D03*
X76962000Y-105664000D03*
%TD*%
D12*
%TO.C,J1*%
X38862000Y-129540000D03*
D14*
X38862000Y-162560000D03*
D12*
X38862000Y-160020000D03*
X38862000Y-157480000D03*
X38862000Y-154940000D03*
X38862000Y-152400000D03*
X38862000Y-149860000D03*
X38862000Y-147320000D03*
X38862000Y-144780000D03*
X38862000Y-142240000D03*
X38862000Y-139700000D03*
X38862000Y-137160000D03*
X38862000Y-134620000D03*
X38862000Y-132080000D03*
X38862000Y-127000000D03*
X38862000Y-124460000D03*
X38862000Y-121920000D03*
X38862000Y-119380000D03*
X38862000Y-116840000D03*
X38862000Y-114300000D03*
X38862000Y-111760000D03*
%TD*%
M02*
