%TF.GenerationSoftware,KiCad,Pcbnew,8.0.2*%
%TF.CreationDate,2024-05-01T01:53:47-07:00*%
%TF.ProjectId,DRIVER,44524956-4552-42e6-9b69-6361645f7063,rev?*%
%TF.SameCoordinates,Original*%
%TF.FileFunction,Copper,L2,Bot*%
%TF.FilePolarity,Positive*%
%FSLAX46Y46*%
G04 Gerber Fmt 4.6, Leading zero omitted, Abs format (unit mm)*
G04 Created by KiCad (PCBNEW 8.0.2) date 2024-05-01 01:53:47*
%MOMM*%
%LPD*%
G01*
G04 APERTURE LIST*
%TA.AperFunction,ComponentPad*%
%ADD10O,1.700000X1.700000*%
%TD*%
%TA.AperFunction,ComponentPad*%
%ADD11R,1.700000X1.700000*%
%TD*%
%TA.AperFunction,ComponentPad*%
%ADD12R,1.600000X1.600000*%
%TD*%
%TA.AperFunction,ComponentPad*%
%ADD13O,1.600000X1.600000*%
%TD*%
%TA.AperFunction,ViaPad*%
%ADD14C,0.600000*%
%TD*%
%TA.AperFunction,Conductor*%
%ADD15C,0.500000*%
%TD*%
%TA.AperFunction,Conductor*%
%ADD16C,2.000000*%
%TD*%
%TA.AperFunction,Conductor*%
%ADD17C,0.200000*%
%TD*%
G04 APERTURE END LIST*
D10*
%TO.P,U1,1,GPIO0*%
%TO.N,unconnected-(U1-GPIO0-Pad1)*%
X88392000Y-159766000D03*
%TO.P,U1,2,GPIO1*%
%TO.N,Net-(Q2-S)*%
X88392000Y-157226000D03*
D11*
%TO.P,U1,3,GND*%
%TO.N,GND*%
X88392000Y-154686000D03*
D10*
%TO.P,U1,4,GPIO2*%
%TO.N,Net-(A1-D5)*%
X88392000Y-152146000D03*
%TO.P,U1,5,GPIO3*%
%TO.N,unconnected-(U1-GPIO3-Pad5)*%
X88392000Y-149606000D03*
%TO.P,U1,6,GPIO4*%
%TO.N,unconnected-(U1-GPIO4-Pad6)*%
X88392000Y-147066000D03*
%TO.P,U1,7,GPIO5*%
%TO.N,unconnected-(U1-GPIO5-Pad7)*%
X88392000Y-144526000D03*
D11*
%TO.P,U1,8,GND*%
%TO.N,GND*%
X88392000Y-141986000D03*
D10*
%TO.P,U1,9,GPIO6*%
%TO.N,unconnected-(U1-GPIO6-Pad9)_0*%
X88392000Y-139446000D03*
%TO.P,U1,10,GPIO7*%
%TO.N,/BURNER_9*%
X88392000Y-136906000D03*
%TO.P,U1,11,GPIO8*%
%TO.N,/BURNER_1*%
X88392000Y-134366000D03*
%TO.P,U1,12,GPIO9*%
%TO.N,/BURNER_2*%
X88392000Y-131826000D03*
D11*
%TO.P,U1,13,GND*%
%TO.N,GND*%
X88392000Y-129286000D03*
D10*
%TO.P,U1,14,GPIO10*%
%TO.N,/BURNER_3*%
X88392000Y-126746000D03*
%TO.P,U1,15,GPIO11*%
%TO.N,/BURNER_4*%
X88392000Y-124206000D03*
%TO.P,U1,16,GPIO12*%
%TO.N,/BURNER_5*%
X88392000Y-121666000D03*
%TO.P,U1,17,GPIO13*%
%TO.N,/BURNER_6*%
X88392000Y-119126000D03*
D11*
%TO.P,U1,18,GND*%
%TO.N,GND*%
X88392000Y-116586000D03*
D10*
%TO.P,U1,19,GPIO14*%
%TO.N,/BURNER_7*%
X88392000Y-114046000D03*
%TO.P,U1,20,GPIO15*%
%TO.N,/BURNER_8*%
X88392000Y-111506000D03*
%TO.P,U1,21,GPIO16*%
%TO.N,Net-(J4-Pin_3)*%
X70612000Y-111506000D03*
%TO.P,U1,22,GPIO17*%
%TO.N,Net-(J3-Pin_1)*%
X70612000Y-114046000D03*
D11*
%TO.P,U1,23,GND*%
%TO.N,GND*%
X70612000Y-116586000D03*
D10*
%TO.P,U1,24,GPIO18*%
%TO.N,Net-(U1-GPIO18)*%
X70612000Y-119126000D03*
%TO.P,U1,25,GPIO19*%
%TO.N,Net-(U1-GPIO19)*%
X70612000Y-121666000D03*
%TO.P,U1,26,GPIO20*%
%TO.N,Net-(U1-GPIO20)*%
X70612000Y-124206000D03*
%TO.P,U1,27,GPIO21*%
%TO.N,Net-(U1-GPIO21)*%
X70612000Y-126746000D03*
D11*
%TO.P,U1,28,GND*%
%TO.N,GND*%
X70612000Y-129286000D03*
D10*
%TO.P,U1,29,GPIO22*%
%TO.N,Net-(U1-GPIO22)*%
X70612000Y-131826000D03*
%TO.P,U1,30,RUN*%
%TO.N,Net-(U1-RUN)*%
X70612000Y-134366000D03*
%TO.P,U1,31,GPIO26_ADC0*%
%TO.N,Net-(U1-GPIO26_ADC0)*%
X70612000Y-136906000D03*
%TO.P,U1,32,GPIO27_ADC1*%
%TO.N,Net-(U1-GPIO27_ADC1)*%
X70612000Y-139446000D03*
D11*
%TO.P,U1,33,AGND*%
%TO.N,unconnected-(U1-AGND-Pad33)*%
X70612000Y-141986000D03*
D10*
%TO.P,U1,34,GPIO28_ADC2*%
%TO.N,Net-(U1-GPIO28_ADC2)*%
X70612000Y-144526000D03*
%TO.P,U1,35,ADC_VREF*%
%TO.N,unconnected-(U1-ADC_VREF-Pad35)*%
X70612000Y-147066000D03*
%TO.P,U1,36,3V3*%
%TO.N,+3.3V*%
X70612000Y-149606000D03*
%TO.P,U1,37,3V3_EN*%
%TO.N,unconnected-(U1-3V3_EN-Pad37)_0*%
X70612000Y-152146000D03*
D11*
%TO.P,U1,38,GND*%
%TO.N,GND*%
X70612000Y-154686000D03*
D10*
%TO.P,U1,39,VSYS*%
%TO.N,unconnected-(U1-VSYS-Pad39)_0*%
X70612000Y-157226000D03*
%TO.P,U1,40,VBUS*%
%TO.N,+5V*%
X70612000Y-159766000D03*
%TO.P,U1,41,SWCLK*%
%TO.N,unconnected-(U1-SWCLK-Pad41)*%
X82042000Y-111736000D03*
D11*
%TO.P,U1,42,GND*%
%TO.N,GND*%
X79502000Y-111736000D03*
D10*
%TO.P,U1,43,SWDIO*%
%TO.N,unconnected-(U1-SWDIO-Pad43)*%
X76962000Y-111736000D03*
%TD*%
D11*
%TO.P,J4,1,Pin_1*%
%TO.N,+5V*%
X51054000Y-178308000D03*
D10*
%TO.P,J4,2,Pin_2*%
%TO.N,GND*%
X53594000Y-178308000D03*
%TO.P,J4,3,Pin_3*%
%TO.N,Net-(J4-Pin_3)*%
X56134000Y-178308000D03*
%TD*%
D12*
%TO.P,U3,1,NC*%
%TO.N,unconnected-(U3-NC-Pad1)*%
X56134000Y-150622000D03*
D13*
%TO.P,U3,2,IN1*%
%TO.N,/BURNER_5*%
X56134000Y-148082000D03*
%TO.P,U3,3,IN2*%
%TO.N,/BURNER_6*%
X56134000Y-145542000D03*
%TO.P,U3,4,IN3*%
%TO.N,/BURNER_7*%
X56134000Y-143002000D03*
%TO.P,U3,5,IN4*%
%TO.N,/BURNER_8*%
X56134000Y-140462000D03*
%TO.P,U3,6,IN5*%
%TO.N,Net-(U1-GPIO28_ADC2)*%
X56134000Y-137922000D03*
%TO.P,U3,7,IN6*%
%TO.N,Net-(U1-GPIO27_ADC1)*%
X56134000Y-135382000D03*
%TO.P,U3,8,GND*%
%TO.N,GND*%
X56134000Y-132842000D03*
%TO.P,U3,9,COM*%
%TO.N,+5V*%
X48514000Y-132842000D03*
%TO.P,U3,10,O6*%
%TO.N,Net-(J1-Pin_13)*%
X48514000Y-135382000D03*
%TO.P,U3,11,O5*%
%TO.N,Net-(J1-Pin_12)*%
X48514000Y-137922000D03*
%TO.P,U3,12,O4*%
%TO.N,Net-(J1-Pin_11)*%
X48514000Y-140462000D03*
%TO.P,U3,13,O3*%
%TO.N,Net-(J1-Pin_10)*%
X48514000Y-143002000D03*
%TO.P,U3,14,O2*%
%TO.N,Net-(J1-Pin_9)*%
X48514000Y-145542000D03*
%TO.P,U3,15,O1*%
%TO.N,Net-(J1-Pin_8)*%
X48514000Y-148082000D03*
%TO.P,U3,16,VCC*%
%TO.N,+5V*%
X48514000Y-150622000D03*
%TD*%
D12*
%TO.P,U4,1,NC*%
%TO.N,unconnected-(U4-NC-Pad1)*%
X56134000Y-129286000D03*
D13*
%TO.P,U4,2,IN1*%
%TO.N,Net-(U1-GPIO26_ADC0)*%
X56134000Y-126746000D03*
%TO.P,U4,3,IN2*%
%TO.N,Net-(U1-GPIO22)*%
X56134000Y-124206000D03*
%TO.P,U4,4,IN3*%
%TO.N,Net-(U1-GPIO21)*%
X56134000Y-121666000D03*
%TO.P,U4,5,IN4*%
%TO.N,Net-(U1-GPIO20)*%
X56134000Y-119126000D03*
%TO.P,U4,6,IN5*%
%TO.N,Net-(U1-GPIO19)*%
X56134000Y-116586000D03*
%TO.P,U4,7,IN6*%
%TO.N,Net-(U1-GPIO18)*%
X56134000Y-114046000D03*
%TO.P,U4,8,GND*%
%TO.N,GND*%
X56134000Y-111506000D03*
%TO.P,U4,9,COM*%
%TO.N,+5V*%
X48514000Y-111506000D03*
%TO.P,U4,10,O6*%
%TO.N,Net-(J1-Pin_21)*%
X48514000Y-114046000D03*
%TO.P,U4,11,O5*%
%TO.N,Net-(J1-Pin_20)*%
X48514000Y-116586000D03*
%TO.P,U4,12,O4*%
%TO.N,Net-(J1-Pin_19)*%
X48514000Y-119126000D03*
%TO.P,U4,13,O3*%
%TO.N,Net-(J1-Pin_18)*%
X48514000Y-121666000D03*
%TO.P,U4,14,O2*%
%TO.N,Net-(J1-Pin_17)*%
X48514000Y-124206000D03*
%TO.P,U4,15,O1*%
%TO.N,Net-(J1-Pin_16)*%
X48514000Y-126746000D03*
%TO.P,U4,16,VCC*%
%TO.N,+5V*%
X48514000Y-129286000D03*
%TD*%
D12*
%TO.P,U2,1,NC*%
%TO.N,unconnected-(U2-NC-Pad1)*%
X56134000Y-171958000D03*
D13*
%TO.P,U2,2,IN1*%
%TO.N,unconnected-(U2-IN1-Pad2)*%
X56134000Y-169418000D03*
%TO.P,U2,3,IN2*%
%TO.N,/BURNER_9*%
X56134000Y-166878000D03*
%TO.P,U2,4,IN3*%
%TO.N,/BURNER_1*%
X56134000Y-164338000D03*
%TO.P,U2,5,IN4*%
%TO.N,/BURNER_2*%
X56134000Y-161798000D03*
%TO.P,U2,6,IN5*%
%TO.N,/BURNER_3*%
X56134000Y-159258000D03*
%TO.P,U2,7,IN6*%
%TO.N,/BURNER_4*%
X56134000Y-156718000D03*
%TO.P,U2,8,GND*%
%TO.N,GND*%
X56134000Y-154178000D03*
%TO.P,U2,9,COM*%
%TO.N,+5V*%
X48514000Y-154178000D03*
%TO.P,U2,10,O6*%
%TO.N,Net-(J1-Pin_5)*%
X48514000Y-156718000D03*
%TO.P,U2,11,O5*%
%TO.N,Net-(J1-Pin_4)*%
X48514000Y-159258000D03*
%TO.P,U2,12,O4*%
%TO.N,Net-(J1-Pin_3)*%
X48514000Y-161798000D03*
%TO.P,U2,13,O3*%
%TO.N,Net-(J1-Pin_2)*%
X48514000Y-164338000D03*
%TO.P,U2,14,O2*%
%TO.N,Net-(J1-Pin_1)*%
X48514000Y-166878000D03*
%TO.P,U2,15,O1*%
%TO.N,unconnected-(U2-O1-Pad15)*%
X48514000Y-169418000D03*
%TO.P,U2,16,VCC*%
%TO.N,+5V*%
X48514000Y-171958000D03*
%TD*%
D11*
%TO.P,J5,1,Pin_1*%
%TO.N,+5V*%
X40894000Y-178816000D03*
D10*
%TO.P,J5,2,Pin_2*%
X43434000Y-178816000D03*
%TD*%
D11*
%TO.P,J6,1,Pin_1*%
%TO.N,+5V*%
X93218000Y-96012000D03*
D10*
%TO.P,J6,2,Pin_2*%
%TO.N,GND*%
X93218000Y-98552000D03*
%TD*%
D11*
%TO.P,J3,1,Pin_1*%
%TO.N,Net-(J3-Pin_1)*%
X39878000Y-170450000D03*
D10*
%TO.P,J3,2,Pin_2*%
%TO.N,GND*%
X39878000Y-172990000D03*
%TD*%
D11*
%TO.P,J2,1,Pin_1*%
%TO.N,Net-(A1-D4)*%
X87884000Y-95489000D03*
D10*
%TO.P,J2,2,Pin_2*%
%TO.N,Net-(A1-D3)*%
X87884000Y-92949000D03*
%TO.P,J2,3,Pin_3*%
%TO.N,Net-(A1-D2)*%
X87884000Y-90409000D03*
%TO.P,J2,4,Pin_4*%
%TO.N,GND*%
X87884000Y-87869000D03*
%TD*%
D12*
%TO.P,A1,1,D1/TX*%
%TO.N,Net-(A1-D1{slash}TX)*%
X76962000Y-90424000D03*
D13*
%TO.P,A1,2,D0/RX*%
%TO.N,unconnected-(A1-D0{slash}RX-Pad2)*%
X74422000Y-90424000D03*
%TO.P,A1,3,~{RESET}*%
%TO.N,unconnected-(A1-~{RESET}-Pad3)*%
X71882000Y-90424000D03*
%TO.P,A1,4,GND*%
%TO.N,unconnected-(A1-GND-Pad4)*%
X69342000Y-90424000D03*
%TO.P,A1,5,D2*%
%TO.N,Net-(A1-D2)*%
X66802000Y-90424000D03*
%TO.P,A1,6,D3*%
%TO.N,Net-(A1-D3)*%
X64262000Y-90424000D03*
%TO.P,A1,7,D4*%
%TO.N,Net-(A1-D4)*%
X61722000Y-90424000D03*
%TO.P,A1,8,D5*%
%TO.N,Net-(A1-D5)*%
X59182000Y-90424000D03*
%TO.P,A1,9,D6*%
%TO.N,unconnected-(A1-D6-Pad9)*%
X56642000Y-90424000D03*
%TO.P,A1,10,D7*%
%TO.N,unconnected-(A1-D7-Pad10)*%
X54102000Y-90424000D03*
%TO.P,A1,11,D8*%
%TO.N,unconnected-(A1-D8-Pad11)*%
X51562000Y-90424000D03*
%TO.P,A1,12,D9*%
%TO.N,unconnected-(A1-D9-Pad12)*%
X49022000Y-90424000D03*
%TO.P,A1,13,D10*%
%TO.N,unconnected-(A1-D10-Pad13)*%
X46482000Y-90424000D03*
%TO.P,A1,14,D11*%
%TO.N,unconnected-(A1-D11-Pad14)*%
X43942000Y-90424000D03*
%TO.P,A1,15,D12*%
%TO.N,unconnected-(A1-D12-Pad15)*%
X41402000Y-90424000D03*
%TO.P,A1,16,D13*%
%TO.N,unconnected-(A1-D13-Pad16)*%
X41402000Y-105664000D03*
%TO.P,A1,17,3V3*%
%TO.N,unconnected-(A1-3V3-Pad17)*%
X43942000Y-105664000D03*
%TO.P,A1,18,AREF*%
%TO.N,unconnected-(A1-AREF-Pad18)*%
X46482000Y-105664000D03*
%TO.P,A1,19,A0*%
%TO.N,unconnected-(A1-A0-Pad19)*%
X49022000Y-105664000D03*
%TO.P,A1,20,A1*%
%TO.N,unconnected-(A1-A1-Pad20)*%
X51562000Y-105664000D03*
%TO.P,A1,21,A2*%
%TO.N,unconnected-(A1-A2-Pad21)*%
X54102000Y-105664000D03*
%TO.P,A1,22,A3*%
%TO.N,unconnected-(A1-A3-Pad22)*%
X56642000Y-105664000D03*
%TO.P,A1,23,A4*%
%TO.N,unconnected-(A1-A4-Pad23)*%
X59182000Y-105664000D03*
%TO.P,A1,24,A5*%
%TO.N,unconnected-(A1-A5-Pad24)*%
X61722000Y-105664000D03*
%TO.P,A1,25,A6*%
%TO.N,unconnected-(A1-A6-Pad25)*%
X64262000Y-105664000D03*
%TO.P,A1,26,A7*%
%TO.N,unconnected-(A1-A7-Pad26)*%
X66802000Y-105664000D03*
%TO.P,A1,27,+5V*%
%TO.N,+5V*%
X69342000Y-105664000D03*
%TO.P,A1,28,~{RESET}*%
%TO.N,unconnected-(A1-~{RESET}-Pad28)*%
X71882000Y-105664000D03*
%TO.P,A1,29,GND*%
%TO.N,unconnected-(A1-GND-Pad29)*%
X74422000Y-105664000D03*
%TO.P,A1,30,VIN*%
%TO.N,unconnected-(A1-VIN-Pad30)*%
X76962000Y-105664000D03*
%TD*%
D11*
%TO.P,J1,1,Pin_1*%
%TO.N,Net-(J1-Pin_1)*%
X38862000Y-162560000D03*
D10*
%TO.P,J1,2,Pin_2*%
%TO.N,Net-(J1-Pin_2)*%
X38862000Y-160020000D03*
%TO.P,J1,3,Pin_3*%
%TO.N,Net-(J1-Pin_3)*%
X38862000Y-157480000D03*
%TO.P,J1,4,Pin_4*%
%TO.N,Net-(J1-Pin_4)*%
X38862000Y-154940000D03*
%TO.P,J1,5,Pin_5*%
%TO.N,Net-(J1-Pin_5)*%
X38862000Y-152400000D03*
%TO.P,J1,8,Pin_8*%
%TO.N,Net-(J1-Pin_8)*%
X38862000Y-144780000D03*
%TO.P,J1,9,Pin_9*%
%TO.N,Net-(J1-Pin_9)*%
X38862000Y-142240000D03*
%TO.P,J1,10,Pin_10*%
%TO.N,Net-(J1-Pin_10)*%
X38862000Y-139700000D03*
%TO.P,J1,11,Pin_11*%
%TO.N,Net-(J1-Pin_11)*%
X38862000Y-137160000D03*
%TO.P,J1,12,Pin_12*%
%TO.N,Net-(J1-Pin_12)*%
X38862000Y-134620000D03*
%TO.P,J1,13,Pin_13*%
%TO.N,Net-(J1-Pin_13)*%
X38862000Y-132080000D03*
%TO.P,J1,16,Pin_16*%
%TO.N,Net-(J1-Pin_16)*%
X38862000Y-124460000D03*
%TO.P,J1,17,Pin_17*%
%TO.N,Net-(J1-Pin_17)*%
X38862000Y-121920000D03*
%TO.P,J1,18,Pin_18*%
%TO.N,Net-(J1-Pin_18)*%
X38862000Y-119380000D03*
%TO.P,J1,19,Pin_19*%
%TO.N,Net-(J1-Pin_19)*%
X38862000Y-116840000D03*
%TO.P,J1,20,Pin_20*%
%TO.N,Net-(J1-Pin_20)*%
X38862000Y-114300000D03*
%TO.P,J1,21,Pin_21*%
%TO.N,Net-(J1-Pin_21)*%
X38862000Y-111760000D03*
%TD*%
D14*
%TO.N,Net-(J4-Pin_3)*%
X75438000Y-153536000D03*
X80264000Y-148336000D03*
%TO.N,Net-(U1-RUN)*%
X73406000Y-155956000D03*
X78740000Y-148336000D03*
%TO.N,Net-(A1-D1{slash}TX)*%
X85050750Y-98337250D03*
X89154000Y-102440500D03*
%TD*%
D15*
%TO.N,Net-(A1-D5)*%
X71628000Y-102870000D02*
X82550000Y-102870000D01*
X82550000Y-102870000D02*
X89916000Y-110236000D01*
X89916000Y-110236000D02*
X89916000Y-150622000D01*
X89916000Y-150622000D02*
X88392000Y-152146000D01*
X59182000Y-90424000D02*
X71628000Y-102870000D01*
%TO.N,Net-(A1-D2)*%
X86619000Y-91674000D02*
X87884000Y-90409000D01*
X68052000Y-91674000D02*
X86619000Y-91674000D01*
X66802000Y-90424000D02*
X68052000Y-91674000D01*
%TO.N,+5V*%
X51054000Y-174498000D02*
X50514000Y-173958000D01*
D16*
X50514000Y-173958000D02*
X58134000Y-173958000D01*
X48514000Y-111506000D02*
X52356000Y-107664000D01*
X47382630Y-154178000D02*
X48514000Y-154178000D01*
X43434000Y-177038000D02*
X48514000Y-171958000D01*
X47382630Y-129286000D02*
X46514000Y-128417370D01*
X46514000Y-149753370D02*
X46514000Y-134553572D01*
X70612000Y-161480000D02*
X70612000Y-159766000D01*
X58134000Y-173958000D02*
X70612000Y-161480000D01*
X48514000Y-154178000D02*
X48514000Y-150622000D01*
X48006000Y-111506000D02*
X48514000Y-111506000D01*
X47382630Y-171958000D02*
X46514000Y-171089370D01*
X52356000Y-107664000D02*
X68710428Y-107664000D01*
X43434000Y-178816000D02*
X43434000Y-177038000D01*
X46514000Y-128417370D02*
X46514000Y-112998000D01*
X68710428Y-107664000D02*
X69342000Y-107032428D01*
X46514000Y-155046630D02*
X47382630Y-154178000D01*
X48514000Y-129286000D02*
X47382630Y-129286000D01*
X48225572Y-132842000D02*
X48514000Y-132842000D01*
X48514000Y-150622000D02*
X47382630Y-150622000D01*
X46514000Y-112998000D02*
X48006000Y-111506000D01*
D15*
X51054000Y-178308000D02*
X51054000Y-174498000D01*
D16*
X69342000Y-107032428D02*
X69342000Y-105664000D01*
X46514000Y-171089370D02*
X46514000Y-155046630D01*
X48514000Y-132842000D02*
X48514000Y-129286000D01*
X40894000Y-178816000D02*
X43434000Y-178816000D01*
X48514000Y-171958000D02*
X50514000Y-173958000D01*
X46514000Y-134553572D02*
X48225572Y-132842000D01*
X48514000Y-171958000D02*
X47382630Y-171958000D01*
X47382630Y-150622000D02*
X46514000Y-149753370D01*
D15*
%TO.N,Net-(A1-D3)*%
X66787000Y-92949000D02*
X64262000Y-90424000D01*
X87884000Y-92949000D02*
X66787000Y-92949000D01*
%TO.N,Net-(A1-D4)*%
X61722000Y-90424000D02*
X66787000Y-95489000D01*
X66787000Y-95489000D02*
X87884000Y-95489000D01*
%TO.N,Net-(J4-Pin_3)*%
X80264000Y-148710000D02*
X80264000Y-148336000D01*
X75438000Y-153536000D02*
X80264000Y-148710000D01*
%TO.N,Net-(U1-RUN)*%
X78740000Y-148590000D02*
X78740000Y-148336000D01*
X73406000Y-155956000D02*
X73406000Y-153924000D01*
X73406000Y-153924000D02*
X78740000Y-148590000D01*
D17*
%TO.N,/BURNER_9*%
X88392000Y-136906000D02*
X71762000Y-153536000D01*
X69476000Y-153536000D02*
X56134000Y-166878000D01*
X71762000Y-153536000D02*
X69476000Y-153536000D01*
%TO.N,/BURNER_7*%
X56134000Y-143002000D02*
X68460000Y-130676000D01*
X71762000Y-130676000D02*
X88392000Y-114046000D01*
X68460000Y-130676000D02*
X71762000Y-130676000D01*
%TO.N,/BURNER_1*%
X56134000Y-164338000D02*
X69716000Y-150756000D01*
X69716000Y-150756000D02*
X72002000Y-150756000D01*
X72002000Y-150756000D02*
X88392000Y-134366000D01*
%TO.N,/BURNER_4*%
X87242000Y-127642000D02*
X87242000Y-125356000D01*
X69596000Y-143256000D02*
X71628000Y-143256000D01*
X71628000Y-143256000D02*
X87242000Y-127642000D01*
X87242000Y-125356000D02*
X88392000Y-124206000D01*
X56134000Y-156718000D02*
X69596000Y-143256000D01*
%TO.N,/BURNER_5*%
X74302000Y-135756000D02*
X88392000Y-121666000D01*
X68460000Y-135756000D02*
X74302000Y-135756000D01*
X56134000Y-148082000D02*
X68460000Y-135756000D01*
%TO.N,/BURNER_8*%
X68700000Y-127896000D02*
X72002000Y-127896000D01*
X56134000Y-140462000D02*
X68700000Y-127896000D01*
X72002000Y-127896000D02*
X88392000Y-111506000D01*
%TO.N,/BURNER_3*%
X72028000Y-143421685D02*
X88392000Y-127057685D01*
X56134000Y-159258000D02*
X69716000Y-145676000D01*
X71088346Y-145676000D02*
X72028000Y-144736346D01*
X69716000Y-145676000D02*
X71088346Y-145676000D01*
X88392000Y-127057685D02*
X88392000Y-126746000D01*
X72028000Y-144736346D02*
X72028000Y-143421685D01*
%TO.N,/BURNER_2*%
X56134000Y-161798000D02*
X69716000Y-148216000D01*
X72002000Y-148216000D02*
X88392000Y-131826000D01*
X69716000Y-148216000D02*
X72002000Y-148216000D01*
%TO.N,/BURNER_6*%
X56134000Y-145542000D02*
X68580000Y-133096000D01*
X74422000Y-133096000D02*
X88392000Y-119126000D01*
X68580000Y-133096000D02*
X74422000Y-133096000D01*
D15*
%TO.N,Net-(A1-D1{slash}TX)*%
X85129250Y-98337250D02*
X89154000Y-102362000D01*
X89154000Y-102362000D02*
X89154000Y-102440500D01*
X85050750Y-98337250D02*
X85129250Y-98337250D01*
%TD*%
%TA.AperFunction,Conductor*%
%TO.N,GND*%
G36*
X94531915Y-84843666D02*
G01*
X94574879Y-84867126D01*
X94589749Y-84876682D01*
X94803998Y-85037068D01*
X94817368Y-85048654D01*
X95006599Y-85237885D01*
X95018185Y-85251256D01*
X95178567Y-85465501D01*
X95188131Y-85480382D01*
X95242333Y-85579644D01*
X95257500Y-85639069D01*
X95257500Y-159922689D01*
X95242332Y-159982116D01*
X95188132Y-160081376D01*
X95178567Y-160096260D01*
X95018185Y-160310504D01*
X95006599Y-160323874D01*
X94817368Y-160513105D01*
X94803998Y-160524691D01*
X94589754Y-160685073D01*
X94574870Y-160694638D01*
X94428922Y-160774332D01*
X94369495Y-160789500D01*
X89562196Y-160789500D01*
X89495157Y-160769815D01*
X89449402Y-160717011D01*
X89439458Y-160647853D01*
X89460621Y-160594376D01*
X89566035Y-160443830D01*
X89665903Y-160229663D01*
X89727063Y-160001408D01*
X89747659Y-159766000D01*
X89727063Y-159530592D01*
X89665903Y-159302337D01*
X89566035Y-159088171D01*
X89526220Y-159031308D01*
X89430494Y-158894597D01*
X89263402Y-158727506D01*
X89263396Y-158727501D01*
X89077842Y-158597575D01*
X89034217Y-158542998D01*
X89027023Y-158473500D01*
X89058546Y-158411145D01*
X89077842Y-158394425D01*
X89209628Y-158302147D01*
X89263401Y-158264495D01*
X89430495Y-158097401D01*
X89566035Y-157903830D01*
X89665903Y-157689663D01*
X89727063Y-157461408D01*
X89747659Y-157226000D01*
X89727063Y-156990592D01*
X89665903Y-156762337D01*
X89566035Y-156548171D01*
X89526220Y-156491308D01*
X89430494Y-156354597D01*
X89263402Y-156187506D01*
X89263395Y-156187501D01*
X89069834Y-156051967D01*
X89069830Y-156051965D01*
X89069828Y-156051964D01*
X88855663Y-155952097D01*
X88855659Y-155952096D01*
X88855655Y-155952094D01*
X88627413Y-155890938D01*
X88627403Y-155890936D01*
X88392001Y-155870341D01*
X88391999Y-155870341D01*
X88156596Y-155890936D01*
X88156586Y-155890938D01*
X87928344Y-155952094D01*
X87928335Y-155952098D01*
X87714171Y-156051964D01*
X87714169Y-156051965D01*
X87520597Y-156187505D01*
X87353505Y-156354597D01*
X87217965Y-156548169D01*
X87217964Y-156548171D01*
X87118098Y-156762335D01*
X87118094Y-156762344D01*
X87056938Y-156990586D01*
X87056936Y-156990596D01*
X87036341Y-157225999D01*
X87036341Y-157226000D01*
X87056936Y-157461403D01*
X87056938Y-157461413D01*
X87118094Y-157689655D01*
X87118096Y-157689659D01*
X87118097Y-157689663D01*
X87217965Y-157903830D01*
X87217967Y-157903834D01*
X87296984Y-158016681D01*
X87353505Y-158097401D01*
X87520599Y-158264495D01*
X87520601Y-158264496D01*
X87520603Y-158264498D01*
X87706158Y-158394425D01*
X87749783Y-158449002D01*
X87756977Y-158518500D01*
X87725454Y-158580855D01*
X87706158Y-158597575D01*
X87520597Y-158727505D01*
X87353505Y-158894597D01*
X87217965Y-159088169D01*
X87217964Y-159088171D01*
X87118098Y-159302335D01*
X87118094Y-159302344D01*
X87056938Y-159530586D01*
X87056936Y-159530596D01*
X87036341Y-159765999D01*
X87036341Y-159766000D01*
X87056936Y-160001403D01*
X87056938Y-160001413D01*
X87118094Y-160229655D01*
X87118096Y-160229659D01*
X87118097Y-160229663D01*
X87217965Y-160443830D01*
X87323379Y-160594376D01*
X87345706Y-160660583D01*
X87328696Y-160728350D01*
X87277748Y-160776163D01*
X87221804Y-160789500D01*
X83351387Y-160789500D01*
X83284348Y-160769815D01*
X83238593Y-160717011D01*
X83228649Y-160647853D01*
X83257674Y-160584297D01*
X83260127Y-160581550D01*
X83335979Y-160499153D01*
X83462924Y-160304849D01*
X83556157Y-160092300D01*
X83613134Y-159867305D01*
X83613135Y-159867297D01*
X83632300Y-159636006D01*
X83632300Y-159635993D01*
X83613135Y-159404702D01*
X83613133Y-159404691D01*
X83556157Y-159179699D01*
X83462924Y-158967151D01*
X83335983Y-158772852D01*
X83335980Y-158772849D01*
X83335979Y-158772847D01*
X83178784Y-158602087D01*
X83178779Y-158602083D01*
X83178777Y-158602081D01*
X82995634Y-158459535D01*
X82995628Y-158459531D01*
X82791504Y-158349064D01*
X82791495Y-158349061D01*
X82571984Y-158273702D01*
X82400282Y-158245050D01*
X82343049Y-158235500D01*
X82110951Y-158235500D01*
X82065164Y-158243140D01*
X81882015Y-158273702D01*
X81662504Y-158349061D01*
X81662495Y-158349064D01*
X81458371Y-158459531D01*
X81458365Y-158459535D01*
X81275222Y-158602081D01*
X81275219Y-158602084D01*
X81275216Y-158602086D01*
X81275216Y-158602087D01*
X81272290Y-158605266D01*
X81118016Y-158772852D01*
X80991075Y-158967151D01*
X80897842Y-159179699D01*
X80840866Y-159404691D01*
X80840864Y-159404702D01*
X80821700Y-159635993D01*
X80821700Y-159636006D01*
X80840864Y-159867297D01*
X80840866Y-159867308D01*
X80897842Y-160092300D01*
X80991075Y-160304848D01*
X81118016Y-160499147D01*
X81118019Y-160499151D01*
X81118021Y-160499153D01*
X81193844Y-160581519D01*
X81224765Y-160644172D01*
X81216905Y-160713598D01*
X81172757Y-160767753D01*
X81106340Y-160789444D01*
X81102613Y-160789500D01*
X77901387Y-160789500D01*
X77834348Y-160769815D01*
X77788593Y-160717011D01*
X77778649Y-160647853D01*
X77807674Y-160584297D01*
X77810127Y-160581550D01*
X77885979Y-160499153D01*
X78012924Y-160304849D01*
X78106157Y-160092300D01*
X78163134Y-159867305D01*
X78163135Y-159867297D01*
X78182300Y-159636006D01*
X78182300Y-159635993D01*
X78163135Y-159404702D01*
X78163133Y-159404691D01*
X78106157Y-159179699D01*
X78012924Y-158967151D01*
X77885983Y-158772852D01*
X77885980Y-158772849D01*
X77885979Y-158772847D01*
X77728784Y-158602087D01*
X77728779Y-158602083D01*
X77728777Y-158602081D01*
X77545634Y-158459535D01*
X77545628Y-158459531D01*
X77341504Y-158349064D01*
X77341495Y-158349061D01*
X77121984Y-158273702D01*
X76950282Y-158245050D01*
X76893049Y-158235500D01*
X76660951Y-158235500D01*
X76615164Y-158243140D01*
X76432015Y-158273702D01*
X76212504Y-158349061D01*
X76212495Y-158349064D01*
X76008371Y-158459531D01*
X76008365Y-158459535D01*
X75825222Y-158602081D01*
X75825219Y-158602084D01*
X75825216Y-158602086D01*
X75825216Y-158602087D01*
X75822290Y-158605266D01*
X75668016Y-158772852D01*
X75541075Y-158967151D01*
X75447842Y-159179699D01*
X75390866Y-159404691D01*
X75390864Y-159404702D01*
X75371700Y-159635993D01*
X75371700Y-159636006D01*
X75390864Y-159867297D01*
X75390866Y-159867308D01*
X75447842Y-160092300D01*
X75541075Y-160304848D01*
X75668016Y-160499147D01*
X75668019Y-160499151D01*
X75668021Y-160499153D01*
X75743844Y-160581519D01*
X75774765Y-160644172D01*
X75766905Y-160713598D01*
X75722757Y-160767753D01*
X75656340Y-160789444D01*
X75652613Y-160789500D01*
X72832108Y-160789500D01*
X72704812Y-160823608D01*
X72590686Y-160889500D01*
X72590683Y-160889502D01*
X72324181Y-161156005D01*
X72262858Y-161189490D01*
X72193166Y-161184506D01*
X72137233Y-161142634D01*
X72112816Y-161077170D01*
X72112500Y-161068324D01*
X72112500Y-159647902D01*
X72075553Y-159414631D01*
X72002566Y-159190003D01*
X71921703Y-159031302D01*
X71895343Y-158979567D01*
X71756517Y-158788490D01*
X71589510Y-158621483D01*
X71427863Y-158504039D01*
X71385199Y-158448710D01*
X71379220Y-158379096D01*
X71411826Y-158317301D01*
X71429619Y-158302153D01*
X71483401Y-158264495D01*
X71650495Y-158097401D01*
X71786035Y-157903830D01*
X71885903Y-157689663D01*
X71947063Y-157461408D01*
X71967659Y-157226000D01*
X71947063Y-156990592D01*
X71885903Y-156762337D01*
X71786035Y-156548171D01*
X71746220Y-156491308D01*
X71650494Y-156354597D01*
X71483402Y-156187506D01*
X71483395Y-156187501D01*
X71289834Y-156051967D01*
X71289830Y-156051965D01*
X71289828Y-156051964D01*
X71075663Y-155952097D01*
X71075659Y-155952096D01*
X71075655Y-155952094D01*
X70847413Y-155890938D01*
X70847403Y-155890936D01*
X70612001Y-155870341D01*
X70611999Y-155870341D01*
X70376596Y-155890936D01*
X70376586Y-155890938D01*
X70148344Y-155952094D01*
X70148335Y-155952098D01*
X69934171Y-156051964D01*
X69934169Y-156051965D01*
X69740597Y-156187505D01*
X69573505Y-156354597D01*
X69437965Y-156548169D01*
X69437964Y-156548171D01*
X69338098Y-156762335D01*
X69338094Y-156762344D01*
X69276938Y-156990586D01*
X69276936Y-156990596D01*
X69256341Y-157225999D01*
X69256341Y-157226000D01*
X69276936Y-157461403D01*
X69276938Y-157461413D01*
X69338094Y-157689655D01*
X69338096Y-157689659D01*
X69338097Y-157689663D01*
X69437965Y-157903830D01*
X69437967Y-157903834D01*
X69516984Y-158016681D01*
X69573505Y-158097401D01*
X69740599Y-158264495D01*
X69794370Y-158302146D01*
X69794372Y-158302147D01*
X69837997Y-158356723D01*
X69845191Y-158426222D01*
X69813669Y-158488576D01*
X69796135Y-158504040D01*
X69634488Y-158621484D01*
X69467485Y-158788487D01*
X69467485Y-158788488D01*
X69467483Y-158788490D01*
X69433797Y-158834855D01*
X69328657Y-158979566D01*
X69221433Y-159190003D01*
X69148446Y-159414631D01*
X69111500Y-159647902D01*
X69111500Y-160807111D01*
X69091815Y-160874150D01*
X69075181Y-160894792D01*
X57646180Y-172323792D01*
X57584857Y-172357277D01*
X57515165Y-172352293D01*
X57459232Y-172310421D01*
X57434815Y-172244957D01*
X57434499Y-172236134D01*
X57434499Y-171110128D01*
X57428091Y-171050517D01*
X57377796Y-170915669D01*
X57377795Y-170915668D01*
X57377793Y-170915664D01*
X57291547Y-170800455D01*
X57291544Y-170800452D01*
X57176335Y-170714206D01*
X57176328Y-170714202D01*
X57041482Y-170663908D01*
X57041483Y-170663908D01*
X57006404Y-170660137D01*
X56941853Y-170633399D01*
X56902005Y-170576006D01*
X56899512Y-170506181D01*
X56935165Y-170446092D01*
X56948539Y-170435272D01*
X56973140Y-170418046D01*
X57134045Y-170257141D01*
X57134047Y-170257139D01*
X57264568Y-170070734D01*
X57360739Y-169864496D01*
X57419635Y-169644692D01*
X57439468Y-169418000D01*
X57419635Y-169191308D01*
X57360739Y-168971504D01*
X57264568Y-168765266D01*
X57134047Y-168578861D01*
X57134045Y-168578858D01*
X56973141Y-168417954D01*
X56786734Y-168287432D01*
X56786728Y-168287429D01*
X56728725Y-168260382D01*
X56676285Y-168214210D01*
X56657133Y-168147017D01*
X56677348Y-168080135D01*
X56728725Y-168035618D01*
X56786734Y-168008568D01*
X56973139Y-167878047D01*
X57134047Y-167717139D01*
X57264568Y-167530734D01*
X57360739Y-167324496D01*
X57419635Y-167104692D01*
X57439468Y-166878000D01*
X57419635Y-166651308D01*
X57393847Y-166555066D01*
X57395510Y-166485217D01*
X57425939Y-166435294D01*
X69688416Y-154172819D01*
X69749739Y-154139334D01*
X69776097Y-154136500D01*
X71675331Y-154136500D01*
X71675347Y-154136501D01*
X71682943Y-154136501D01*
X71841054Y-154136501D01*
X71841057Y-154136501D01*
X71993785Y-154095577D01*
X72055565Y-154059908D01*
X72130716Y-154016520D01*
X72242520Y-153904716D01*
X72242520Y-153904714D01*
X72252724Y-153894511D01*
X72252728Y-153894506D01*
X72455434Y-153691799D01*
X72516755Y-153658316D01*
X72586447Y-153663300D01*
X72642380Y-153705172D01*
X72666797Y-153770636D01*
X72664731Y-153803672D01*
X72655500Y-153850082D01*
X72655500Y-155656028D01*
X72648542Y-155696982D01*
X72620631Y-155776747D01*
X72600435Y-155955996D01*
X72600435Y-155956003D01*
X72620630Y-156135249D01*
X72620631Y-156135254D01*
X72680211Y-156305523D01*
X72711048Y-156354599D01*
X72776184Y-156458262D01*
X72903738Y-156585816D01*
X73056478Y-156681789D01*
X73159963Y-156718000D01*
X73226745Y-156741368D01*
X73226750Y-156741369D01*
X73405996Y-156761565D01*
X73406000Y-156761565D01*
X73406004Y-156761565D01*
X73585249Y-156741369D01*
X73585252Y-156741368D01*
X73585255Y-156741368D01*
X73755522Y-156681789D01*
X73876144Y-156605997D01*
X75821723Y-156605997D01*
X75821723Y-156606002D01*
X75840793Y-156823975D01*
X75840793Y-156823979D01*
X75897422Y-157035322D01*
X75897424Y-157035326D01*
X75897425Y-157035330D01*
X75943661Y-157134484D01*
X75989897Y-157233638D01*
X75989898Y-157233639D01*
X76115402Y-157412877D01*
X76270123Y-157567598D01*
X76449361Y-157693102D01*
X76647670Y-157785575D01*
X76859023Y-157842207D01*
X77041926Y-157858208D01*
X77076998Y-157861277D01*
X77077000Y-157861277D01*
X77077002Y-157861277D01*
X77105254Y-157858805D01*
X77294977Y-157842207D01*
X77506330Y-157785575D01*
X77704639Y-157693102D01*
X77883877Y-157567598D01*
X78038598Y-157412877D01*
X78164102Y-157233639D01*
X78256575Y-157035330D01*
X78313207Y-156823977D01*
X78332277Y-156606000D01*
X78332277Y-156605997D01*
X80671723Y-156605997D01*
X80671723Y-156606002D01*
X80690793Y-156823975D01*
X80690793Y-156823979D01*
X80747422Y-157035322D01*
X80747424Y-157035326D01*
X80747425Y-157035330D01*
X80793661Y-157134484D01*
X80839897Y-157233638D01*
X80839898Y-157233639D01*
X80965402Y-157412877D01*
X81120123Y-157567598D01*
X81299361Y-157693102D01*
X81497670Y-157785575D01*
X81709023Y-157842207D01*
X81891926Y-157858208D01*
X81926998Y-157861277D01*
X81927000Y-157861277D01*
X81927002Y-157861277D01*
X81955254Y-157858805D01*
X82144977Y-157842207D01*
X82356330Y-157785575D01*
X82554639Y-157693102D01*
X82733877Y-157567598D01*
X82888598Y-157412877D01*
X83014102Y-157233639D01*
X83106575Y-157035330D01*
X83163207Y-156823977D01*
X83182277Y-156606000D01*
X83163207Y-156388023D01*
X83106575Y-156176670D01*
X83014102Y-155978362D01*
X83014100Y-155978359D01*
X83014099Y-155978357D01*
X82888599Y-155799124D01*
X82866220Y-155776745D01*
X82733877Y-155644402D01*
X82554639Y-155518898D01*
X82554640Y-155518898D01*
X82554638Y-155518897D01*
X82438327Y-155464661D01*
X82356330Y-155426425D01*
X82356326Y-155426424D01*
X82356322Y-155426422D01*
X82144977Y-155369793D01*
X81927002Y-155350723D01*
X81926998Y-155350723D01*
X81781682Y-155363436D01*
X81709023Y-155369793D01*
X81709020Y-155369793D01*
X81497677Y-155426422D01*
X81497668Y-155426426D01*
X81299361Y-155518898D01*
X81299357Y-155518900D01*
X81120121Y-155644402D01*
X80965402Y-155799121D01*
X80839900Y-155978357D01*
X80839898Y-155978361D01*
X80747426Y-156176668D01*
X80747422Y-156176677D01*
X80690793Y-156388020D01*
X80690793Y-156388024D01*
X80671723Y-156605997D01*
X78332277Y-156605997D01*
X78313207Y-156388023D01*
X78256575Y-156176670D01*
X78164102Y-155978362D01*
X78164100Y-155978359D01*
X78164099Y-155978357D01*
X78038599Y-155799124D01*
X78016220Y-155776745D01*
X77883877Y-155644402D01*
X77704639Y-155518898D01*
X77704640Y-155518898D01*
X77704638Y-155518897D01*
X77588327Y-155464661D01*
X77506330Y-155426425D01*
X77506326Y-155426424D01*
X77506322Y-155426422D01*
X77294977Y-155369793D01*
X77077002Y-155350723D01*
X77076998Y-155350723D01*
X76931682Y-155363436D01*
X76859023Y-155369793D01*
X76859020Y-155369793D01*
X76647677Y-155426422D01*
X76647668Y-155426426D01*
X76449361Y-155518898D01*
X76449357Y-155518900D01*
X76270121Y-155644402D01*
X76115402Y-155799121D01*
X75989900Y-155978357D01*
X75989898Y-155978361D01*
X75897426Y-156176668D01*
X75897422Y-156176677D01*
X75840793Y-156388020D01*
X75840793Y-156388024D01*
X75821723Y-156605997D01*
X73876144Y-156605997D01*
X73908262Y-156585816D01*
X74035816Y-156458262D01*
X74131789Y-156305522D01*
X74191368Y-156135255D01*
X74199254Y-156065265D01*
X74211565Y-155956003D01*
X74211565Y-155955996D01*
X74191368Y-155776747D01*
X74191368Y-155776745D01*
X74163458Y-155696982D01*
X74156500Y-155656028D01*
X74156500Y-154286229D01*
X74176185Y-154219190D01*
X74192819Y-154198548D01*
X74353107Y-154038260D01*
X74522631Y-153868735D01*
X74583952Y-153835252D01*
X74653643Y-153840236D01*
X74709577Y-153882107D01*
X74715303Y-153890445D01*
X74808182Y-154038260D01*
X74808184Y-154038262D01*
X74935738Y-154165816D01*
X74987831Y-154198548D01*
X75085942Y-154260196D01*
X75088478Y-154261789D01*
X75186525Y-154296097D01*
X75258745Y-154321368D01*
X75258750Y-154321369D01*
X75437996Y-154341565D01*
X75438000Y-154341565D01*
X75438004Y-154341565D01*
X75617249Y-154321369D01*
X75617252Y-154321368D01*
X75617255Y-154321368D01*
X75787522Y-154261789D01*
X75940262Y-154165816D01*
X76067816Y-154038262D01*
X76163789Y-153885522D01*
X76163790Y-153885520D01*
X76166812Y-153879245D01*
X76168652Y-153880131D01*
X76191307Y-153844058D01*
X80846952Y-149188415D01*
X80878256Y-149141565D01*
X80929084Y-149065495D01*
X80963462Y-148982500D01*
X80985659Y-148928912D01*
X81014500Y-148783917D01*
X81014500Y-148636082D01*
X81014500Y-148635972D01*
X81021458Y-148595017D01*
X81049368Y-148515255D01*
X81051205Y-148498953D01*
X81069565Y-148336003D01*
X81069565Y-148335996D01*
X81049369Y-148156750D01*
X81049368Y-148156745D01*
X81023214Y-148082001D01*
X80989789Y-147986478D01*
X80958952Y-147937402D01*
X80907366Y-147855303D01*
X80893816Y-147833738D01*
X80766262Y-147706184D01*
X80613523Y-147610211D01*
X80443254Y-147550631D01*
X80443249Y-147550630D01*
X80264004Y-147530435D01*
X80263996Y-147530435D01*
X80084750Y-147550630D01*
X80084745Y-147550631D01*
X79914476Y-147610211D01*
X79761737Y-147706184D01*
X79634184Y-147833737D01*
X79634182Y-147833740D01*
X79606993Y-147877011D01*
X79554658Y-147923302D01*
X79485605Y-147933949D01*
X79421756Y-147905574D01*
X79397007Y-147877011D01*
X79369817Y-147833740D01*
X79369815Y-147833737D01*
X79242262Y-147706184D01*
X79089523Y-147610211D01*
X78919254Y-147550631D01*
X78919249Y-147550630D01*
X78885144Y-147546788D01*
X78820730Y-147519722D01*
X78781174Y-147462127D01*
X78779037Y-147392290D01*
X78811344Y-147335889D01*
X86827570Y-139319664D01*
X86888891Y-139286181D01*
X86958583Y-139291165D01*
X87014516Y-139333037D01*
X87038933Y-139398501D01*
X87038777Y-139418154D01*
X87036341Y-139445997D01*
X87036341Y-139446000D01*
X87056936Y-139681403D01*
X87056938Y-139681413D01*
X87118094Y-139909655D01*
X87118096Y-139909659D01*
X87118097Y-139909663D01*
X87217965Y-140123830D01*
X87217967Y-140123834D01*
X87296019Y-140235303D01*
X87353505Y-140317401D01*
X87520599Y-140484495D01*
X87593946Y-140535853D01*
X87714165Y-140620032D01*
X87714167Y-140620033D01*
X87714170Y-140620035D01*
X87928337Y-140719903D01*
X88156592Y-140781063D01*
X88344918Y-140797539D01*
X88391999Y-140801659D01*
X88392000Y-140801659D01*
X88392001Y-140801659D01*
X88431234Y-140798226D01*
X88627408Y-140781063D01*
X88855663Y-140719903D01*
X88989096Y-140657681D01*
X89058172Y-140647190D01*
X89121956Y-140675710D01*
X89160196Y-140734186D01*
X89165500Y-140770064D01*
X89165500Y-143201935D01*
X89145815Y-143268974D01*
X89093011Y-143314729D01*
X89023853Y-143324673D01*
X88989096Y-143314317D01*
X88855669Y-143252099D01*
X88855655Y-143252094D01*
X88627413Y-143190938D01*
X88627403Y-143190936D01*
X88392001Y-143170341D01*
X88391999Y-143170341D01*
X88156596Y-143190936D01*
X88156586Y-143190938D01*
X87928344Y-143252094D01*
X87928335Y-143252098D01*
X87714171Y-143351964D01*
X87714169Y-143351965D01*
X87520597Y-143487505D01*
X87353505Y-143654597D01*
X87217965Y-143848169D01*
X87217964Y-143848171D01*
X87118098Y-144062335D01*
X87118094Y-144062344D01*
X87056938Y-144290586D01*
X87056936Y-144290596D01*
X87036341Y-144525999D01*
X87036341Y-144526000D01*
X87056936Y-144761403D01*
X87056938Y-144761413D01*
X87118094Y-144989655D01*
X87118096Y-144989659D01*
X87118097Y-144989663D01*
X87195662Y-145156002D01*
X87217965Y-145203830D01*
X87217967Y-145203834D01*
X87353501Y-145397395D01*
X87353506Y-145397402D01*
X87520597Y-145564493D01*
X87520603Y-145564498D01*
X87706158Y-145694425D01*
X87749783Y-145749002D01*
X87756977Y-145818500D01*
X87725454Y-145880855D01*
X87706158Y-145897575D01*
X87520597Y-146027505D01*
X87353505Y-146194597D01*
X87217965Y-146388169D01*
X87217964Y-146388171D01*
X87118098Y-146602335D01*
X87118094Y-146602344D01*
X87056938Y-146830586D01*
X87056936Y-146830596D01*
X87036341Y-147065999D01*
X87036341Y-147066000D01*
X87056936Y-147301403D01*
X87056938Y-147301413D01*
X87118094Y-147529655D01*
X87118096Y-147529659D01*
X87118097Y-147529663D01*
X87195662Y-147696002D01*
X87217965Y-147743830D01*
X87217967Y-147743834D01*
X87296019Y-147855303D01*
X87331219Y-147905574D01*
X87353501Y-147937395D01*
X87353506Y-147937402D01*
X87520597Y-148104493D01*
X87520603Y-148104498D01*
X87706158Y-148234425D01*
X87749783Y-148289002D01*
X87756977Y-148358500D01*
X87725454Y-148420855D01*
X87706158Y-148437575D01*
X87520597Y-148567505D01*
X87353505Y-148734597D01*
X87217965Y-148928169D01*
X87217964Y-148928171D01*
X87153929Y-149065495D01*
X87118458Y-149141564D01*
X87118098Y-149142335D01*
X87118094Y-149142344D01*
X87056938Y-149370586D01*
X87056936Y-149370596D01*
X87036341Y-149605999D01*
X87036341Y-149606000D01*
X87056936Y-149841403D01*
X87056938Y-149841413D01*
X87118094Y-150069655D01*
X87118096Y-150069659D01*
X87118097Y-150069663D01*
X87118100Y-150069669D01*
X87217965Y-150283830D01*
X87217967Y-150283834D01*
X87353501Y-150477395D01*
X87353506Y-150477402D01*
X87520597Y-150644493D01*
X87520603Y-150644498D01*
X87706158Y-150774425D01*
X87749783Y-150829002D01*
X87756977Y-150898500D01*
X87725454Y-150960855D01*
X87706158Y-150977575D01*
X87520597Y-151107505D01*
X87353505Y-151274597D01*
X87217965Y-151468169D01*
X87217964Y-151468171D01*
X87118098Y-151682335D01*
X87118094Y-151682344D01*
X87056938Y-151910586D01*
X87056936Y-151910596D01*
X87036341Y-152145999D01*
X87036341Y-152146000D01*
X87056936Y-152381403D01*
X87056938Y-152381413D01*
X87118094Y-152609655D01*
X87118096Y-152609659D01*
X87118097Y-152609663D01*
X87182632Y-152748058D01*
X87217965Y-152823830D01*
X87217967Y-152823834D01*
X87279881Y-152912255D01*
X87353505Y-153017401D01*
X87520599Y-153184495D01*
X87617384Y-153252265D01*
X87714165Y-153320032D01*
X87714167Y-153320033D01*
X87714170Y-153320035D01*
X87928337Y-153419903D01*
X88156592Y-153481063D01*
X88344918Y-153497539D01*
X88391999Y-153501659D01*
X88392000Y-153501659D01*
X88392001Y-153501659D01*
X88431234Y-153498226D01*
X88627408Y-153481063D01*
X88855663Y-153419903D01*
X89069830Y-153320035D01*
X89263401Y-153184495D01*
X89430495Y-153017401D01*
X89566035Y-152823830D01*
X89665903Y-152609663D01*
X89727063Y-152381408D01*
X89747659Y-152146000D01*
X89729022Y-151932984D01*
X89742788Y-151864485D01*
X89764866Y-151834500D01*
X90498951Y-151100416D01*
X90581084Y-150977495D01*
X90587977Y-150960855D01*
X90613805Y-150898500D01*
X90637658Y-150840913D01*
X90637658Y-150840910D01*
X90637660Y-150840906D01*
X90643621Y-150810938D01*
X90643621Y-150810937D01*
X90666500Y-150695920D01*
X90666500Y-110162079D01*
X90637659Y-110017092D01*
X90637658Y-110017091D01*
X90637658Y-110017087D01*
X90634571Y-110009635D01*
X90581087Y-109880511D01*
X90581080Y-109880498D01*
X90498952Y-109757585D01*
X90498951Y-109757584D01*
X90394416Y-109653049D01*
X88560228Y-107818861D01*
X83028421Y-102287052D01*
X83028414Y-102287046D01*
X82954729Y-102237812D01*
X82954729Y-102237813D01*
X82905491Y-102204913D01*
X82768917Y-102148343D01*
X82768907Y-102148340D01*
X82623920Y-102119500D01*
X82623918Y-102119500D01*
X71990230Y-102119500D01*
X71923191Y-102099815D01*
X71902549Y-102083181D01*
X68156614Y-98337246D01*
X84245185Y-98337246D01*
X84245185Y-98337253D01*
X84265380Y-98516499D01*
X84265381Y-98516504D01*
X84324961Y-98686773D01*
X84420934Y-98839512D01*
X84548488Y-98967066D01*
X84701228Y-99063039D01*
X84816716Y-99103449D01*
X84863442Y-99132810D01*
X88358439Y-102627807D01*
X88387799Y-102674533D01*
X88428211Y-102790022D01*
X88524184Y-102942762D01*
X88651738Y-103070316D01*
X88804478Y-103166289D01*
X88974745Y-103225868D01*
X88974750Y-103225869D01*
X89153996Y-103246065D01*
X89154000Y-103246065D01*
X89154004Y-103246065D01*
X89333249Y-103225869D01*
X89333252Y-103225868D01*
X89333255Y-103225868D01*
X89503522Y-103166289D01*
X89656262Y-103070316D01*
X89783816Y-102942762D01*
X89879789Y-102790022D01*
X89939368Y-102619755D01*
X89959565Y-102440500D01*
X89942275Y-102287048D01*
X89939369Y-102261250D01*
X89939368Y-102261245D01*
X89919658Y-102204916D01*
X89879789Y-102090978D01*
X89783816Y-101938238D01*
X89761274Y-101915696D01*
X89745850Y-101896901D01*
X89736955Y-101883587D01*
X89736952Y-101883584D01*
X85607671Y-97754302D01*
X85607669Y-97754300D01*
X85594340Y-97745394D01*
X85575552Y-97729974D01*
X85553012Y-97707434D01*
X85400273Y-97611461D01*
X85230004Y-97551881D01*
X85229999Y-97551880D01*
X85050754Y-97531685D01*
X85050746Y-97531685D01*
X84871500Y-97551880D01*
X84871495Y-97551881D01*
X84701226Y-97611461D01*
X84548487Y-97707434D01*
X84420934Y-97834987D01*
X84324961Y-97987726D01*
X84265381Y-98157995D01*
X84265380Y-98158000D01*
X84245185Y-98337246D01*
X68156614Y-98337246D01*
X61750799Y-91931431D01*
X61717314Y-91870108D01*
X61722298Y-91800416D01*
X61764170Y-91744483D01*
X61827670Y-91720222D01*
X61888861Y-91714869D01*
X61957360Y-91728636D01*
X61987348Y-91750716D01*
X66308586Y-96071954D01*
X66347086Y-96097678D01*
X66366338Y-96110541D01*
X66431505Y-96154084D01*
X66431506Y-96154084D01*
X66431507Y-96154085D01*
X66488079Y-96177518D01*
X66488080Y-96177518D01*
X66568088Y-96210659D01*
X66684241Y-96233763D01*
X66703468Y-96237587D01*
X66713081Y-96239500D01*
X66713082Y-96239500D01*
X66713083Y-96239500D01*
X66860918Y-96239500D01*
X86409501Y-96239500D01*
X86476540Y-96259185D01*
X86522295Y-96311989D01*
X86533501Y-96363500D01*
X86533501Y-96386876D01*
X86539908Y-96446483D01*
X86590202Y-96581328D01*
X86590206Y-96581335D01*
X86676452Y-96696544D01*
X86676455Y-96696547D01*
X86791664Y-96782793D01*
X86791671Y-96782797D01*
X86926517Y-96833091D01*
X86926516Y-96833091D01*
X86933444Y-96833835D01*
X86986127Y-96839500D01*
X88781872Y-96839499D01*
X88841483Y-96833091D01*
X88976331Y-96782796D01*
X89091546Y-96696546D01*
X89177796Y-96581331D01*
X89228091Y-96446483D01*
X89234500Y-96386873D01*
X89234499Y-95114135D01*
X91867500Y-95114135D01*
X91867500Y-96909870D01*
X91867501Y-96909876D01*
X91873908Y-96969483D01*
X91924202Y-97104328D01*
X91924206Y-97104335D01*
X92010452Y-97219544D01*
X92010455Y-97219547D01*
X92125664Y-97305793D01*
X92125671Y-97305797D01*
X92260517Y-97356091D01*
X92260516Y-97356091D01*
X92267444Y-97356835D01*
X92320127Y-97362500D01*
X94115872Y-97362499D01*
X94175483Y-97356091D01*
X94310331Y-97305796D01*
X94425546Y-97219546D01*
X94511796Y-97104331D01*
X94562091Y-96969483D01*
X94568500Y-96909873D01*
X94568499Y-95114128D01*
X94562091Y-95054517D01*
X94511796Y-94919669D01*
X94511795Y-94919668D01*
X94511793Y-94919664D01*
X94425547Y-94804455D01*
X94425544Y-94804452D01*
X94310335Y-94718206D01*
X94310328Y-94718202D01*
X94175482Y-94667908D01*
X94175483Y-94667908D01*
X94115883Y-94661501D01*
X94115881Y-94661500D01*
X94115873Y-94661500D01*
X94115864Y-94661500D01*
X92320129Y-94661500D01*
X92320123Y-94661501D01*
X92260516Y-94667908D01*
X92125671Y-94718202D01*
X92125664Y-94718206D01*
X92010455Y-94804452D01*
X92010452Y-94804455D01*
X91924206Y-94919664D01*
X91924202Y-94919671D01*
X91873908Y-95054517D01*
X91867501Y-95114116D01*
X91867501Y-95114123D01*
X91867500Y-95114135D01*
X89234499Y-95114135D01*
X89234499Y-94591128D01*
X89228091Y-94531517D01*
X89177796Y-94396669D01*
X89177795Y-94396668D01*
X89177793Y-94396664D01*
X89091547Y-94281455D01*
X89091544Y-94281452D01*
X88976335Y-94195206D01*
X88976328Y-94195202D01*
X88844917Y-94146189D01*
X88788983Y-94104318D01*
X88764566Y-94038853D01*
X88779418Y-93970580D01*
X88800563Y-93942332D01*
X88922495Y-93820401D01*
X89058035Y-93626830D01*
X89157903Y-93412663D01*
X89219063Y-93184408D01*
X89239659Y-92949000D01*
X89219063Y-92713592D01*
X89157903Y-92485337D01*
X89058035Y-92271171D01*
X89007151Y-92198500D01*
X88922494Y-92077597D01*
X88755402Y-91910506D01*
X88755396Y-91910501D01*
X88569842Y-91780575D01*
X88526217Y-91725998D01*
X88519023Y-91656500D01*
X88550546Y-91594145D01*
X88569842Y-91577425D01*
X88602486Y-91554567D01*
X88755401Y-91447495D01*
X88922495Y-91280401D01*
X89058035Y-91086830D01*
X89157903Y-90872663D01*
X89219063Y-90644408D01*
X89239659Y-90409000D01*
X89219063Y-90173592D01*
X89166522Y-89977504D01*
X89157905Y-89945344D01*
X89157904Y-89945343D01*
X89157903Y-89945337D01*
X89058035Y-89731171D01*
X89007142Y-89658487D01*
X88922494Y-89537597D01*
X88755402Y-89370506D01*
X88755395Y-89370501D01*
X88561834Y-89234967D01*
X88561830Y-89234965D01*
X88561828Y-89234964D01*
X88347663Y-89135097D01*
X88347659Y-89135096D01*
X88347655Y-89135094D01*
X88119413Y-89073938D01*
X88119403Y-89073936D01*
X87884001Y-89053341D01*
X87883999Y-89053341D01*
X87648596Y-89073936D01*
X87648586Y-89073938D01*
X87420344Y-89135094D01*
X87420335Y-89135098D01*
X87206171Y-89234964D01*
X87206169Y-89234965D01*
X87012597Y-89370505D01*
X86845505Y-89537597D01*
X86709965Y-89731169D01*
X86709964Y-89731171D01*
X86610098Y-89945335D01*
X86610094Y-89945344D01*
X86548938Y-90173586D01*
X86548936Y-90173596D01*
X86528341Y-90408999D01*
X86528341Y-90409001D01*
X86546977Y-90622012D01*
X86533210Y-90690512D01*
X86511130Y-90720500D01*
X86344449Y-90887182D01*
X86283129Y-90920666D01*
X86256770Y-90923500D01*
X78386500Y-90923500D01*
X78319461Y-90903815D01*
X78273706Y-90851011D01*
X78262500Y-90799500D01*
X78262499Y-89576129D01*
X78262498Y-89576123D01*
X78256091Y-89516516D01*
X78205797Y-89381671D01*
X78205793Y-89381664D01*
X78119547Y-89266455D01*
X78119544Y-89266452D01*
X78004335Y-89180206D01*
X78004328Y-89180202D01*
X77869482Y-89129908D01*
X77869483Y-89129908D01*
X77809883Y-89123501D01*
X77809881Y-89123500D01*
X77809873Y-89123500D01*
X77809864Y-89123500D01*
X76114129Y-89123500D01*
X76114123Y-89123501D01*
X76054516Y-89129908D01*
X75919671Y-89180202D01*
X75919664Y-89180206D01*
X75804455Y-89266452D01*
X75804452Y-89266455D01*
X75718206Y-89381664D01*
X75718202Y-89381671D01*
X75667908Y-89516516D01*
X75664137Y-89551596D01*
X75637398Y-89616146D01*
X75580006Y-89655994D01*
X75510180Y-89658487D01*
X75450092Y-89622834D01*
X75439273Y-89609462D01*
X75422045Y-89584858D01*
X75261141Y-89423954D01*
X75074734Y-89293432D01*
X75074732Y-89293431D01*
X74868497Y-89197261D01*
X74868488Y-89197258D01*
X74648697Y-89138366D01*
X74648693Y-89138365D01*
X74648692Y-89138365D01*
X74648691Y-89138364D01*
X74648686Y-89138364D01*
X74422002Y-89118532D01*
X74421998Y-89118532D01*
X74195313Y-89138364D01*
X74195302Y-89138366D01*
X73975511Y-89197258D01*
X73975502Y-89197261D01*
X73769267Y-89293431D01*
X73769265Y-89293432D01*
X73582858Y-89423954D01*
X73421954Y-89584858D01*
X73291432Y-89771265D01*
X73291431Y-89771267D01*
X73264382Y-89829275D01*
X73218209Y-89881714D01*
X73151016Y-89900866D01*
X73084135Y-89880650D01*
X73039618Y-89829275D01*
X73012568Y-89771267D01*
X73012567Y-89771265D01*
X72882045Y-89584858D01*
X72721141Y-89423954D01*
X72534734Y-89293432D01*
X72534732Y-89293431D01*
X72328497Y-89197261D01*
X72328488Y-89197258D01*
X72108697Y-89138366D01*
X72108693Y-89138365D01*
X72108692Y-89138365D01*
X72108691Y-89138364D01*
X72108686Y-89138364D01*
X71882002Y-89118532D01*
X71881998Y-89118532D01*
X71655313Y-89138364D01*
X71655302Y-89138366D01*
X71435511Y-89197258D01*
X71435502Y-89197261D01*
X71229267Y-89293431D01*
X71229265Y-89293432D01*
X71042858Y-89423954D01*
X70881954Y-89584858D01*
X70751432Y-89771265D01*
X70751431Y-89771267D01*
X70724382Y-89829275D01*
X70678209Y-89881714D01*
X70611016Y-89900866D01*
X70544135Y-89880650D01*
X70499618Y-89829275D01*
X70472568Y-89771267D01*
X70472567Y-89771265D01*
X70342045Y-89584858D01*
X70181141Y-89423954D01*
X69994734Y-89293432D01*
X69994732Y-89293431D01*
X69788497Y-89197261D01*
X69788488Y-89197258D01*
X69568697Y-89138366D01*
X69568693Y-89138365D01*
X69568692Y-89138365D01*
X69568691Y-89138364D01*
X69568686Y-89138364D01*
X69342002Y-89118532D01*
X69341998Y-89118532D01*
X69115313Y-89138364D01*
X69115302Y-89138366D01*
X68895511Y-89197258D01*
X68895502Y-89197261D01*
X68689267Y-89293431D01*
X68689265Y-89293432D01*
X68502858Y-89423954D01*
X68341954Y-89584858D01*
X68211432Y-89771265D01*
X68211431Y-89771267D01*
X68184382Y-89829275D01*
X68138209Y-89881714D01*
X68071016Y-89900866D01*
X68004135Y-89880650D01*
X67959618Y-89829275D01*
X67932568Y-89771267D01*
X67932567Y-89771265D01*
X67802045Y-89584858D01*
X67641141Y-89423954D01*
X67454734Y-89293432D01*
X67454732Y-89293431D01*
X67248497Y-89197261D01*
X67248488Y-89197258D01*
X67028697Y-89138366D01*
X67028693Y-89138365D01*
X67028692Y-89138365D01*
X67028691Y-89138364D01*
X67028686Y-89138364D01*
X66802002Y-89118532D01*
X66801998Y-89118532D01*
X66575313Y-89138364D01*
X66575302Y-89138366D01*
X66355511Y-89197258D01*
X66355502Y-89197261D01*
X66149267Y-89293431D01*
X66149265Y-89293432D01*
X65962858Y-89423954D01*
X65801954Y-89584858D01*
X65671432Y-89771265D01*
X65671431Y-89771267D01*
X65644382Y-89829275D01*
X65598209Y-89881714D01*
X65531016Y-89900866D01*
X65464135Y-89880650D01*
X65419618Y-89829275D01*
X65392568Y-89771267D01*
X65392567Y-89771265D01*
X65262045Y-89584858D01*
X65101141Y-89423954D01*
X64914734Y-89293432D01*
X64914732Y-89293431D01*
X64708497Y-89197261D01*
X64708488Y-89197258D01*
X64488697Y-89138366D01*
X64488693Y-89138365D01*
X64488692Y-89138365D01*
X64488691Y-89138364D01*
X64488686Y-89138364D01*
X64262002Y-89118532D01*
X64261998Y-89118532D01*
X64035313Y-89138364D01*
X64035302Y-89138366D01*
X63815511Y-89197258D01*
X63815502Y-89197261D01*
X63609267Y-89293431D01*
X63609265Y-89293432D01*
X63422858Y-89423954D01*
X63261954Y-89584858D01*
X63131432Y-89771265D01*
X63131431Y-89771267D01*
X63104382Y-89829275D01*
X63058209Y-89881714D01*
X62991016Y-89900866D01*
X62924135Y-89880650D01*
X62879618Y-89829275D01*
X62852568Y-89771267D01*
X62852567Y-89771265D01*
X62722045Y-89584858D01*
X62561141Y-89423954D01*
X62374734Y-89293432D01*
X62374732Y-89293431D01*
X62168497Y-89197261D01*
X62168488Y-89197258D01*
X61948697Y-89138366D01*
X61948693Y-89138365D01*
X61948692Y-89138365D01*
X61948691Y-89138364D01*
X61948686Y-89138364D01*
X61722002Y-89118532D01*
X61721998Y-89118532D01*
X61495313Y-89138364D01*
X61495302Y-89138366D01*
X61275511Y-89197258D01*
X61275502Y-89197261D01*
X61069267Y-89293431D01*
X61069265Y-89293432D01*
X60882858Y-89423954D01*
X60721954Y-89584858D01*
X60591432Y-89771265D01*
X60591431Y-89771267D01*
X60564382Y-89829275D01*
X60518209Y-89881714D01*
X60451016Y-89900866D01*
X60384135Y-89880650D01*
X60339618Y-89829275D01*
X60312568Y-89771267D01*
X60312567Y-89771265D01*
X60182045Y-89584858D01*
X60021141Y-89423954D01*
X59834734Y-89293432D01*
X59834732Y-89293431D01*
X59628497Y-89197261D01*
X59628488Y-89197258D01*
X59408697Y-89138366D01*
X59408693Y-89138365D01*
X59408692Y-89138365D01*
X59408691Y-89138364D01*
X59408686Y-89138364D01*
X59182002Y-89118532D01*
X59181998Y-89118532D01*
X58955313Y-89138364D01*
X58955302Y-89138366D01*
X58735511Y-89197258D01*
X58735502Y-89197261D01*
X58529267Y-89293431D01*
X58529265Y-89293432D01*
X58342858Y-89423954D01*
X58181954Y-89584858D01*
X58051432Y-89771265D01*
X58051431Y-89771267D01*
X58024382Y-89829275D01*
X57978209Y-89881714D01*
X57911016Y-89900866D01*
X57844135Y-89880650D01*
X57799618Y-89829275D01*
X57772568Y-89771267D01*
X57772567Y-89771265D01*
X57642045Y-89584858D01*
X57481141Y-89423954D01*
X57294734Y-89293432D01*
X57294732Y-89293431D01*
X57088497Y-89197261D01*
X57088488Y-89197258D01*
X56868697Y-89138366D01*
X56868693Y-89138365D01*
X56868692Y-89138365D01*
X56868691Y-89138364D01*
X56868686Y-89138364D01*
X56642002Y-89118532D01*
X56641998Y-89118532D01*
X56415313Y-89138364D01*
X56415302Y-89138366D01*
X56195511Y-89197258D01*
X56195502Y-89197261D01*
X55989267Y-89293431D01*
X55989265Y-89293432D01*
X55802858Y-89423954D01*
X55641954Y-89584858D01*
X55511432Y-89771265D01*
X55511431Y-89771267D01*
X55484382Y-89829275D01*
X55438209Y-89881714D01*
X55371016Y-89900866D01*
X55304135Y-89880650D01*
X55259618Y-89829275D01*
X55232568Y-89771267D01*
X55232567Y-89771265D01*
X55102045Y-89584858D01*
X54941141Y-89423954D01*
X54754734Y-89293432D01*
X54754732Y-89293431D01*
X54548497Y-89197261D01*
X54548488Y-89197258D01*
X54328697Y-89138366D01*
X54328693Y-89138365D01*
X54328692Y-89138365D01*
X54328691Y-89138364D01*
X54328686Y-89138364D01*
X54102002Y-89118532D01*
X54101998Y-89118532D01*
X53875313Y-89138364D01*
X53875302Y-89138366D01*
X53655511Y-89197258D01*
X53655502Y-89197261D01*
X53449267Y-89293431D01*
X53449265Y-89293432D01*
X53262858Y-89423954D01*
X53101954Y-89584858D01*
X52971432Y-89771265D01*
X52971431Y-89771267D01*
X52944382Y-89829275D01*
X52898209Y-89881714D01*
X52831016Y-89900866D01*
X52764135Y-89880650D01*
X52719618Y-89829275D01*
X52692568Y-89771267D01*
X52692567Y-89771265D01*
X52562045Y-89584858D01*
X52401141Y-89423954D01*
X52214734Y-89293432D01*
X52214732Y-89293431D01*
X52008497Y-89197261D01*
X52008488Y-89197258D01*
X51788697Y-89138366D01*
X51788693Y-89138365D01*
X51788692Y-89138365D01*
X51788691Y-89138364D01*
X51788686Y-89138364D01*
X51562002Y-89118532D01*
X51561998Y-89118532D01*
X51335313Y-89138364D01*
X51335302Y-89138366D01*
X51115511Y-89197258D01*
X51115502Y-89197261D01*
X50909267Y-89293431D01*
X50909265Y-89293432D01*
X50722858Y-89423954D01*
X50561954Y-89584858D01*
X50431432Y-89771265D01*
X50431431Y-89771267D01*
X50404382Y-89829275D01*
X50358209Y-89881714D01*
X50291016Y-89900866D01*
X50224135Y-89880650D01*
X50179618Y-89829275D01*
X50152568Y-89771267D01*
X50152567Y-89771265D01*
X50022045Y-89584858D01*
X49861141Y-89423954D01*
X49674734Y-89293432D01*
X49674732Y-89293431D01*
X49468497Y-89197261D01*
X49468488Y-89197258D01*
X49248697Y-89138366D01*
X49248693Y-89138365D01*
X49248692Y-89138365D01*
X49248691Y-89138364D01*
X49248686Y-89138364D01*
X49022002Y-89118532D01*
X49021998Y-89118532D01*
X48795313Y-89138364D01*
X48795302Y-89138366D01*
X48575511Y-89197258D01*
X48575502Y-89197261D01*
X48369267Y-89293431D01*
X48369265Y-89293432D01*
X48182858Y-89423954D01*
X48021954Y-89584858D01*
X47891432Y-89771265D01*
X47891431Y-89771267D01*
X47864382Y-89829275D01*
X47818209Y-89881714D01*
X47751016Y-89900866D01*
X47684135Y-89880650D01*
X47639618Y-89829275D01*
X47612568Y-89771267D01*
X47612567Y-89771265D01*
X47482045Y-89584858D01*
X47321141Y-89423954D01*
X47134734Y-89293432D01*
X47134732Y-89293431D01*
X46928497Y-89197261D01*
X46928488Y-89197258D01*
X46708697Y-89138366D01*
X46708693Y-89138365D01*
X46708692Y-89138365D01*
X46708691Y-89138364D01*
X46708686Y-89138364D01*
X46482002Y-89118532D01*
X46481998Y-89118532D01*
X46255313Y-89138364D01*
X46255302Y-89138366D01*
X46035511Y-89197258D01*
X46035502Y-89197261D01*
X45829267Y-89293431D01*
X45829265Y-89293432D01*
X45642858Y-89423954D01*
X45481954Y-89584858D01*
X45351432Y-89771265D01*
X45351431Y-89771267D01*
X45324382Y-89829275D01*
X45278209Y-89881714D01*
X45211016Y-89900866D01*
X45144135Y-89880650D01*
X45099618Y-89829275D01*
X45072568Y-89771267D01*
X45072567Y-89771265D01*
X44942045Y-89584858D01*
X44781141Y-89423954D01*
X44594734Y-89293432D01*
X44594732Y-89293431D01*
X44388497Y-89197261D01*
X44388488Y-89197258D01*
X44168697Y-89138366D01*
X44168693Y-89138365D01*
X44168692Y-89138365D01*
X44168691Y-89138364D01*
X44168686Y-89138364D01*
X43942002Y-89118532D01*
X43941998Y-89118532D01*
X43715313Y-89138364D01*
X43715302Y-89138366D01*
X43495511Y-89197258D01*
X43495502Y-89197261D01*
X43289267Y-89293431D01*
X43289265Y-89293432D01*
X43102858Y-89423954D01*
X42941954Y-89584858D01*
X42811432Y-89771265D01*
X42811431Y-89771267D01*
X42784382Y-89829275D01*
X42738209Y-89881714D01*
X42671016Y-89900866D01*
X42604135Y-89880650D01*
X42559618Y-89829275D01*
X42532568Y-89771267D01*
X42532567Y-89771265D01*
X42402045Y-89584858D01*
X42241141Y-89423954D01*
X42054734Y-89293432D01*
X42054732Y-89293431D01*
X41848497Y-89197261D01*
X41848488Y-89197258D01*
X41628697Y-89138366D01*
X41628693Y-89138365D01*
X41628692Y-89138365D01*
X41628691Y-89138364D01*
X41628686Y-89138364D01*
X41402002Y-89118532D01*
X41401998Y-89118532D01*
X41175313Y-89138364D01*
X41175302Y-89138366D01*
X40955511Y-89197258D01*
X40955502Y-89197261D01*
X40749267Y-89293431D01*
X40749265Y-89293432D01*
X40562858Y-89423954D01*
X40401954Y-89584858D01*
X40271432Y-89771265D01*
X40271431Y-89771267D01*
X40175261Y-89977502D01*
X40175258Y-89977511D01*
X40116366Y-90197302D01*
X40116364Y-90197313D01*
X40096532Y-90423998D01*
X40096532Y-90424001D01*
X40116364Y-90650686D01*
X40116366Y-90650697D01*
X40175258Y-90870488D01*
X40175261Y-90870497D01*
X40271431Y-91076732D01*
X40271432Y-91076734D01*
X40401954Y-91263141D01*
X40562858Y-91424045D01*
X40596353Y-91447498D01*
X40749266Y-91554568D01*
X40955504Y-91650739D01*
X41175308Y-91709635D01*
X41337230Y-91723801D01*
X41401998Y-91729468D01*
X41402000Y-91729468D01*
X41402002Y-91729468D01*
X41458673Y-91724509D01*
X41628692Y-91709635D01*
X41848496Y-91650739D01*
X42054734Y-91554568D01*
X42241139Y-91424047D01*
X42402047Y-91263139D01*
X42532568Y-91076734D01*
X42559618Y-91018724D01*
X42605790Y-90966285D01*
X42672983Y-90947133D01*
X42739865Y-90967348D01*
X42784382Y-91018725D01*
X42811429Y-91076728D01*
X42811432Y-91076734D01*
X42941954Y-91263141D01*
X43102858Y-91424045D01*
X43136353Y-91447498D01*
X43289266Y-91554568D01*
X43495504Y-91650739D01*
X43715308Y-91709635D01*
X43877230Y-91723801D01*
X43941998Y-91729468D01*
X43942000Y-91729468D01*
X43942002Y-91729468D01*
X43998673Y-91724509D01*
X44168692Y-91709635D01*
X44388496Y-91650739D01*
X44594734Y-91554568D01*
X44781139Y-91424047D01*
X44942047Y-91263139D01*
X45072568Y-91076734D01*
X45099618Y-91018724D01*
X45145790Y-90966285D01*
X45212983Y-90947133D01*
X45279865Y-90967348D01*
X45324382Y-91018725D01*
X45351429Y-91076728D01*
X45351432Y-91076734D01*
X45481954Y-91263141D01*
X45642858Y-91424045D01*
X45676353Y-91447498D01*
X45829266Y-91554568D01*
X46035504Y-91650739D01*
X46255308Y-91709635D01*
X46417230Y-91723801D01*
X46481998Y-91729468D01*
X46482000Y-91729468D01*
X46482002Y-91729468D01*
X46538673Y-91724509D01*
X46708692Y-91709635D01*
X46928496Y-91650739D01*
X47134734Y-91554568D01*
X47321139Y-91424047D01*
X47482047Y-91263139D01*
X47612568Y-91076734D01*
X47639618Y-91018724D01*
X47685790Y-90966285D01*
X47752983Y-90947133D01*
X47819865Y-90967348D01*
X47864382Y-91018725D01*
X47891429Y-91076728D01*
X47891432Y-91076734D01*
X48021954Y-91263141D01*
X48182858Y-91424045D01*
X48216353Y-91447498D01*
X48369266Y-91554568D01*
X48575504Y-91650739D01*
X48795308Y-91709635D01*
X48957230Y-91723801D01*
X49021998Y-91729468D01*
X49022000Y-91729468D01*
X49022002Y-91729468D01*
X49078673Y-91724509D01*
X49248692Y-91709635D01*
X49468496Y-91650739D01*
X49674734Y-91554568D01*
X49861139Y-91424047D01*
X50022047Y-91263139D01*
X50152568Y-91076734D01*
X50179618Y-91018724D01*
X50225790Y-90966285D01*
X50292983Y-90947133D01*
X50359865Y-90967348D01*
X50404382Y-91018725D01*
X50431429Y-91076728D01*
X50431432Y-91076734D01*
X50561954Y-91263141D01*
X50722858Y-91424045D01*
X50756353Y-91447498D01*
X50909266Y-91554568D01*
X51115504Y-91650739D01*
X51335308Y-91709635D01*
X51497230Y-91723801D01*
X51561998Y-91729468D01*
X51562000Y-91729468D01*
X51562002Y-91729468D01*
X51618673Y-91724509D01*
X51788692Y-91709635D01*
X52008496Y-91650739D01*
X52214734Y-91554568D01*
X52401139Y-91424047D01*
X52562047Y-91263139D01*
X52692568Y-91076734D01*
X52719618Y-91018724D01*
X52765790Y-90966285D01*
X52832983Y-90947133D01*
X52899865Y-90967348D01*
X52944382Y-91018725D01*
X52971429Y-91076728D01*
X52971432Y-91076734D01*
X53101954Y-91263141D01*
X53262858Y-91424045D01*
X53296353Y-91447498D01*
X53449266Y-91554568D01*
X53655504Y-91650739D01*
X53875308Y-91709635D01*
X54037230Y-91723801D01*
X54101998Y-91729468D01*
X54102000Y-91729468D01*
X54102002Y-91729468D01*
X54158673Y-91724509D01*
X54328692Y-91709635D01*
X54548496Y-91650739D01*
X54754734Y-91554568D01*
X54941139Y-91424047D01*
X55102047Y-91263139D01*
X55232568Y-91076734D01*
X55259618Y-91018724D01*
X55305790Y-90966285D01*
X55372983Y-90947133D01*
X55439865Y-90967348D01*
X55484382Y-91018725D01*
X55511429Y-91076728D01*
X55511432Y-91076734D01*
X55641954Y-91263141D01*
X55802858Y-91424045D01*
X55836353Y-91447498D01*
X55989266Y-91554568D01*
X56195504Y-91650739D01*
X56415308Y-91709635D01*
X56577230Y-91723801D01*
X56641998Y-91729468D01*
X56642000Y-91729468D01*
X56642002Y-91729468D01*
X56698673Y-91724509D01*
X56868692Y-91709635D01*
X57088496Y-91650739D01*
X57294734Y-91554568D01*
X57481139Y-91424047D01*
X57642047Y-91263139D01*
X57772568Y-91076734D01*
X57799618Y-91018724D01*
X57845790Y-90966285D01*
X57912983Y-90947133D01*
X57979865Y-90967348D01*
X58024382Y-91018725D01*
X58051429Y-91076728D01*
X58051432Y-91076734D01*
X58181954Y-91263141D01*
X58342858Y-91424045D01*
X58376353Y-91447498D01*
X58529266Y-91554568D01*
X58735504Y-91650739D01*
X58955308Y-91709635D01*
X59117230Y-91723801D01*
X59181998Y-91729468D01*
X59182000Y-91729468D01*
X59182001Y-91729468D01*
X59202062Y-91727712D01*
X59348861Y-91714869D01*
X59417359Y-91728635D01*
X59447348Y-91750716D01*
X71149586Y-103452954D01*
X71179058Y-103472645D01*
X71223270Y-103502186D01*
X71272505Y-103535084D01*
X71272506Y-103535084D01*
X71272507Y-103535085D01*
X71272509Y-103535086D01*
X71409082Y-103591656D01*
X71409087Y-103591658D01*
X71409091Y-103591658D01*
X71409092Y-103591659D01*
X71554079Y-103620500D01*
X71554082Y-103620500D01*
X71554083Y-103620500D01*
X71701917Y-103620500D01*
X82187770Y-103620500D01*
X82254809Y-103640185D01*
X82275451Y-103656819D01*
X85532968Y-106914336D01*
X88564215Y-109945582D01*
X88597700Y-110006905D01*
X88592716Y-110076597D01*
X88550844Y-110132530D01*
X88485380Y-110156947D01*
X88465727Y-110156791D01*
X88392002Y-110150341D01*
X88391999Y-110150341D01*
X88156596Y-110170936D01*
X88156586Y-110170938D01*
X87928344Y-110232094D01*
X87928335Y-110232098D01*
X87714171Y-110331964D01*
X87714169Y-110331965D01*
X87520597Y-110467505D01*
X87353505Y-110634597D01*
X87217965Y-110828169D01*
X87217964Y-110828171D01*
X87118098Y-111042335D01*
X87118094Y-111042344D01*
X87056938Y-111270586D01*
X87056936Y-111270596D01*
X87036341Y-111505999D01*
X87036341Y-111506000D01*
X87056936Y-111741403D01*
X87056938Y-111741413D01*
X87091327Y-111869756D01*
X87089664Y-111939606D01*
X87059233Y-111989530D01*
X72176432Y-126872331D01*
X72115109Y-126905816D01*
X72045417Y-126900832D01*
X71989484Y-126858960D01*
X71965067Y-126793496D01*
X71965223Y-126773842D01*
X71967659Y-126746000D01*
X71967659Y-126745999D01*
X71947826Y-126519313D01*
X71947063Y-126510592D01*
X71885903Y-126282337D01*
X71786035Y-126068171D01*
X71650495Y-125874599D01*
X71650494Y-125874597D01*
X71483402Y-125707506D01*
X71483396Y-125707501D01*
X71297842Y-125577575D01*
X71254217Y-125522998D01*
X71247023Y-125453500D01*
X71278546Y-125391145D01*
X71297842Y-125374425D01*
X71385500Y-125313046D01*
X71483401Y-125244495D01*
X71650495Y-125077401D01*
X71786035Y-124883830D01*
X71885903Y-124669663D01*
X71947063Y-124441408D01*
X71967659Y-124206000D01*
X71947063Y-123970592D01*
X71885903Y-123742337D01*
X71786035Y-123528171D01*
X71711345Y-123421501D01*
X71650494Y-123334597D01*
X71483402Y-123167506D01*
X71483396Y-123167501D01*
X71297842Y-123037575D01*
X71254217Y-122982998D01*
X71247023Y-122913500D01*
X71278546Y-122851145D01*
X71297842Y-122834425D01*
X71385500Y-122773046D01*
X71483401Y-122704495D01*
X71650495Y-122537401D01*
X71786035Y-122343830D01*
X71885903Y-122129663D01*
X71947063Y-121901408D01*
X71967659Y-121666000D01*
X71947063Y-121430592D01*
X71885903Y-121202337D01*
X71786035Y-120988171D01*
X71711345Y-120881501D01*
X71650494Y-120794597D01*
X71483402Y-120627506D01*
X71483396Y-120627501D01*
X71297842Y-120497575D01*
X71254217Y-120442998D01*
X71247023Y-120373500D01*
X71278546Y-120311145D01*
X71297842Y-120294425D01*
X71385500Y-120233046D01*
X71483401Y-120164495D01*
X71650495Y-119997401D01*
X71786035Y-119803830D01*
X71885903Y-119589663D01*
X71947063Y-119361408D01*
X71967659Y-119126000D01*
X71947063Y-118890592D01*
X71885903Y-118662337D01*
X71786035Y-118448171D01*
X71711345Y-118341501D01*
X71650494Y-118254597D01*
X71483402Y-118087506D01*
X71483395Y-118087501D01*
X71289834Y-117951967D01*
X71289830Y-117951965D01*
X71231302Y-117924673D01*
X71075663Y-117852097D01*
X71075659Y-117852096D01*
X71075655Y-117852094D01*
X70847413Y-117790938D01*
X70847403Y-117790936D01*
X70612001Y-117770341D01*
X70611999Y-117770341D01*
X70376596Y-117790936D01*
X70376586Y-117790938D01*
X70148344Y-117852094D01*
X70148335Y-117852098D01*
X69934171Y-117951964D01*
X69934169Y-117951965D01*
X69740597Y-118087505D01*
X69573505Y-118254597D01*
X69437965Y-118448169D01*
X69437964Y-118448171D01*
X69338098Y-118662335D01*
X69338094Y-118662344D01*
X69276938Y-118890586D01*
X69276936Y-118890596D01*
X69256341Y-119125999D01*
X69256341Y-119126000D01*
X69276936Y-119361403D01*
X69276938Y-119361413D01*
X69338094Y-119589655D01*
X69338096Y-119589659D01*
X69338097Y-119589663D01*
X69426262Y-119778732D01*
X69437965Y-119803830D01*
X69437967Y-119803834D01*
X69573501Y-119997395D01*
X69573506Y-119997402D01*
X69740597Y-120164493D01*
X69740603Y-120164498D01*
X69926158Y-120294425D01*
X69969783Y-120349002D01*
X69976977Y-120418500D01*
X69945454Y-120480855D01*
X69926158Y-120497575D01*
X69740597Y-120627505D01*
X69573505Y-120794597D01*
X69437965Y-120988169D01*
X69437964Y-120988171D01*
X69338098Y-121202335D01*
X69338094Y-121202344D01*
X69276938Y-121430586D01*
X69276936Y-121430596D01*
X69256341Y-121665999D01*
X69256341Y-121666000D01*
X69276936Y-121901403D01*
X69276938Y-121901413D01*
X69338094Y-122129655D01*
X69338096Y-122129659D01*
X69338097Y-122129663D01*
X69426262Y-122318732D01*
X69437965Y-122343830D01*
X69437967Y-122343834D01*
X69573501Y-122537395D01*
X69573506Y-122537402D01*
X69740597Y-122704493D01*
X69740603Y-122704498D01*
X69926158Y-122834425D01*
X69969783Y-122889002D01*
X69976977Y-122958500D01*
X69945454Y-123020855D01*
X69926158Y-123037575D01*
X69740597Y-123167505D01*
X69573505Y-123334597D01*
X69437965Y-123528169D01*
X69437964Y-123528171D01*
X69338098Y-123742335D01*
X69338094Y-123742344D01*
X69276938Y-123970586D01*
X69276936Y-123970596D01*
X69256341Y-124205999D01*
X69256341Y-124206000D01*
X69276936Y-124441403D01*
X69276938Y-124441413D01*
X69338094Y-124669655D01*
X69338096Y-124669659D01*
X69338097Y-124669663D01*
X69426262Y-124858732D01*
X69437965Y-124883830D01*
X69437967Y-124883834D01*
X69573501Y-125077395D01*
X69573506Y-125077402D01*
X69740597Y-125244493D01*
X69740603Y-125244498D01*
X69926158Y-125374425D01*
X69969783Y-125429002D01*
X69976977Y-125498500D01*
X69945454Y-125560855D01*
X69926158Y-125577575D01*
X69740597Y-125707505D01*
X69573505Y-125874597D01*
X69437965Y-126068169D01*
X69437964Y-126068171D01*
X69338098Y-126282335D01*
X69338094Y-126282344D01*
X69276938Y-126510586D01*
X69276936Y-126510596D01*
X69256341Y-126745999D01*
X69256341Y-126746000D01*
X69276936Y-126981403D01*
X69276938Y-126981413D01*
X69319272Y-127139407D01*
X69317609Y-127209257D01*
X69278446Y-127267119D01*
X69214218Y-127294623D01*
X69199497Y-127295500D01*
X68786670Y-127295500D01*
X68786654Y-127295499D01*
X68779058Y-127295499D01*
X68620943Y-127295499D01*
X68544579Y-127315961D01*
X68468214Y-127336423D01*
X68468209Y-127336426D01*
X68331290Y-127415475D01*
X68331282Y-127415481D01*
X57643428Y-138103335D01*
X57582105Y-138136820D01*
X57512413Y-138131836D01*
X57456480Y-138089964D01*
X57432063Y-138024500D01*
X57432218Y-138004857D01*
X57439468Y-137922000D01*
X57419635Y-137695308D01*
X57360739Y-137475504D01*
X57264568Y-137269266D01*
X57134047Y-137082861D01*
X57134045Y-137082858D01*
X56973141Y-136921954D01*
X56786734Y-136791432D01*
X56786728Y-136791429D01*
X56728725Y-136764382D01*
X56676285Y-136718210D01*
X56657133Y-136651017D01*
X56677348Y-136584135D01*
X56728725Y-136539618D01*
X56786734Y-136512568D01*
X56973139Y-136382047D01*
X57134047Y-136221139D01*
X57264568Y-136034734D01*
X57360739Y-135828496D01*
X57419635Y-135608692D01*
X57439468Y-135382000D01*
X57419635Y-135155308D01*
X57360739Y-134935504D01*
X57264568Y-134729266D01*
X57134047Y-134542861D01*
X57134045Y-134542858D01*
X56973141Y-134381954D01*
X56786734Y-134251432D01*
X56786732Y-134251431D01*
X56580497Y-134155261D01*
X56580488Y-134155258D01*
X56360697Y-134096366D01*
X56360693Y-134096365D01*
X56360692Y-134096365D01*
X56360691Y-134096364D01*
X56360686Y-134096364D01*
X56134002Y-134076532D01*
X56133998Y-134076532D01*
X55907313Y-134096364D01*
X55907302Y-134096366D01*
X55687511Y-134155258D01*
X55687502Y-134155261D01*
X55481267Y-134251431D01*
X55481265Y-134251432D01*
X55294858Y-134381954D01*
X55133954Y-134542858D01*
X55003432Y-134729265D01*
X55003431Y-134729267D01*
X54907261Y-134935502D01*
X54907258Y-134935511D01*
X54848366Y-135155302D01*
X54848364Y-135155313D01*
X54828532Y-135381998D01*
X54828532Y-135382001D01*
X54848364Y-135608686D01*
X54848366Y-135608697D01*
X54907258Y-135828488D01*
X54907261Y-135828497D01*
X55003431Y-136034732D01*
X55003432Y-136034734D01*
X55133954Y-136221141D01*
X55294858Y-136382045D01*
X55294861Y-136382047D01*
X55481266Y-136512568D01*
X55539275Y-136539618D01*
X55591714Y-136585791D01*
X55610866Y-136652984D01*
X55590650Y-136719865D01*
X55539275Y-136764382D01*
X55481267Y-136791431D01*
X55481265Y-136791432D01*
X55294858Y-136921954D01*
X55133954Y-137082858D01*
X55003432Y-137269265D01*
X55003431Y-137269267D01*
X54907261Y-137475502D01*
X54907258Y-137475511D01*
X54848366Y-137695302D01*
X54848364Y-137695313D01*
X54828532Y-137921998D01*
X54828532Y-137922001D01*
X54848364Y-138148686D01*
X54848366Y-138148697D01*
X54907258Y-138368488D01*
X54907261Y-138368497D01*
X55003431Y-138574732D01*
X55003432Y-138574734D01*
X55133954Y-138761141D01*
X55294858Y-138922045D01*
X55294861Y-138922047D01*
X55481266Y-139052568D01*
X55539275Y-139079618D01*
X55591714Y-139125791D01*
X55610866Y-139192984D01*
X55590650Y-139259865D01*
X55539275Y-139304382D01*
X55481267Y-139331431D01*
X55481265Y-139331432D01*
X55294858Y-139461954D01*
X55133954Y-139622858D01*
X55003432Y-139809265D01*
X55003431Y-139809267D01*
X54907261Y-140015502D01*
X54907258Y-140015511D01*
X54848366Y-140235302D01*
X54848364Y-140235313D01*
X54828532Y-140461998D01*
X54828532Y-140462001D01*
X54848364Y-140688686D01*
X54848366Y-140688697D01*
X54907258Y-140908488D01*
X54907261Y-140908497D01*
X55003431Y-141114732D01*
X55003432Y-141114734D01*
X55133954Y-141301141D01*
X55294858Y-141462045D01*
X55294861Y-141462047D01*
X55481266Y-141592568D01*
X55539275Y-141619618D01*
X55591714Y-141665791D01*
X55610866Y-141732984D01*
X55590650Y-141799865D01*
X55539275Y-141844381D01*
X55522272Y-141852310D01*
X55481267Y-141871431D01*
X55481265Y-141871432D01*
X55294858Y-142001954D01*
X55133954Y-142162858D01*
X55003432Y-142349265D01*
X55003431Y-142349267D01*
X54907261Y-142555502D01*
X54907258Y-142555511D01*
X54848366Y-142775302D01*
X54848364Y-142775313D01*
X54828532Y-143001998D01*
X54828532Y-143002001D01*
X54848364Y-143228686D01*
X54848366Y-143228697D01*
X54907258Y-143448488D01*
X54907261Y-143448497D01*
X55003431Y-143654732D01*
X55003432Y-143654734D01*
X55133954Y-143841141D01*
X55294858Y-144002045D01*
X55294861Y-144002047D01*
X55481266Y-144132568D01*
X55539275Y-144159618D01*
X55591714Y-144205791D01*
X55610866Y-144272984D01*
X55590650Y-144339865D01*
X55539275Y-144384382D01*
X55481267Y-144411431D01*
X55481265Y-144411432D01*
X55294858Y-144541954D01*
X55133954Y-144702858D01*
X55003432Y-144889265D01*
X55003431Y-144889267D01*
X54907261Y-145095502D01*
X54907258Y-145095511D01*
X54848366Y-145315302D01*
X54848364Y-145315313D01*
X54828532Y-145541998D01*
X54828532Y-145542001D01*
X54848364Y-145768686D01*
X54848366Y-145768697D01*
X54907258Y-145988488D01*
X54907261Y-145988497D01*
X55003431Y-146194732D01*
X55003432Y-146194734D01*
X55133954Y-146381141D01*
X55294858Y-146542045D01*
X55294861Y-146542047D01*
X55481266Y-146672568D01*
X55539275Y-146699618D01*
X55591714Y-146745791D01*
X55610866Y-146812984D01*
X55590650Y-146879865D01*
X55539275Y-146924382D01*
X55481267Y-146951431D01*
X55481265Y-146951432D01*
X55294858Y-147081954D01*
X55133954Y-147242858D01*
X55003432Y-147429265D01*
X55003431Y-147429267D01*
X54907261Y-147635502D01*
X54907258Y-147635511D01*
X54848366Y-147855302D01*
X54848364Y-147855313D01*
X54828532Y-148081998D01*
X54828532Y-148082001D01*
X54848364Y-148308686D01*
X54848366Y-148308697D01*
X54907258Y-148528488D01*
X54907261Y-148528497D01*
X55003431Y-148734732D01*
X55003432Y-148734734D01*
X55133954Y-148921141D01*
X55294858Y-149082045D01*
X55319462Y-149099273D01*
X55363087Y-149153849D01*
X55370281Y-149223348D01*
X55338758Y-149285703D01*
X55278529Y-149321117D01*
X55261593Y-149324138D01*
X55226516Y-149327908D01*
X55091671Y-149378202D01*
X55091664Y-149378206D01*
X54976455Y-149464452D01*
X54976452Y-149464455D01*
X54890206Y-149579664D01*
X54890202Y-149579671D01*
X54839908Y-149714517D01*
X54833501Y-149774116D01*
X54833501Y-149774123D01*
X54833500Y-149774135D01*
X54833500Y-151469870D01*
X54833501Y-151469876D01*
X54839908Y-151529483D01*
X54890202Y-151664328D01*
X54890206Y-151664335D01*
X54976452Y-151779544D01*
X54976455Y-151779547D01*
X55091664Y-151865793D01*
X55091671Y-151865797D01*
X55226517Y-151916091D01*
X55226516Y-151916091D01*
X55233444Y-151916835D01*
X55286127Y-151922500D01*
X56981872Y-151922499D01*
X57041483Y-151916091D01*
X57176331Y-151865796D01*
X57291546Y-151779546D01*
X57377796Y-151664331D01*
X57428091Y-151529483D01*
X57434500Y-151469873D01*
X57434499Y-149774128D01*
X57428091Y-149714517D01*
X57417442Y-149685966D01*
X57377797Y-149579671D01*
X57377793Y-149579664D01*
X57291547Y-149464455D01*
X57291544Y-149464452D01*
X57176335Y-149378206D01*
X57176328Y-149378202D01*
X57041482Y-149327908D01*
X57041483Y-149327908D01*
X57006404Y-149324137D01*
X56941853Y-149297399D01*
X56902005Y-149240006D01*
X56899512Y-149170181D01*
X56935165Y-149110092D01*
X56948539Y-149099272D01*
X56973140Y-149082046D01*
X57134045Y-148921141D01*
X57134047Y-148921139D01*
X57264568Y-148734734D01*
X57360739Y-148528496D01*
X57419635Y-148308692D01*
X57439468Y-148082000D01*
X57419635Y-147855308D01*
X57393847Y-147759066D01*
X57395510Y-147689217D01*
X57425939Y-147639294D01*
X68672416Y-136392819D01*
X68733739Y-136359334D01*
X68760097Y-136356500D01*
X69199497Y-136356500D01*
X69266536Y-136376185D01*
X69312291Y-136428989D01*
X69322235Y-136498147D01*
X69319272Y-136512593D01*
X69276938Y-136670586D01*
X69276936Y-136670596D01*
X69256341Y-136905999D01*
X69256341Y-136906000D01*
X69276936Y-137141403D01*
X69276938Y-137141413D01*
X69338094Y-137369655D01*
X69338096Y-137369659D01*
X69338097Y-137369663D01*
X69387451Y-137475502D01*
X69437965Y-137583830D01*
X69437967Y-137583834D01*
X69573501Y-137777395D01*
X69573506Y-137777402D01*
X69740597Y-137944493D01*
X69740603Y-137944498D01*
X69926158Y-138074425D01*
X69969783Y-138129002D01*
X69976977Y-138198500D01*
X69945454Y-138260855D01*
X69926158Y-138277575D01*
X69740597Y-138407505D01*
X69573505Y-138574597D01*
X69437965Y-138768169D01*
X69437964Y-138768171D01*
X69338098Y-138982335D01*
X69338094Y-138982344D01*
X69276938Y-139210586D01*
X69276936Y-139210596D01*
X69256341Y-139445999D01*
X69256341Y-139446000D01*
X69276936Y-139681403D01*
X69276938Y-139681413D01*
X69338094Y-139909655D01*
X69338096Y-139909659D01*
X69338097Y-139909663D01*
X69437965Y-140123830D01*
X69437967Y-140123834D01*
X69516019Y-140235303D01*
X69573501Y-140317396D01*
X69573506Y-140317402D01*
X69695430Y-140439326D01*
X69728915Y-140500649D01*
X69723931Y-140570341D01*
X69682059Y-140626274D01*
X69651083Y-140643189D01*
X69519669Y-140692203D01*
X69519664Y-140692206D01*
X69404455Y-140778452D01*
X69404452Y-140778455D01*
X69318206Y-140893664D01*
X69318202Y-140893671D01*
X69267908Y-141028517D01*
X69261501Y-141088116D01*
X69261501Y-141088123D01*
X69261500Y-141088135D01*
X69261500Y-142689902D01*
X69241815Y-142756941D01*
X69225181Y-142777583D01*
X69115478Y-142887286D01*
X56576705Y-155426058D01*
X56515382Y-155459543D01*
X56456931Y-155458152D01*
X56360697Y-155432366D01*
X56360693Y-155432365D01*
X56360692Y-155432365D01*
X56360691Y-155432364D01*
X56360686Y-155432364D01*
X56134002Y-155412532D01*
X56133998Y-155412532D01*
X55907313Y-155432364D01*
X55907302Y-155432366D01*
X55687511Y-155491258D01*
X55687502Y-155491261D01*
X55481267Y-155587431D01*
X55481265Y-155587432D01*
X55294858Y-155717954D01*
X55133954Y-155878858D01*
X55003432Y-156065265D01*
X55003431Y-156065267D01*
X54907261Y-156271502D01*
X54907258Y-156271511D01*
X54848366Y-156491302D01*
X54848364Y-156491313D01*
X54828532Y-156717998D01*
X54828532Y-156718001D01*
X54848364Y-156944686D01*
X54848366Y-156944697D01*
X54907258Y-157164488D01*
X54907261Y-157164497D01*
X55003431Y-157370732D01*
X55003432Y-157370734D01*
X55133954Y-157557141D01*
X55294858Y-157718045D01*
X55294861Y-157718047D01*
X55481266Y-157848568D01*
X55539275Y-157875618D01*
X55591714Y-157921791D01*
X55610866Y-157988984D01*
X55590650Y-158055865D01*
X55539275Y-158100382D01*
X55481267Y-158127431D01*
X55481265Y-158127432D01*
X55294858Y-158257954D01*
X55133954Y-158418858D01*
X55003432Y-158605265D01*
X55003431Y-158605267D01*
X54907261Y-158811502D01*
X54907258Y-158811511D01*
X54848366Y-159031302D01*
X54848364Y-159031313D01*
X54828532Y-159257998D01*
X54828532Y-159258001D01*
X54848364Y-159484686D01*
X54848366Y-159484697D01*
X54907258Y-159704488D01*
X54907261Y-159704497D01*
X55003431Y-159910732D01*
X55003432Y-159910734D01*
X55133954Y-160097141D01*
X55294858Y-160258045D01*
X55294861Y-160258047D01*
X55481266Y-160388568D01*
X55539275Y-160415618D01*
X55591714Y-160461791D01*
X55610866Y-160528984D01*
X55590650Y-160595865D01*
X55539275Y-160640382D01*
X55481267Y-160667431D01*
X55481265Y-160667432D01*
X55294858Y-160797954D01*
X55133954Y-160958858D01*
X55003432Y-161145265D01*
X55003431Y-161145267D01*
X54907261Y-161351502D01*
X54907258Y-161351511D01*
X54848366Y-161571302D01*
X54848364Y-161571313D01*
X54828532Y-161797998D01*
X54828532Y-161798001D01*
X54848364Y-162024686D01*
X54848366Y-162024697D01*
X54907258Y-162244488D01*
X54907261Y-162244497D01*
X55003431Y-162450732D01*
X55003432Y-162450734D01*
X55133954Y-162637141D01*
X55294858Y-162798045D01*
X55294861Y-162798047D01*
X55481266Y-162928568D01*
X55539275Y-162955618D01*
X55591714Y-163001791D01*
X55610866Y-163068984D01*
X55590650Y-163135865D01*
X55539275Y-163180382D01*
X55481267Y-163207431D01*
X55481265Y-163207432D01*
X55294858Y-163337954D01*
X55133954Y-163498858D01*
X55003432Y-163685265D01*
X55003431Y-163685267D01*
X54907261Y-163891502D01*
X54907258Y-163891511D01*
X54848366Y-164111302D01*
X54848364Y-164111313D01*
X54828532Y-164337998D01*
X54828532Y-164338001D01*
X54848364Y-164564686D01*
X54848366Y-164564697D01*
X54907258Y-164784488D01*
X54907261Y-164784497D01*
X55003431Y-164990732D01*
X55003432Y-164990734D01*
X55133954Y-165177141D01*
X55294858Y-165338045D01*
X55294861Y-165338047D01*
X55481266Y-165468568D01*
X55539275Y-165495618D01*
X55591714Y-165541791D01*
X55610866Y-165608984D01*
X55590650Y-165675865D01*
X55539275Y-165720382D01*
X55481267Y-165747431D01*
X55481265Y-165747432D01*
X55294858Y-165877954D01*
X55133954Y-166038858D01*
X55003432Y-166225265D01*
X55003431Y-166225267D01*
X54907261Y-166431502D01*
X54907258Y-166431511D01*
X54848366Y-166651302D01*
X54848364Y-166651313D01*
X54828532Y-166877998D01*
X54828532Y-166878001D01*
X54848364Y-167104686D01*
X54848366Y-167104697D01*
X54907258Y-167324488D01*
X54907261Y-167324497D01*
X55003431Y-167530732D01*
X55003432Y-167530734D01*
X55133954Y-167717141D01*
X55294858Y-167878045D01*
X55294861Y-167878047D01*
X55481266Y-168008568D01*
X55539275Y-168035618D01*
X55591714Y-168081791D01*
X55610866Y-168148984D01*
X55590650Y-168215865D01*
X55539275Y-168260382D01*
X55481267Y-168287431D01*
X55481265Y-168287432D01*
X55294858Y-168417954D01*
X55133954Y-168578858D01*
X55003432Y-168765265D01*
X55003431Y-168765267D01*
X54907261Y-168971502D01*
X54907258Y-168971511D01*
X54848366Y-169191302D01*
X54848364Y-169191313D01*
X54828532Y-169417998D01*
X54828532Y-169418001D01*
X54848364Y-169644686D01*
X54848366Y-169644697D01*
X54907258Y-169864488D01*
X54907261Y-169864497D01*
X55003431Y-170070732D01*
X55003432Y-170070734D01*
X55133954Y-170257141D01*
X55294858Y-170418045D01*
X55319462Y-170435273D01*
X55363087Y-170489849D01*
X55370281Y-170559348D01*
X55338758Y-170621703D01*
X55278529Y-170657117D01*
X55261593Y-170660138D01*
X55226516Y-170663908D01*
X55091671Y-170714202D01*
X55091664Y-170714206D01*
X54976455Y-170800452D01*
X54976452Y-170800455D01*
X54890206Y-170915664D01*
X54890202Y-170915671D01*
X54839908Y-171050517D01*
X54833501Y-171110116D01*
X54833500Y-171110127D01*
X54833500Y-171743797D01*
X54833501Y-172333500D01*
X54813816Y-172400539D01*
X54761013Y-172446294D01*
X54709501Y-172457500D01*
X51186889Y-172457500D01*
X51119850Y-172437815D01*
X51099208Y-172421181D01*
X49491511Y-170813484D01*
X49473578Y-170800455D01*
X49300434Y-170674657D01*
X49300433Y-170674656D01*
X49300427Y-170674652D01*
X49296282Y-170672112D01*
X49297194Y-170670622D01*
X49251884Y-170627806D01*
X49235106Y-170559981D01*
X49257661Y-170493852D01*
X49287865Y-170463751D01*
X49353139Y-170418047D01*
X49514047Y-170257139D01*
X49644568Y-170070734D01*
X49740739Y-169864496D01*
X49799635Y-169644692D01*
X49819468Y-169418000D01*
X49799635Y-169191308D01*
X49740739Y-168971504D01*
X49644568Y-168765266D01*
X49514047Y-168578861D01*
X49514045Y-168578858D01*
X49353141Y-168417954D01*
X49166734Y-168287432D01*
X49166728Y-168287429D01*
X49108725Y-168260382D01*
X49056285Y-168214210D01*
X49037133Y-168147017D01*
X49057348Y-168080135D01*
X49108725Y-168035618D01*
X49166734Y-168008568D01*
X49353139Y-167878047D01*
X49514047Y-167717139D01*
X49644568Y-167530734D01*
X49740739Y-167324496D01*
X49799635Y-167104692D01*
X49819468Y-166878000D01*
X49799635Y-166651308D01*
X49740739Y-166431504D01*
X49644568Y-166225266D01*
X49514047Y-166038861D01*
X49514045Y-166038858D01*
X49353141Y-165877954D01*
X49166734Y-165747432D01*
X49166728Y-165747429D01*
X49108725Y-165720382D01*
X49056285Y-165674210D01*
X49037133Y-165607017D01*
X49057348Y-165540135D01*
X49108725Y-165495618D01*
X49166734Y-165468568D01*
X49353139Y-165338047D01*
X49514047Y-165177139D01*
X49644568Y-164990734D01*
X49740739Y-164784496D01*
X49799635Y-164564692D01*
X49819468Y-164338000D01*
X49799635Y-164111308D01*
X49740739Y-163891504D01*
X49644568Y-163685266D01*
X49527086Y-163517483D01*
X49514045Y-163498858D01*
X49353141Y-163337954D01*
X49166734Y-163207432D01*
X49166728Y-163207429D01*
X49108725Y-163180382D01*
X49056285Y-163134210D01*
X49037133Y-163067017D01*
X49057348Y-163000135D01*
X49108725Y-162955618D01*
X49166734Y-162928568D01*
X49353139Y-162798047D01*
X49514047Y-162637139D01*
X49644568Y-162450734D01*
X49740739Y-162244496D01*
X49799635Y-162024692D01*
X49819468Y-161798000D01*
X49799635Y-161571308D01*
X49740739Y-161351504D01*
X49644568Y-161145266D01*
X49514047Y-160958861D01*
X49514045Y-160958858D01*
X49353141Y-160797954D01*
X49166734Y-160667432D01*
X49166728Y-160667429D01*
X49108725Y-160640382D01*
X49056285Y-160594210D01*
X49037133Y-160527017D01*
X49057348Y-160460135D01*
X49108725Y-160415618D01*
X49166734Y-160388568D01*
X49353139Y-160258047D01*
X49514047Y-160097139D01*
X49644568Y-159910734D01*
X49740739Y-159704496D01*
X49799635Y-159484692D01*
X49819468Y-159258000D01*
X49799635Y-159031308D01*
X49740739Y-158811504D01*
X49644568Y-158605266D01*
X49514047Y-158418861D01*
X49514045Y-158418858D01*
X49353141Y-158257954D01*
X49166734Y-158127432D01*
X49166728Y-158127429D01*
X49108725Y-158100382D01*
X49056285Y-158054210D01*
X49037133Y-157987017D01*
X49057348Y-157920135D01*
X49108725Y-157875618D01*
X49166734Y-157848568D01*
X49353139Y-157718047D01*
X49514047Y-157557139D01*
X49644568Y-157370734D01*
X49740739Y-157164496D01*
X49799635Y-156944692D01*
X49819468Y-156718000D01*
X49799635Y-156491308D01*
X49740739Y-156271504D01*
X49644568Y-156065266D01*
X49514047Y-155878861D01*
X49514045Y-155878858D01*
X49353141Y-155717954D01*
X49287867Y-155672249D01*
X49244242Y-155617672D01*
X49237048Y-155548174D01*
X49268571Y-155485819D01*
X49296754Y-155464661D01*
X49296281Y-155463888D01*
X49300426Y-155461347D01*
X49300427Y-155461345D01*
X49300433Y-155461343D01*
X49491510Y-155322517D01*
X49658517Y-155155510D01*
X49797343Y-154964433D01*
X49904568Y-154753992D01*
X49977553Y-154529368D01*
X50010497Y-154321368D01*
X50014500Y-154296097D01*
X50014500Y-150503902D01*
X49977553Y-150270631D01*
X49934329Y-150137602D01*
X49904568Y-150046008D01*
X49904566Y-150046005D01*
X49904566Y-150046003D01*
X49815632Y-149871462D01*
X49797343Y-149835567D01*
X49658517Y-149644490D01*
X49491510Y-149477483D01*
X49300433Y-149338657D01*
X49300432Y-149338656D01*
X49300426Y-149338652D01*
X49296281Y-149336112D01*
X49297196Y-149334618D01*
X49251895Y-149291827D01*
X49235105Y-149224005D01*
X49257648Y-149157872D01*
X49287868Y-149127750D01*
X49328537Y-149099273D01*
X49353139Y-149082047D01*
X49514047Y-148921139D01*
X49644568Y-148734734D01*
X49740739Y-148528496D01*
X49799635Y-148308692D01*
X49819468Y-148082000D01*
X49799635Y-147855308D01*
X49740739Y-147635504D01*
X49644568Y-147429266D01*
X49514047Y-147242861D01*
X49514045Y-147242858D01*
X49353141Y-147081954D01*
X49166734Y-146951432D01*
X49166728Y-146951429D01*
X49108725Y-146924382D01*
X49056285Y-146878210D01*
X49037133Y-146811017D01*
X49057348Y-146744135D01*
X49108725Y-146699618D01*
X49166734Y-146672568D01*
X49353139Y-146542047D01*
X49514047Y-146381139D01*
X49644568Y-146194734D01*
X49740739Y-145988496D01*
X49799635Y-145768692D01*
X49819468Y-145542000D01*
X49799635Y-145315308D01*
X49740739Y-145095504D01*
X49644568Y-144889266D01*
X49514047Y-144702861D01*
X49514045Y-144702858D01*
X49353141Y-144541954D01*
X49166734Y-144411432D01*
X49166728Y-144411429D01*
X49108725Y-144384382D01*
X49056285Y-144338210D01*
X49037133Y-144271017D01*
X49057348Y-144204135D01*
X49108725Y-144159618D01*
X49166734Y-144132568D01*
X49353139Y-144002047D01*
X49514047Y-143841139D01*
X49644568Y-143654734D01*
X49740739Y-143448496D01*
X49799635Y-143228692D01*
X49819468Y-143002000D01*
X49799635Y-142775308D01*
X49740739Y-142555504D01*
X49644568Y-142349266D01*
X49514047Y-142162861D01*
X49514045Y-142162858D01*
X49353141Y-142001954D01*
X49166734Y-141871432D01*
X49166728Y-141871429D01*
X49139038Y-141858517D01*
X49108724Y-141844381D01*
X49056285Y-141798210D01*
X49037133Y-141731017D01*
X49057348Y-141664135D01*
X49108725Y-141619618D01*
X49166734Y-141592568D01*
X49353139Y-141462047D01*
X49514047Y-141301139D01*
X49644568Y-141114734D01*
X49740739Y-140908496D01*
X49799635Y-140688692D01*
X49819468Y-140462000D01*
X49799635Y-140235308D01*
X49740739Y-140015504D01*
X49644568Y-139809266D01*
X49514047Y-139622861D01*
X49514045Y-139622858D01*
X49353141Y-139461954D01*
X49166734Y-139331432D01*
X49166728Y-139331429D01*
X49108725Y-139304382D01*
X49056285Y-139258210D01*
X49037133Y-139191017D01*
X49057348Y-139124135D01*
X49108725Y-139079618D01*
X49166734Y-139052568D01*
X49353139Y-138922047D01*
X49514047Y-138761139D01*
X49644568Y-138574734D01*
X49740739Y-138368496D01*
X49799635Y-138148692D01*
X49819468Y-137922000D01*
X49799635Y-137695308D01*
X49740739Y-137475504D01*
X49644568Y-137269266D01*
X49514047Y-137082861D01*
X49514045Y-137082858D01*
X49353141Y-136921954D01*
X49166734Y-136791432D01*
X49166728Y-136791429D01*
X49108725Y-136764382D01*
X49056285Y-136718210D01*
X49037133Y-136651017D01*
X49057348Y-136584135D01*
X49108725Y-136539618D01*
X49166734Y-136512568D01*
X49353139Y-136382047D01*
X49514047Y-136221139D01*
X49644568Y-136034734D01*
X49740739Y-135828496D01*
X49799635Y-135608692D01*
X49819468Y-135382000D01*
X49799635Y-135155308D01*
X49740739Y-134935504D01*
X49644568Y-134729266D01*
X49514047Y-134542861D01*
X49514045Y-134542858D01*
X49353141Y-134381954D01*
X49287867Y-134336249D01*
X49244242Y-134281672D01*
X49237048Y-134212174D01*
X49268571Y-134149819D01*
X49296754Y-134128661D01*
X49296281Y-134127888D01*
X49300426Y-134125347D01*
X49300427Y-134125345D01*
X49300433Y-134125343D01*
X49491510Y-133986517D01*
X49658517Y-133819510D01*
X49797343Y-133628433D01*
X49904568Y-133417992D01*
X49977553Y-133193368D01*
X49989412Y-133118493D01*
X50014500Y-132960097D01*
X50014500Y-129167902D01*
X49977553Y-128934631D01*
X49943689Y-128830412D01*
X49904568Y-128710008D01*
X49904566Y-128710005D01*
X49904566Y-128710003D01*
X49815632Y-128535462D01*
X49797343Y-128499567D01*
X49658517Y-128308490D01*
X49491510Y-128141483D01*
X49300433Y-128002657D01*
X49300432Y-128002656D01*
X49300426Y-128002652D01*
X49296281Y-128000112D01*
X49297196Y-127998618D01*
X49251895Y-127955827D01*
X49235105Y-127888005D01*
X49257648Y-127821872D01*
X49287868Y-127791750D01*
X49328537Y-127763273D01*
X49353139Y-127746047D01*
X49514047Y-127585139D01*
X49644568Y-127398734D01*
X49740739Y-127192496D01*
X49799635Y-126972692D01*
X49819468Y-126746000D01*
X49799635Y-126519308D01*
X49740739Y-126299504D01*
X49644568Y-126093266D01*
X49514047Y-125906861D01*
X49514045Y-125906858D01*
X49353141Y-125745954D01*
X49166734Y-125615432D01*
X49166728Y-125615429D01*
X49108725Y-125588382D01*
X49056285Y-125542210D01*
X49037133Y-125475017D01*
X49057348Y-125408135D01*
X49108725Y-125363618D01*
X49166734Y-125336568D01*
X49353139Y-125206047D01*
X49514047Y-125045139D01*
X49644568Y-124858734D01*
X49740739Y-124652496D01*
X49799635Y-124432692D01*
X49819468Y-124206000D01*
X49799635Y-123979308D01*
X49740739Y-123759504D01*
X49644568Y-123553266D01*
X49514047Y-123366861D01*
X49514045Y-123366858D01*
X49353141Y-123205954D01*
X49166734Y-123075432D01*
X49166728Y-123075429D01*
X49108725Y-123048382D01*
X49056285Y-123002210D01*
X49037133Y-122935017D01*
X49057348Y-122868135D01*
X49108725Y-122823618D01*
X49166734Y-122796568D01*
X49353139Y-122666047D01*
X49514047Y-122505139D01*
X49644568Y-122318734D01*
X49740739Y-122112496D01*
X49799635Y-121892692D01*
X49819468Y-121666000D01*
X49799635Y-121439308D01*
X49740739Y-121219504D01*
X49644568Y-121013266D01*
X49514047Y-120826861D01*
X49514045Y-120826858D01*
X49353141Y-120665954D01*
X49166734Y-120535432D01*
X49166728Y-120535429D01*
X49108725Y-120508382D01*
X49056285Y-120462210D01*
X49037133Y-120395017D01*
X49057348Y-120328135D01*
X49108725Y-120283618D01*
X49166734Y-120256568D01*
X49353139Y-120126047D01*
X49514047Y-119965139D01*
X49644568Y-119778734D01*
X49740739Y-119572496D01*
X49799635Y-119352692D01*
X49819468Y-119126000D01*
X49799635Y-118899308D01*
X49740739Y-118679504D01*
X49644568Y-118473266D01*
X49514047Y-118286861D01*
X49514045Y-118286858D01*
X49353141Y-118125954D01*
X49166734Y-117995432D01*
X49166728Y-117995429D01*
X49108725Y-117968382D01*
X49056285Y-117922210D01*
X49037133Y-117855017D01*
X49057348Y-117788135D01*
X49108725Y-117743618D01*
X49166734Y-117716568D01*
X49353139Y-117586047D01*
X49514047Y-117425139D01*
X49644568Y-117238734D01*
X49740739Y-117032496D01*
X49799635Y-116812692D01*
X49819468Y-116586000D01*
X49799635Y-116359308D01*
X49740739Y-116139504D01*
X49644568Y-115933266D01*
X49514047Y-115746861D01*
X49514045Y-115746858D01*
X49353141Y-115585954D01*
X49166734Y-115455432D01*
X49166728Y-115455429D01*
X49108725Y-115428382D01*
X49056285Y-115382210D01*
X49037133Y-115315017D01*
X49057348Y-115248135D01*
X49108725Y-115203618D01*
X49166734Y-115176568D01*
X49353139Y-115046047D01*
X49514047Y-114885139D01*
X49644568Y-114698734D01*
X49740739Y-114492496D01*
X49799635Y-114272692D01*
X49819468Y-114046000D01*
X49819468Y-114045998D01*
X54828532Y-114045998D01*
X54828532Y-114046001D01*
X54848364Y-114272686D01*
X54848366Y-114272697D01*
X54907258Y-114492488D01*
X54907261Y-114492497D01*
X55003431Y-114698732D01*
X55003432Y-114698734D01*
X55133954Y-114885141D01*
X55294858Y-115046045D01*
X55294861Y-115046047D01*
X55481266Y-115176568D01*
X55539275Y-115203618D01*
X55591714Y-115249791D01*
X55610866Y-115316984D01*
X55590650Y-115383865D01*
X55539275Y-115428382D01*
X55481267Y-115455431D01*
X55481265Y-115455432D01*
X55294858Y-115585954D01*
X55133954Y-115746858D01*
X55003432Y-115933265D01*
X55003431Y-115933267D01*
X54907261Y-116139502D01*
X54907258Y-116139511D01*
X54848366Y-116359302D01*
X54848364Y-116359313D01*
X54828532Y-116585998D01*
X54828532Y-116586001D01*
X54848364Y-116812686D01*
X54848366Y-116812697D01*
X54907258Y-117032488D01*
X54907261Y-117032497D01*
X55003431Y-117238732D01*
X55003432Y-117238734D01*
X55133954Y-117425141D01*
X55294858Y-117586045D01*
X55294861Y-117586047D01*
X55481266Y-117716568D01*
X55539275Y-117743618D01*
X55591714Y-117789791D01*
X55610866Y-117856984D01*
X55590650Y-117923865D01*
X55539275Y-117968382D01*
X55481267Y-117995431D01*
X55481265Y-117995432D01*
X55294858Y-118125954D01*
X55133954Y-118286858D01*
X55003432Y-118473265D01*
X55003431Y-118473267D01*
X54907261Y-118679502D01*
X54907258Y-118679511D01*
X54848366Y-118899302D01*
X54848364Y-118899313D01*
X54828532Y-119125998D01*
X54828532Y-119126001D01*
X54848364Y-119352686D01*
X54848366Y-119352697D01*
X54907258Y-119572488D01*
X54907261Y-119572497D01*
X55003431Y-119778732D01*
X55003432Y-119778734D01*
X55133954Y-119965141D01*
X55294858Y-120126045D01*
X55294861Y-120126047D01*
X55481266Y-120256568D01*
X55539275Y-120283618D01*
X55591714Y-120329791D01*
X55610866Y-120396984D01*
X55590650Y-120463865D01*
X55539275Y-120508382D01*
X55481267Y-120535431D01*
X55481265Y-120535432D01*
X55294858Y-120665954D01*
X55133954Y-120826858D01*
X55003432Y-121013265D01*
X55003431Y-121013267D01*
X54907261Y-121219502D01*
X54907258Y-121219511D01*
X54848366Y-121439302D01*
X54848364Y-121439313D01*
X54828532Y-121665998D01*
X54828532Y-121666001D01*
X54848364Y-121892686D01*
X54848366Y-121892697D01*
X54907258Y-122112488D01*
X54907261Y-122112497D01*
X55003431Y-122318732D01*
X55003432Y-122318734D01*
X55133954Y-122505141D01*
X55294858Y-122666045D01*
X55294861Y-122666047D01*
X55481266Y-122796568D01*
X55539275Y-122823618D01*
X55591714Y-122869791D01*
X55610866Y-122936984D01*
X55590650Y-123003865D01*
X55539275Y-123048382D01*
X55481267Y-123075431D01*
X55481265Y-123075432D01*
X55294858Y-123205954D01*
X55133954Y-123366858D01*
X55003432Y-123553265D01*
X55003431Y-123553267D01*
X54907261Y-123759502D01*
X54907258Y-123759511D01*
X54848366Y-123979302D01*
X54848364Y-123979313D01*
X54828532Y-124205998D01*
X54828532Y-124206001D01*
X54848364Y-124432686D01*
X54848366Y-124432697D01*
X54907258Y-124652488D01*
X54907261Y-124652497D01*
X55003431Y-124858732D01*
X55003432Y-124858734D01*
X55133954Y-125045141D01*
X55294858Y-125206045D01*
X55294861Y-125206047D01*
X55481266Y-125336568D01*
X55539275Y-125363618D01*
X55591714Y-125409791D01*
X55610866Y-125476984D01*
X55590650Y-125543865D01*
X55539275Y-125588382D01*
X55481267Y-125615431D01*
X55481265Y-125615432D01*
X55294858Y-125745954D01*
X55133954Y-125906858D01*
X55003432Y-126093265D01*
X55003431Y-126093267D01*
X54907261Y-126299502D01*
X54907258Y-126299511D01*
X54848366Y-126519302D01*
X54848364Y-126519313D01*
X54828532Y-126745998D01*
X54828532Y-126746001D01*
X54848364Y-126972686D01*
X54848366Y-126972697D01*
X54907258Y-127192488D01*
X54907261Y-127192497D01*
X55003431Y-127398732D01*
X55003432Y-127398734D01*
X55133954Y-127585141D01*
X55294858Y-127746045D01*
X55319462Y-127763273D01*
X55363087Y-127817849D01*
X55370281Y-127887348D01*
X55338758Y-127949703D01*
X55278529Y-127985117D01*
X55261593Y-127988138D01*
X55226516Y-127991908D01*
X55091671Y-128042202D01*
X55091664Y-128042206D01*
X54976455Y-128128452D01*
X54976452Y-128128455D01*
X54890206Y-128243664D01*
X54890202Y-128243671D01*
X54839908Y-128378517D01*
X54835436Y-128420117D01*
X54833501Y-128438123D01*
X54833500Y-128438135D01*
X54833500Y-130133870D01*
X54833501Y-130133876D01*
X54839908Y-130193483D01*
X54890202Y-130328328D01*
X54890206Y-130328335D01*
X54976452Y-130443544D01*
X54976455Y-130443547D01*
X55091664Y-130529793D01*
X55091671Y-130529797D01*
X55226517Y-130580091D01*
X55226516Y-130580091D01*
X55233444Y-130580835D01*
X55286127Y-130586500D01*
X56981872Y-130586499D01*
X57041483Y-130580091D01*
X57176331Y-130529796D01*
X57291546Y-130443546D01*
X57377796Y-130328331D01*
X57428091Y-130193483D01*
X57434500Y-130133873D01*
X57434499Y-128438128D01*
X57428091Y-128378517D01*
X57427346Y-128376520D01*
X57377797Y-128243671D01*
X57377793Y-128243664D01*
X57291547Y-128128455D01*
X57291544Y-128128452D01*
X57176335Y-128042206D01*
X57176328Y-128042202D01*
X57041482Y-127991908D01*
X57041483Y-127991908D01*
X57006404Y-127988137D01*
X56941853Y-127961399D01*
X56902005Y-127904006D01*
X56899512Y-127834181D01*
X56935165Y-127774092D01*
X56948539Y-127763272D01*
X56973140Y-127746046D01*
X57134045Y-127585141D01*
X57134047Y-127585139D01*
X57264568Y-127398734D01*
X57360739Y-127192496D01*
X57419635Y-126972692D01*
X57439468Y-126746000D01*
X57419635Y-126519308D01*
X57360739Y-126299504D01*
X57264568Y-126093266D01*
X57134047Y-125906861D01*
X57134045Y-125906858D01*
X56973141Y-125745954D01*
X56786734Y-125615432D01*
X56786728Y-125615429D01*
X56728725Y-125588382D01*
X56676285Y-125542210D01*
X56657133Y-125475017D01*
X56677348Y-125408135D01*
X56728725Y-125363618D01*
X56786734Y-125336568D01*
X56973139Y-125206047D01*
X57134047Y-125045139D01*
X57264568Y-124858734D01*
X57360739Y-124652496D01*
X57419635Y-124432692D01*
X57439468Y-124206000D01*
X57419635Y-123979308D01*
X57360739Y-123759504D01*
X57264568Y-123553266D01*
X57134047Y-123366861D01*
X57134045Y-123366858D01*
X56973141Y-123205954D01*
X56786734Y-123075432D01*
X56786728Y-123075429D01*
X56728725Y-123048382D01*
X56676285Y-123002210D01*
X56657133Y-122935017D01*
X56677348Y-122868135D01*
X56728725Y-122823618D01*
X56786734Y-122796568D01*
X56973139Y-122666047D01*
X57134047Y-122505139D01*
X57264568Y-122318734D01*
X57360739Y-122112496D01*
X57419635Y-121892692D01*
X57439468Y-121666000D01*
X57419635Y-121439308D01*
X57360739Y-121219504D01*
X57264568Y-121013266D01*
X57134047Y-120826861D01*
X57134045Y-120826858D01*
X56973141Y-120665954D01*
X56786734Y-120535432D01*
X56786728Y-120535429D01*
X56728725Y-120508382D01*
X56676285Y-120462210D01*
X56657133Y-120395017D01*
X56677348Y-120328135D01*
X56728725Y-120283618D01*
X56786734Y-120256568D01*
X56973139Y-120126047D01*
X57134047Y-119965139D01*
X57264568Y-119778734D01*
X57360739Y-119572496D01*
X57419635Y-119352692D01*
X57439468Y-119126000D01*
X57419635Y-118899308D01*
X57360739Y-118679504D01*
X57264568Y-118473266D01*
X57134047Y-118286861D01*
X57134045Y-118286858D01*
X56973141Y-118125954D01*
X56786734Y-117995432D01*
X56786728Y-117995429D01*
X56728725Y-117968382D01*
X56676285Y-117922210D01*
X56657133Y-117855017D01*
X56677348Y-117788135D01*
X56728725Y-117743618D01*
X56786734Y-117716568D01*
X56973139Y-117586047D01*
X57134047Y-117425139D01*
X57264568Y-117238734D01*
X57360739Y-117032496D01*
X57419635Y-116812692D01*
X57439468Y-116586000D01*
X57419635Y-116359308D01*
X57360739Y-116139504D01*
X57264568Y-115933266D01*
X57134047Y-115746861D01*
X57134045Y-115746858D01*
X56973141Y-115585954D01*
X56786734Y-115455432D01*
X56786728Y-115455429D01*
X56728725Y-115428382D01*
X56676285Y-115382210D01*
X56657133Y-115315017D01*
X56677348Y-115248135D01*
X56728725Y-115203618D01*
X56786734Y-115176568D01*
X56973139Y-115046047D01*
X57134047Y-114885139D01*
X57264568Y-114698734D01*
X57360739Y-114492496D01*
X57419635Y-114272692D01*
X57439468Y-114046000D01*
X57419635Y-113819308D01*
X57360739Y-113599504D01*
X57264568Y-113393266D01*
X57134047Y-113206861D01*
X57134045Y-113206858D01*
X56973141Y-113045954D01*
X56786734Y-112915432D01*
X56786732Y-112915431D01*
X56580497Y-112819261D01*
X56580488Y-112819258D01*
X56360697Y-112760366D01*
X56360693Y-112760365D01*
X56360692Y-112760365D01*
X56360691Y-112760364D01*
X56360686Y-112760364D01*
X56134002Y-112740532D01*
X56133998Y-112740532D01*
X55907313Y-112760364D01*
X55907302Y-112760366D01*
X55687511Y-112819258D01*
X55687502Y-112819261D01*
X55481267Y-112915431D01*
X55481265Y-112915432D01*
X55294858Y-113045954D01*
X55133954Y-113206858D01*
X55003432Y-113393265D01*
X55003431Y-113393267D01*
X54907261Y-113599502D01*
X54907258Y-113599511D01*
X54848366Y-113819302D01*
X54848364Y-113819313D01*
X54828532Y-114045998D01*
X49819468Y-114045998D01*
X49799635Y-113819308D01*
X49740739Y-113599504D01*
X49644568Y-113393266D01*
X49514047Y-113206861D01*
X49514045Y-113206858D01*
X49353141Y-113045954D01*
X49287867Y-113000249D01*
X49244242Y-112945672D01*
X49237048Y-112876174D01*
X49268571Y-112813819D01*
X49296760Y-112792657D01*
X49296286Y-112791884D01*
X49300422Y-112789348D01*
X49300434Y-112789343D01*
X49491510Y-112650517D01*
X50636028Y-111505999D01*
X69256341Y-111505999D01*
X69256341Y-111506000D01*
X69276936Y-111741403D01*
X69276938Y-111741413D01*
X69338094Y-111969655D01*
X69338096Y-111969659D01*
X69338097Y-111969663D01*
X69361798Y-112020490D01*
X69437965Y-112183830D01*
X69437967Y-112183834D01*
X69573501Y-112377395D01*
X69573506Y-112377402D01*
X69740597Y-112544493D01*
X69740603Y-112544498D01*
X69926158Y-112674425D01*
X69969783Y-112729002D01*
X69976977Y-112798500D01*
X69945454Y-112860855D01*
X69926158Y-112877575D01*
X69740597Y-113007505D01*
X69573505Y-113174597D01*
X69437965Y-113368169D01*
X69437964Y-113368171D01*
X69338098Y-113582335D01*
X69338094Y-113582344D01*
X69276938Y-113810586D01*
X69276936Y-113810596D01*
X69256341Y-114045999D01*
X69256341Y-114046000D01*
X69276936Y-114281403D01*
X69276938Y-114281413D01*
X69338094Y-114509655D01*
X69338096Y-114509659D01*
X69338097Y-114509663D01*
X69426262Y-114698732D01*
X69437965Y-114723830D01*
X69437967Y-114723834D01*
X69546281Y-114878521D01*
X69573505Y-114917401D01*
X69740599Y-115084495D01*
X69837384Y-115152265D01*
X69934165Y-115220032D01*
X69934167Y-115220033D01*
X69934170Y-115220035D01*
X70148337Y-115319903D01*
X70376592Y-115381063D01*
X70564918Y-115397539D01*
X70611999Y-115401659D01*
X70612000Y-115401659D01*
X70612001Y-115401659D01*
X70651234Y-115398226D01*
X70847408Y-115381063D01*
X71075663Y-115319903D01*
X71289830Y-115220035D01*
X71483401Y-115084495D01*
X71650495Y-114917401D01*
X71786035Y-114723830D01*
X71885903Y-114509663D01*
X71947063Y-114281408D01*
X71967659Y-114046000D01*
X71947063Y-113810592D01*
X71885903Y-113582337D01*
X71786035Y-113368171D01*
X71711345Y-113261501D01*
X71650494Y-113174597D01*
X71483402Y-113007506D01*
X71483396Y-113007501D01*
X71297842Y-112877575D01*
X71254217Y-112822998D01*
X71247023Y-112753500D01*
X71278546Y-112691145D01*
X71297842Y-112674425D01*
X71385500Y-112613046D01*
X71483401Y-112544495D01*
X71650495Y-112377401D01*
X71786035Y-112183830D01*
X71885903Y-111969663D01*
X71947063Y-111741408D01*
X71947536Y-111735999D01*
X75606341Y-111735999D01*
X75606341Y-111736000D01*
X75626936Y-111971403D01*
X75626938Y-111971413D01*
X75688094Y-112199655D01*
X75688096Y-112199659D01*
X75688097Y-112199663D01*
X75699289Y-112223664D01*
X75787965Y-112413830D01*
X75787967Y-112413834D01*
X75879456Y-112544493D01*
X75923505Y-112607401D01*
X76090599Y-112774495D01*
X76187384Y-112842265D01*
X76284165Y-112910032D01*
X76284167Y-112910033D01*
X76284170Y-112910035D01*
X76498337Y-113009903D01*
X76726592Y-113071063D01*
X76914918Y-113087539D01*
X76961999Y-113091659D01*
X76962000Y-113091659D01*
X76962001Y-113091659D01*
X77001234Y-113088226D01*
X77197408Y-113071063D01*
X77425663Y-113009903D01*
X77639830Y-112910035D01*
X77833401Y-112774495D01*
X78000495Y-112607401D01*
X78136035Y-112413830D01*
X78235903Y-112199663D01*
X78297063Y-111971408D01*
X78317659Y-111736000D01*
X78317659Y-111735999D01*
X80686341Y-111735999D01*
X80686341Y-111736000D01*
X80706936Y-111971403D01*
X80706938Y-111971413D01*
X80768094Y-112199655D01*
X80768096Y-112199659D01*
X80768097Y-112199663D01*
X80779289Y-112223664D01*
X80867965Y-112413830D01*
X80867967Y-112413834D01*
X80959456Y-112544493D01*
X81003505Y-112607401D01*
X81170599Y-112774495D01*
X81267384Y-112842265D01*
X81364165Y-112910032D01*
X81364167Y-112910033D01*
X81364170Y-112910035D01*
X81578337Y-113009903D01*
X81806592Y-113071063D01*
X81994918Y-113087539D01*
X82041999Y-113091659D01*
X82042000Y-113091659D01*
X82042001Y-113091659D01*
X82081234Y-113088226D01*
X82277408Y-113071063D01*
X82505663Y-113009903D01*
X82719830Y-112910035D01*
X82913401Y-112774495D01*
X83080495Y-112607401D01*
X83216035Y-112413830D01*
X83315903Y-112199663D01*
X83377063Y-111971408D01*
X83397659Y-111736000D01*
X83377063Y-111500592D01*
X83315903Y-111272337D01*
X83216035Y-111058171D01*
X83080495Y-110864599D01*
X83080494Y-110864597D01*
X82913402Y-110697506D01*
X82913395Y-110697501D01*
X82719834Y-110561967D01*
X82719830Y-110561965D01*
X82719828Y-110561964D01*
X82505663Y-110462097D01*
X82505659Y-110462096D01*
X82505655Y-110462094D01*
X82277413Y-110400938D01*
X82277403Y-110400936D01*
X82042001Y-110380341D01*
X82041999Y-110380341D01*
X81806596Y-110400936D01*
X81806586Y-110400938D01*
X81578344Y-110462094D01*
X81578335Y-110462098D01*
X81364171Y-110561964D01*
X81364169Y-110561965D01*
X81170597Y-110697505D01*
X81003505Y-110864597D01*
X80867965Y-111058169D01*
X80867964Y-111058171D01*
X80768098Y-111272335D01*
X80768094Y-111272344D01*
X80706938Y-111500586D01*
X80706936Y-111500596D01*
X80686341Y-111735999D01*
X78317659Y-111735999D01*
X78297063Y-111500592D01*
X78235903Y-111272337D01*
X78136035Y-111058171D01*
X78000495Y-110864599D01*
X78000494Y-110864597D01*
X77833402Y-110697506D01*
X77833395Y-110697501D01*
X77639834Y-110561967D01*
X77639830Y-110561965D01*
X77639828Y-110561964D01*
X77425663Y-110462097D01*
X77425659Y-110462096D01*
X77425655Y-110462094D01*
X77197413Y-110400938D01*
X77197403Y-110400936D01*
X76962001Y-110380341D01*
X76961999Y-110380341D01*
X76726596Y-110400936D01*
X76726586Y-110400938D01*
X76498344Y-110462094D01*
X76498335Y-110462098D01*
X76284171Y-110561964D01*
X76284169Y-110561965D01*
X76090597Y-110697505D01*
X75923505Y-110864597D01*
X75787965Y-111058169D01*
X75787964Y-111058171D01*
X75688098Y-111272335D01*
X75688094Y-111272344D01*
X75626938Y-111500586D01*
X75626936Y-111500596D01*
X75606341Y-111735999D01*
X71947536Y-111735999D01*
X71967659Y-111506000D01*
X71947063Y-111270592D01*
X71885903Y-111042337D01*
X71786035Y-110828171D01*
X71711345Y-110721501D01*
X71650494Y-110634597D01*
X71483402Y-110467506D01*
X71483395Y-110467501D01*
X71475677Y-110462097D01*
X71388334Y-110400938D01*
X71289834Y-110331967D01*
X71289830Y-110331965D01*
X71289828Y-110331964D01*
X71075663Y-110232097D01*
X71075659Y-110232096D01*
X71075655Y-110232094D01*
X70847413Y-110170938D01*
X70847403Y-110170936D01*
X70612001Y-110150341D01*
X70611999Y-110150341D01*
X70376596Y-110170936D01*
X70376586Y-110170938D01*
X70148344Y-110232094D01*
X70148335Y-110232098D01*
X69934171Y-110331964D01*
X69934169Y-110331965D01*
X69740597Y-110467505D01*
X69573505Y-110634597D01*
X69437965Y-110828169D01*
X69437964Y-110828171D01*
X69338098Y-111042335D01*
X69338094Y-111042344D01*
X69276938Y-111270586D01*
X69276936Y-111270596D01*
X69256341Y-111505999D01*
X50636028Y-111505999D01*
X52941209Y-109200819D01*
X53002532Y-109167334D01*
X53028890Y-109164500D01*
X68828525Y-109164500D01*
X69061796Y-109127553D01*
X69286420Y-109054568D01*
X69496862Y-108947343D01*
X69687938Y-108808517D01*
X70486518Y-108009938D01*
X70625343Y-107818861D01*
X70732568Y-107608420D01*
X70805553Y-107383796D01*
X70842500Y-107150525D01*
X70842500Y-106761843D01*
X70862185Y-106694804D01*
X70914989Y-106649049D01*
X70984147Y-106639105D01*
X71037126Y-106662798D01*
X71038426Y-106660942D01*
X71086787Y-106694804D01*
X71229266Y-106794568D01*
X71435504Y-106890739D01*
X71655308Y-106949635D01*
X71817230Y-106963801D01*
X71881998Y-106969468D01*
X71882000Y-106969468D01*
X71882002Y-106969468D01*
X71938673Y-106964509D01*
X72108692Y-106949635D01*
X72328496Y-106890739D01*
X72534734Y-106794568D01*
X72721139Y-106664047D01*
X72882047Y-106503139D01*
X73012568Y-106316734D01*
X73039618Y-106258724D01*
X73085790Y-106206285D01*
X73152983Y-106187133D01*
X73219865Y-106207348D01*
X73264382Y-106258725D01*
X73291429Y-106316728D01*
X73291432Y-106316734D01*
X73421954Y-106503141D01*
X73582858Y-106664045D01*
X73582861Y-106664047D01*
X73769266Y-106794568D01*
X73975504Y-106890739D01*
X74195308Y-106949635D01*
X74357230Y-106963801D01*
X74421998Y-106969468D01*
X74422000Y-106969468D01*
X74422002Y-106969468D01*
X74478673Y-106964509D01*
X74648692Y-106949635D01*
X74868496Y-106890739D01*
X75074734Y-106794568D01*
X75261139Y-106664047D01*
X75422047Y-106503139D01*
X75552568Y-106316734D01*
X75579618Y-106258724D01*
X75625790Y-106206285D01*
X75692983Y-106187133D01*
X75759865Y-106207348D01*
X75804382Y-106258725D01*
X75831429Y-106316728D01*
X75831432Y-106316734D01*
X75961954Y-106503141D01*
X76122858Y-106664045D01*
X76122861Y-106664047D01*
X76309266Y-106794568D01*
X76515504Y-106890739D01*
X76735308Y-106949635D01*
X76897230Y-106963801D01*
X76961998Y-106969468D01*
X76962000Y-106969468D01*
X76962002Y-106969468D01*
X77018673Y-106964509D01*
X77188692Y-106949635D01*
X77408496Y-106890739D01*
X77614734Y-106794568D01*
X77801139Y-106664047D01*
X77962047Y-106503139D01*
X78092568Y-106316734D01*
X78188739Y-106110496D01*
X78247635Y-105890692D01*
X78267468Y-105664000D01*
X78247635Y-105437308D01*
X78188739Y-105217504D01*
X78092568Y-105011266D01*
X77962047Y-104824861D01*
X77962045Y-104824858D01*
X77801141Y-104663954D01*
X77614734Y-104533432D01*
X77614732Y-104533431D01*
X77408497Y-104437261D01*
X77408488Y-104437258D01*
X77188697Y-104378366D01*
X77188693Y-104378365D01*
X77188692Y-104378365D01*
X77188691Y-104378364D01*
X77188686Y-104378364D01*
X76962002Y-104358532D01*
X76961998Y-104358532D01*
X76735313Y-104378364D01*
X76735302Y-104378366D01*
X76515511Y-104437258D01*
X76515502Y-104437261D01*
X76309267Y-104533431D01*
X76309265Y-104533432D01*
X76122858Y-104663954D01*
X75961954Y-104824858D01*
X75831432Y-105011265D01*
X75831431Y-105011267D01*
X75804382Y-105069275D01*
X75758209Y-105121714D01*
X75691016Y-105140866D01*
X75624135Y-105120650D01*
X75579618Y-105069275D01*
X75552568Y-105011267D01*
X75552567Y-105011265D01*
X75504694Y-104942895D01*
X75422047Y-104824861D01*
X75422045Y-104824858D01*
X75261141Y-104663954D01*
X75074734Y-104533432D01*
X75074732Y-104533431D01*
X74868497Y-104437261D01*
X74868488Y-104437258D01*
X74648697Y-104378366D01*
X74648693Y-104378365D01*
X74648692Y-104378365D01*
X74648691Y-104378364D01*
X74648686Y-104378364D01*
X74422002Y-104358532D01*
X74421998Y-104358532D01*
X74195313Y-104378364D01*
X74195302Y-104378366D01*
X73975511Y-104437258D01*
X73975502Y-104437261D01*
X73769267Y-104533431D01*
X73769265Y-104533432D01*
X73582858Y-104663954D01*
X73421954Y-104824858D01*
X73291432Y-105011265D01*
X73291431Y-105011267D01*
X73264382Y-105069275D01*
X73218209Y-105121714D01*
X73151016Y-105140866D01*
X73084135Y-105120650D01*
X73039618Y-105069275D01*
X73012568Y-105011267D01*
X73012567Y-105011265D01*
X72964694Y-104942895D01*
X72882047Y-104824861D01*
X72882045Y-104824858D01*
X72721141Y-104663954D01*
X72534734Y-104533432D01*
X72534732Y-104533431D01*
X72328497Y-104437261D01*
X72328488Y-104437258D01*
X72108697Y-104378366D01*
X72108693Y-104378365D01*
X72108692Y-104378365D01*
X72108691Y-104378364D01*
X72108686Y-104378364D01*
X71882002Y-104358532D01*
X71881998Y-104358532D01*
X71655313Y-104378364D01*
X71655302Y-104378366D01*
X71435511Y-104437258D01*
X71435502Y-104437261D01*
X71229267Y-104533431D01*
X71229265Y-104533432D01*
X71042858Y-104663954D01*
X70881956Y-104824856D01*
X70836249Y-104890133D01*
X70781672Y-104933758D01*
X70712173Y-104940950D01*
X70649819Y-104909428D01*
X70628659Y-104881246D01*
X70627888Y-104881719D01*
X70625347Y-104877573D01*
X70625343Y-104877567D01*
X70486517Y-104686490D01*
X70319510Y-104519483D01*
X70128433Y-104380657D01*
X70099239Y-104365782D01*
X69917996Y-104273433D01*
X69693368Y-104200446D01*
X69460097Y-104163500D01*
X69460092Y-104163500D01*
X69223908Y-104163500D01*
X69223903Y-104163500D01*
X68990631Y-104200446D01*
X68766003Y-104273433D01*
X68555566Y-104380657D01*
X68473964Y-104439945D01*
X68364490Y-104519483D01*
X68364488Y-104519485D01*
X68364487Y-104519485D01*
X68197485Y-104686487D01*
X68197485Y-104686488D01*
X68197483Y-104686490D01*
X68133552Y-104774482D01*
X68058652Y-104877573D01*
X68056112Y-104881719D01*
X68054618Y-104880803D01*
X68011827Y-104926105D01*
X67944005Y-104942895D01*
X67877872Y-104920352D01*
X67847750Y-104890132D01*
X67802045Y-104824858D01*
X67641141Y-104663954D01*
X67454734Y-104533432D01*
X67454732Y-104533431D01*
X67248497Y-104437261D01*
X67248488Y-104437258D01*
X67028697Y-104378366D01*
X67028693Y-104378365D01*
X67028692Y-104378365D01*
X67028691Y-104378364D01*
X67028686Y-104378364D01*
X66802002Y-104358532D01*
X66801998Y-104358532D01*
X66575313Y-104378364D01*
X66575302Y-104378366D01*
X66355511Y-104437258D01*
X66355502Y-104437261D01*
X66149267Y-104533431D01*
X66149265Y-104533432D01*
X65962858Y-104663954D01*
X65801954Y-104824858D01*
X65671432Y-105011265D01*
X65671431Y-105011267D01*
X65644382Y-105069275D01*
X65598209Y-105121714D01*
X65531016Y-105140866D01*
X65464135Y-105120650D01*
X65419618Y-105069275D01*
X65392568Y-105011267D01*
X65392567Y-105011265D01*
X65344694Y-104942895D01*
X65262047Y-104824861D01*
X65262045Y-104824858D01*
X65101141Y-104663954D01*
X64914734Y-104533432D01*
X64914732Y-104533431D01*
X64708497Y-104437261D01*
X64708488Y-104437258D01*
X64488697Y-104378366D01*
X64488693Y-104378365D01*
X64488692Y-104378365D01*
X64488691Y-104378364D01*
X64488686Y-104378364D01*
X64262002Y-104358532D01*
X64261998Y-104358532D01*
X64035313Y-104378364D01*
X64035302Y-104378366D01*
X63815511Y-104437258D01*
X63815502Y-104437261D01*
X63609267Y-104533431D01*
X63609265Y-104533432D01*
X63422858Y-104663954D01*
X63261954Y-104824858D01*
X63131432Y-105011265D01*
X63131431Y-105011267D01*
X63104382Y-105069275D01*
X63058209Y-105121714D01*
X62991016Y-105140866D01*
X62924135Y-105120650D01*
X62879618Y-105069275D01*
X62852568Y-105011267D01*
X62852567Y-105011265D01*
X62804694Y-104942895D01*
X62722047Y-104824861D01*
X62722045Y-104824858D01*
X62561141Y-104663954D01*
X62374734Y-104533432D01*
X62374732Y-104533431D01*
X62168497Y-104437261D01*
X62168488Y-104437258D01*
X61948697Y-104378366D01*
X61948693Y-104378365D01*
X61948692Y-104378365D01*
X61948691Y-104378364D01*
X61948686Y-104378364D01*
X61722002Y-104358532D01*
X61721998Y-104358532D01*
X61495313Y-104378364D01*
X61495302Y-104378366D01*
X61275511Y-104437258D01*
X61275502Y-104437261D01*
X61069267Y-104533431D01*
X61069265Y-104533432D01*
X60882858Y-104663954D01*
X60721954Y-104824858D01*
X60591432Y-105011265D01*
X60591431Y-105011267D01*
X60564382Y-105069275D01*
X60518209Y-105121714D01*
X60451016Y-105140866D01*
X60384135Y-105120650D01*
X60339618Y-105069275D01*
X60312568Y-105011267D01*
X60312567Y-105011265D01*
X60264694Y-104942895D01*
X60182047Y-104824861D01*
X60182045Y-104824858D01*
X60021141Y-104663954D01*
X59834734Y-104533432D01*
X59834732Y-104533431D01*
X59628497Y-104437261D01*
X59628488Y-104437258D01*
X59408697Y-104378366D01*
X59408693Y-104378365D01*
X59408692Y-104378365D01*
X59408691Y-104378364D01*
X59408686Y-104378364D01*
X59182002Y-104358532D01*
X59181998Y-104358532D01*
X58955313Y-104378364D01*
X58955302Y-104378366D01*
X58735511Y-104437258D01*
X58735502Y-104437261D01*
X58529267Y-104533431D01*
X58529265Y-104533432D01*
X58342858Y-104663954D01*
X58181954Y-104824858D01*
X58051432Y-105011265D01*
X58051431Y-105011267D01*
X58024382Y-105069275D01*
X57978209Y-105121714D01*
X57911016Y-105140866D01*
X57844135Y-105120650D01*
X57799618Y-105069275D01*
X57772568Y-105011267D01*
X57772567Y-105011265D01*
X57724694Y-104942895D01*
X57642047Y-104824861D01*
X57642045Y-104824858D01*
X57481141Y-104663954D01*
X57294734Y-104533432D01*
X57294732Y-104533431D01*
X57088497Y-104437261D01*
X57088488Y-104437258D01*
X56868697Y-104378366D01*
X56868693Y-104378365D01*
X56868692Y-104378365D01*
X56868691Y-104378364D01*
X56868686Y-104378364D01*
X56642002Y-104358532D01*
X56641998Y-104358532D01*
X56415313Y-104378364D01*
X56415302Y-104378366D01*
X56195511Y-104437258D01*
X56195502Y-104437261D01*
X55989267Y-104533431D01*
X55989265Y-104533432D01*
X55802858Y-104663954D01*
X55641954Y-104824858D01*
X55511432Y-105011265D01*
X55511431Y-105011267D01*
X55484382Y-105069275D01*
X55438209Y-105121714D01*
X55371016Y-105140866D01*
X55304135Y-105120650D01*
X55259618Y-105069275D01*
X55232568Y-105011267D01*
X55232567Y-105011265D01*
X55184694Y-104942895D01*
X55102047Y-104824861D01*
X55102045Y-104824858D01*
X54941141Y-104663954D01*
X54754734Y-104533432D01*
X54754732Y-104533431D01*
X54548497Y-104437261D01*
X54548488Y-104437258D01*
X54328697Y-104378366D01*
X54328693Y-104378365D01*
X54328692Y-104378365D01*
X54328691Y-104378364D01*
X54328686Y-104378364D01*
X54102002Y-104358532D01*
X54101998Y-104358532D01*
X53875313Y-104378364D01*
X53875302Y-104378366D01*
X53655511Y-104437258D01*
X53655502Y-104437261D01*
X53449267Y-104533431D01*
X53449265Y-104533432D01*
X53262858Y-104663954D01*
X53101954Y-104824858D01*
X52971432Y-105011265D01*
X52971431Y-105011267D01*
X52944382Y-105069275D01*
X52898209Y-105121714D01*
X52831016Y-105140866D01*
X52764135Y-105120650D01*
X52719618Y-105069275D01*
X52692568Y-105011267D01*
X52692567Y-105011265D01*
X52644694Y-104942895D01*
X52562047Y-104824861D01*
X52562045Y-104824858D01*
X52401141Y-104663954D01*
X52214734Y-104533432D01*
X52214732Y-104533431D01*
X52008497Y-104437261D01*
X52008488Y-104437258D01*
X51788697Y-104378366D01*
X51788693Y-104378365D01*
X51788692Y-104378365D01*
X51788691Y-104378364D01*
X51788686Y-104378364D01*
X51562002Y-104358532D01*
X51561998Y-104358532D01*
X51335313Y-104378364D01*
X51335302Y-104378366D01*
X51115511Y-104437258D01*
X51115502Y-104437261D01*
X50909267Y-104533431D01*
X50909265Y-104533432D01*
X50722858Y-104663954D01*
X50561954Y-104824858D01*
X50431432Y-105011265D01*
X50431431Y-105011267D01*
X50404382Y-105069275D01*
X50358209Y-105121714D01*
X50291016Y-105140866D01*
X50224135Y-105120650D01*
X50179618Y-105069275D01*
X50152568Y-105011267D01*
X50152567Y-105011265D01*
X50104694Y-104942895D01*
X50022047Y-104824861D01*
X50022045Y-104824858D01*
X49861141Y-104663954D01*
X49674734Y-104533432D01*
X49674732Y-104533431D01*
X49468497Y-104437261D01*
X49468488Y-104437258D01*
X49248697Y-104378366D01*
X49248693Y-104378365D01*
X49248692Y-104378365D01*
X49248691Y-104378364D01*
X49248686Y-104378364D01*
X49022002Y-104358532D01*
X49021998Y-104358532D01*
X48795313Y-104378364D01*
X48795302Y-104378366D01*
X48575511Y-104437258D01*
X48575502Y-104437261D01*
X48369267Y-104533431D01*
X48369265Y-104533432D01*
X48182858Y-104663954D01*
X48021954Y-104824858D01*
X47891432Y-105011265D01*
X47891431Y-105011267D01*
X47864382Y-105069275D01*
X47818209Y-105121714D01*
X47751016Y-105140866D01*
X47684135Y-105120650D01*
X47639618Y-105069275D01*
X47612568Y-105011267D01*
X47612567Y-105011265D01*
X47564694Y-104942895D01*
X47482047Y-104824861D01*
X47482045Y-104824858D01*
X47321141Y-104663954D01*
X47134734Y-104533432D01*
X47134732Y-104533431D01*
X46928497Y-104437261D01*
X46928488Y-104437258D01*
X46708697Y-104378366D01*
X46708693Y-104378365D01*
X46708692Y-104378365D01*
X46708691Y-104378364D01*
X46708686Y-104378364D01*
X46482002Y-104358532D01*
X46481998Y-104358532D01*
X46255313Y-104378364D01*
X46255302Y-104378366D01*
X46035511Y-104437258D01*
X46035502Y-104437261D01*
X45829267Y-104533431D01*
X45829265Y-104533432D01*
X45642858Y-104663954D01*
X45481954Y-104824858D01*
X45351432Y-105011265D01*
X45351431Y-105011267D01*
X45324382Y-105069275D01*
X45278209Y-105121714D01*
X45211016Y-105140866D01*
X45144135Y-105120650D01*
X45099618Y-105069275D01*
X45072568Y-105011267D01*
X45072567Y-105011265D01*
X45024694Y-104942895D01*
X44942047Y-104824861D01*
X44942045Y-104824858D01*
X44781141Y-104663954D01*
X44594734Y-104533432D01*
X44594732Y-104533431D01*
X44388497Y-104437261D01*
X44388488Y-104437258D01*
X44168697Y-104378366D01*
X44168693Y-104378365D01*
X44168692Y-104378365D01*
X44168691Y-104378364D01*
X44168686Y-104378364D01*
X43942002Y-104358532D01*
X43941998Y-104358532D01*
X43715313Y-104378364D01*
X43715302Y-104378366D01*
X43495511Y-104437258D01*
X43495502Y-104437261D01*
X43289267Y-104533431D01*
X43289265Y-104533432D01*
X43102858Y-104663954D01*
X42941954Y-104824858D01*
X42811432Y-105011265D01*
X42811431Y-105011267D01*
X42784382Y-105069275D01*
X42738209Y-105121714D01*
X42671016Y-105140866D01*
X42604135Y-105120650D01*
X42559618Y-105069275D01*
X42532568Y-105011267D01*
X42532567Y-105011265D01*
X42484694Y-104942895D01*
X42402047Y-104824861D01*
X42402045Y-104824858D01*
X42241141Y-104663954D01*
X42054734Y-104533432D01*
X42054732Y-104533431D01*
X41848497Y-104437261D01*
X41848488Y-104437258D01*
X41628697Y-104378366D01*
X41628693Y-104378365D01*
X41628692Y-104378365D01*
X41628691Y-104378364D01*
X41628686Y-104378364D01*
X41402002Y-104358532D01*
X41401998Y-104358532D01*
X41175313Y-104378364D01*
X41175302Y-104378366D01*
X40955511Y-104437258D01*
X40955502Y-104437261D01*
X40749267Y-104533431D01*
X40749265Y-104533432D01*
X40562858Y-104663954D01*
X40401954Y-104824858D01*
X40271432Y-105011265D01*
X40271431Y-105011267D01*
X40175261Y-105217502D01*
X40175258Y-105217511D01*
X40116366Y-105437302D01*
X40116364Y-105437313D01*
X40096532Y-105663998D01*
X40096532Y-105664001D01*
X40116364Y-105890686D01*
X40116366Y-105890697D01*
X40175258Y-106110488D01*
X40175261Y-106110497D01*
X40271431Y-106316732D01*
X40271432Y-106316734D01*
X40401954Y-106503141D01*
X40562858Y-106664045D01*
X40562861Y-106664047D01*
X40749266Y-106794568D01*
X40955504Y-106890739D01*
X41175308Y-106949635D01*
X41337230Y-106963801D01*
X41401998Y-106969468D01*
X41402000Y-106969468D01*
X41402002Y-106969468D01*
X41458673Y-106964509D01*
X41628692Y-106949635D01*
X41848496Y-106890739D01*
X42054734Y-106794568D01*
X42241139Y-106664047D01*
X42402047Y-106503139D01*
X42532568Y-106316734D01*
X42559618Y-106258724D01*
X42605790Y-106206285D01*
X42672983Y-106187133D01*
X42739865Y-106207348D01*
X42784382Y-106258725D01*
X42811429Y-106316728D01*
X42811432Y-106316734D01*
X42941954Y-106503141D01*
X43102858Y-106664045D01*
X43102861Y-106664047D01*
X43289266Y-106794568D01*
X43495504Y-106890739D01*
X43715308Y-106949635D01*
X43877230Y-106963801D01*
X43941998Y-106969468D01*
X43942000Y-106969468D01*
X43942002Y-106969468D01*
X43998673Y-106964509D01*
X44168692Y-106949635D01*
X44388496Y-106890739D01*
X44594734Y-106794568D01*
X44781139Y-106664047D01*
X44942047Y-106503139D01*
X45072568Y-106316734D01*
X45099618Y-106258724D01*
X45145790Y-106206285D01*
X45212983Y-106187133D01*
X45279865Y-106207348D01*
X45324382Y-106258725D01*
X45351429Y-106316728D01*
X45351432Y-106316734D01*
X45481954Y-106503141D01*
X45642858Y-106664045D01*
X45642861Y-106664047D01*
X45829266Y-106794568D01*
X46035504Y-106890739D01*
X46255308Y-106949635D01*
X46417230Y-106963801D01*
X46481998Y-106969468D01*
X46482000Y-106969468D01*
X46482002Y-106969468D01*
X46538673Y-106964509D01*
X46708692Y-106949635D01*
X46928496Y-106890739D01*
X47134734Y-106794568D01*
X47321139Y-106664047D01*
X47482047Y-106503139D01*
X47612568Y-106316734D01*
X47639618Y-106258724D01*
X47685790Y-106206285D01*
X47752983Y-106187133D01*
X47819865Y-106207348D01*
X47864382Y-106258725D01*
X47891429Y-106316728D01*
X47891432Y-106316734D01*
X48021954Y-106503141D01*
X48182858Y-106664045D01*
X48182861Y-106664047D01*
X48369266Y-106794568D01*
X48575504Y-106890739D01*
X48795308Y-106949635D01*
X48957230Y-106963801D01*
X49021998Y-106969468D01*
X49022000Y-106969468D01*
X49022002Y-106969468D01*
X49078673Y-106964509D01*
X49248692Y-106949635D01*
X49468496Y-106890739D01*
X49674734Y-106794568D01*
X49861139Y-106664047D01*
X50022047Y-106503139D01*
X50152568Y-106316734D01*
X50179618Y-106258724D01*
X50225790Y-106206285D01*
X50292983Y-106187133D01*
X50359865Y-106207348D01*
X50404382Y-106258725D01*
X50431429Y-106316728D01*
X50431432Y-106316734D01*
X50561954Y-106503141D01*
X50722858Y-106664045D01*
X50902398Y-106789759D01*
X50946023Y-106844335D01*
X50953217Y-106913834D01*
X50921695Y-106976189D01*
X50918956Y-106979015D01*
X47921822Y-109976150D01*
X47860499Y-110009635D01*
X47853540Y-110010942D01*
X47654630Y-110042447D01*
X47430003Y-110115433D01*
X47219563Y-110222659D01*
X47028496Y-110361476D01*
X47028491Y-110361480D01*
X45369485Y-112020487D01*
X45369484Y-112020488D01*
X45230657Y-112211565D01*
X45189453Y-112292434D01*
X45123433Y-112422003D01*
X45050446Y-112646631D01*
X45013500Y-112879902D01*
X45013500Y-128535467D01*
X45050446Y-128768738D01*
X45123433Y-128993366D01*
X45212364Y-129167902D01*
X45230657Y-129203804D01*
X45369483Y-129394880D01*
X46405120Y-130430517D01*
X46488282Y-130490938D01*
X46596197Y-130569344D01*
X46677274Y-130610654D01*
X46758352Y-130651965D01*
X46806637Y-130676568D01*
X46806643Y-130676570D01*
X46927817Y-130715941D01*
X46985493Y-130755378D01*
X47012692Y-130819736D01*
X47013500Y-130833872D01*
X47013500Y-131880683D01*
X46993815Y-131947722D01*
X46977181Y-131968364D01*
X45369485Y-133576059D01*
X45369484Y-133576060D01*
X45230659Y-133767134D01*
X45230658Y-133767136D01*
X45170359Y-133885481D01*
X45123433Y-133977575D01*
X45050446Y-134202203D01*
X45013500Y-134435474D01*
X45013500Y-149871467D01*
X45050446Y-150104738D01*
X45123433Y-150329366D01*
X45212364Y-150503902D01*
X45230657Y-150539804D01*
X45369483Y-150730880D01*
X46405120Y-151766517D01*
X46596196Y-151905343D01*
X46806638Y-152012568D01*
X46806640Y-152012568D01*
X46806643Y-152012570D01*
X46927817Y-152051941D01*
X46985493Y-152091378D01*
X47012692Y-152155736D01*
X47013500Y-152169872D01*
X47013500Y-152630127D01*
X46993815Y-152697166D01*
X46941011Y-152742921D01*
X46927824Y-152748055D01*
X46806638Y-152787432D01*
X46806635Y-152787433D01*
X46806633Y-152787434D01*
X46596195Y-152894657D01*
X46405118Y-153033484D01*
X45369484Y-154069118D01*
X45230659Y-154260192D01*
X45230658Y-154260194D01*
X45189198Y-154341565D01*
X45123433Y-154470633D01*
X45050446Y-154695261D01*
X45013500Y-154928532D01*
X45013500Y-171207467D01*
X45050446Y-171440738D01*
X45123433Y-171665366D01*
X45230657Y-171875804D01*
X45369484Y-172066881D01*
X45738607Y-172436004D01*
X45772092Y-172497327D01*
X45767108Y-172567019D01*
X45738607Y-172611366D01*
X42289485Y-176060487D01*
X42289484Y-176060488D01*
X42150657Y-176251565D01*
X42043433Y-176462003D01*
X41970446Y-176686631D01*
X41933500Y-176919902D01*
X41933500Y-177191500D01*
X41913815Y-177258539D01*
X41861011Y-177304294D01*
X41809500Y-177315500D01*
X40775903Y-177315500D01*
X40542630Y-177352447D01*
X40542627Y-177352447D01*
X40318009Y-177425431D01*
X40318008Y-177425431D01*
X40265893Y-177451985D01*
X40209600Y-177465500D01*
X39996130Y-177465500D01*
X39996123Y-177465501D01*
X39936516Y-177471908D01*
X39801671Y-177522202D01*
X39801664Y-177522206D01*
X39686455Y-177608452D01*
X39686452Y-177608455D01*
X39600206Y-177723664D01*
X39600202Y-177723671D01*
X39549908Y-177858517D01*
X39543501Y-177918116D01*
X39543500Y-177918135D01*
X39543500Y-178131599D01*
X39529985Y-178187893D01*
X39503430Y-178240009D01*
X39503430Y-178240011D01*
X39430447Y-178464627D01*
X39430447Y-178464630D01*
X39393500Y-178697902D01*
X39393500Y-178934097D01*
X39430447Y-179167369D01*
X39430447Y-179167372D01*
X39503430Y-179391988D01*
X39503430Y-179391989D01*
X39529985Y-179444106D01*
X39543500Y-179500399D01*
X39543500Y-179713869D01*
X39543501Y-179713876D01*
X39549908Y-179773483D01*
X39600202Y-179908328D01*
X39600206Y-179908335D01*
X39686452Y-180023544D01*
X39686455Y-180023547D01*
X39801664Y-180109793D01*
X39809454Y-180114047D01*
X39807875Y-180116938D01*
X39850958Y-180149189D01*
X39875375Y-180214653D01*
X39860524Y-180282926D01*
X39811119Y-180332332D01*
X39751691Y-180347500D01*
X35927253Y-180347500D01*
X35867826Y-180332332D01*
X35825253Y-180309085D01*
X35721876Y-180252637D01*
X35706993Y-180243073D01*
X35581579Y-180149189D01*
X35492749Y-180082691D01*
X35479379Y-180071105D01*
X35290148Y-179881874D01*
X35278562Y-179868504D01*
X35118176Y-179654255D01*
X35108620Y-179639385D01*
X35059666Y-179549732D01*
X35044500Y-179490308D01*
X35044500Y-169552135D01*
X38527500Y-169552135D01*
X38527500Y-171347870D01*
X38527501Y-171347876D01*
X38533908Y-171407483D01*
X38584202Y-171542328D01*
X38584206Y-171542335D01*
X38670452Y-171657544D01*
X38670455Y-171657547D01*
X38785664Y-171743793D01*
X38785671Y-171743797D01*
X38920517Y-171794091D01*
X38920516Y-171794091D01*
X38927444Y-171794835D01*
X38980127Y-171800500D01*
X40775872Y-171800499D01*
X40835483Y-171794091D01*
X40970331Y-171743796D01*
X41085546Y-171657546D01*
X41171796Y-171542331D01*
X41222091Y-171407483D01*
X41228500Y-171347873D01*
X41228499Y-169552128D01*
X41222091Y-169492517D01*
X41194298Y-169418001D01*
X41171797Y-169357671D01*
X41171793Y-169357664D01*
X41085547Y-169242455D01*
X41085544Y-169242452D01*
X40970335Y-169156206D01*
X40970328Y-169156202D01*
X40835482Y-169105908D01*
X40835483Y-169105908D01*
X40775883Y-169099501D01*
X40775881Y-169099500D01*
X40775873Y-169099500D01*
X40775864Y-169099500D01*
X38980129Y-169099500D01*
X38980123Y-169099501D01*
X38920516Y-169105908D01*
X38785671Y-169156202D01*
X38785664Y-169156206D01*
X38670455Y-169242452D01*
X38670452Y-169242455D01*
X38584206Y-169357664D01*
X38584202Y-169357671D01*
X38533908Y-169492517D01*
X38527501Y-169552116D01*
X38527501Y-169552123D01*
X38527500Y-169552135D01*
X35044500Y-169552135D01*
X35044500Y-152399999D01*
X37506341Y-152399999D01*
X37506341Y-152400000D01*
X37526936Y-152635403D01*
X37526938Y-152635413D01*
X37588094Y-152863655D01*
X37588096Y-152863659D01*
X37588097Y-152863663D01*
X37687965Y-153077830D01*
X37687967Y-153077834D01*
X37823501Y-153271395D01*
X37823506Y-153271402D01*
X37990597Y-153438493D01*
X37990603Y-153438498D01*
X38176158Y-153568425D01*
X38219783Y-153623002D01*
X38226977Y-153692500D01*
X38195454Y-153754855D01*
X38176158Y-153771575D01*
X37990597Y-153901505D01*
X37823505Y-154068597D01*
X37687965Y-154262169D01*
X37687964Y-154262171D01*
X37588098Y-154476335D01*
X37588094Y-154476344D01*
X37526938Y-154704586D01*
X37526936Y-154704596D01*
X37506341Y-154939999D01*
X37506341Y-154940000D01*
X37526936Y-155175403D01*
X37526938Y-155175413D01*
X37588094Y-155403655D01*
X37588096Y-155403659D01*
X37588097Y-155403663D01*
X37673790Y-155587431D01*
X37687965Y-155617830D01*
X37687967Y-155617834D01*
X37796281Y-155772521D01*
X37814906Y-155799121D01*
X37823501Y-155811395D01*
X37823506Y-155811402D01*
X37990597Y-155978493D01*
X37990603Y-155978498D01*
X38176158Y-156108425D01*
X38219783Y-156163002D01*
X38226977Y-156232500D01*
X38195454Y-156294855D01*
X38176158Y-156311575D01*
X37990597Y-156441505D01*
X37823505Y-156608597D01*
X37687965Y-156802169D01*
X37687964Y-156802171D01*
X37588098Y-157016335D01*
X37588094Y-157016344D01*
X37526938Y-157244586D01*
X37526936Y-157244596D01*
X37506341Y-157479999D01*
X37506341Y-157480000D01*
X37526936Y-157715403D01*
X37526938Y-157715413D01*
X37588094Y-157943655D01*
X37588096Y-157943659D01*
X37588097Y-157943663D01*
X37673789Y-158127429D01*
X37687965Y-158157830D01*
X37687967Y-158157834D01*
X37823501Y-158351395D01*
X37823506Y-158351402D01*
X37990597Y-158518493D01*
X37990603Y-158518498D01*
X38176158Y-158648425D01*
X38219783Y-158703002D01*
X38226977Y-158772500D01*
X38195454Y-158834855D01*
X38176158Y-158851575D01*
X37990597Y-158981505D01*
X37823505Y-159148597D01*
X37687965Y-159342169D01*
X37687964Y-159342171D01*
X37588098Y-159556335D01*
X37588094Y-159556344D01*
X37526938Y-159784586D01*
X37526936Y-159784596D01*
X37506341Y-160019999D01*
X37506341Y-160020000D01*
X37526936Y-160255403D01*
X37526938Y-160255413D01*
X37588094Y-160483655D01*
X37588096Y-160483659D01*
X37588097Y-160483663D01*
X37662944Y-160644172D01*
X37687965Y-160697830D01*
X37687967Y-160697834D01*
X37764484Y-160807111D01*
X37823501Y-160891396D01*
X37823506Y-160891402D01*
X37945430Y-161013326D01*
X37978915Y-161074649D01*
X37973931Y-161144341D01*
X37932059Y-161200274D01*
X37901083Y-161217189D01*
X37769669Y-161266203D01*
X37769664Y-161266206D01*
X37654455Y-161352452D01*
X37654452Y-161352455D01*
X37568206Y-161467664D01*
X37568202Y-161467671D01*
X37517908Y-161602517D01*
X37511501Y-161662116D01*
X37511501Y-161662123D01*
X37511500Y-161662135D01*
X37511500Y-163457870D01*
X37511501Y-163457876D01*
X37517908Y-163517483D01*
X37568202Y-163652328D01*
X37568206Y-163652335D01*
X37654452Y-163767544D01*
X37654455Y-163767547D01*
X37769664Y-163853793D01*
X37769671Y-163853797D01*
X37904517Y-163904091D01*
X37904516Y-163904091D01*
X37911444Y-163904835D01*
X37964127Y-163910500D01*
X39759872Y-163910499D01*
X39819483Y-163904091D01*
X39954331Y-163853796D01*
X40069546Y-163767546D01*
X40155796Y-163652331D01*
X40206091Y-163517483D01*
X40212500Y-163457873D01*
X40212499Y-161662128D01*
X40206091Y-161602517D01*
X40204150Y-161597314D01*
X40155797Y-161467671D01*
X40155793Y-161467664D01*
X40069547Y-161352455D01*
X40069544Y-161352452D01*
X39954335Y-161266206D01*
X39954328Y-161266202D01*
X39822917Y-161217189D01*
X39766983Y-161175318D01*
X39742566Y-161109853D01*
X39757418Y-161041580D01*
X39778563Y-161013332D01*
X39900495Y-160891401D01*
X40036035Y-160697830D01*
X40135903Y-160483663D01*
X40197063Y-160255408D01*
X40217659Y-160020000D01*
X40197063Y-159784592D01*
X40135903Y-159556337D01*
X40036035Y-159342171D01*
X39977098Y-159257999D01*
X39900494Y-159148597D01*
X39733402Y-158981506D01*
X39733396Y-158981501D01*
X39547842Y-158851575D01*
X39504217Y-158796998D01*
X39497023Y-158727500D01*
X39528546Y-158665145D01*
X39547842Y-158648425D01*
X39614019Y-158602087D01*
X39733401Y-158518495D01*
X39900495Y-158351401D01*
X40036035Y-158157830D01*
X40135903Y-157943663D01*
X40197063Y-157715408D01*
X40217659Y-157480000D01*
X40197063Y-157244592D01*
X40135903Y-157016337D01*
X40036035Y-156802171D01*
X40007603Y-156761565D01*
X39900494Y-156608597D01*
X39733402Y-156441506D01*
X39733396Y-156441501D01*
X39547842Y-156311575D01*
X39504217Y-156256998D01*
X39497023Y-156187500D01*
X39528546Y-156125145D01*
X39547842Y-156108425D01*
X39628476Y-156051964D01*
X39733401Y-155978495D01*
X39900495Y-155811401D01*
X40036035Y-155617830D01*
X40135903Y-155403663D01*
X40197063Y-155175408D01*
X40217659Y-154940000D01*
X40197063Y-154704592D01*
X40135903Y-154476337D01*
X40036035Y-154262171D01*
X40034650Y-154260192D01*
X39900494Y-154068597D01*
X39733402Y-153901506D01*
X39733396Y-153901501D01*
X39547842Y-153771575D01*
X39504217Y-153716998D01*
X39497023Y-153647500D01*
X39528546Y-153585145D01*
X39547842Y-153568425D01*
X39570026Y-153552891D01*
X39733401Y-153438495D01*
X39900495Y-153271401D01*
X40036035Y-153077830D01*
X40135903Y-152863663D01*
X40197063Y-152635408D01*
X40217659Y-152400000D01*
X40197063Y-152164592D01*
X40135903Y-151936337D01*
X40036035Y-151722171D01*
X39995536Y-151664331D01*
X39900494Y-151528597D01*
X39733402Y-151361506D01*
X39733395Y-151361501D01*
X39726254Y-151356501D01*
X39626486Y-151286642D01*
X39539834Y-151225967D01*
X39539830Y-151225965D01*
X39539828Y-151225964D01*
X39325663Y-151126097D01*
X39325659Y-151126096D01*
X39325655Y-151126094D01*
X39097413Y-151064938D01*
X39097403Y-151064936D01*
X38862001Y-151044341D01*
X38861999Y-151044341D01*
X38626596Y-151064936D01*
X38626586Y-151064938D01*
X38398344Y-151126094D01*
X38398335Y-151126098D01*
X38184171Y-151225964D01*
X38184169Y-151225965D01*
X37990597Y-151361505D01*
X37823505Y-151528597D01*
X37687965Y-151722169D01*
X37687964Y-151722171D01*
X37588098Y-151936335D01*
X37588094Y-151936344D01*
X37526938Y-152164586D01*
X37526936Y-152164596D01*
X37506341Y-152399999D01*
X35044500Y-152399999D01*
X35044500Y-132079999D01*
X37506341Y-132079999D01*
X37506341Y-132080000D01*
X37526936Y-132315403D01*
X37526938Y-132315413D01*
X37588094Y-132543655D01*
X37588096Y-132543659D01*
X37588097Y-132543663D01*
X37673721Y-132727284D01*
X37687965Y-132757830D01*
X37687967Y-132757834D01*
X37823501Y-132951395D01*
X37823506Y-132951402D01*
X37990597Y-133118493D01*
X37990603Y-133118498D01*
X38176158Y-133248425D01*
X38219783Y-133303002D01*
X38226977Y-133372500D01*
X38195454Y-133434855D01*
X38176158Y-133451575D01*
X37990597Y-133581505D01*
X37823505Y-133748597D01*
X37687965Y-133942169D01*
X37687964Y-133942171D01*
X37588098Y-134156335D01*
X37588094Y-134156344D01*
X37526938Y-134384586D01*
X37526936Y-134384596D01*
X37506341Y-134619999D01*
X37506341Y-134620000D01*
X37526936Y-134855403D01*
X37526938Y-134855413D01*
X37588094Y-135083655D01*
X37588096Y-135083659D01*
X37588097Y-135083663D01*
X37687965Y-135297830D01*
X37687967Y-135297834D01*
X37823501Y-135491395D01*
X37823506Y-135491402D01*
X37990597Y-135658493D01*
X37990603Y-135658498D01*
X38176158Y-135788425D01*
X38219783Y-135843002D01*
X38226977Y-135912500D01*
X38195454Y-135974855D01*
X38176158Y-135991575D01*
X37990597Y-136121505D01*
X37823505Y-136288597D01*
X37687965Y-136482169D01*
X37687964Y-136482171D01*
X37588098Y-136696335D01*
X37588094Y-136696344D01*
X37526938Y-136924586D01*
X37526936Y-136924596D01*
X37506341Y-137159999D01*
X37506341Y-137160000D01*
X37526936Y-137395403D01*
X37526938Y-137395413D01*
X37588094Y-137623655D01*
X37588096Y-137623659D01*
X37588097Y-137623663D01*
X37659787Y-137777402D01*
X37687965Y-137837830D01*
X37687967Y-137837834D01*
X37823501Y-138031395D01*
X37823506Y-138031402D01*
X37990597Y-138198493D01*
X37990603Y-138198498D01*
X38176158Y-138328425D01*
X38219783Y-138383002D01*
X38226977Y-138452500D01*
X38195454Y-138514855D01*
X38176158Y-138531575D01*
X37990597Y-138661505D01*
X37823505Y-138828597D01*
X37687965Y-139022169D01*
X37687964Y-139022171D01*
X37588098Y-139236335D01*
X37588094Y-139236344D01*
X37526938Y-139464586D01*
X37526936Y-139464596D01*
X37506341Y-139699999D01*
X37506341Y-139700000D01*
X37526936Y-139935403D01*
X37526938Y-139935413D01*
X37588094Y-140163655D01*
X37588096Y-140163659D01*
X37588097Y-140163663D01*
X37659787Y-140317402D01*
X37687965Y-140377830D01*
X37687967Y-140377834D01*
X37823501Y-140571395D01*
X37823506Y-140571402D01*
X37990597Y-140738493D01*
X37990603Y-140738498D01*
X38176158Y-140868425D01*
X38219783Y-140923002D01*
X38226977Y-140992500D01*
X38195454Y-141054855D01*
X38176158Y-141071575D01*
X37990597Y-141201505D01*
X37823505Y-141368597D01*
X37687965Y-141562169D01*
X37687964Y-141562171D01*
X37588098Y-141776335D01*
X37588094Y-141776344D01*
X37526938Y-142004586D01*
X37526936Y-142004596D01*
X37506341Y-142239999D01*
X37506341Y-142240000D01*
X37526936Y-142475403D01*
X37526938Y-142475413D01*
X37588094Y-142703655D01*
X37588096Y-142703659D01*
X37588097Y-142703663D01*
X37621506Y-142775308D01*
X37687965Y-142917830D01*
X37687967Y-142917834D01*
X37823501Y-143111395D01*
X37823506Y-143111402D01*
X37990597Y-143278493D01*
X37990603Y-143278498D01*
X38176158Y-143408425D01*
X38219783Y-143463002D01*
X38226977Y-143532500D01*
X38195454Y-143594855D01*
X38176158Y-143611575D01*
X37990597Y-143741505D01*
X37823505Y-143908597D01*
X37687965Y-144102169D01*
X37687964Y-144102171D01*
X37588098Y-144316335D01*
X37588094Y-144316344D01*
X37526938Y-144544586D01*
X37526936Y-144544596D01*
X37506341Y-144779999D01*
X37506341Y-144780000D01*
X37526936Y-145015403D01*
X37526938Y-145015413D01*
X37588094Y-145243655D01*
X37588096Y-145243659D01*
X37588097Y-145243663D01*
X37659787Y-145397402D01*
X37687965Y-145457830D01*
X37687967Y-145457834D01*
X37762655Y-145564498D01*
X37823505Y-145651401D01*
X37990599Y-145818495D01*
X38079658Y-145880855D01*
X38184165Y-145954032D01*
X38184167Y-145954033D01*
X38184170Y-145954035D01*
X38398337Y-146053903D01*
X38626592Y-146115063D01*
X38814918Y-146131539D01*
X38861999Y-146135659D01*
X38862000Y-146135659D01*
X38862001Y-146135659D01*
X38901234Y-146132226D01*
X39097408Y-146115063D01*
X39325663Y-146053903D01*
X39539830Y-145954035D01*
X39733401Y-145818495D01*
X39900495Y-145651401D01*
X40036035Y-145457830D01*
X40135903Y-145243663D01*
X40197063Y-145015408D01*
X40217659Y-144780000D01*
X40197063Y-144544592D01*
X40135903Y-144316337D01*
X40036035Y-144102171D01*
X39965927Y-144002045D01*
X39900494Y-143908597D01*
X39733402Y-143741506D01*
X39733396Y-143741501D01*
X39547842Y-143611575D01*
X39504217Y-143556998D01*
X39497023Y-143487500D01*
X39528546Y-143425145D01*
X39547842Y-143408425D01*
X39667452Y-143324673D01*
X39733401Y-143278495D01*
X39900495Y-143111401D01*
X40036035Y-142917830D01*
X40135903Y-142703663D01*
X40197063Y-142475408D01*
X40217659Y-142240000D01*
X40197063Y-142004592D01*
X40135903Y-141776337D01*
X40036035Y-141562171D01*
X39965927Y-141462045D01*
X39900494Y-141368597D01*
X39733402Y-141201506D01*
X39733396Y-141201501D01*
X39547842Y-141071575D01*
X39504217Y-141016998D01*
X39497023Y-140947500D01*
X39528546Y-140885145D01*
X39547842Y-140868425D01*
X39570026Y-140852891D01*
X39733401Y-140738495D01*
X39900495Y-140571401D01*
X40036035Y-140377830D01*
X40135903Y-140163663D01*
X40197063Y-139935408D01*
X40217659Y-139700000D01*
X40197063Y-139464592D01*
X40150594Y-139291165D01*
X40135905Y-139236344D01*
X40135904Y-139236343D01*
X40135903Y-139236337D01*
X40036035Y-139022171D01*
X39965927Y-138922045D01*
X39900494Y-138828597D01*
X39733402Y-138661506D01*
X39733396Y-138661501D01*
X39547842Y-138531575D01*
X39504217Y-138476998D01*
X39497023Y-138407500D01*
X39528546Y-138345145D01*
X39547842Y-138328425D01*
X39628475Y-138271965D01*
X39733401Y-138198495D01*
X39900495Y-138031401D01*
X40036035Y-137837830D01*
X40135903Y-137623663D01*
X40197063Y-137395408D01*
X40217659Y-137160000D01*
X40197063Y-136924592D01*
X40135903Y-136696337D01*
X40036035Y-136482171D01*
X40008428Y-136442743D01*
X39900494Y-136288597D01*
X39733402Y-136121506D01*
X39733396Y-136121501D01*
X39547842Y-135991575D01*
X39504217Y-135936998D01*
X39497023Y-135867500D01*
X39528546Y-135805145D01*
X39547842Y-135788425D01*
X39628475Y-135731965D01*
X39733401Y-135658495D01*
X39900495Y-135491401D01*
X40036035Y-135297830D01*
X40135903Y-135083663D01*
X40197063Y-134855408D01*
X40217659Y-134620000D01*
X40197063Y-134384592D01*
X40135903Y-134156337D01*
X40036035Y-133942171D01*
X40008146Y-133902340D01*
X39900494Y-133748597D01*
X39733402Y-133581506D01*
X39733396Y-133581501D01*
X39547842Y-133451575D01*
X39504217Y-133396998D01*
X39497023Y-133327500D01*
X39528546Y-133265145D01*
X39547842Y-133248425D01*
X39628475Y-133191965D01*
X39733401Y-133118495D01*
X39900495Y-132951401D01*
X40036035Y-132757830D01*
X40135903Y-132543663D01*
X40197063Y-132315408D01*
X40217659Y-132080000D01*
X40197063Y-131844592D01*
X40135903Y-131616337D01*
X40036035Y-131402171D01*
X40028082Y-131390812D01*
X39900494Y-131208597D01*
X39733402Y-131041506D01*
X39733395Y-131041501D01*
X39539834Y-130905967D01*
X39539830Y-130905965D01*
X39539828Y-130905964D01*
X39325663Y-130806097D01*
X39325659Y-130806096D01*
X39325655Y-130806094D01*
X39097413Y-130744938D01*
X39097403Y-130744936D01*
X38862001Y-130724341D01*
X38861999Y-130724341D01*
X38626596Y-130744936D01*
X38626586Y-130744938D01*
X38398344Y-130806094D01*
X38398335Y-130806098D01*
X38184171Y-130905964D01*
X38184169Y-130905965D01*
X37990597Y-131041505D01*
X37823505Y-131208597D01*
X37687965Y-131402169D01*
X37687964Y-131402171D01*
X37588098Y-131616335D01*
X37588094Y-131616344D01*
X37526938Y-131844586D01*
X37526936Y-131844596D01*
X37506341Y-132079999D01*
X35044500Y-132079999D01*
X35044500Y-111759999D01*
X37506341Y-111759999D01*
X37506341Y-111760000D01*
X37526936Y-111995403D01*
X37526938Y-111995413D01*
X37588094Y-112223655D01*
X37588096Y-112223659D01*
X37588097Y-112223663D01*
X37680585Y-112422003D01*
X37687965Y-112437830D01*
X37687967Y-112437834D01*
X37823501Y-112631395D01*
X37823506Y-112631402D01*
X37990597Y-112798493D01*
X37990603Y-112798498D01*
X38176158Y-112928425D01*
X38219783Y-112983002D01*
X38226977Y-113052500D01*
X38195454Y-113114855D01*
X38176158Y-113131575D01*
X37990597Y-113261505D01*
X37823505Y-113428597D01*
X37687965Y-113622169D01*
X37687964Y-113622171D01*
X37588098Y-113836335D01*
X37588094Y-113836344D01*
X37526938Y-114064586D01*
X37526936Y-114064596D01*
X37506341Y-114299999D01*
X37506341Y-114300000D01*
X37526936Y-114535403D01*
X37526938Y-114535413D01*
X37588094Y-114763655D01*
X37588096Y-114763659D01*
X37588097Y-114763663D01*
X37659787Y-114917402D01*
X37687965Y-114977830D01*
X37687967Y-114977834D01*
X37823501Y-115171395D01*
X37823506Y-115171402D01*
X37990597Y-115338493D01*
X37990603Y-115338498D01*
X38176158Y-115468425D01*
X38219783Y-115523002D01*
X38226977Y-115592500D01*
X38195454Y-115654855D01*
X38176158Y-115671575D01*
X37990597Y-115801505D01*
X37823505Y-115968597D01*
X37687965Y-116162169D01*
X37687964Y-116162171D01*
X37588098Y-116376335D01*
X37588094Y-116376344D01*
X37526938Y-116604586D01*
X37526936Y-116604596D01*
X37506341Y-116839999D01*
X37506341Y-116840000D01*
X37526936Y-117075403D01*
X37526938Y-117075413D01*
X37588094Y-117303655D01*
X37588096Y-117303659D01*
X37588097Y-117303663D01*
X37687965Y-117517830D01*
X37687967Y-117517834D01*
X37823501Y-117711395D01*
X37823506Y-117711402D01*
X37990597Y-117878493D01*
X37990603Y-117878498D01*
X38176158Y-118008425D01*
X38219783Y-118063002D01*
X38226977Y-118132500D01*
X38195454Y-118194855D01*
X38176158Y-118211575D01*
X37990597Y-118341505D01*
X37823505Y-118508597D01*
X37687965Y-118702169D01*
X37687964Y-118702171D01*
X37588098Y-118916335D01*
X37588094Y-118916344D01*
X37526938Y-119144586D01*
X37526936Y-119144596D01*
X37506341Y-119379999D01*
X37506341Y-119380000D01*
X37526936Y-119615403D01*
X37526938Y-119615413D01*
X37588094Y-119843655D01*
X37588096Y-119843659D01*
X37588097Y-119843663D01*
X37659787Y-119997402D01*
X37687965Y-120057830D01*
X37687967Y-120057834D01*
X37823501Y-120251395D01*
X37823506Y-120251402D01*
X37990597Y-120418493D01*
X37990603Y-120418498D01*
X38176158Y-120548425D01*
X38219783Y-120603002D01*
X38226977Y-120672500D01*
X38195454Y-120734855D01*
X38176158Y-120751575D01*
X37990597Y-120881505D01*
X37823505Y-121048597D01*
X37687965Y-121242169D01*
X37687964Y-121242171D01*
X37588098Y-121456335D01*
X37588094Y-121456344D01*
X37526938Y-121684586D01*
X37526936Y-121684596D01*
X37506341Y-121919999D01*
X37506341Y-121920000D01*
X37526936Y-122155403D01*
X37526938Y-122155413D01*
X37588094Y-122383655D01*
X37588096Y-122383659D01*
X37588097Y-122383663D01*
X37659787Y-122537402D01*
X37687965Y-122597830D01*
X37687967Y-122597834D01*
X37823501Y-122791395D01*
X37823506Y-122791402D01*
X37990597Y-122958493D01*
X37990603Y-122958498D01*
X38176158Y-123088425D01*
X38219783Y-123143002D01*
X38226977Y-123212500D01*
X38195454Y-123274855D01*
X38176158Y-123291575D01*
X37990597Y-123421505D01*
X37823505Y-123588597D01*
X37687965Y-123782169D01*
X37687964Y-123782171D01*
X37588098Y-123996335D01*
X37588094Y-123996344D01*
X37526938Y-124224586D01*
X37526936Y-124224596D01*
X37506341Y-124459999D01*
X37506341Y-124460000D01*
X37526936Y-124695403D01*
X37526938Y-124695413D01*
X37588094Y-124923655D01*
X37588096Y-124923659D01*
X37588097Y-124923663D01*
X37659787Y-125077402D01*
X37687965Y-125137830D01*
X37687967Y-125137834D01*
X37762655Y-125244498D01*
X37823505Y-125331401D01*
X37990599Y-125498495D01*
X38055394Y-125543865D01*
X38184165Y-125634032D01*
X38184167Y-125634033D01*
X38184170Y-125634035D01*
X38398337Y-125733903D01*
X38626592Y-125795063D01*
X38814918Y-125811539D01*
X38861999Y-125815659D01*
X38862000Y-125815659D01*
X38862001Y-125815659D01*
X38901234Y-125812226D01*
X39097408Y-125795063D01*
X39325663Y-125733903D01*
X39539830Y-125634035D01*
X39733401Y-125498495D01*
X39900495Y-125331401D01*
X40036035Y-125137830D01*
X40135903Y-124923663D01*
X40197063Y-124695408D01*
X40217659Y-124460000D01*
X40197063Y-124224592D01*
X40135903Y-123996337D01*
X40036035Y-123782171D01*
X40020169Y-123759511D01*
X39900494Y-123588597D01*
X39733402Y-123421506D01*
X39733396Y-123421501D01*
X39547842Y-123291575D01*
X39504217Y-123236998D01*
X39497023Y-123167500D01*
X39528546Y-123105145D01*
X39547842Y-123088425D01*
X39628475Y-123031965D01*
X39733401Y-122958495D01*
X39900495Y-122791401D01*
X40036035Y-122597830D01*
X40135903Y-122383663D01*
X40197063Y-122155408D01*
X40217659Y-121920000D01*
X40197063Y-121684592D01*
X40135903Y-121456337D01*
X40036035Y-121242171D01*
X40020169Y-121219511D01*
X39900494Y-121048597D01*
X39733402Y-120881506D01*
X39733396Y-120881501D01*
X39547842Y-120751575D01*
X39504217Y-120696998D01*
X39497023Y-120627500D01*
X39528546Y-120565145D01*
X39547842Y-120548425D01*
X39628475Y-120491965D01*
X39733401Y-120418495D01*
X39900495Y-120251401D01*
X40036035Y-120057830D01*
X40135903Y-119843663D01*
X40197063Y-119615408D01*
X40217659Y-119380000D01*
X40197063Y-119144592D01*
X40135903Y-118916337D01*
X40036035Y-118702171D01*
X40020169Y-118679511D01*
X39900494Y-118508597D01*
X39733402Y-118341506D01*
X39733396Y-118341501D01*
X39547842Y-118211575D01*
X39504217Y-118156998D01*
X39497023Y-118087500D01*
X39528546Y-118025145D01*
X39547842Y-118008425D01*
X39668606Y-117923865D01*
X39733401Y-117878495D01*
X39900495Y-117711401D01*
X40036035Y-117517830D01*
X40135903Y-117303663D01*
X40197063Y-117075408D01*
X40217659Y-116840000D01*
X40197063Y-116604592D01*
X40135903Y-116376337D01*
X40036035Y-116162171D01*
X40020169Y-116139511D01*
X39900494Y-115968597D01*
X39733402Y-115801506D01*
X39733396Y-115801501D01*
X39547842Y-115671575D01*
X39504217Y-115616998D01*
X39497023Y-115547500D01*
X39528546Y-115485145D01*
X39547842Y-115468425D01*
X39605029Y-115428382D01*
X39733401Y-115338495D01*
X39900495Y-115171401D01*
X40036035Y-114977830D01*
X40135903Y-114763663D01*
X40197063Y-114535408D01*
X40217659Y-114300000D01*
X40197063Y-114064592D01*
X40135903Y-113836337D01*
X40036035Y-113622171D01*
X40020169Y-113599511D01*
X39900494Y-113428597D01*
X39733402Y-113261506D01*
X39733396Y-113261501D01*
X39547842Y-113131575D01*
X39504217Y-113076998D01*
X39497023Y-113007500D01*
X39528546Y-112945145D01*
X39547842Y-112928425D01*
X39628475Y-112871965D01*
X39733401Y-112798495D01*
X39900495Y-112631401D01*
X40036035Y-112437830D01*
X40135903Y-112223663D01*
X40197063Y-111995408D01*
X40217659Y-111760000D01*
X40197063Y-111524592D01*
X40135903Y-111296337D01*
X40036035Y-111082171D01*
X39900495Y-110888599D01*
X39900494Y-110888597D01*
X39733402Y-110721506D01*
X39733395Y-110721501D01*
X39539834Y-110585967D01*
X39539830Y-110585965D01*
X39488360Y-110561964D01*
X39325663Y-110486097D01*
X39325659Y-110486096D01*
X39325655Y-110486094D01*
X39097413Y-110424938D01*
X39097403Y-110424936D01*
X38862001Y-110404341D01*
X38861999Y-110404341D01*
X38626596Y-110424936D01*
X38626586Y-110424938D01*
X38398344Y-110486094D01*
X38398335Y-110486098D01*
X38184171Y-110585964D01*
X38184169Y-110585965D01*
X37990597Y-110721505D01*
X37823505Y-110888597D01*
X37687965Y-111082169D01*
X37687964Y-111082171D01*
X37588098Y-111296335D01*
X37588094Y-111296344D01*
X37526938Y-111524586D01*
X37526936Y-111524596D01*
X37506341Y-111759999D01*
X35044500Y-111759999D01*
X35044500Y-104506984D01*
X35064185Y-104439945D01*
X35066904Y-104435890D01*
X35115994Y-104365782D01*
X35129878Y-104349237D01*
X35286731Y-104192384D01*
X35303281Y-104178497D01*
X35324700Y-104163500D01*
X35336948Y-104154924D01*
X35403155Y-104132597D01*
X35408070Y-104132500D01*
X37403890Y-104132500D01*
X37403892Y-104132500D01*
X37531186Y-104098392D01*
X37645314Y-104032500D01*
X37738500Y-103939314D01*
X37804392Y-103825186D01*
X37838500Y-103697892D01*
X37838500Y-92136108D01*
X37804392Y-92008814D01*
X37738500Y-91894686D01*
X37645314Y-91801500D01*
X37557354Y-91750716D01*
X37531187Y-91735608D01*
X37434980Y-91709830D01*
X37403892Y-91701500D01*
X37403891Y-91701500D01*
X35488389Y-91701500D01*
X35421350Y-91681815D01*
X35417265Y-91679075D01*
X35303282Y-91599263D01*
X35286725Y-91585369D01*
X35129881Y-91428525D01*
X35115987Y-91411967D01*
X35066925Y-91341898D01*
X35044598Y-91275691D01*
X35044500Y-91270775D01*
X35044500Y-86386188D01*
X54445407Y-86386188D01*
X54445407Y-86574987D01*
X54482236Y-86760136D01*
X54482238Y-86760144D01*
X54554483Y-86934560D01*
X54554488Y-86934569D01*
X54659368Y-87091533D01*
X54659369Y-87091534D01*
X54659370Y-87091535D01*
X54672456Y-87104621D01*
X54672461Y-87104627D01*
X54679524Y-87111690D01*
X55420322Y-87852488D01*
X55534450Y-87918380D01*
X55661744Y-87952488D01*
X55661746Y-87952488D01*
X55793527Y-87952488D01*
X55793529Y-87952488D01*
X55920822Y-87918380D01*
X56034950Y-87852488D01*
X56128136Y-87759302D01*
X56128137Y-87759299D01*
X56133676Y-87753761D01*
X56134183Y-87753181D01*
X56672280Y-87215083D01*
X56672285Y-87215080D01*
X56682489Y-87204876D01*
X56682490Y-87204876D01*
X56700685Y-87186681D01*
X56729085Y-87158282D01*
X56782749Y-87104616D01*
X56795830Y-87091535D01*
X56900715Y-86934563D01*
X56972962Y-86760144D01*
X57009793Y-86574983D01*
X57009793Y-86386193D01*
X57009793Y-86386190D01*
X57009792Y-86386188D01*
X56972963Y-86201039D01*
X56972962Y-86201032D01*
X56900715Y-86026613D01*
X56900714Y-86026612D01*
X56900711Y-86026606D01*
X56795830Y-85869641D01*
X56795827Y-85869637D01*
X56662338Y-85736148D01*
X56662334Y-85736145D01*
X56505369Y-85631264D01*
X56505360Y-85631259D01*
X56330944Y-85559014D01*
X56330936Y-85559012D01*
X56145786Y-85522183D01*
X56145783Y-85522183D01*
X55956993Y-85522183D01*
X55956990Y-85522183D01*
X55771834Y-85559012D01*
X55765999Y-85560783D01*
X55765374Y-85558723D01*
X55705565Y-85565144D01*
X55689324Y-85560375D01*
X55689201Y-85560783D01*
X55683365Y-85559012D01*
X55498210Y-85522183D01*
X55498207Y-85522183D01*
X55309417Y-85522183D01*
X55309414Y-85522183D01*
X55124263Y-85559012D01*
X55124255Y-85559014D01*
X54949839Y-85631259D01*
X54949830Y-85631264D01*
X54792865Y-85736145D01*
X54792861Y-85736148D01*
X54659372Y-85869637D01*
X54659369Y-85869641D01*
X54554488Y-86026606D01*
X54554483Y-86026615D01*
X54482238Y-86201031D01*
X54482236Y-86201039D01*
X54445407Y-86386188D01*
X35044500Y-86386188D01*
X35044500Y-85629451D01*
X35059668Y-85570024D01*
X35065839Y-85558723D01*
X35108618Y-85480378D01*
X35118180Y-85465501D01*
X35278562Y-85251256D01*
X35290141Y-85237892D01*
X35479386Y-85048647D01*
X35492740Y-85037075D01*
X35707004Y-84876678D01*
X35721868Y-84867126D01*
X35764832Y-84843667D01*
X35824257Y-84828500D01*
X94472491Y-84828500D01*
X94531915Y-84843666D01*
G37*
%TD.AperFunction*%
%TA.AperFunction,Conductor*%
G36*
X60378834Y-173937707D02*
G01*
X60434767Y-173979579D01*
X60459184Y-174045043D01*
X60459500Y-174053889D01*
X60459500Y-179480689D01*
X60444332Y-179540116D01*
X60390132Y-179639376D01*
X60380567Y-179654260D01*
X60220185Y-179868504D01*
X60208599Y-179881874D01*
X60019368Y-180071105D01*
X60005998Y-180082691D01*
X59791754Y-180243073D01*
X59776870Y-180252638D01*
X59630922Y-180332332D01*
X59571495Y-180347500D01*
X44249895Y-180347500D01*
X44182856Y-180327815D01*
X44137101Y-180275011D01*
X44127157Y-180205853D01*
X44156182Y-180142297D01*
X44193600Y-180113015D01*
X44220433Y-180099343D01*
X44411510Y-179960517D01*
X44578517Y-179793510D01*
X44717343Y-179602433D01*
X44824568Y-179391992D01*
X44897553Y-179167368D01*
X44934500Y-178934097D01*
X44934500Y-177710889D01*
X44954185Y-177643850D01*
X44970819Y-177623208D01*
X48426319Y-174167708D01*
X48487642Y-174134223D01*
X48557334Y-174139207D01*
X48601681Y-174167708D01*
X49536490Y-175102517D01*
X49727566Y-175241343D01*
X49826992Y-175292003D01*
X49938003Y-175348566D01*
X49938005Y-175348566D01*
X49938008Y-175348568D01*
X50058410Y-175387689D01*
X50162630Y-175421553D01*
X50198897Y-175427297D01*
X50262032Y-175457226D01*
X50298964Y-175516537D01*
X50303500Y-175549770D01*
X50303500Y-176833500D01*
X50283815Y-176900539D01*
X50231011Y-176946294D01*
X50179505Y-176957500D01*
X50156132Y-176957500D01*
X50156123Y-176957501D01*
X50096516Y-176963908D01*
X49961671Y-177014202D01*
X49961664Y-177014206D01*
X49846455Y-177100452D01*
X49846452Y-177100455D01*
X49760206Y-177215664D01*
X49760202Y-177215671D01*
X49709908Y-177350517D01*
X49709701Y-177352447D01*
X49703501Y-177410123D01*
X49703500Y-177410135D01*
X49703500Y-179205870D01*
X49703501Y-179205876D01*
X49709908Y-179265483D01*
X49760202Y-179400328D01*
X49760206Y-179400335D01*
X49846452Y-179515544D01*
X49846455Y-179515547D01*
X49961664Y-179601793D01*
X49961671Y-179601797D01*
X50096517Y-179652091D01*
X50096516Y-179652091D01*
X50103444Y-179652835D01*
X50156127Y-179658500D01*
X51951872Y-179658499D01*
X52011483Y-179652091D01*
X52146331Y-179601796D01*
X52261546Y-179515546D01*
X52347796Y-179400331D01*
X52398091Y-179265483D01*
X52404500Y-179205873D01*
X52404499Y-178307999D01*
X54778341Y-178307999D01*
X54778341Y-178308000D01*
X54798936Y-178543403D01*
X54798938Y-178543413D01*
X54860094Y-178771655D01*
X54860096Y-178771659D01*
X54860097Y-178771663D01*
X54959965Y-178985830D01*
X54959967Y-178985834D01*
X55068281Y-179140521D01*
X55095505Y-179179401D01*
X55262599Y-179346495D01*
X55359384Y-179414265D01*
X55456165Y-179482032D01*
X55456167Y-179482033D01*
X55456170Y-179482035D01*
X55670337Y-179581903D01*
X55898592Y-179643063D01*
X56075034Y-179658500D01*
X56133999Y-179663659D01*
X56134000Y-179663659D01*
X56134001Y-179663659D01*
X56192966Y-179658500D01*
X56369408Y-179643063D01*
X56597663Y-179581903D01*
X56811830Y-179482035D01*
X57005401Y-179346495D01*
X57172495Y-179179401D01*
X57308035Y-178985830D01*
X57407903Y-178771663D01*
X57469063Y-178543408D01*
X57489659Y-178308000D01*
X57469063Y-178072592D01*
X57422626Y-177899285D01*
X57407905Y-177844344D01*
X57407904Y-177844343D01*
X57407903Y-177844337D01*
X57308035Y-177630171D01*
X57303160Y-177623208D01*
X57172494Y-177436597D01*
X57005402Y-177269506D01*
X57005395Y-177269501D01*
X56811834Y-177133967D01*
X56811830Y-177133965D01*
X56811828Y-177133964D01*
X56597663Y-177034097D01*
X56597659Y-177034096D01*
X56597655Y-177034094D01*
X56369413Y-176972938D01*
X56369403Y-176972936D01*
X56134001Y-176952341D01*
X56133999Y-176952341D01*
X55898596Y-176972936D01*
X55898586Y-176972938D01*
X55670344Y-177034094D01*
X55670335Y-177034098D01*
X55456171Y-177133964D01*
X55456169Y-177133965D01*
X55262597Y-177269505D01*
X55095505Y-177436597D01*
X54959965Y-177630169D01*
X54959964Y-177630171D01*
X54860098Y-177844335D01*
X54860094Y-177844344D01*
X54798938Y-178072586D01*
X54798936Y-178072596D01*
X54778341Y-178307999D01*
X52404499Y-178307999D01*
X52404499Y-177410128D01*
X52399299Y-177361757D01*
X52398091Y-177350516D01*
X52347797Y-177215671D01*
X52347793Y-177215664D01*
X52261547Y-177100455D01*
X52261544Y-177100452D01*
X52146335Y-177014206D01*
X52146328Y-177014202D01*
X52011482Y-176963908D01*
X52011483Y-176963908D01*
X51951883Y-176957501D01*
X51951881Y-176957500D01*
X51951873Y-176957500D01*
X51951865Y-176957500D01*
X51928500Y-176957500D01*
X51861461Y-176937815D01*
X51815706Y-176885011D01*
X51804500Y-176833500D01*
X51804500Y-175582500D01*
X51824185Y-175515461D01*
X51876989Y-175469706D01*
X51928500Y-175458500D01*
X58252097Y-175458500D01*
X58485368Y-175421553D01*
X58709992Y-175348568D01*
X58920434Y-175241343D01*
X59111510Y-175102517D01*
X60247819Y-173966208D01*
X60309142Y-173932723D01*
X60378834Y-173937707D01*
G37*
%TD.AperFunction*%
%TA.AperFunction,Conductor*%
G36*
X89121956Y-127975710D02*
G01*
X89160196Y-128034186D01*
X89165500Y-128070064D01*
X89165500Y-130501935D01*
X89145815Y-130568974D01*
X89093011Y-130614729D01*
X89023853Y-130624673D01*
X88989096Y-130614317D01*
X88855669Y-130552099D01*
X88855655Y-130552094D01*
X88627413Y-130490938D01*
X88627403Y-130490936D01*
X88392001Y-130470341D01*
X88391999Y-130470341D01*
X88156596Y-130490936D01*
X88156586Y-130490938D01*
X87928344Y-130552094D01*
X87928335Y-130552098D01*
X87714170Y-130651965D01*
X87520597Y-130787505D01*
X87353505Y-130954597D01*
X87217965Y-131148169D01*
X87217964Y-131148171D01*
X87118098Y-131362335D01*
X87118094Y-131362344D01*
X87056938Y-131590586D01*
X87056936Y-131590596D01*
X87036341Y-131825999D01*
X87036341Y-131826000D01*
X87056936Y-132061403D01*
X87056938Y-132061413D01*
X87091327Y-132189756D01*
X87089664Y-132259606D01*
X87059233Y-132309530D01*
X72176432Y-147192331D01*
X72115109Y-147225816D01*
X72045417Y-147220832D01*
X71989484Y-147178960D01*
X71965067Y-147113496D01*
X71965223Y-147093842D01*
X71967659Y-147066000D01*
X71967659Y-147065999D01*
X71955269Y-146924382D01*
X71947063Y-146830592D01*
X71885903Y-146602337D01*
X71786035Y-146388171D01*
X71781112Y-146381139D01*
X71650494Y-146194597D01*
X71622419Y-146166522D01*
X71588934Y-146105199D01*
X71593918Y-146035507D01*
X71622417Y-145991162D01*
X72386506Y-145227074D01*
X72386511Y-145227070D01*
X72396714Y-145216866D01*
X72396716Y-145216866D01*
X72508520Y-145105062D01*
X72587577Y-144968130D01*
X72628500Y-144815403D01*
X72628500Y-143721781D01*
X72648185Y-143654742D01*
X72664814Y-143634105D01*
X88172043Y-128126875D01*
X88233364Y-128093392D01*
X88270524Y-128091030D01*
X88392000Y-128101659D01*
X88392001Y-128101659D01*
X88431234Y-128098226D01*
X88627408Y-128081063D01*
X88855663Y-128019903D01*
X88989096Y-127957681D01*
X89058172Y-127947190D01*
X89121956Y-127975710D01*
G37*
%TD.AperFunction*%
%TA.AperFunction,Conductor*%
G36*
X86958583Y-113891164D02*
G01*
X87014516Y-113933036D01*
X87038933Y-113998500D01*
X87038777Y-114018153D01*
X87036341Y-114045997D01*
X87036341Y-114046000D01*
X87056936Y-114281403D01*
X87056938Y-114281413D01*
X87091327Y-114409755D01*
X87089664Y-114479605D01*
X87059233Y-114529529D01*
X71549584Y-130039181D01*
X71488261Y-130072666D01*
X71461903Y-130075500D01*
X68380941Y-130075500D01*
X68349171Y-130084012D01*
X68349172Y-130084013D01*
X68228214Y-130116423D01*
X68228209Y-130116426D01*
X68091290Y-130195475D01*
X68091282Y-130195481D01*
X67979478Y-130307286D01*
X57643428Y-140643335D01*
X57582105Y-140676820D01*
X57512413Y-140671836D01*
X57456480Y-140629964D01*
X57432063Y-140564500D01*
X57432218Y-140544857D01*
X57439468Y-140462000D01*
X57419635Y-140235308D01*
X57393847Y-140139066D01*
X57395510Y-140069217D01*
X57425939Y-140019294D01*
X68912417Y-128532819D01*
X68973740Y-128499334D01*
X69000098Y-128496500D01*
X71915331Y-128496500D01*
X71915347Y-128496501D01*
X71922943Y-128496501D01*
X72081054Y-128496501D01*
X72081057Y-128496501D01*
X72233785Y-128455577D01*
X72295222Y-128420106D01*
X72370716Y-128376520D01*
X72482520Y-128264716D01*
X72482520Y-128264714D01*
X72492724Y-128254511D01*
X72492728Y-128254506D01*
X86827570Y-113919663D01*
X86888891Y-113886180D01*
X86958583Y-113891164D01*
G37*
%TD.AperFunction*%
%TA.AperFunction,Conductor*%
G36*
X89121956Y-115275710D02*
G01*
X89160196Y-115334186D01*
X89165500Y-115370064D01*
X89165500Y-117801935D01*
X89145815Y-117868974D01*
X89093011Y-117914729D01*
X89023853Y-117924673D01*
X88989096Y-117914317D01*
X88855669Y-117852099D01*
X88855655Y-117852094D01*
X88627413Y-117790938D01*
X88627403Y-117790936D01*
X88392001Y-117770341D01*
X88391999Y-117770341D01*
X88156596Y-117790936D01*
X88156586Y-117790938D01*
X87928344Y-117852094D01*
X87928335Y-117852098D01*
X87714171Y-117951964D01*
X87714169Y-117951965D01*
X87520597Y-118087505D01*
X87353505Y-118254597D01*
X87217965Y-118448169D01*
X87217964Y-118448171D01*
X87118098Y-118662335D01*
X87118094Y-118662344D01*
X87056938Y-118890586D01*
X87056936Y-118890596D01*
X87036341Y-119125999D01*
X87036341Y-119126000D01*
X87056936Y-119361403D01*
X87056938Y-119361413D01*
X87091327Y-119489756D01*
X87089664Y-119559606D01*
X87059233Y-119609530D01*
X74209584Y-132459181D01*
X74148261Y-132492666D01*
X74121903Y-132495500D01*
X71984560Y-132495500D01*
X71917521Y-132475815D01*
X71871766Y-132423011D01*
X71861822Y-132353853D01*
X71872176Y-132319099D01*
X71885903Y-132289663D01*
X71947063Y-132061408D01*
X71967659Y-131826000D01*
X71947063Y-131590592D01*
X71900857Y-131418147D01*
X71893533Y-131390812D01*
X71895196Y-131320962D01*
X71934359Y-131263100D01*
X71981216Y-131238944D01*
X71993785Y-131235577D01*
X72043904Y-131206639D01*
X72130716Y-131156520D01*
X72242520Y-131044716D01*
X72242520Y-131044714D01*
X72252728Y-131034507D01*
X72252729Y-131034504D01*
X87908470Y-115378764D01*
X87969791Y-115345281D01*
X88028242Y-115346672D01*
X88075226Y-115359261D01*
X88156592Y-115381063D01*
X88344918Y-115397539D01*
X88391999Y-115401659D01*
X88392000Y-115401659D01*
X88392001Y-115401659D01*
X88431234Y-115398226D01*
X88627408Y-115381063D01*
X88855663Y-115319903D01*
X88989096Y-115257681D01*
X89058172Y-115247190D01*
X89121956Y-115275710D01*
G37*
%TD.AperFunction*%
%TD*%
M02*
