%TF.GenerationSoftware,KiCad,Pcbnew,8.0.2*%
%TF.CreationDate,2024-05-01T01:53:47-07:00*%
%TF.ProjectId,DRIVER,44524956-4552-42e6-9b69-6361645f7063,rev?*%
%TF.SameCoordinates,Original*%
%TF.FileFunction,Other,Comment*%
%FSLAX46Y46*%
G04 Gerber Fmt 4.6, Leading zero omitted, Abs format (unit mm)*
G04 Created by KiCad (PCBNEW 8.0.2) date 2024-05-01 01:53:47*
%MOMM*%
%LPD*%
G01*
G04 APERTURE LIST*
%ADD10C,0.150000*%
G04 APERTURE END LIST*
D10*
X72737912Y-119962640D02*
X73166484Y-119962640D01*
X72952198Y-120712640D02*
X72952198Y-119962640D01*
X73416484Y-120712640D02*
X73416484Y-119962640D01*
X73737913Y-120712640D02*
X73737913Y-120319783D01*
X73737913Y-120319783D02*
X73702198Y-120248354D01*
X73702198Y-120248354D02*
X73630770Y-120212640D01*
X73630770Y-120212640D02*
X73523627Y-120212640D01*
X73523627Y-120212640D02*
X73452198Y-120248354D01*
X73452198Y-120248354D02*
X73416484Y-120284068D01*
X74095055Y-120712640D02*
X74095055Y-120212640D01*
X74095055Y-119962640D02*
X74059341Y-119998354D01*
X74059341Y-119998354D02*
X74095055Y-120034068D01*
X74095055Y-120034068D02*
X74130769Y-119998354D01*
X74130769Y-119998354D02*
X74095055Y-119962640D01*
X74095055Y-119962640D02*
X74095055Y-120034068D01*
X74416484Y-120676926D02*
X74487912Y-120712640D01*
X74487912Y-120712640D02*
X74630769Y-120712640D01*
X74630769Y-120712640D02*
X74702198Y-120676926D01*
X74702198Y-120676926D02*
X74737912Y-120605497D01*
X74737912Y-120605497D02*
X74737912Y-120569783D01*
X74737912Y-120569783D02*
X74702198Y-120498354D01*
X74702198Y-120498354D02*
X74630769Y-120462640D01*
X74630769Y-120462640D02*
X74523627Y-120462640D01*
X74523627Y-120462640D02*
X74452198Y-120426926D01*
X74452198Y-120426926D02*
X74416484Y-120355497D01*
X74416484Y-120355497D02*
X74416484Y-120319783D01*
X74416484Y-120319783D02*
X74452198Y-120248354D01*
X74452198Y-120248354D02*
X74523627Y-120212640D01*
X74523627Y-120212640D02*
X74630769Y-120212640D01*
X74630769Y-120212640D02*
X74702198Y-120248354D01*
X75630770Y-120712640D02*
X75630770Y-119962640D01*
X75630770Y-120248354D02*
X75702199Y-120212640D01*
X75702199Y-120212640D02*
X75845056Y-120212640D01*
X75845056Y-120212640D02*
X75916484Y-120248354D01*
X75916484Y-120248354D02*
X75952199Y-120284068D01*
X75952199Y-120284068D02*
X75987913Y-120355497D01*
X75987913Y-120355497D02*
X75987913Y-120569783D01*
X75987913Y-120569783D02*
X75952199Y-120641211D01*
X75952199Y-120641211D02*
X75916484Y-120676926D01*
X75916484Y-120676926D02*
X75845056Y-120712640D01*
X75845056Y-120712640D02*
X75702199Y-120712640D01*
X75702199Y-120712640D02*
X75630770Y-120676926D01*
X76595055Y-120676926D02*
X76523627Y-120712640D01*
X76523627Y-120712640D02*
X76380770Y-120712640D01*
X76380770Y-120712640D02*
X76309341Y-120676926D01*
X76309341Y-120676926D02*
X76273627Y-120605497D01*
X76273627Y-120605497D02*
X76273627Y-120319783D01*
X76273627Y-120319783D02*
X76309341Y-120248354D01*
X76309341Y-120248354D02*
X76380770Y-120212640D01*
X76380770Y-120212640D02*
X76523627Y-120212640D01*
X76523627Y-120212640D02*
X76595055Y-120248354D01*
X76595055Y-120248354D02*
X76630770Y-120319783D01*
X76630770Y-120319783D02*
X76630770Y-120391211D01*
X76630770Y-120391211D02*
X76273627Y-120462640D01*
X76952198Y-120712640D02*
X76952198Y-120212640D01*
X76952198Y-119962640D02*
X76916484Y-119998354D01*
X76916484Y-119998354D02*
X76952198Y-120034068D01*
X76952198Y-120034068D02*
X76987912Y-119998354D01*
X76987912Y-119998354D02*
X76952198Y-119962640D01*
X76952198Y-119962640D02*
X76952198Y-120034068D01*
X77309341Y-120212640D02*
X77309341Y-120712640D01*
X77309341Y-120284068D02*
X77345055Y-120248354D01*
X77345055Y-120248354D02*
X77416484Y-120212640D01*
X77416484Y-120212640D02*
X77523627Y-120212640D01*
X77523627Y-120212640D02*
X77595055Y-120248354D01*
X77595055Y-120248354D02*
X77630770Y-120319783D01*
X77630770Y-120319783D02*
X77630770Y-120712640D01*
X78309341Y-120212640D02*
X78309341Y-120819783D01*
X78309341Y-120819783D02*
X78273626Y-120891211D01*
X78273626Y-120891211D02*
X78237912Y-120926926D01*
X78237912Y-120926926D02*
X78166483Y-120962640D01*
X78166483Y-120962640D02*
X78059341Y-120962640D01*
X78059341Y-120962640D02*
X77987912Y-120926926D01*
X78309341Y-120676926D02*
X78237912Y-120712640D01*
X78237912Y-120712640D02*
X78095055Y-120712640D01*
X78095055Y-120712640D02*
X78023626Y-120676926D01*
X78023626Y-120676926D02*
X77987912Y-120641211D01*
X77987912Y-120641211D02*
X77952198Y-120569783D01*
X77952198Y-120569783D02*
X77952198Y-120355497D01*
X77952198Y-120355497D02*
X77987912Y-120284068D01*
X77987912Y-120284068D02*
X78023626Y-120248354D01*
X78023626Y-120248354D02*
X78095055Y-120212640D01*
X78095055Y-120212640D02*
X78237912Y-120212640D01*
X78237912Y-120212640D02*
X78309341Y-120248354D01*
X79166483Y-120212640D02*
X79345055Y-120712640D01*
X79345055Y-120712640D02*
X79523626Y-120212640D01*
X80130770Y-120712640D02*
X80130770Y-120319783D01*
X80130770Y-120319783D02*
X80095055Y-120248354D01*
X80095055Y-120248354D02*
X80023627Y-120212640D01*
X80023627Y-120212640D02*
X79880770Y-120212640D01*
X79880770Y-120212640D02*
X79809341Y-120248354D01*
X80130770Y-120676926D02*
X80059341Y-120712640D01*
X80059341Y-120712640D02*
X79880770Y-120712640D01*
X79880770Y-120712640D02*
X79809341Y-120676926D01*
X79809341Y-120676926D02*
X79773627Y-120605497D01*
X79773627Y-120605497D02*
X79773627Y-120534068D01*
X79773627Y-120534068D02*
X79809341Y-120462640D01*
X79809341Y-120462640D02*
X79880770Y-120426926D01*
X79880770Y-120426926D02*
X80059341Y-120426926D01*
X80059341Y-120426926D02*
X80130770Y-120391211D01*
X80809341Y-120212640D02*
X80809341Y-120819783D01*
X80809341Y-120819783D02*
X80773626Y-120891211D01*
X80773626Y-120891211D02*
X80737912Y-120926926D01*
X80737912Y-120926926D02*
X80666483Y-120962640D01*
X80666483Y-120962640D02*
X80559341Y-120962640D01*
X80559341Y-120962640D02*
X80487912Y-120926926D01*
X80809341Y-120676926D02*
X80737912Y-120712640D01*
X80737912Y-120712640D02*
X80595055Y-120712640D01*
X80595055Y-120712640D02*
X80523626Y-120676926D01*
X80523626Y-120676926D02*
X80487912Y-120641211D01*
X80487912Y-120641211D02*
X80452198Y-120569783D01*
X80452198Y-120569783D02*
X80452198Y-120355497D01*
X80452198Y-120355497D02*
X80487912Y-120284068D01*
X80487912Y-120284068D02*
X80523626Y-120248354D01*
X80523626Y-120248354D02*
X80595055Y-120212640D01*
X80595055Y-120212640D02*
X80737912Y-120212640D01*
X80737912Y-120212640D02*
X80809341Y-120248354D01*
X81487912Y-120212640D02*
X81487912Y-120712640D01*
X81166483Y-120212640D02*
X81166483Y-120605497D01*
X81166483Y-120605497D02*
X81202197Y-120676926D01*
X81202197Y-120676926D02*
X81273626Y-120712640D01*
X81273626Y-120712640D02*
X81380769Y-120712640D01*
X81380769Y-120712640D02*
X81452197Y-120676926D01*
X81452197Y-120676926D02*
X81487912Y-120641211D01*
X82130768Y-120676926D02*
X82059340Y-120712640D01*
X82059340Y-120712640D02*
X81916483Y-120712640D01*
X81916483Y-120712640D02*
X81845054Y-120676926D01*
X81845054Y-120676926D02*
X81809340Y-120605497D01*
X81809340Y-120605497D02*
X81809340Y-120319783D01*
X81809340Y-120319783D02*
X81845054Y-120248354D01*
X81845054Y-120248354D02*
X81916483Y-120212640D01*
X81916483Y-120212640D02*
X82059340Y-120212640D01*
X82059340Y-120212640D02*
X82130768Y-120248354D01*
X82130768Y-120248354D02*
X82166483Y-120319783D01*
X82166483Y-120319783D02*
X82166483Y-120391211D01*
X82166483Y-120391211D02*
X81809340Y-120462640D01*
X72845055Y-121920098D02*
X72845055Y-121420098D01*
X72845055Y-121170098D02*
X72809341Y-121205812D01*
X72809341Y-121205812D02*
X72845055Y-121241526D01*
X72845055Y-121241526D02*
X72880769Y-121205812D01*
X72880769Y-121205812D02*
X72845055Y-121170098D01*
X72845055Y-121170098D02*
X72845055Y-121241526D01*
X73166484Y-121884384D02*
X73237912Y-121920098D01*
X73237912Y-121920098D02*
X73380769Y-121920098D01*
X73380769Y-121920098D02*
X73452198Y-121884384D01*
X73452198Y-121884384D02*
X73487912Y-121812955D01*
X73487912Y-121812955D02*
X73487912Y-121777241D01*
X73487912Y-121777241D02*
X73452198Y-121705812D01*
X73452198Y-121705812D02*
X73380769Y-121670098D01*
X73380769Y-121670098D02*
X73273627Y-121670098D01*
X73273627Y-121670098D02*
X73202198Y-121634384D01*
X73202198Y-121634384D02*
X73166484Y-121562955D01*
X73166484Y-121562955D02*
X73166484Y-121527241D01*
X73166484Y-121527241D02*
X73202198Y-121455812D01*
X73202198Y-121455812D02*
X73273627Y-121420098D01*
X73273627Y-121420098D02*
X73380769Y-121420098D01*
X73380769Y-121420098D02*
X73452198Y-121455812D01*
X74273627Y-121420098D02*
X74559341Y-121420098D01*
X74380770Y-121920098D02*
X74380770Y-121277241D01*
X74380770Y-121277241D02*
X74416484Y-121205812D01*
X74416484Y-121205812D02*
X74487913Y-121170098D01*
X74487913Y-121170098D02*
X74559341Y-121170098D01*
X74809341Y-121920098D02*
X74809341Y-121420098D01*
X74809341Y-121170098D02*
X74773627Y-121205812D01*
X74773627Y-121205812D02*
X74809341Y-121241526D01*
X74809341Y-121241526D02*
X74845055Y-121205812D01*
X74845055Y-121205812D02*
X74809341Y-121170098D01*
X74809341Y-121170098D02*
X74809341Y-121241526D01*
X75166484Y-121420098D02*
X75166484Y-121920098D01*
X75166484Y-121491526D02*
X75202198Y-121455812D01*
X75202198Y-121455812D02*
X75273627Y-121420098D01*
X75273627Y-121420098D02*
X75380770Y-121420098D01*
X75380770Y-121420098D02*
X75452198Y-121455812D01*
X75452198Y-121455812D02*
X75487913Y-121527241D01*
X75487913Y-121527241D02*
X75487913Y-121920098D01*
X76130769Y-121884384D02*
X76059341Y-121920098D01*
X76059341Y-121920098D02*
X75916484Y-121920098D01*
X75916484Y-121920098D02*
X75845055Y-121884384D01*
X75845055Y-121884384D02*
X75809341Y-121812955D01*
X75809341Y-121812955D02*
X75809341Y-121527241D01*
X75809341Y-121527241D02*
X75845055Y-121455812D01*
X75845055Y-121455812D02*
X75916484Y-121420098D01*
X75916484Y-121420098D02*
X76059341Y-121420098D01*
X76059341Y-121420098D02*
X76130769Y-121455812D01*
X76130769Y-121455812D02*
X76166484Y-121527241D01*
X76166484Y-121527241D02*
X76166484Y-121598669D01*
X76166484Y-121598669D02*
X75809341Y-121670098D01*
X76523626Y-121884384D02*
X76523626Y-121920098D01*
X76523626Y-121920098D02*
X76487912Y-121991526D01*
X76487912Y-121991526D02*
X76452198Y-122027241D01*
X77416484Y-121920098D02*
X77416484Y-121420098D01*
X77416484Y-121170098D02*
X77380770Y-121205812D01*
X77380770Y-121205812D02*
X77416484Y-121241526D01*
X77416484Y-121241526D02*
X77452198Y-121205812D01*
X77452198Y-121205812D02*
X77416484Y-121170098D01*
X77416484Y-121170098D02*
X77416484Y-121241526D01*
X77666484Y-121420098D02*
X77952198Y-121420098D01*
X77773627Y-121170098D02*
X77773627Y-121812955D01*
X77773627Y-121812955D02*
X77809341Y-121884384D01*
X77809341Y-121884384D02*
X77880770Y-121920098D01*
X77880770Y-121920098D02*
X77952198Y-121920098D01*
X78237912Y-121170098D02*
X78166484Y-121312955D01*
X78523627Y-121884384D02*
X78595055Y-121920098D01*
X78595055Y-121920098D02*
X78737912Y-121920098D01*
X78737912Y-121920098D02*
X78809341Y-121884384D01*
X78809341Y-121884384D02*
X78845055Y-121812955D01*
X78845055Y-121812955D02*
X78845055Y-121777241D01*
X78845055Y-121777241D02*
X78809341Y-121705812D01*
X78809341Y-121705812D02*
X78737912Y-121670098D01*
X78737912Y-121670098D02*
X78630770Y-121670098D01*
X78630770Y-121670098D02*
X78559341Y-121634384D01*
X78559341Y-121634384D02*
X78523627Y-121562955D01*
X78523627Y-121562955D02*
X78523627Y-121527241D01*
X78523627Y-121527241D02*
X78559341Y-121455812D01*
X78559341Y-121455812D02*
X78630770Y-121420098D01*
X78630770Y-121420098D02*
X78737912Y-121420098D01*
X78737912Y-121420098D02*
X78809341Y-121455812D01*
X79737913Y-121420098D02*
X79737913Y-122062955D01*
X79737913Y-122062955D02*
X79702199Y-122134384D01*
X79702199Y-122134384D02*
X79630770Y-122170098D01*
X79630770Y-122170098D02*
X79595056Y-122170098D01*
X79737913Y-121170098D02*
X79702199Y-121205812D01*
X79702199Y-121205812D02*
X79737913Y-121241526D01*
X79737913Y-121241526D02*
X79773627Y-121205812D01*
X79773627Y-121205812D02*
X79737913Y-121170098D01*
X79737913Y-121170098D02*
X79737913Y-121241526D01*
X80416485Y-121420098D02*
X80416485Y-121920098D01*
X80095056Y-121420098D02*
X80095056Y-121812955D01*
X80095056Y-121812955D02*
X80130770Y-121884384D01*
X80130770Y-121884384D02*
X80202199Y-121920098D01*
X80202199Y-121920098D02*
X80309342Y-121920098D01*
X80309342Y-121920098D02*
X80380770Y-121884384D01*
X80380770Y-121884384D02*
X80416485Y-121848669D01*
X80737913Y-121884384D02*
X80809341Y-121920098D01*
X80809341Y-121920098D02*
X80952198Y-121920098D01*
X80952198Y-121920098D02*
X81023627Y-121884384D01*
X81023627Y-121884384D02*
X81059341Y-121812955D01*
X81059341Y-121812955D02*
X81059341Y-121777241D01*
X81059341Y-121777241D02*
X81023627Y-121705812D01*
X81023627Y-121705812D02*
X80952198Y-121670098D01*
X80952198Y-121670098D02*
X80845056Y-121670098D01*
X80845056Y-121670098D02*
X80773627Y-121634384D01*
X80773627Y-121634384D02*
X80737913Y-121562955D01*
X80737913Y-121562955D02*
X80737913Y-121527241D01*
X80737913Y-121527241D02*
X80773627Y-121455812D01*
X80773627Y-121455812D02*
X80845056Y-121420098D01*
X80845056Y-121420098D02*
X80952198Y-121420098D01*
X80952198Y-121420098D02*
X81023627Y-121455812D01*
X81273627Y-121420098D02*
X81559341Y-121420098D01*
X81380770Y-121170098D02*
X81380770Y-121812955D01*
X81380770Y-121812955D02*
X81416484Y-121884384D01*
X81416484Y-121884384D02*
X81487913Y-121920098D01*
X81487913Y-121920098D02*
X81559341Y-121920098D01*
X72845055Y-123127556D02*
X72845055Y-122377556D01*
X73166484Y-123127556D02*
X73166484Y-122734699D01*
X73166484Y-122734699D02*
X73130769Y-122663270D01*
X73130769Y-122663270D02*
X73059341Y-122627556D01*
X73059341Y-122627556D02*
X72952198Y-122627556D01*
X72952198Y-122627556D02*
X72880769Y-122663270D01*
X72880769Y-122663270D02*
X72845055Y-122698984D01*
X73809340Y-123091842D02*
X73737912Y-123127556D01*
X73737912Y-123127556D02*
X73595055Y-123127556D01*
X73595055Y-123127556D02*
X73523626Y-123091842D01*
X73523626Y-123091842D02*
X73487912Y-123020413D01*
X73487912Y-123020413D02*
X73487912Y-122734699D01*
X73487912Y-122734699D02*
X73523626Y-122663270D01*
X73523626Y-122663270D02*
X73595055Y-122627556D01*
X73595055Y-122627556D02*
X73737912Y-122627556D01*
X73737912Y-122627556D02*
X73809340Y-122663270D01*
X73809340Y-122663270D02*
X73845055Y-122734699D01*
X73845055Y-122734699D02*
X73845055Y-122806127D01*
X73845055Y-122806127D02*
X73487912Y-122877556D01*
X74166483Y-123127556D02*
X74166483Y-122627556D01*
X74166483Y-122770413D02*
X74202197Y-122698984D01*
X74202197Y-122698984D02*
X74237912Y-122663270D01*
X74237912Y-122663270D02*
X74309340Y-122627556D01*
X74309340Y-122627556D02*
X74380769Y-122627556D01*
X74916483Y-123091842D02*
X74845055Y-123127556D01*
X74845055Y-123127556D02*
X74702198Y-123127556D01*
X74702198Y-123127556D02*
X74630769Y-123091842D01*
X74630769Y-123091842D02*
X74595055Y-123020413D01*
X74595055Y-123020413D02*
X74595055Y-122734699D01*
X74595055Y-122734699D02*
X74630769Y-122663270D01*
X74630769Y-122663270D02*
X74702198Y-122627556D01*
X74702198Y-122627556D02*
X74845055Y-122627556D01*
X74845055Y-122627556D02*
X74916483Y-122663270D01*
X74916483Y-122663270D02*
X74952198Y-122734699D01*
X74952198Y-122734699D02*
X74952198Y-122806127D01*
X74952198Y-122806127D02*
X74595055Y-122877556D01*
X75737912Y-122627556D02*
X76023626Y-122627556D01*
X75845055Y-123127556D02*
X75845055Y-122484699D01*
X75845055Y-122484699D02*
X75880769Y-122413270D01*
X75880769Y-122413270D02*
X75952198Y-122377556D01*
X75952198Y-122377556D02*
X76023626Y-122377556D01*
X76380769Y-123127556D02*
X76309340Y-123091842D01*
X76309340Y-123091842D02*
X76273626Y-123056127D01*
X76273626Y-123056127D02*
X76237912Y-122984699D01*
X76237912Y-122984699D02*
X76237912Y-122770413D01*
X76237912Y-122770413D02*
X76273626Y-122698984D01*
X76273626Y-122698984D02*
X76309340Y-122663270D01*
X76309340Y-122663270D02*
X76380769Y-122627556D01*
X76380769Y-122627556D02*
X76487912Y-122627556D01*
X76487912Y-122627556D02*
X76559340Y-122663270D01*
X76559340Y-122663270D02*
X76595055Y-122698984D01*
X76595055Y-122698984D02*
X76630769Y-122770413D01*
X76630769Y-122770413D02*
X76630769Y-122984699D01*
X76630769Y-122984699D02*
X76595055Y-123056127D01*
X76595055Y-123056127D02*
X76559340Y-123091842D01*
X76559340Y-123091842D02*
X76487912Y-123127556D01*
X76487912Y-123127556D02*
X76380769Y-123127556D01*
X76952197Y-123127556D02*
X76952197Y-122627556D01*
X76952197Y-122770413D02*
X76987911Y-122698984D01*
X76987911Y-122698984D02*
X77023626Y-122663270D01*
X77023626Y-122663270D02*
X77095054Y-122627556D01*
X77095054Y-122627556D02*
X77166483Y-122627556D01*
X77880769Y-122627556D02*
X78166483Y-122627556D01*
X77987912Y-123127556D02*
X77987912Y-122484699D01*
X77987912Y-122484699D02*
X78023626Y-122413270D01*
X78023626Y-122413270D02*
X78095055Y-122377556D01*
X78095055Y-122377556D02*
X78166483Y-122377556D01*
X78737912Y-122627556D02*
X78737912Y-123127556D01*
X78416483Y-122627556D02*
X78416483Y-123020413D01*
X78416483Y-123020413D02*
X78452197Y-123091842D01*
X78452197Y-123091842D02*
X78523626Y-123127556D01*
X78523626Y-123127556D02*
X78630769Y-123127556D01*
X78630769Y-123127556D02*
X78702197Y-123091842D01*
X78702197Y-123091842D02*
X78737912Y-123056127D01*
X79095054Y-122627556D02*
X79095054Y-123127556D01*
X79095054Y-122698984D02*
X79130768Y-122663270D01*
X79130768Y-122663270D02*
X79202197Y-122627556D01*
X79202197Y-122627556D02*
X79309340Y-122627556D01*
X79309340Y-122627556D02*
X79380768Y-122663270D01*
X79380768Y-122663270D02*
X79416483Y-122734699D01*
X79416483Y-122734699D02*
X79416483Y-123127556D01*
X80666483Y-123127556D02*
X80666483Y-122734699D01*
X80666483Y-122734699D02*
X80630768Y-122663270D01*
X80630768Y-122663270D02*
X80559340Y-122627556D01*
X80559340Y-122627556D02*
X80416483Y-122627556D01*
X80416483Y-122627556D02*
X80345054Y-122663270D01*
X80666483Y-123091842D02*
X80595054Y-123127556D01*
X80595054Y-123127556D02*
X80416483Y-123127556D01*
X80416483Y-123127556D02*
X80345054Y-123091842D01*
X80345054Y-123091842D02*
X80309340Y-123020413D01*
X80309340Y-123020413D02*
X80309340Y-122948984D01*
X80309340Y-122948984D02*
X80345054Y-122877556D01*
X80345054Y-122877556D02*
X80416483Y-122841842D01*
X80416483Y-122841842D02*
X80595054Y-122841842D01*
X80595054Y-122841842D02*
X80666483Y-122806127D01*
X81023625Y-122627556D02*
X81023625Y-123127556D01*
X81023625Y-122698984D02*
X81059339Y-122663270D01*
X81059339Y-122663270D02*
X81130768Y-122627556D01*
X81130768Y-122627556D02*
X81237911Y-122627556D01*
X81237911Y-122627556D02*
X81309339Y-122663270D01*
X81309339Y-122663270D02*
X81345054Y-122734699D01*
X81345054Y-122734699D02*
X81345054Y-123127556D01*
X82023625Y-123127556D02*
X82023625Y-122377556D01*
X82023625Y-123091842D02*
X81952196Y-123127556D01*
X81952196Y-123127556D02*
X81809339Y-123127556D01*
X81809339Y-123127556D02*
X81737910Y-123091842D01*
X81737910Y-123091842D02*
X81702196Y-123056127D01*
X81702196Y-123056127D02*
X81666482Y-122984699D01*
X81666482Y-122984699D02*
X81666482Y-122770413D01*
X81666482Y-122770413D02*
X81702196Y-122698984D01*
X81702196Y-122698984D02*
X81737910Y-122663270D01*
X81737910Y-122663270D02*
X81809339Y-122627556D01*
X81809339Y-122627556D02*
X81952196Y-122627556D01*
X81952196Y-122627556D02*
X82023625Y-122663270D01*
X82880767Y-122627556D02*
X83023625Y-123127556D01*
X83023625Y-123127556D02*
X83166482Y-122770413D01*
X83166482Y-122770413D02*
X83309339Y-123127556D01*
X83309339Y-123127556D02*
X83452196Y-122627556D01*
X83737910Y-123127556D02*
X83737910Y-122627556D01*
X83737910Y-122377556D02*
X83702196Y-122413270D01*
X83702196Y-122413270D02*
X83737910Y-122448984D01*
X83737910Y-122448984D02*
X83773624Y-122413270D01*
X83773624Y-122413270D02*
X83737910Y-122377556D01*
X83737910Y-122377556D02*
X83737910Y-122448984D01*
X84202196Y-123127556D02*
X84130767Y-123091842D01*
X84130767Y-123091842D02*
X84095053Y-123020413D01*
X84095053Y-123020413D02*
X84095053Y-122377556D01*
X84595053Y-123127556D02*
X84523624Y-123091842D01*
X84523624Y-123091842D02*
X84487910Y-123020413D01*
X84487910Y-123020413D02*
X84487910Y-122377556D01*
X72845055Y-124335014D02*
X72845055Y-123585014D01*
X72845055Y-123870728D02*
X72916484Y-123835014D01*
X72916484Y-123835014D02*
X73059341Y-123835014D01*
X73059341Y-123835014D02*
X73130769Y-123870728D01*
X73130769Y-123870728D02*
X73166484Y-123906442D01*
X73166484Y-123906442D02*
X73202198Y-123977871D01*
X73202198Y-123977871D02*
X73202198Y-124192157D01*
X73202198Y-124192157D02*
X73166484Y-124263585D01*
X73166484Y-124263585D02*
X73130769Y-124299300D01*
X73130769Y-124299300D02*
X73059341Y-124335014D01*
X73059341Y-124335014D02*
X72916484Y-124335014D01*
X72916484Y-124335014D02*
X72845055Y-124299300D01*
X73809340Y-124299300D02*
X73737912Y-124335014D01*
X73737912Y-124335014D02*
X73595055Y-124335014D01*
X73595055Y-124335014D02*
X73523626Y-124299300D01*
X73523626Y-124299300D02*
X73487912Y-124227871D01*
X73487912Y-124227871D02*
X73487912Y-123942157D01*
X73487912Y-123942157D02*
X73523626Y-123870728D01*
X73523626Y-123870728D02*
X73595055Y-123835014D01*
X73595055Y-123835014D02*
X73737912Y-123835014D01*
X73737912Y-123835014D02*
X73809340Y-123870728D01*
X73809340Y-123870728D02*
X73845055Y-123942157D01*
X73845055Y-123942157D02*
X73845055Y-124013585D01*
X73845055Y-124013585D02*
X73487912Y-124085014D01*
X75059341Y-124299300D02*
X74987912Y-124335014D01*
X74987912Y-124335014D02*
X74845055Y-124335014D01*
X74845055Y-124335014D02*
X74773626Y-124299300D01*
X74773626Y-124299300D02*
X74737912Y-124263585D01*
X74737912Y-124263585D02*
X74702198Y-124192157D01*
X74702198Y-124192157D02*
X74702198Y-123977871D01*
X74702198Y-123977871D02*
X74737912Y-123906442D01*
X74737912Y-123906442D02*
X74773626Y-123870728D01*
X74773626Y-123870728D02*
X74845055Y-123835014D01*
X74845055Y-123835014D02*
X74987912Y-123835014D01*
X74987912Y-123835014D02*
X75059341Y-123870728D01*
X75487912Y-124335014D02*
X75416483Y-124299300D01*
X75416483Y-124299300D02*
X75380769Y-124263585D01*
X75380769Y-124263585D02*
X75345055Y-124192157D01*
X75345055Y-124192157D02*
X75345055Y-123977871D01*
X75345055Y-123977871D02*
X75380769Y-123906442D01*
X75380769Y-123906442D02*
X75416483Y-123870728D01*
X75416483Y-123870728D02*
X75487912Y-123835014D01*
X75487912Y-123835014D02*
X75595055Y-123835014D01*
X75595055Y-123835014D02*
X75666483Y-123870728D01*
X75666483Y-123870728D02*
X75702198Y-123906442D01*
X75702198Y-123906442D02*
X75737912Y-123977871D01*
X75737912Y-123977871D02*
X75737912Y-124192157D01*
X75737912Y-124192157D02*
X75702198Y-124263585D01*
X75702198Y-124263585D02*
X75666483Y-124299300D01*
X75666483Y-124299300D02*
X75595055Y-124335014D01*
X75595055Y-124335014D02*
X75487912Y-124335014D01*
X75987911Y-123835014D02*
X76166483Y-124335014D01*
X76166483Y-124335014D02*
X76345054Y-123835014D01*
X76916483Y-124299300D02*
X76845055Y-124335014D01*
X76845055Y-124335014D02*
X76702198Y-124335014D01*
X76702198Y-124335014D02*
X76630769Y-124299300D01*
X76630769Y-124299300D02*
X76595055Y-124227871D01*
X76595055Y-124227871D02*
X76595055Y-123942157D01*
X76595055Y-123942157D02*
X76630769Y-123870728D01*
X76630769Y-123870728D02*
X76702198Y-123835014D01*
X76702198Y-123835014D02*
X76845055Y-123835014D01*
X76845055Y-123835014D02*
X76916483Y-123870728D01*
X76916483Y-123870728D02*
X76952198Y-123942157D01*
X76952198Y-123942157D02*
X76952198Y-124013585D01*
X76952198Y-124013585D02*
X76595055Y-124085014D01*
X77273626Y-124335014D02*
X77273626Y-123835014D01*
X77273626Y-123977871D02*
X77309340Y-123906442D01*
X77309340Y-123906442D02*
X77345055Y-123870728D01*
X77345055Y-123870728D02*
X77416483Y-123835014D01*
X77416483Y-123835014D02*
X77487912Y-123835014D01*
X78023626Y-124299300D02*
X77952198Y-124335014D01*
X77952198Y-124335014D02*
X77809341Y-124335014D01*
X77809341Y-124335014D02*
X77737912Y-124299300D01*
X77737912Y-124299300D02*
X77702198Y-124227871D01*
X77702198Y-124227871D02*
X77702198Y-123942157D01*
X77702198Y-123942157D02*
X77737912Y-123870728D01*
X77737912Y-123870728D02*
X77809341Y-123835014D01*
X77809341Y-123835014D02*
X77952198Y-123835014D01*
X77952198Y-123835014D02*
X78023626Y-123870728D01*
X78023626Y-123870728D02*
X78059341Y-123942157D01*
X78059341Y-123942157D02*
X78059341Y-124013585D01*
X78059341Y-124013585D02*
X77702198Y-124085014D01*
X78702198Y-124335014D02*
X78702198Y-123585014D01*
X78702198Y-124299300D02*
X78630769Y-124335014D01*
X78630769Y-124335014D02*
X78487912Y-124335014D01*
X78487912Y-124335014D02*
X78416483Y-124299300D01*
X78416483Y-124299300D02*
X78380769Y-124263585D01*
X78380769Y-124263585D02*
X78345055Y-124192157D01*
X78345055Y-124192157D02*
X78345055Y-123977871D01*
X78345055Y-123977871D02*
X78380769Y-123906442D01*
X78380769Y-123906442D02*
X78416483Y-123870728D01*
X78416483Y-123870728D02*
X78487912Y-123835014D01*
X78487912Y-123835014D02*
X78630769Y-123835014D01*
X78630769Y-123835014D02*
X78702198Y-123870728D01*
X79630769Y-124335014D02*
X79630769Y-123585014D01*
X79630769Y-123870728D02*
X79702198Y-123835014D01*
X79702198Y-123835014D02*
X79845055Y-123835014D01*
X79845055Y-123835014D02*
X79916483Y-123870728D01*
X79916483Y-123870728D02*
X79952198Y-123906442D01*
X79952198Y-123906442D02*
X79987912Y-123977871D01*
X79987912Y-123977871D02*
X79987912Y-124192157D01*
X79987912Y-124192157D02*
X79952198Y-124263585D01*
X79952198Y-124263585D02*
X79916483Y-124299300D01*
X79916483Y-124299300D02*
X79845055Y-124335014D01*
X79845055Y-124335014D02*
X79702198Y-124335014D01*
X79702198Y-124335014D02*
X79630769Y-124299300D01*
X80237911Y-123835014D02*
X80416483Y-124335014D01*
X80595054Y-123835014D02*
X80416483Y-124335014D01*
X80416483Y-124335014D02*
X80345054Y-124513585D01*
X80345054Y-124513585D02*
X80309340Y-124549300D01*
X80309340Y-124549300D02*
X80237911Y-124585014D01*
X81773627Y-124335014D02*
X81773627Y-123942157D01*
X81773627Y-123942157D02*
X81737912Y-123870728D01*
X81737912Y-123870728D02*
X81666484Y-123835014D01*
X81666484Y-123835014D02*
X81523627Y-123835014D01*
X81523627Y-123835014D02*
X81452198Y-123870728D01*
X81773627Y-124299300D02*
X81702198Y-124335014D01*
X81702198Y-124335014D02*
X81523627Y-124335014D01*
X81523627Y-124335014D02*
X81452198Y-124299300D01*
X81452198Y-124299300D02*
X81416484Y-124227871D01*
X81416484Y-124227871D02*
X81416484Y-124156442D01*
X81416484Y-124156442D02*
X81452198Y-124085014D01*
X81452198Y-124085014D02*
X81523627Y-124049300D01*
X81523627Y-124049300D02*
X81702198Y-124049300D01*
X81702198Y-124049300D02*
X81773627Y-124013585D01*
X83023627Y-124299300D02*
X82952198Y-124335014D01*
X82952198Y-124335014D02*
X82809341Y-124335014D01*
X82809341Y-124335014D02*
X82737912Y-124299300D01*
X82737912Y-124299300D02*
X82702198Y-124263585D01*
X82702198Y-124263585D02*
X82666484Y-124192157D01*
X82666484Y-124192157D02*
X82666484Y-123977871D01*
X82666484Y-123977871D02*
X82702198Y-123906442D01*
X82702198Y-123906442D02*
X82737912Y-123870728D01*
X82737912Y-123870728D02*
X82809341Y-123835014D01*
X82809341Y-123835014D02*
X82952198Y-123835014D01*
X82952198Y-123835014D02*
X83023627Y-123870728D01*
X83345055Y-124335014D02*
X83345055Y-123585014D01*
X83666484Y-124335014D02*
X83666484Y-123942157D01*
X83666484Y-123942157D02*
X83630769Y-123870728D01*
X83630769Y-123870728D02*
X83559341Y-123835014D01*
X83559341Y-123835014D02*
X83452198Y-123835014D01*
X83452198Y-123835014D02*
X83380769Y-123870728D01*
X83380769Y-123870728D02*
X83345055Y-123906442D01*
X84023626Y-124335014D02*
X84023626Y-123835014D01*
X84023626Y-123585014D02*
X83987912Y-123620728D01*
X83987912Y-123620728D02*
X84023626Y-123656442D01*
X84023626Y-123656442D02*
X84059340Y-123620728D01*
X84059340Y-123620728D02*
X84023626Y-123585014D01*
X84023626Y-123585014D02*
X84023626Y-123656442D01*
X84380769Y-123835014D02*
X84380769Y-124585014D01*
X84380769Y-123870728D02*
X84452198Y-123835014D01*
X84452198Y-123835014D02*
X84595055Y-123835014D01*
X84595055Y-123835014D02*
X84666483Y-123870728D01*
X84666483Y-123870728D02*
X84702198Y-123906442D01*
X84702198Y-123906442D02*
X84737912Y-123977871D01*
X84737912Y-123977871D02*
X84737912Y-124192157D01*
X84737912Y-124192157D02*
X84702198Y-124263585D01*
X84702198Y-124263585D02*
X84666483Y-124299300D01*
X84666483Y-124299300D02*
X84595055Y-124335014D01*
X84595055Y-124335014D02*
X84452198Y-124335014D01*
X84452198Y-124335014D02*
X84380769Y-124299300D01*
X74781580Y-158660764D02*
X74829200Y-158708383D01*
X74829200Y-158708383D02*
X74876819Y-158851240D01*
X74876819Y-158851240D02*
X74876819Y-158946478D01*
X74876819Y-158946478D02*
X74829200Y-159089335D01*
X74829200Y-159089335D02*
X74733961Y-159184573D01*
X74733961Y-159184573D02*
X74638723Y-159232192D01*
X74638723Y-159232192D02*
X74448247Y-159279811D01*
X74448247Y-159279811D02*
X74305390Y-159279811D01*
X74305390Y-159279811D02*
X74114914Y-159232192D01*
X74114914Y-159232192D02*
X74019676Y-159184573D01*
X74019676Y-159184573D02*
X73924438Y-159089335D01*
X73924438Y-159089335D02*
X73876819Y-158946478D01*
X73876819Y-158946478D02*
X73876819Y-158851240D01*
X73876819Y-158851240D02*
X73924438Y-158708383D01*
X73924438Y-158708383D02*
X73972057Y-158660764D01*
X74876819Y-158089335D02*
X74829200Y-158184573D01*
X74829200Y-158184573D02*
X74781580Y-158232192D01*
X74781580Y-158232192D02*
X74686342Y-158279811D01*
X74686342Y-158279811D02*
X74400628Y-158279811D01*
X74400628Y-158279811D02*
X74305390Y-158232192D01*
X74305390Y-158232192D02*
X74257771Y-158184573D01*
X74257771Y-158184573D02*
X74210152Y-158089335D01*
X74210152Y-158089335D02*
X74210152Y-157946478D01*
X74210152Y-157946478D02*
X74257771Y-157851240D01*
X74257771Y-157851240D02*
X74305390Y-157803621D01*
X74305390Y-157803621D02*
X74400628Y-157756002D01*
X74400628Y-157756002D02*
X74686342Y-157756002D01*
X74686342Y-157756002D02*
X74781580Y-157803621D01*
X74781580Y-157803621D02*
X74829200Y-157851240D01*
X74829200Y-157851240D02*
X74876819Y-157946478D01*
X74876819Y-157946478D02*
X74876819Y-158089335D01*
X74210152Y-157327430D02*
X75210152Y-157327430D01*
X74257771Y-157327430D02*
X74210152Y-157232192D01*
X74210152Y-157232192D02*
X74210152Y-157041716D01*
X74210152Y-157041716D02*
X74257771Y-156946478D01*
X74257771Y-156946478D02*
X74305390Y-156898859D01*
X74305390Y-156898859D02*
X74400628Y-156851240D01*
X74400628Y-156851240D02*
X74686342Y-156851240D01*
X74686342Y-156851240D02*
X74781580Y-156898859D01*
X74781580Y-156898859D02*
X74829200Y-156946478D01*
X74829200Y-156946478D02*
X74876819Y-157041716D01*
X74876819Y-157041716D02*
X74876819Y-157232192D01*
X74876819Y-157232192D02*
X74829200Y-157327430D01*
X74210152Y-156422668D02*
X75210152Y-156422668D01*
X74257771Y-156422668D02*
X74210152Y-156327430D01*
X74210152Y-156327430D02*
X74210152Y-156136954D01*
X74210152Y-156136954D02*
X74257771Y-156041716D01*
X74257771Y-156041716D02*
X74305390Y-155994097D01*
X74305390Y-155994097D02*
X74400628Y-155946478D01*
X74400628Y-155946478D02*
X74686342Y-155946478D01*
X74686342Y-155946478D02*
X74781580Y-155994097D01*
X74781580Y-155994097D02*
X74829200Y-156041716D01*
X74829200Y-156041716D02*
X74876819Y-156136954D01*
X74876819Y-156136954D02*
X74876819Y-156327430D01*
X74876819Y-156327430D02*
X74829200Y-156422668D01*
X74829200Y-155136954D02*
X74876819Y-155232192D01*
X74876819Y-155232192D02*
X74876819Y-155422668D01*
X74876819Y-155422668D02*
X74829200Y-155517906D01*
X74829200Y-155517906D02*
X74733961Y-155565525D01*
X74733961Y-155565525D02*
X74353009Y-155565525D01*
X74353009Y-155565525D02*
X74257771Y-155517906D01*
X74257771Y-155517906D02*
X74210152Y-155422668D01*
X74210152Y-155422668D02*
X74210152Y-155232192D01*
X74210152Y-155232192D02*
X74257771Y-155136954D01*
X74257771Y-155136954D02*
X74353009Y-155089335D01*
X74353009Y-155089335D02*
X74448247Y-155089335D01*
X74448247Y-155089335D02*
X74543485Y-155565525D01*
X74876819Y-154660763D02*
X74210152Y-154660763D01*
X74400628Y-154660763D02*
X74305390Y-154613144D01*
X74305390Y-154613144D02*
X74257771Y-154565525D01*
X74257771Y-154565525D02*
X74210152Y-154470287D01*
X74210152Y-154470287D02*
X74210152Y-154375049D01*
X74876819Y-153279810D02*
X73876819Y-153279810D01*
X74876819Y-152708382D02*
X74305390Y-153136953D01*
X73876819Y-152708382D02*
X74448247Y-153279810D01*
X74829200Y-151898858D02*
X74876819Y-151994096D01*
X74876819Y-151994096D02*
X74876819Y-152184572D01*
X74876819Y-152184572D02*
X74829200Y-152279810D01*
X74829200Y-152279810D02*
X74733961Y-152327429D01*
X74733961Y-152327429D02*
X74353009Y-152327429D01*
X74353009Y-152327429D02*
X74257771Y-152279810D01*
X74257771Y-152279810D02*
X74210152Y-152184572D01*
X74210152Y-152184572D02*
X74210152Y-151994096D01*
X74210152Y-151994096D02*
X74257771Y-151898858D01*
X74257771Y-151898858D02*
X74353009Y-151851239D01*
X74353009Y-151851239D02*
X74448247Y-151851239D01*
X74448247Y-151851239D02*
X74543485Y-152327429D01*
X74829200Y-151041715D02*
X74876819Y-151136953D01*
X74876819Y-151136953D02*
X74876819Y-151327429D01*
X74876819Y-151327429D02*
X74829200Y-151422667D01*
X74829200Y-151422667D02*
X74733961Y-151470286D01*
X74733961Y-151470286D02*
X74353009Y-151470286D01*
X74353009Y-151470286D02*
X74257771Y-151422667D01*
X74257771Y-151422667D02*
X74210152Y-151327429D01*
X74210152Y-151327429D02*
X74210152Y-151136953D01*
X74210152Y-151136953D02*
X74257771Y-151041715D01*
X74257771Y-151041715D02*
X74353009Y-150994096D01*
X74353009Y-150994096D02*
X74448247Y-150994096D01*
X74448247Y-150994096D02*
X74543485Y-151470286D01*
X74210152Y-150565524D02*
X75210152Y-150565524D01*
X74257771Y-150565524D02*
X74210152Y-150470286D01*
X74210152Y-150470286D02*
X74210152Y-150279810D01*
X74210152Y-150279810D02*
X74257771Y-150184572D01*
X74257771Y-150184572D02*
X74305390Y-150136953D01*
X74305390Y-150136953D02*
X74400628Y-150089334D01*
X74400628Y-150089334D02*
X74686342Y-150089334D01*
X74686342Y-150089334D02*
X74781580Y-150136953D01*
X74781580Y-150136953D02*
X74829200Y-150184572D01*
X74829200Y-150184572D02*
X74876819Y-150279810D01*
X74876819Y-150279810D02*
X74876819Y-150470286D01*
X74876819Y-150470286D02*
X74829200Y-150565524D01*
X74876819Y-149517905D02*
X74829200Y-149613143D01*
X74829200Y-149613143D02*
X74781580Y-149660762D01*
X74781580Y-149660762D02*
X74686342Y-149708381D01*
X74686342Y-149708381D02*
X74400628Y-149708381D01*
X74400628Y-149708381D02*
X74305390Y-149660762D01*
X74305390Y-149660762D02*
X74257771Y-149613143D01*
X74257771Y-149613143D02*
X74210152Y-149517905D01*
X74210152Y-149517905D02*
X74210152Y-149375048D01*
X74210152Y-149375048D02*
X74257771Y-149279810D01*
X74257771Y-149279810D02*
X74305390Y-149232191D01*
X74305390Y-149232191D02*
X74400628Y-149184572D01*
X74400628Y-149184572D02*
X74686342Y-149184572D01*
X74686342Y-149184572D02*
X74781580Y-149232191D01*
X74781580Y-149232191D02*
X74829200Y-149279810D01*
X74829200Y-149279810D02*
X74876819Y-149375048D01*
X74876819Y-149375048D02*
X74876819Y-149517905D01*
X74210152Y-148327429D02*
X74876819Y-148327429D01*
X74210152Y-148756000D02*
X74733961Y-148756000D01*
X74733961Y-148756000D02*
X74829200Y-148708381D01*
X74829200Y-148708381D02*
X74876819Y-148613143D01*
X74876819Y-148613143D02*
X74876819Y-148470286D01*
X74876819Y-148470286D02*
X74829200Y-148375048D01*
X74829200Y-148375048D02*
X74781580Y-148327429D01*
X74210152Y-147994095D02*
X74210152Y-147613143D01*
X73876819Y-147851238D02*
X74733961Y-147851238D01*
X74733961Y-147851238D02*
X74829200Y-147803619D01*
X74829200Y-147803619D02*
X74876819Y-147708381D01*
X74876819Y-147708381D02*
X74876819Y-147613143D01*
X74829200Y-147327428D02*
X74876819Y-147232190D01*
X74876819Y-147232190D02*
X74876819Y-147041714D01*
X74876819Y-147041714D02*
X74829200Y-146946476D01*
X74829200Y-146946476D02*
X74733961Y-146898857D01*
X74733961Y-146898857D02*
X74686342Y-146898857D01*
X74686342Y-146898857D02*
X74591104Y-146946476D01*
X74591104Y-146946476D02*
X74543485Y-147041714D01*
X74543485Y-147041714D02*
X74543485Y-147184571D01*
X74543485Y-147184571D02*
X74495866Y-147279809D01*
X74495866Y-147279809D02*
X74400628Y-147327428D01*
X74400628Y-147327428D02*
X74353009Y-147327428D01*
X74353009Y-147327428D02*
X74257771Y-147279809D01*
X74257771Y-147279809D02*
X74210152Y-147184571D01*
X74210152Y-147184571D02*
X74210152Y-147041714D01*
X74210152Y-147041714D02*
X74257771Y-146946476D01*
X74829200Y-145755999D02*
X74876819Y-145660761D01*
X74876819Y-145660761D02*
X74876819Y-145470285D01*
X74876819Y-145470285D02*
X74829200Y-145375047D01*
X74829200Y-145375047D02*
X74733961Y-145327428D01*
X74733961Y-145327428D02*
X74686342Y-145327428D01*
X74686342Y-145327428D02*
X74591104Y-145375047D01*
X74591104Y-145375047D02*
X74543485Y-145470285D01*
X74543485Y-145470285D02*
X74543485Y-145613142D01*
X74543485Y-145613142D02*
X74495866Y-145708380D01*
X74495866Y-145708380D02*
X74400628Y-145755999D01*
X74400628Y-145755999D02*
X74353009Y-145755999D01*
X74353009Y-145755999D02*
X74257771Y-145708380D01*
X74257771Y-145708380D02*
X74210152Y-145613142D01*
X74210152Y-145613142D02*
X74210152Y-145470285D01*
X74210152Y-145470285D02*
X74257771Y-145375047D01*
X74876819Y-144898856D02*
X73876819Y-144898856D01*
X74876819Y-144470285D02*
X74353009Y-144470285D01*
X74353009Y-144470285D02*
X74257771Y-144517904D01*
X74257771Y-144517904D02*
X74210152Y-144613142D01*
X74210152Y-144613142D02*
X74210152Y-144755999D01*
X74210152Y-144755999D02*
X74257771Y-144851237D01*
X74257771Y-144851237D02*
X74305390Y-144898856D01*
X74876819Y-143851237D02*
X74829200Y-143946475D01*
X74829200Y-143946475D02*
X74781580Y-143994094D01*
X74781580Y-143994094D02*
X74686342Y-144041713D01*
X74686342Y-144041713D02*
X74400628Y-144041713D01*
X74400628Y-144041713D02*
X74305390Y-143994094D01*
X74305390Y-143994094D02*
X74257771Y-143946475D01*
X74257771Y-143946475D02*
X74210152Y-143851237D01*
X74210152Y-143851237D02*
X74210152Y-143708380D01*
X74210152Y-143708380D02*
X74257771Y-143613142D01*
X74257771Y-143613142D02*
X74305390Y-143565523D01*
X74305390Y-143565523D02*
X74400628Y-143517904D01*
X74400628Y-143517904D02*
X74686342Y-143517904D01*
X74686342Y-143517904D02*
X74781580Y-143565523D01*
X74781580Y-143565523D02*
X74829200Y-143613142D01*
X74829200Y-143613142D02*
X74876819Y-143708380D01*
X74876819Y-143708380D02*
X74876819Y-143851237D01*
X74210152Y-143184570D02*
X74876819Y-142994094D01*
X74876819Y-142994094D02*
X74400628Y-142803618D01*
X74400628Y-142803618D02*
X74876819Y-142613142D01*
X74876819Y-142613142D02*
X74210152Y-142422666D01*
X74210152Y-142041713D02*
X74876819Y-142041713D01*
X74305390Y-142041713D02*
X74257771Y-141994094D01*
X74257771Y-141994094D02*
X74210152Y-141898856D01*
X74210152Y-141898856D02*
X74210152Y-141755999D01*
X74210152Y-141755999D02*
X74257771Y-141660761D01*
X74257771Y-141660761D02*
X74353009Y-141613142D01*
X74353009Y-141613142D02*
X74876819Y-141613142D01*
X74876819Y-140232189D02*
X74829200Y-140327427D01*
X74829200Y-140327427D02*
X74781580Y-140375046D01*
X74781580Y-140375046D02*
X74686342Y-140422665D01*
X74686342Y-140422665D02*
X74400628Y-140422665D01*
X74400628Y-140422665D02*
X74305390Y-140375046D01*
X74305390Y-140375046D02*
X74257771Y-140327427D01*
X74257771Y-140327427D02*
X74210152Y-140232189D01*
X74210152Y-140232189D02*
X74210152Y-140089332D01*
X74210152Y-140089332D02*
X74257771Y-139994094D01*
X74257771Y-139994094D02*
X74305390Y-139946475D01*
X74305390Y-139946475D02*
X74400628Y-139898856D01*
X74400628Y-139898856D02*
X74686342Y-139898856D01*
X74686342Y-139898856D02*
X74781580Y-139946475D01*
X74781580Y-139946475D02*
X74829200Y-139994094D01*
X74829200Y-139994094D02*
X74876819Y-140089332D01*
X74876819Y-140089332D02*
X74876819Y-140232189D01*
X74210152Y-139470284D02*
X74876819Y-139470284D01*
X74305390Y-139470284D02*
X74257771Y-139422665D01*
X74257771Y-139422665D02*
X74210152Y-139327427D01*
X74210152Y-139327427D02*
X74210152Y-139184570D01*
X74210152Y-139184570D02*
X74257771Y-139089332D01*
X74257771Y-139089332D02*
X74353009Y-139041713D01*
X74353009Y-139041713D02*
X74876819Y-139041713D01*
X74876819Y-137375046D02*
X73876819Y-137375046D01*
X74829200Y-137375046D02*
X74876819Y-137470284D01*
X74876819Y-137470284D02*
X74876819Y-137660760D01*
X74876819Y-137660760D02*
X74829200Y-137755998D01*
X74829200Y-137755998D02*
X74781580Y-137803617D01*
X74781580Y-137803617D02*
X74686342Y-137851236D01*
X74686342Y-137851236D02*
X74400628Y-137851236D01*
X74400628Y-137851236D02*
X74305390Y-137803617D01*
X74305390Y-137803617D02*
X74257771Y-137755998D01*
X74257771Y-137755998D02*
X74210152Y-137660760D01*
X74210152Y-137660760D02*
X74210152Y-137470284D01*
X74210152Y-137470284D02*
X74257771Y-137375046D01*
X74876819Y-136898855D02*
X74210152Y-136898855D01*
X74400628Y-136898855D02*
X74305390Y-136851236D01*
X74305390Y-136851236D02*
X74257771Y-136803617D01*
X74257771Y-136803617D02*
X74210152Y-136708379D01*
X74210152Y-136708379D02*
X74210152Y-136613141D01*
X74876819Y-135851236D02*
X74353009Y-135851236D01*
X74353009Y-135851236D02*
X74257771Y-135898855D01*
X74257771Y-135898855D02*
X74210152Y-135994093D01*
X74210152Y-135994093D02*
X74210152Y-136184569D01*
X74210152Y-136184569D02*
X74257771Y-136279807D01*
X74829200Y-135851236D02*
X74876819Y-135946474D01*
X74876819Y-135946474D02*
X74876819Y-136184569D01*
X74876819Y-136184569D02*
X74829200Y-136279807D01*
X74829200Y-136279807D02*
X74733961Y-136327426D01*
X74733961Y-136327426D02*
X74638723Y-136327426D01*
X74638723Y-136327426D02*
X74543485Y-136279807D01*
X74543485Y-136279807D02*
X74495866Y-136184569D01*
X74495866Y-136184569D02*
X74495866Y-135946474D01*
X74495866Y-135946474D02*
X74448247Y-135851236D01*
X74210152Y-135470283D02*
X74876819Y-135279807D01*
X74876819Y-135279807D02*
X74400628Y-135089331D01*
X74400628Y-135089331D02*
X74876819Y-134898855D01*
X74876819Y-134898855D02*
X74210152Y-134708379D01*
X74876819Y-134327426D02*
X74210152Y-134327426D01*
X73876819Y-134327426D02*
X73924438Y-134375045D01*
X73924438Y-134375045D02*
X73972057Y-134327426D01*
X73972057Y-134327426D02*
X73924438Y-134279807D01*
X73924438Y-134279807D02*
X73876819Y-134327426D01*
X73876819Y-134327426D02*
X73972057Y-134327426D01*
X74210152Y-133851236D02*
X74876819Y-133851236D01*
X74305390Y-133851236D02*
X74257771Y-133803617D01*
X74257771Y-133803617D02*
X74210152Y-133708379D01*
X74210152Y-133708379D02*
X74210152Y-133565522D01*
X74210152Y-133565522D02*
X74257771Y-133470284D01*
X74257771Y-133470284D02*
X74353009Y-133422665D01*
X74353009Y-133422665D02*
X74876819Y-133422665D01*
X74210152Y-132517903D02*
X75019676Y-132517903D01*
X75019676Y-132517903D02*
X75114914Y-132565522D01*
X75114914Y-132565522D02*
X75162533Y-132613141D01*
X75162533Y-132613141D02*
X75210152Y-132708379D01*
X75210152Y-132708379D02*
X75210152Y-132851236D01*
X75210152Y-132851236D02*
X75162533Y-132946474D01*
X74829200Y-132517903D02*
X74876819Y-132613141D01*
X74876819Y-132613141D02*
X74876819Y-132803617D01*
X74876819Y-132803617D02*
X74829200Y-132898855D01*
X74829200Y-132898855D02*
X74781580Y-132946474D01*
X74781580Y-132946474D02*
X74686342Y-132994093D01*
X74686342Y-132994093D02*
X74400628Y-132994093D01*
X74400628Y-132994093D02*
X74305390Y-132946474D01*
X74305390Y-132946474D02*
X74257771Y-132898855D01*
X74257771Y-132898855D02*
X74210152Y-132803617D01*
X74210152Y-132803617D02*
X74210152Y-132613141D01*
X74210152Y-132613141D02*
X74257771Y-132517903D01*
X74829200Y-132089331D02*
X74876819Y-131994093D01*
X74876819Y-131994093D02*
X74876819Y-131803617D01*
X74876819Y-131803617D02*
X74829200Y-131708379D01*
X74829200Y-131708379D02*
X74733961Y-131660760D01*
X74733961Y-131660760D02*
X74686342Y-131660760D01*
X74686342Y-131660760D02*
X74591104Y-131708379D01*
X74591104Y-131708379D02*
X74543485Y-131803617D01*
X74543485Y-131803617D02*
X74543485Y-131946474D01*
X74543485Y-131946474D02*
X74495866Y-132041712D01*
X74495866Y-132041712D02*
X74400628Y-132089331D01*
X74400628Y-132089331D02*
X74353009Y-132089331D01*
X74353009Y-132089331D02*
X74257771Y-132041712D01*
X74257771Y-132041712D02*
X74210152Y-131946474D01*
X74210152Y-131946474D02*
X74210152Y-131803617D01*
X74210152Y-131803617D02*
X74257771Y-131708379D01*
X74876819Y-130327426D02*
X74829200Y-130422664D01*
X74829200Y-130422664D02*
X74733961Y-130470283D01*
X74733961Y-130470283D02*
X73876819Y-130470283D01*
X74876819Y-129517902D02*
X74353009Y-129517902D01*
X74353009Y-129517902D02*
X74257771Y-129565521D01*
X74257771Y-129565521D02*
X74210152Y-129660759D01*
X74210152Y-129660759D02*
X74210152Y-129851235D01*
X74210152Y-129851235D02*
X74257771Y-129946473D01*
X74829200Y-129517902D02*
X74876819Y-129613140D01*
X74876819Y-129613140D02*
X74876819Y-129851235D01*
X74876819Y-129851235D02*
X74829200Y-129946473D01*
X74829200Y-129946473D02*
X74733961Y-129994092D01*
X74733961Y-129994092D02*
X74638723Y-129994092D01*
X74638723Y-129994092D02*
X74543485Y-129946473D01*
X74543485Y-129946473D02*
X74495866Y-129851235D01*
X74495866Y-129851235D02*
X74495866Y-129613140D01*
X74495866Y-129613140D02*
X74448247Y-129517902D01*
X74210152Y-129136949D02*
X74876819Y-128898854D01*
X74210152Y-128660759D02*
X74876819Y-128898854D01*
X74876819Y-128898854D02*
X75114914Y-128994092D01*
X75114914Y-128994092D02*
X75162533Y-129041711D01*
X75162533Y-129041711D02*
X75210152Y-129136949D01*
X74829200Y-127898854D02*
X74876819Y-127994092D01*
X74876819Y-127994092D02*
X74876819Y-128184568D01*
X74876819Y-128184568D02*
X74829200Y-128279806D01*
X74829200Y-128279806D02*
X74733961Y-128327425D01*
X74733961Y-128327425D02*
X74353009Y-128327425D01*
X74353009Y-128327425D02*
X74257771Y-128279806D01*
X74257771Y-128279806D02*
X74210152Y-128184568D01*
X74210152Y-128184568D02*
X74210152Y-127994092D01*
X74210152Y-127994092D02*
X74257771Y-127898854D01*
X74257771Y-127898854D02*
X74353009Y-127851235D01*
X74353009Y-127851235D02*
X74448247Y-127851235D01*
X74448247Y-127851235D02*
X74543485Y-128327425D01*
X74876819Y-127422663D02*
X74210152Y-127422663D01*
X74400628Y-127422663D02*
X74305390Y-127375044D01*
X74305390Y-127375044D02*
X74257771Y-127327425D01*
X74257771Y-127327425D02*
X74210152Y-127232187D01*
X74210152Y-127232187D02*
X74210152Y-127136949D01*
M02*
