%TF.GenerationSoftware,KiCad,Pcbnew,8.0.2*%
%TF.CreationDate,2024-05-01T01:53:47-07:00*%
%TF.ProjectId,DRIVER,44524956-4552-42e6-9b69-6361645f7063,rev?*%
%TF.SameCoordinates,Original*%
%TF.FileFunction,Copper,L1,Top*%
%TF.FilePolarity,Positive*%
%FSLAX46Y46*%
G04 Gerber Fmt 4.6, Leading zero omitted, Abs format (unit mm)*
G04 Created by KiCad (PCBNEW 8.0.2) date 2024-05-01 01:53:47*
%MOMM*%
%LPD*%
G01*
G04 APERTURE LIST*
G04 Aperture macros list*
%AMRoundRect*
0 Rectangle with rounded corners*
0 $1 Rounding radius*
0 $2 $3 $4 $5 $6 $7 $8 $9 X,Y pos of 4 corners*
0 Add a 4 corners polygon primitive as box body*
4,1,4,$2,$3,$4,$5,$6,$7,$8,$9,$2,$3,0*
0 Add four circle primitives for the rounded corners*
1,1,$1+$1,$2,$3*
1,1,$1+$1,$4,$5*
1,1,$1+$1,$6,$7*
1,1,$1+$1,$8,$9*
0 Add four rect primitives between the rounded corners*
20,1,$1+$1,$2,$3,$4,$5,0*
20,1,$1+$1,$4,$5,$6,$7,0*
20,1,$1+$1,$6,$7,$8,$9,0*
20,1,$1+$1,$8,$9,$2,$3,0*%
G04 Aperture macros list end*
%TA.AperFunction,ComponentPad*%
%ADD10O,1.700000X1.700000*%
%TD*%
%TA.AperFunction,SMDPad,CuDef*%
%ADD11R,3.500000X1.700000*%
%TD*%
%TA.AperFunction,ComponentPad*%
%ADD12R,1.700000X1.700000*%
%TD*%
%TA.AperFunction,SMDPad,CuDef*%
%ADD13R,1.700000X3.500000*%
%TD*%
%TA.AperFunction,SMDPad,CuDef*%
%ADD14RoundRect,0.100000X-0.083085X-0.224506X0.224506X0.083085X0.083085X0.224506X-0.224506X-0.083085X0*%
%TD*%
%TA.AperFunction,SMDPad,CuDef*%
%ADD15R,1.050000X0.650000*%
%TD*%
%TA.AperFunction,ComponentPad*%
%ADD16R,1.600000X1.600000*%
%TD*%
%TA.AperFunction,ComponentPad*%
%ADD17O,1.600000X1.600000*%
%TD*%
%TA.AperFunction,SMDPad,CuDef*%
%ADD18RoundRect,0.100000X-0.217500X-0.100000X0.217500X-0.100000X0.217500X0.100000X-0.217500X0.100000X0*%
%TD*%
%TA.AperFunction,SMDPad,CuDef*%
%ADD19RoundRect,0.150000X0.150000X-0.587500X0.150000X0.587500X-0.150000X0.587500X-0.150000X-0.587500X0*%
%TD*%
%TA.AperFunction,SMDPad,CuDef*%
%ADD20O,1.700000X1.700000*%
%TD*%
%TA.AperFunction,ViaPad*%
%ADD21C,0.600000*%
%TD*%
%TA.AperFunction,Conductor*%
%ADD22C,0.500000*%
%TD*%
%TA.AperFunction,Conductor*%
%ADD23C,2.000000*%
%TD*%
%TA.AperFunction,Conductor*%
%ADD24C,1.000000*%
%TD*%
%TA.AperFunction,Conductor*%
%ADD25C,0.200000*%
%TD*%
G04 APERTURE END LIST*
D10*
%TO.P,U1,1,GPIO0*%
%TO.N,unconnected-(U1-GPIO0-Pad1)*%
X88392000Y-159766000D03*
D11*
X89292000Y-159766000D03*
D10*
%TO.P,U1,2,GPIO1*%
%TO.N,Net-(Q2-S)*%
X88392000Y-157226000D03*
D11*
X89292000Y-157226000D03*
D12*
%TO.P,U1,3,GND*%
%TO.N,GND*%
X88392000Y-154686000D03*
D11*
X89292000Y-154686000D03*
D10*
%TO.P,U1,4,GPIO2*%
%TO.N,Net-(A1-D5)*%
X88392000Y-152146000D03*
D11*
X89292000Y-152146000D03*
D10*
%TO.P,U1,5,GPIO3*%
%TO.N,unconnected-(U1-GPIO3-Pad5)*%
X88392000Y-149606000D03*
D11*
X89292000Y-149606000D03*
D10*
%TO.P,U1,6,GPIO4*%
%TO.N,unconnected-(U1-GPIO4-Pad6)*%
X88392000Y-147066000D03*
D11*
X89292000Y-147066000D03*
D10*
%TO.P,U1,7,GPIO5*%
%TO.N,unconnected-(U1-GPIO5-Pad7)*%
X88392000Y-144526000D03*
D11*
X89292000Y-144526000D03*
D12*
%TO.P,U1,8,GND*%
%TO.N,GND*%
X88392000Y-141986000D03*
D11*
X89292000Y-141986000D03*
D10*
%TO.P,U1,9,GPIO6*%
%TO.N,unconnected-(U1-GPIO6-Pad9)_0*%
X88392000Y-139446000D03*
D11*
X89292000Y-139446000D03*
D10*
%TO.P,U1,10,GPIO7*%
%TO.N,/BURNER_9*%
X88392000Y-136906000D03*
D11*
X89292000Y-136906000D03*
D10*
%TO.P,U1,11,GPIO8*%
%TO.N,/BURNER_1*%
X88392000Y-134366000D03*
D11*
X89292000Y-134366000D03*
D10*
%TO.P,U1,12,GPIO9*%
%TO.N,/BURNER_2*%
X88392000Y-131826000D03*
D11*
X89292000Y-131826000D03*
D12*
%TO.P,U1,13,GND*%
%TO.N,GND*%
X88392000Y-129286000D03*
D11*
X89292000Y-129286000D03*
D10*
%TO.P,U1,14,GPIO10*%
%TO.N,/BURNER_3*%
X88392000Y-126746000D03*
D11*
X89292000Y-126746000D03*
D10*
%TO.P,U1,15,GPIO11*%
%TO.N,/BURNER_4*%
X88392000Y-124206000D03*
D11*
X89292000Y-124206000D03*
D10*
%TO.P,U1,16,GPIO12*%
%TO.N,/BURNER_5*%
X88392000Y-121666000D03*
D11*
X89292000Y-121666000D03*
D10*
%TO.P,U1,17,GPIO13*%
%TO.N,/BURNER_6*%
X88392000Y-119126000D03*
D11*
X89292000Y-119126000D03*
D12*
%TO.P,U1,18,GND*%
%TO.N,GND*%
X88392000Y-116586000D03*
D11*
X89292000Y-116586000D03*
D10*
%TO.P,U1,19,GPIO14*%
%TO.N,/BURNER_7*%
X88392000Y-114046000D03*
D11*
X89292000Y-114046000D03*
D10*
%TO.P,U1,20,GPIO15*%
%TO.N,/BURNER_8*%
X88392000Y-111506000D03*
D11*
X89292000Y-111506000D03*
D10*
%TO.P,U1,21,GPIO16*%
%TO.N,Net-(J4-Pin_3)*%
X70612000Y-111506000D03*
D11*
X69712000Y-111506000D03*
D10*
%TO.P,U1,22,GPIO17*%
%TO.N,Net-(J3-Pin_1)*%
X70612000Y-114046000D03*
D11*
X69712000Y-114046000D03*
D12*
%TO.P,U1,23,GND*%
%TO.N,GND*%
X70612000Y-116586000D03*
D11*
X69712000Y-116586000D03*
D10*
%TO.P,U1,24,GPIO18*%
%TO.N,Net-(U1-GPIO18)*%
X70612000Y-119126000D03*
D11*
X69712000Y-119126000D03*
D10*
%TO.P,U1,25,GPIO19*%
%TO.N,Net-(U1-GPIO19)*%
X70612000Y-121666000D03*
D11*
X69712000Y-121666000D03*
D10*
%TO.P,U1,26,GPIO20*%
%TO.N,Net-(U1-GPIO20)*%
X70612000Y-124206000D03*
D11*
X69712000Y-124206000D03*
D10*
%TO.P,U1,27,GPIO21*%
%TO.N,Net-(U1-GPIO21)*%
X70612000Y-126746000D03*
D11*
X69712000Y-126746000D03*
D12*
%TO.P,U1,28,GND*%
%TO.N,GND*%
X70612000Y-129286000D03*
D11*
X69712000Y-129286000D03*
D10*
%TO.P,U1,29,GPIO22*%
%TO.N,Net-(U1-GPIO22)*%
X70612000Y-131826000D03*
D11*
X69712000Y-131826000D03*
D10*
%TO.P,U1,30,RUN*%
%TO.N,Net-(U1-RUN)*%
X70612000Y-134366000D03*
D11*
X69712000Y-134366000D03*
D10*
%TO.P,U1,31,GPIO26_ADC0*%
%TO.N,Net-(U1-GPIO26_ADC0)*%
X70612000Y-136906000D03*
D11*
X69712000Y-136906000D03*
D10*
%TO.P,U1,32,GPIO27_ADC1*%
%TO.N,Net-(U1-GPIO27_ADC1)*%
X70612000Y-139446000D03*
D11*
X69712000Y-139446000D03*
D12*
%TO.P,U1,33,AGND*%
%TO.N,unconnected-(U1-AGND-Pad33)*%
X70612000Y-141986000D03*
D11*
X69712000Y-141986000D03*
D10*
%TO.P,U1,34,GPIO28_ADC2*%
%TO.N,Net-(U1-GPIO28_ADC2)*%
X70612000Y-144526000D03*
D11*
X69712000Y-144526000D03*
D10*
%TO.P,U1,35,ADC_VREF*%
%TO.N,unconnected-(U1-ADC_VREF-Pad35)*%
X70612000Y-147066000D03*
D11*
X69712000Y-147066000D03*
D10*
%TO.P,U1,36,3V3*%
%TO.N,+3.3V*%
X70612000Y-149606000D03*
D11*
X69712000Y-149606000D03*
D10*
%TO.P,U1,37,3V3_EN*%
%TO.N,unconnected-(U1-3V3_EN-Pad37)_0*%
X70612000Y-152146000D03*
D11*
X69712000Y-152146000D03*
D12*
%TO.P,U1,38,GND*%
%TO.N,GND*%
X70612000Y-154686000D03*
D11*
X69712000Y-154686000D03*
D10*
%TO.P,U1,39,VSYS*%
%TO.N,unconnected-(U1-VSYS-Pad39)_0*%
X70612000Y-157226000D03*
D11*
X69712000Y-157226000D03*
D10*
%TO.P,U1,40,VBUS*%
%TO.N,+5V*%
X70612000Y-159766000D03*
D11*
X69712000Y-159766000D03*
D10*
%TO.P,U1,41,SWCLK*%
%TO.N,unconnected-(U1-SWCLK-Pad41)*%
X82042000Y-111736000D03*
D13*
X82042000Y-110836000D03*
D12*
%TO.P,U1,42,GND*%
%TO.N,GND*%
X79502000Y-111736000D03*
D13*
X79502000Y-110836000D03*
D10*
%TO.P,U1,43,SWDIO*%
%TO.N,unconnected-(U1-SWDIO-Pad43)*%
X76962000Y-111736000D03*
D13*
X76962000Y-110836000D03*
%TD*%
D14*
%TO.P,R4,1*%
%TO.N,Net-(Q2-S)*%
X86833854Y-106968146D03*
%TO.P,R4,2*%
%TO.N,+3.3V*%
X87410146Y-106391854D03*
%TD*%
D15*
%TO.P,SW1,1,1*%
%TO.N,Net-(U1-RUN)*%
X60409000Y-165549000D03*
X64559000Y-165549000D03*
%TO.P,SW1,2,2*%
%TO.N,GND*%
X60409000Y-167699000D03*
X64534000Y-167699000D03*
%TD*%
D12*
%TO.P,J4,1,Pin_1*%
%TO.N,+5V*%
X51054000Y-178308000D03*
D10*
%TO.P,J4,2,Pin_2*%
%TO.N,GND*%
X53594000Y-178308000D03*
%TO.P,J4,3,Pin_3*%
%TO.N,Net-(J4-Pin_3)*%
X56134000Y-178308000D03*
%TD*%
D16*
%TO.P,U3,1,NC*%
%TO.N,unconnected-(U3-NC-Pad1)*%
X56134000Y-150622000D03*
D17*
%TO.P,U3,2,IN1*%
%TO.N,/BURNER_5*%
X56134000Y-148082000D03*
%TO.P,U3,3,IN2*%
%TO.N,/BURNER_6*%
X56134000Y-145542000D03*
%TO.P,U3,4,IN3*%
%TO.N,/BURNER_7*%
X56134000Y-143002000D03*
%TO.P,U3,5,IN4*%
%TO.N,/BURNER_8*%
X56134000Y-140462000D03*
%TO.P,U3,6,IN5*%
%TO.N,Net-(U1-GPIO28_ADC2)*%
X56134000Y-137922000D03*
%TO.P,U3,7,IN6*%
%TO.N,Net-(U1-GPIO27_ADC1)*%
X56134000Y-135382000D03*
%TO.P,U3,8,GND*%
%TO.N,GND*%
X56134000Y-132842000D03*
%TO.P,U3,9,COM*%
%TO.N,+5V*%
X48514000Y-132842000D03*
%TO.P,U3,10,O6*%
%TO.N,Net-(J1-Pin_13)*%
X48514000Y-135382000D03*
%TO.P,U3,11,O5*%
%TO.N,Net-(J1-Pin_12)*%
X48514000Y-137922000D03*
%TO.P,U3,12,O4*%
%TO.N,Net-(J1-Pin_11)*%
X48514000Y-140462000D03*
%TO.P,U3,13,O3*%
%TO.N,Net-(J1-Pin_10)*%
X48514000Y-143002000D03*
%TO.P,U3,14,O2*%
%TO.N,Net-(J1-Pin_9)*%
X48514000Y-145542000D03*
%TO.P,U3,15,O1*%
%TO.N,Net-(J1-Pin_8)*%
X48514000Y-148082000D03*
%TO.P,U3,16,VCC*%
%TO.N,+5V*%
X48514000Y-150622000D03*
%TD*%
D16*
%TO.P,U4,1,NC*%
%TO.N,unconnected-(U4-NC-Pad1)*%
X56134000Y-129286000D03*
D17*
%TO.P,U4,2,IN1*%
%TO.N,Net-(U1-GPIO26_ADC0)*%
X56134000Y-126746000D03*
%TO.P,U4,3,IN2*%
%TO.N,Net-(U1-GPIO22)*%
X56134000Y-124206000D03*
%TO.P,U4,4,IN3*%
%TO.N,Net-(U1-GPIO21)*%
X56134000Y-121666000D03*
%TO.P,U4,5,IN4*%
%TO.N,Net-(U1-GPIO20)*%
X56134000Y-119126000D03*
%TO.P,U4,6,IN5*%
%TO.N,Net-(U1-GPIO19)*%
X56134000Y-116586000D03*
%TO.P,U4,7,IN6*%
%TO.N,Net-(U1-GPIO18)*%
X56134000Y-114046000D03*
%TO.P,U4,8,GND*%
%TO.N,GND*%
X56134000Y-111506000D03*
%TO.P,U4,9,COM*%
%TO.N,+5V*%
X48514000Y-111506000D03*
%TO.P,U4,10,O6*%
%TO.N,Net-(J1-Pin_21)*%
X48514000Y-114046000D03*
%TO.P,U4,11,O5*%
%TO.N,Net-(J1-Pin_20)*%
X48514000Y-116586000D03*
%TO.P,U4,12,O4*%
%TO.N,Net-(J1-Pin_19)*%
X48514000Y-119126000D03*
%TO.P,U4,13,O3*%
%TO.N,Net-(J1-Pin_18)*%
X48514000Y-121666000D03*
%TO.P,U4,14,O2*%
%TO.N,Net-(J1-Pin_17)*%
X48514000Y-124206000D03*
%TO.P,U4,15,O1*%
%TO.N,Net-(J1-Pin_16)*%
X48514000Y-126746000D03*
%TO.P,U4,16,VCC*%
%TO.N,+5V*%
X48514000Y-129286000D03*
%TD*%
D18*
%TO.P,R3,1*%
%TO.N,+5V*%
X83767000Y-99060000D03*
%TO.P,R3,2*%
%TO.N,Net-(A1-D1{slash}TX)*%
X84582000Y-99060000D03*
%TD*%
D19*
%TO.P,Q2,1,G*%
%TO.N,+3.3V*%
X88204000Y-104315500D03*
%TO.P,Q2,2,S*%
%TO.N,Net-(Q2-S)*%
X90104000Y-104315500D03*
%TO.P,Q2,3,D*%
%TO.N,Net-(A1-D1{slash}TX)*%
X89154000Y-102440500D03*
%TD*%
D16*
%TO.P,U2,1,NC*%
%TO.N,unconnected-(U2-NC-Pad1)*%
X56134000Y-171958000D03*
D17*
%TO.P,U2,2,IN1*%
%TO.N,unconnected-(U2-IN1-Pad2)*%
X56134000Y-169418000D03*
%TO.P,U2,3,IN2*%
%TO.N,/BURNER_9*%
X56134000Y-166878000D03*
%TO.P,U2,4,IN3*%
%TO.N,/BURNER_1*%
X56134000Y-164338000D03*
%TO.P,U2,5,IN4*%
%TO.N,/BURNER_2*%
X56134000Y-161798000D03*
%TO.P,U2,6,IN5*%
%TO.N,/BURNER_3*%
X56134000Y-159258000D03*
%TO.P,U2,7,IN6*%
%TO.N,/BURNER_4*%
X56134000Y-156718000D03*
%TO.P,U2,8,GND*%
%TO.N,GND*%
X56134000Y-154178000D03*
%TO.P,U2,9,COM*%
%TO.N,+5V*%
X48514000Y-154178000D03*
%TO.P,U2,10,O6*%
%TO.N,Net-(J1-Pin_5)*%
X48514000Y-156718000D03*
%TO.P,U2,11,O5*%
%TO.N,Net-(J1-Pin_4)*%
X48514000Y-159258000D03*
%TO.P,U2,12,O4*%
%TO.N,Net-(J1-Pin_3)*%
X48514000Y-161798000D03*
%TO.P,U2,13,O3*%
%TO.N,Net-(J1-Pin_2)*%
X48514000Y-164338000D03*
%TO.P,U2,14,O2*%
%TO.N,Net-(J1-Pin_1)*%
X48514000Y-166878000D03*
%TO.P,U2,15,O1*%
%TO.N,unconnected-(U2-O1-Pad15)*%
X48514000Y-169418000D03*
%TO.P,U2,16,VCC*%
%TO.N,+5V*%
X48514000Y-171958000D03*
%TD*%
D12*
%TO.P,J5,1,Pin_1*%
%TO.N,+5V*%
X40894000Y-178816000D03*
D10*
%TO.P,J5,2,Pin_2*%
X43434000Y-178816000D03*
%TD*%
D12*
%TO.P,J6,1,Pin_1*%
%TO.N,+5V*%
X93218000Y-96012000D03*
D10*
%TO.P,J6,2,Pin_2*%
%TO.N,GND*%
X93218000Y-98552000D03*
%TD*%
D12*
%TO.P,J3,1,Pin_1*%
%TO.N,Net-(J3-Pin_1)*%
X39878000Y-170450000D03*
D10*
%TO.P,J3,2,Pin_2*%
%TO.N,GND*%
X39878000Y-172990000D03*
%TD*%
D12*
%TO.P,J2,1,Pin_1*%
%TO.N,Net-(A1-D4)*%
X87884000Y-95489000D03*
D10*
%TO.P,J2,2,Pin_2*%
%TO.N,Net-(A1-D3)*%
X87884000Y-92949000D03*
%TO.P,J2,3,Pin_3*%
%TO.N,Net-(A1-D2)*%
X87884000Y-90409000D03*
%TO.P,J2,4,Pin_4*%
%TO.N,GND*%
X87884000Y-87869000D03*
%TD*%
D16*
%TO.P,A1,1,D1/TX*%
%TO.N,Net-(A1-D1{slash}TX)*%
X76962000Y-90424000D03*
D17*
%TO.P,A1,2,D0/RX*%
%TO.N,unconnected-(A1-D0{slash}RX-Pad2)*%
X74422000Y-90424000D03*
%TO.P,A1,3,~{RESET}*%
%TO.N,unconnected-(A1-~{RESET}-Pad3)*%
X71882000Y-90424000D03*
%TO.P,A1,4,GND*%
%TO.N,unconnected-(A1-GND-Pad4)*%
X69342000Y-90424000D03*
%TO.P,A1,5,D2*%
%TO.N,Net-(A1-D2)*%
X66802000Y-90424000D03*
%TO.P,A1,6,D3*%
%TO.N,Net-(A1-D3)*%
X64262000Y-90424000D03*
%TO.P,A1,7,D4*%
%TO.N,Net-(A1-D4)*%
X61722000Y-90424000D03*
%TO.P,A1,8,D5*%
%TO.N,Net-(A1-D5)*%
X59182000Y-90424000D03*
%TO.P,A1,9,D6*%
%TO.N,unconnected-(A1-D6-Pad9)*%
X56642000Y-90424000D03*
%TO.P,A1,10,D7*%
%TO.N,unconnected-(A1-D7-Pad10)*%
X54102000Y-90424000D03*
%TO.P,A1,11,D8*%
%TO.N,unconnected-(A1-D8-Pad11)*%
X51562000Y-90424000D03*
%TO.P,A1,12,D9*%
%TO.N,unconnected-(A1-D9-Pad12)*%
X49022000Y-90424000D03*
%TO.P,A1,13,D10*%
%TO.N,unconnected-(A1-D10-Pad13)*%
X46482000Y-90424000D03*
%TO.P,A1,14,D11*%
%TO.N,unconnected-(A1-D11-Pad14)*%
X43942000Y-90424000D03*
%TO.P,A1,15,D12*%
%TO.N,unconnected-(A1-D12-Pad15)*%
X41402000Y-90424000D03*
%TO.P,A1,16,D13*%
%TO.N,unconnected-(A1-D13-Pad16)*%
X41402000Y-105664000D03*
%TO.P,A1,17,3V3*%
%TO.N,unconnected-(A1-3V3-Pad17)*%
X43942000Y-105664000D03*
%TO.P,A1,18,AREF*%
%TO.N,unconnected-(A1-AREF-Pad18)*%
X46482000Y-105664000D03*
%TO.P,A1,19,A0*%
%TO.N,unconnected-(A1-A0-Pad19)*%
X49022000Y-105664000D03*
%TO.P,A1,20,A1*%
%TO.N,unconnected-(A1-A1-Pad20)*%
X51562000Y-105664000D03*
%TO.P,A1,21,A2*%
%TO.N,unconnected-(A1-A2-Pad21)*%
X54102000Y-105664000D03*
%TO.P,A1,22,A3*%
%TO.N,unconnected-(A1-A3-Pad22)*%
X56642000Y-105664000D03*
%TO.P,A1,23,A4*%
%TO.N,unconnected-(A1-A4-Pad23)*%
X59182000Y-105664000D03*
%TO.P,A1,24,A5*%
%TO.N,unconnected-(A1-A5-Pad24)*%
X61722000Y-105664000D03*
%TO.P,A1,25,A6*%
%TO.N,unconnected-(A1-A6-Pad25)*%
X64262000Y-105664000D03*
%TO.P,A1,26,A7*%
%TO.N,unconnected-(A1-A7-Pad26)*%
X66802000Y-105664000D03*
%TO.P,A1,27,+5V*%
%TO.N,+5V*%
X69342000Y-105664000D03*
%TO.P,A1,28,~{RESET}*%
%TO.N,unconnected-(A1-~{RESET}-Pad28)*%
X71882000Y-105664000D03*
%TO.P,A1,29,GND*%
%TO.N,unconnected-(A1-GND-Pad29)*%
X74422000Y-105664000D03*
%TO.P,A1,30,VIN*%
%TO.N,unconnected-(A1-VIN-Pad30)*%
X76962000Y-105664000D03*
%TD*%
D20*
%TO.P,J1,*%
%TO.N,*%
X38862000Y-129540000D03*
D12*
%TO.P,J1,1,Pin_1*%
%TO.N,Net-(J1-Pin_1)*%
X38862000Y-162560000D03*
D10*
%TO.P,J1,2,Pin_2*%
%TO.N,Net-(J1-Pin_2)*%
X38862000Y-160020000D03*
%TO.P,J1,3,Pin_3*%
%TO.N,Net-(J1-Pin_3)*%
X38862000Y-157480000D03*
%TO.P,J1,4,Pin_4*%
%TO.N,Net-(J1-Pin_4)*%
X38862000Y-154940000D03*
%TO.P,J1,5,Pin_5*%
%TO.N,Net-(J1-Pin_5)*%
X38862000Y-152400000D03*
D20*
%TO.P,J1,6,Pin_6*%
%TO.N,unconnected-(J1-Pin_6-Pad6)*%
X38862000Y-149860000D03*
%TO.P,J1,7,Pin_7*%
%TO.N,unconnected-(J1-Pin_7-Pad7)*%
X38862000Y-147320000D03*
D10*
%TO.P,J1,8,Pin_8*%
%TO.N,Net-(J1-Pin_8)*%
X38862000Y-144780000D03*
%TO.P,J1,9,Pin_9*%
%TO.N,Net-(J1-Pin_9)*%
X38862000Y-142240000D03*
%TO.P,J1,10,Pin_10*%
%TO.N,Net-(J1-Pin_10)*%
X38862000Y-139700000D03*
%TO.P,J1,11,Pin_11*%
%TO.N,Net-(J1-Pin_11)*%
X38862000Y-137160000D03*
%TO.P,J1,12,Pin_12*%
%TO.N,Net-(J1-Pin_12)*%
X38862000Y-134620000D03*
%TO.P,J1,13,Pin_13*%
%TO.N,Net-(J1-Pin_13)*%
X38862000Y-132080000D03*
D20*
%TO.P,J1,15,Pin_15*%
%TO.N,N/C*%
X38862000Y-127000000D03*
D10*
%TO.P,J1,16,Pin_16*%
%TO.N,Net-(J1-Pin_16)*%
X38862000Y-124460000D03*
%TO.P,J1,17,Pin_17*%
%TO.N,Net-(J1-Pin_17)*%
X38862000Y-121920000D03*
%TO.P,J1,18,Pin_18*%
%TO.N,Net-(J1-Pin_18)*%
X38862000Y-119380000D03*
%TO.P,J1,19,Pin_19*%
%TO.N,Net-(J1-Pin_19)*%
X38862000Y-116840000D03*
%TO.P,J1,20,Pin_20*%
%TO.N,Net-(J1-Pin_20)*%
X38862000Y-114300000D03*
%TO.P,J1,21,Pin_21*%
%TO.N,Net-(J1-Pin_21)*%
X38862000Y-111760000D03*
%TD*%
D21*
%TO.N,Net-(J4-Pin_3)*%
X75438000Y-153536000D03*
X80264000Y-148336000D03*
%TO.N,Net-(U1-RUN)*%
X73406000Y-155956000D03*
X78740000Y-148336000D03*
%TO.N,Net-(A1-D1{slash}TX)*%
X85050750Y-98337250D03*
X89154000Y-102440500D03*
%TD*%
D22*
%TO.N,+5V*%
X83767000Y-99060000D02*
X75946000Y-99060000D01*
D23*
X69342000Y-105952428D02*
X69342000Y-105664000D01*
X93218000Y-96012000D02*
X92858862Y-96012000D01*
X71053572Y-107664000D02*
X69342000Y-105952428D01*
D22*
X75946000Y-99060000D02*
X69342000Y-105664000D01*
D23*
X81206862Y-107664000D02*
X71053572Y-107664000D01*
X92858862Y-96012000D02*
X81206862Y-107664000D01*
D24*
%TO.N,Net-(J1-Pin_10)*%
X39344000Y-140690000D02*
X39504032Y-140690000D01*
X39504032Y-140690000D02*
X41816032Y-143002000D01*
X41816032Y-143002000D02*
X48514000Y-143002000D01*
X38862000Y-139700000D02*
X38862000Y-140208000D01*
X38862000Y-140208000D02*
X39344000Y-140690000D01*
%TO.N,Net-(J1-Pin_3)*%
X38862000Y-157480000D02*
X43180000Y-161798000D01*
X43180000Y-161798000D02*
X48514000Y-161798000D01*
%TO.N,Net-(J1-Pin_17)*%
X41148000Y-124206000D02*
X48514000Y-124206000D01*
X38862000Y-121920000D02*
X41148000Y-124206000D01*
%TO.N,Net-(J1-Pin_4)*%
X43180000Y-159258000D02*
X48514000Y-159258000D01*
X38862000Y-154940000D02*
X43180000Y-159258000D01*
%TO.N,Net-(J1-Pin_1)*%
X43180000Y-166878000D02*
X48514000Y-166878000D01*
X38862000Y-162560000D02*
X43180000Y-166878000D01*
%TO.N,Net-(J1-Pin_8)*%
X42164000Y-148082000D02*
X48514000Y-148082000D01*
X38862000Y-144780000D02*
X42164000Y-148082000D01*
%TO.N,Net-(J1-Pin_12)*%
X42164000Y-137922000D02*
X48514000Y-137922000D01*
X38862000Y-134620000D02*
X42164000Y-137922000D01*
%TO.N,Net-(J1-Pin_16)*%
X41148000Y-126746000D02*
X48514000Y-126746000D01*
X38862000Y-124460000D02*
X41148000Y-126746000D01*
%TO.N,Net-(J1-Pin_11)*%
X38862000Y-137160000D02*
X42164000Y-140462000D01*
X42164000Y-140462000D02*
X48514000Y-140462000D01*
%TO.N,Net-(J1-Pin_19)*%
X41148000Y-119126000D02*
X48514000Y-119126000D01*
X38862000Y-116840000D02*
X41148000Y-119126000D01*
%TO.N,Net-(J1-Pin_13)*%
X38862000Y-132080000D02*
X42164000Y-135382000D01*
X42164000Y-135382000D02*
X48514000Y-135382000D01*
%TO.N,Net-(J1-Pin_2)*%
X39116000Y-160020000D02*
X43434000Y-164338000D01*
X43434000Y-164338000D02*
X48514000Y-164338000D01*
X38862000Y-160020000D02*
X39116000Y-160020000D01*
%TO.N,Net-(J1-Pin_21)*%
X41148000Y-114046000D02*
X48514000Y-114046000D01*
X38862000Y-111760000D02*
X41148000Y-114046000D01*
%TO.N,Net-(J1-Pin_18)*%
X41148000Y-121666000D02*
X48514000Y-121666000D01*
X38862000Y-119380000D02*
X41148000Y-121666000D01*
%TO.N,Net-(J1-Pin_5)*%
X38862000Y-152400000D02*
X43180000Y-156718000D01*
X43180000Y-156718000D02*
X48514000Y-156718000D01*
%TO.N,Net-(J1-Pin_9)*%
X42164000Y-145542000D02*
X48514000Y-145542000D01*
X38862000Y-142240000D02*
X42164000Y-145542000D01*
%TO.N,Net-(J1-Pin_20)*%
X41148000Y-116586000D02*
X38862000Y-114300000D01*
X48514000Y-116586000D02*
X41148000Y-116586000D01*
D22*
%TO.N,GND*%
X40096000Y-173208000D02*
X39878000Y-172990000D01*
X68752000Y-154686000D02*
X70612000Y-154686000D01*
%TO.N,Net-(J3-Pin_1)*%
X68072000Y-114046000D02*
X70612000Y-114046000D01*
X52070000Y-165089767D02*
X52070000Y-116078001D01*
X66822000Y-112796000D02*
X68072000Y-114046000D01*
X42200000Y-168128000D02*
X49031767Y-168128000D01*
X55352001Y-112796000D02*
X66822000Y-112796000D01*
X49031767Y-168128000D02*
X52070000Y-165089767D01*
X39878000Y-170450000D02*
X42200000Y-168128000D01*
X52070000Y-116078001D02*
X55352001Y-112796000D01*
D25*
%TO.N,Net-(J4-Pin_3)*%
X59182000Y-156972000D02*
X59182000Y-175260000D01*
D22*
X80264000Y-148336000D02*
X80264000Y-121158000D01*
X80264000Y-121158000D02*
X70612000Y-111506000D01*
D25*
X59182000Y-175260000D02*
X56134000Y-178308000D01*
X62618000Y-153536000D02*
X59182000Y-156972000D01*
X75438000Y-153536000D02*
X62618000Y-153536000D01*
D22*
%TO.N,+3.3V*%
X87410146Y-106391854D02*
X86861750Y-105843458D01*
X83820000Y-154940000D02*
X80264000Y-154940000D01*
X80264000Y-154940000D02*
X74930000Y-149606000D01*
X86861750Y-105843458D02*
X86861750Y-105657750D01*
X88204000Y-104315500D02*
X86861750Y-105657750D01*
X86861750Y-105657750D02*
X84582000Y-107937500D01*
X84582000Y-154178000D02*
X83820000Y-154940000D01*
X84582000Y-107937500D02*
X84582000Y-154178000D01*
X74930000Y-149606000D02*
X70612000Y-149606000D01*
%TO.N,Net-(Q2-S)*%
X87376000Y-157226000D02*
X88392000Y-157226000D01*
X86106000Y-155956000D02*
X87376000Y-157226000D01*
X90104000Y-104968000D02*
X87376000Y-107696000D01*
X86833854Y-106968146D02*
X87376000Y-107510292D01*
X90104000Y-104315500D02*
X90104000Y-104968000D01*
X86106000Y-108966000D02*
X86106000Y-155956000D01*
X87376000Y-107696000D02*
X86106000Y-108966000D01*
X87376000Y-107510292D02*
X87376000Y-107696000D01*
D25*
%TO.N,Net-(U1-RUN)*%
X64559000Y-159179000D02*
X67782000Y-155956000D01*
X67782000Y-155956000D02*
X73406000Y-155956000D01*
D22*
X78740000Y-142494000D02*
X78740000Y-148336000D01*
D25*
X64559000Y-165549000D02*
X64559000Y-159179000D01*
D22*
X70612000Y-134366000D02*
X78740000Y-142494000D01*
D25*
%TO.N,Net-(U1-GPIO22)*%
X56134000Y-124206000D02*
X63754000Y-131826000D01*
X63754000Y-131826000D02*
X70612000Y-131826000D01*
%TO.N,Net-(U1-GPIO19)*%
X61214000Y-121666000D02*
X70612000Y-121666000D01*
X56134000Y-116586000D02*
X61214000Y-121666000D01*
%TO.N,Net-(U1-GPIO21)*%
X56134000Y-121666000D02*
X61214000Y-126746000D01*
X61214000Y-126746000D02*
X70612000Y-126746000D01*
%TO.N,Net-(U1-GPIO26_ADC0)*%
X56134000Y-126746000D02*
X66294000Y-136906000D01*
X66294000Y-136906000D02*
X70612000Y-136906000D01*
%TO.N,Net-(U1-GPIO28_ADC2)*%
X62738000Y-144526000D02*
X70612000Y-144526000D01*
X56134000Y-137922000D02*
X62738000Y-144526000D01*
%TO.N,Net-(U1-GPIO20)*%
X56134000Y-119126000D02*
X61214000Y-124206000D01*
X61214000Y-124206000D02*
X70612000Y-124206000D01*
%TO.N,Net-(U1-GPIO18)*%
X61214000Y-119126000D02*
X70612000Y-119126000D01*
X56134000Y-114046000D02*
X61214000Y-119126000D01*
%TO.N,Net-(U1-GPIO27_ADC1)*%
X60198000Y-139446000D02*
X70612000Y-139446000D01*
X56134000Y-135382000D02*
X60198000Y-139446000D01*
D22*
%TO.N,Net-(A1-D1{slash}TX)*%
X85050750Y-98337250D02*
X77137500Y-90424000D01*
X77137500Y-90424000D02*
X76962000Y-90424000D01*
X85050750Y-98591250D02*
X85050750Y-98337250D01*
X84582000Y-99060000D02*
X85050750Y-98591250D01*
%TD*%
%TA.AperFunction,NonConductor*%
G36*
X83962771Y-145546226D02*
G01*
X83973966Y-145549226D01*
X84033625Y-145585592D01*
X84064153Y-145648440D01*
X84055856Y-145717816D01*
X84011369Y-145771692D01*
X83973966Y-145788774D01*
X83962771Y-145791774D01*
X83930674Y-145796000D01*
X80915326Y-145796000D01*
X80883232Y-145791775D01*
X80883228Y-145791774D01*
X80872035Y-145788774D01*
X80812376Y-145752410D01*
X80781847Y-145689563D01*
X80790142Y-145620187D01*
X80834627Y-145566309D01*
X80872036Y-145549225D01*
X80883232Y-145546224D01*
X80915326Y-145542000D01*
X83930674Y-145542000D01*
X83962771Y-145546226D01*
G37*
%TD.AperFunction*%
%TA.AperFunction,Conductor*%
%TO.N,GND*%
G36*
X94531915Y-84843666D02*
G01*
X94574879Y-84867126D01*
X94589749Y-84876682D01*
X94803998Y-85037068D01*
X94817368Y-85048654D01*
X95006599Y-85237885D01*
X95018185Y-85251256D01*
X95178567Y-85465501D01*
X95188131Y-85480382D01*
X95242333Y-85579644D01*
X95257500Y-85639069D01*
X95257500Y-159922689D01*
X95242332Y-159982116D01*
X95188132Y-160081376D01*
X95178567Y-160096260D01*
X95018185Y-160310504D01*
X95006599Y-160323874D01*
X94817368Y-160513105D01*
X94803998Y-160524691D01*
X94589754Y-160685073D01*
X94574870Y-160694638D01*
X94428922Y-160774332D01*
X94369495Y-160789500D01*
X91666500Y-160789500D01*
X91599461Y-160769815D01*
X91553706Y-160717011D01*
X91542500Y-160665500D01*
X91542499Y-159766002D01*
X91542499Y-158868128D01*
X91536091Y-158808517D01*
X91496736Y-158703002D01*
X91485797Y-158673671D01*
X91485795Y-158673668D01*
X91434589Y-158605266D01*
X91408421Y-158570309D01*
X91384004Y-158504848D01*
X91398855Y-158436575D01*
X91408416Y-158421696D01*
X91485796Y-158318331D01*
X91536091Y-158183483D01*
X91542500Y-158123873D01*
X91542499Y-156328128D01*
X91536091Y-156268517D01*
X91501834Y-156176670D01*
X91485797Y-156133671D01*
X91485793Y-156133664D01*
X91399547Y-156018455D01*
X91399544Y-156018452D01*
X91284335Y-155932206D01*
X91284328Y-155932202D01*
X91149482Y-155881908D01*
X91149483Y-155881908D01*
X91089883Y-155875501D01*
X91089881Y-155875500D01*
X91089873Y-155875500D01*
X91089865Y-155875500D01*
X88456385Y-155875500D01*
X88445578Y-155875028D01*
X88392001Y-155870341D01*
X88391997Y-155870341D01*
X88338419Y-155875028D01*
X88327613Y-155875500D01*
X87494129Y-155875500D01*
X87494123Y-155875501D01*
X87434516Y-155881908D01*
X87299671Y-155932202D01*
X87299662Y-155932207D01*
X87296409Y-155934643D01*
X87292603Y-155936062D01*
X87291886Y-155936454D01*
X87291829Y-155936350D01*
X87230944Y-155959057D01*
X87162672Y-155944203D01*
X87134422Y-155923054D01*
X86892819Y-155681451D01*
X86859334Y-155620128D01*
X86856500Y-155593770D01*
X86856500Y-153277584D01*
X86876185Y-153210545D01*
X86928989Y-153164790D01*
X86998147Y-153154846D01*
X87061703Y-153183871D01*
X87096682Y-153234252D01*
X87098201Y-153238326D01*
X87098206Y-153238335D01*
X87184452Y-153353544D01*
X87184455Y-153353547D01*
X87299664Y-153439793D01*
X87299671Y-153439797D01*
X87434517Y-153490091D01*
X87434516Y-153490091D01*
X87441444Y-153490835D01*
X87494127Y-153496500D01*
X88327616Y-153496499D01*
X88338425Y-153496971D01*
X88392000Y-153501659D01*
X88445575Y-153496971D01*
X88456384Y-153496499D01*
X91089871Y-153496499D01*
X91089872Y-153496499D01*
X91149483Y-153490091D01*
X91284331Y-153439796D01*
X91399546Y-153353546D01*
X91485796Y-153238331D01*
X91536091Y-153103483D01*
X91542500Y-153043873D01*
X91542499Y-151248128D01*
X91536091Y-151188517D01*
X91517286Y-151138099D01*
X91485797Y-151053671D01*
X91485795Y-151053668D01*
X91456410Y-151014415D01*
X91408421Y-150950309D01*
X91384004Y-150884848D01*
X91398855Y-150816575D01*
X91408416Y-150801696D01*
X91485796Y-150698331D01*
X91536091Y-150563483D01*
X91542500Y-150503873D01*
X91542499Y-148708128D01*
X91536091Y-148648517D01*
X91517286Y-148598099D01*
X91485797Y-148513671D01*
X91485795Y-148513668D01*
X91456410Y-148474415D01*
X91408421Y-148410309D01*
X91384004Y-148344848D01*
X91398855Y-148276575D01*
X91408416Y-148261696D01*
X91485796Y-148158331D01*
X91536091Y-148023483D01*
X91542500Y-147963873D01*
X91542499Y-146168128D01*
X91536091Y-146108517D01*
X91517286Y-146058099D01*
X91485797Y-145973671D01*
X91485795Y-145973668D01*
X91456410Y-145934415D01*
X91408421Y-145870309D01*
X91384004Y-145804848D01*
X91398855Y-145736575D01*
X91408416Y-145721696D01*
X91485796Y-145618331D01*
X91536091Y-145483483D01*
X91542500Y-145423873D01*
X91542499Y-143628128D01*
X91536091Y-143568517D01*
X91517286Y-143518099D01*
X91485797Y-143433671D01*
X91485793Y-143433664D01*
X91399547Y-143318455D01*
X91399544Y-143318452D01*
X91284335Y-143232206D01*
X91284328Y-143232202D01*
X91149482Y-143181908D01*
X91149483Y-143181908D01*
X91089883Y-143175501D01*
X91089881Y-143175500D01*
X91089873Y-143175500D01*
X91089865Y-143175500D01*
X88456385Y-143175500D01*
X88445578Y-143175028D01*
X88392001Y-143170341D01*
X88391997Y-143170341D01*
X88338419Y-143175028D01*
X88327613Y-143175500D01*
X87494129Y-143175500D01*
X87494123Y-143175501D01*
X87434516Y-143181908D01*
X87299671Y-143232202D01*
X87299664Y-143232206D01*
X87184455Y-143318452D01*
X87184452Y-143318455D01*
X87098206Y-143433664D01*
X87098201Y-143433673D01*
X87096681Y-143437750D01*
X87094073Y-143441232D01*
X87093953Y-143441454D01*
X87093921Y-143441436D01*
X87054809Y-143493683D01*
X86989345Y-143518099D01*
X86921072Y-143503247D01*
X86871667Y-143453841D01*
X86856500Y-143394415D01*
X86856500Y-140577584D01*
X86876185Y-140510545D01*
X86928989Y-140464790D01*
X86998147Y-140454846D01*
X87061703Y-140483871D01*
X87096682Y-140534252D01*
X87098201Y-140538326D01*
X87098206Y-140538335D01*
X87184452Y-140653544D01*
X87184455Y-140653547D01*
X87299664Y-140739793D01*
X87299671Y-140739797D01*
X87434517Y-140790091D01*
X87434516Y-140790091D01*
X87441444Y-140790835D01*
X87494127Y-140796500D01*
X88327616Y-140796499D01*
X88338425Y-140796971D01*
X88392000Y-140801659D01*
X88445575Y-140796971D01*
X88456384Y-140796499D01*
X91089871Y-140796499D01*
X91089872Y-140796499D01*
X91149483Y-140790091D01*
X91284331Y-140739796D01*
X91399546Y-140653546D01*
X91485796Y-140538331D01*
X91536091Y-140403483D01*
X91542500Y-140343873D01*
X91542499Y-138548128D01*
X91536091Y-138488517D01*
X91517286Y-138438099D01*
X91485797Y-138353671D01*
X91485795Y-138353668D01*
X91456410Y-138314415D01*
X91408421Y-138250309D01*
X91384004Y-138184848D01*
X91398855Y-138116575D01*
X91408416Y-138101696D01*
X91485796Y-137998331D01*
X91536091Y-137863483D01*
X91542500Y-137803873D01*
X91542499Y-136008128D01*
X91536091Y-135948517D01*
X91517286Y-135898099D01*
X91485797Y-135813671D01*
X91485795Y-135813668D01*
X91456410Y-135774415D01*
X91408421Y-135710309D01*
X91384004Y-135644848D01*
X91398855Y-135576575D01*
X91408416Y-135561696D01*
X91485796Y-135458331D01*
X91536091Y-135323483D01*
X91542500Y-135263873D01*
X91542499Y-133468128D01*
X91536091Y-133408517D01*
X91517286Y-133358099D01*
X91485797Y-133273671D01*
X91485795Y-133273668D01*
X91456410Y-133234415D01*
X91408421Y-133170309D01*
X91384004Y-133104848D01*
X91398855Y-133036575D01*
X91408416Y-133021696D01*
X91485796Y-132918331D01*
X91536091Y-132783483D01*
X91542500Y-132723873D01*
X91542499Y-130928128D01*
X91536091Y-130868517D01*
X91517286Y-130818099D01*
X91485797Y-130733671D01*
X91485793Y-130733664D01*
X91399547Y-130618455D01*
X91399544Y-130618452D01*
X91284335Y-130532206D01*
X91284328Y-130532202D01*
X91149482Y-130481908D01*
X91149483Y-130481908D01*
X91089883Y-130475501D01*
X91089881Y-130475500D01*
X91089873Y-130475500D01*
X91089865Y-130475500D01*
X88456385Y-130475500D01*
X88445578Y-130475028D01*
X88392001Y-130470341D01*
X88391997Y-130470341D01*
X88338419Y-130475028D01*
X88327613Y-130475500D01*
X87494129Y-130475500D01*
X87494123Y-130475501D01*
X87434516Y-130481908D01*
X87299671Y-130532202D01*
X87299664Y-130532206D01*
X87184455Y-130618452D01*
X87184452Y-130618455D01*
X87098206Y-130733664D01*
X87098201Y-130733673D01*
X87096681Y-130737750D01*
X87094073Y-130741232D01*
X87093953Y-130741454D01*
X87093921Y-130741436D01*
X87054809Y-130793683D01*
X86989345Y-130818099D01*
X86921072Y-130803247D01*
X86871667Y-130753841D01*
X86856500Y-130694415D01*
X86856500Y-127877584D01*
X86876185Y-127810545D01*
X86928989Y-127764790D01*
X86998147Y-127754846D01*
X87061703Y-127783871D01*
X87096682Y-127834252D01*
X87098201Y-127838326D01*
X87098206Y-127838335D01*
X87184452Y-127953544D01*
X87184455Y-127953547D01*
X87299664Y-128039793D01*
X87299671Y-128039797D01*
X87434517Y-128090091D01*
X87434516Y-128090091D01*
X87441444Y-128090835D01*
X87494127Y-128096500D01*
X88327616Y-128096499D01*
X88338425Y-128096971D01*
X88392000Y-128101659D01*
X88445575Y-128096971D01*
X88456384Y-128096499D01*
X91089871Y-128096499D01*
X91089872Y-128096499D01*
X91149483Y-128090091D01*
X91284331Y-128039796D01*
X91399546Y-127953546D01*
X91485796Y-127838331D01*
X91536091Y-127703483D01*
X91542500Y-127643873D01*
X91542499Y-125848128D01*
X91536091Y-125788517D01*
X91517286Y-125738099D01*
X91485797Y-125653671D01*
X91485795Y-125653668D01*
X91466898Y-125628425D01*
X91408421Y-125550309D01*
X91384004Y-125484848D01*
X91398855Y-125416575D01*
X91408416Y-125401696D01*
X91485796Y-125298331D01*
X91536091Y-125163483D01*
X91542500Y-125103873D01*
X91542499Y-123308128D01*
X91536091Y-123248517D01*
X91517286Y-123198099D01*
X91485797Y-123113671D01*
X91485795Y-123113668D01*
X91466898Y-123088425D01*
X91408421Y-123010309D01*
X91384004Y-122944848D01*
X91398855Y-122876575D01*
X91408416Y-122861696D01*
X91485796Y-122758331D01*
X91536091Y-122623483D01*
X91542500Y-122563873D01*
X91542499Y-120768128D01*
X91536091Y-120708517D01*
X91517286Y-120658099D01*
X91485797Y-120573671D01*
X91485795Y-120573668D01*
X91466898Y-120548425D01*
X91408421Y-120470309D01*
X91384004Y-120404848D01*
X91398855Y-120336575D01*
X91408416Y-120321696D01*
X91485796Y-120218331D01*
X91536091Y-120083483D01*
X91542500Y-120023873D01*
X91542499Y-118228128D01*
X91536091Y-118168517D01*
X91517286Y-118118099D01*
X91485797Y-118033671D01*
X91485793Y-118033664D01*
X91399547Y-117918455D01*
X91399544Y-117918452D01*
X91284335Y-117832206D01*
X91284328Y-117832202D01*
X91149482Y-117781908D01*
X91149483Y-117781908D01*
X91089883Y-117775501D01*
X91089881Y-117775500D01*
X91089873Y-117775500D01*
X91089865Y-117775500D01*
X88456385Y-117775500D01*
X88445578Y-117775028D01*
X88392001Y-117770341D01*
X88391997Y-117770341D01*
X88338419Y-117775028D01*
X88327613Y-117775500D01*
X87494129Y-117775500D01*
X87494123Y-117775501D01*
X87434516Y-117781908D01*
X87299671Y-117832202D01*
X87299664Y-117832206D01*
X87184455Y-117918452D01*
X87184452Y-117918455D01*
X87098206Y-118033664D01*
X87098201Y-118033673D01*
X87096681Y-118037750D01*
X87094073Y-118041232D01*
X87093953Y-118041454D01*
X87093921Y-118041436D01*
X87054809Y-118093683D01*
X86989345Y-118118099D01*
X86921072Y-118103247D01*
X86871667Y-118053841D01*
X86856500Y-117994415D01*
X86856500Y-115177584D01*
X86876185Y-115110545D01*
X86928989Y-115064790D01*
X86998147Y-115054846D01*
X87061703Y-115083871D01*
X87096682Y-115134252D01*
X87098201Y-115138326D01*
X87098206Y-115138335D01*
X87184452Y-115253544D01*
X87184455Y-115253547D01*
X87299664Y-115339793D01*
X87299671Y-115339797D01*
X87434517Y-115390091D01*
X87434516Y-115390091D01*
X87441444Y-115390835D01*
X87494127Y-115396500D01*
X88327616Y-115396499D01*
X88338425Y-115396971D01*
X88392000Y-115401659D01*
X88445575Y-115396971D01*
X88456384Y-115396499D01*
X91089871Y-115396499D01*
X91089872Y-115396499D01*
X91149483Y-115390091D01*
X91284331Y-115339796D01*
X91399546Y-115253546D01*
X91485796Y-115138331D01*
X91536091Y-115003483D01*
X91542500Y-114943873D01*
X91542499Y-113148128D01*
X91536091Y-113088517D01*
X91535514Y-113086971D01*
X91485797Y-112953671D01*
X91485795Y-112953668D01*
X91408421Y-112850309D01*
X91384004Y-112784848D01*
X91398855Y-112716575D01*
X91408416Y-112701696D01*
X91485796Y-112598331D01*
X91536091Y-112463483D01*
X91542500Y-112403873D01*
X91542499Y-110608128D01*
X91536091Y-110548517D01*
X91517286Y-110498099D01*
X91485797Y-110413671D01*
X91485793Y-110413664D01*
X91399547Y-110298455D01*
X91399544Y-110298452D01*
X91284335Y-110212206D01*
X91284328Y-110212202D01*
X91149482Y-110161908D01*
X91149483Y-110161908D01*
X91089883Y-110155501D01*
X91089881Y-110155500D01*
X91089873Y-110155500D01*
X91089865Y-110155500D01*
X88456385Y-110155500D01*
X88445578Y-110155028D01*
X88392001Y-110150341D01*
X88391997Y-110150341D01*
X88338419Y-110155028D01*
X88327613Y-110155500D01*
X87494129Y-110155500D01*
X87494123Y-110155501D01*
X87434516Y-110161908D01*
X87299671Y-110212202D01*
X87299664Y-110212206D01*
X87184455Y-110298452D01*
X87184452Y-110298455D01*
X87098206Y-110413664D01*
X87098201Y-110413673D01*
X87096681Y-110417750D01*
X87094073Y-110421232D01*
X87093953Y-110421454D01*
X87093921Y-110421436D01*
X87054809Y-110473683D01*
X86989345Y-110498099D01*
X86921072Y-110483247D01*
X86871667Y-110433841D01*
X86856500Y-110374415D01*
X86856500Y-109328228D01*
X86876185Y-109261189D01*
X86892815Y-109240551D01*
X87844206Y-108289159D01*
X87844211Y-108289156D01*
X87854414Y-108278952D01*
X87854416Y-108278952D01*
X90686952Y-105446415D01*
X90741323Y-105365042D01*
X90769084Y-105323495D01*
X90784478Y-105286327D01*
X90792304Y-105270668D01*
X90855744Y-105163398D01*
X90901598Y-105005569D01*
X90904500Y-104968694D01*
X90904500Y-103662306D01*
X90901598Y-103625431D01*
X90855744Y-103467602D01*
X90772081Y-103326135D01*
X90772079Y-103326133D01*
X90772076Y-103326129D01*
X90655870Y-103209923D01*
X90655862Y-103209917D01*
X90514396Y-103126255D01*
X90514393Y-103126254D01*
X90356573Y-103080402D01*
X90356567Y-103080401D01*
X90319701Y-103077500D01*
X90319694Y-103077500D01*
X90078500Y-103077500D01*
X90011461Y-103057815D01*
X89965706Y-103005011D01*
X89954500Y-102953500D01*
X89954500Y-102492414D01*
X89955280Y-102478529D01*
X89959565Y-102440501D01*
X89959565Y-102440498D01*
X89955280Y-102402469D01*
X89954500Y-102388585D01*
X89954500Y-101787313D01*
X89954499Y-101787298D01*
X89951598Y-101750432D01*
X89951597Y-101750426D01*
X89905745Y-101592606D01*
X89905744Y-101592603D01*
X89905744Y-101592602D01*
X89822081Y-101451135D01*
X89822079Y-101451133D01*
X89822076Y-101451129D01*
X89769598Y-101398651D01*
X89736113Y-101337328D01*
X89741097Y-101267636D01*
X89769596Y-101223291D01*
X93479055Y-97513832D01*
X93540376Y-97480349D01*
X93547308Y-97479046D01*
X93569368Y-97475553D01*
X93793992Y-97402568D01*
X93846107Y-97376014D01*
X93902401Y-97362499D01*
X94115871Y-97362499D01*
X94115872Y-97362499D01*
X94175483Y-97356091D01*
X94310331Y-97305796D01*
X94425546Y-97219546D01*
X94511796Y-97104331D01*
X94562091Y-96969483D01*
X94568500Y-96909873D01*
X94568499Y-96696399D01*
X94582014Y-96640105D01*
X94608568Y-96587992D01*
X94681553Y-96363368D01*
X94718500Y-96130097D01*
X94718500Y-95893902D01*
X94681553Y-95660631D01*
X94608565Y-95436000D01*
X94582014Y-95383891D01*
X94568499Y-95327597D01*
X94568499Y-95114129D01*
X94568498Y-95114123D01*
X94562091Y-95054516D01*
X94511797Y-94919671D01*
X94511793Y-94919664D01*
X94425547Y-94804455D01*
X94425544Y-94804452D01*
X94310335Y-94718206D01*
X94310328Y-94718202D01*
X94175482Y-94667908D01*
X94175483Y-94667908D01*
X94115883Y-94661501D01*
X94115881Y-94661500D01*
X94115873Y-94661500D01*
X94115865Y-94661500D01*
X93902400Y-94661500D01*
X93846105Y-94647985D01*
X93793996Y-94621433D01*
X93569368Y-94548446D01*
X93336097Y-94511500D01*
X93336092Y-94511500D01*
X92740770Y-94511500D01*
X92740765Y-94511500D01*
X92507493Y-94548446D01*
X92402008Y-94582721D01*
X92376139Y-94591127D01*
X92376138Y-94591127D01*
X92282874Y-94621429D01*
X92282868Y-94621431D01*
X92072427Y-94728657D01*
X91881350Y-94867484D01*
X91881349Y-94867485D01*
X80621654Y-106127181D01*
X80560331Y-106160666D01*
X80533973Y-106163500D01*
X78336137Y-106163500D01*
X78269098Y-106143815D01*
X78223343Y-106091011D01*
X78213399Y-106021853D01*
X78216362Y-106007407D01*
X78240179Y-105918517D01*
X78247635Y-105890692D01*
X78267468Y-105664000D01*
X78247635Y-105437308D01*
X78188739Y-105217504D01*
X78092568Y-105011266D01*
X77962047Y-104824861D01*
X77962045Y-104824858D01*
X77801141Y-104663954D01*
X77614734Y-104533432D01*
X77614732Y-104533431D01*
X77408497Y-104437261D01*
X77408488Y-104437258D01*
X77188697Y-104378366D01*
X77188693Y-104378365D01*
X77188692Y-104378365D01*
X77188691Y-104378364D01*
X77188686Y-104378364D01*
X76962002Y-104358532D01*
X76961998Y-104358532D01*
X76735313Y-104378364D01*
X76735302Y-104378366D01*
X76515511Y-104437258D01*
X76515502Y-104437261D01*
X76309267Y-104533431D01*
X76309265Y-104533432D01*
X76122858Y-104663954D01*
X75961954Y-104824858D01*
X75831432Y-105011265D01*
X75831431Y-105011267D01*
X75804382Y-105069275D01*
X75758209Y-105121714D01*
X75691016Y-105140866D01*
X75624135Y-105120650D01*
X75579618Y-105069275D01*
X75552568Y-105011267D01*
X75552567Y-105011265D01*
X75548581Y-105005573D01*
X75422047Y-104824861D01*
X75422045Y-104824858D01*
X75261141Y-104663954D01*
X75074734Y-104533432D01*
X75074732Y-104533431D01*
X74868497Y-104437261D01*
X74868488Y-104437258D01*
X74648697Y-104378366D01*
X74648693Y-104378365D01*
X74648692Y-104378365D01*
X74648691Y-104378364D01*
X74648686Y-104378364D01*
X74422002Y-104358532D01*
X74421998Y-104358532D01*
X74195313Y-104378364D01*
X74195302Y-104378366D01*
X73975511Y-104437258D01*
X73975502Y-104437261D01*
X73769267Y-104533431D01*
X73769265Y-104533432D01*
X73582858Y-104663954D01*
X73421954Y-104824858D01*
X73291432Y-105011265D01*
X73291431Y-105011267D01*
X73264382Y-105069275D01*
X73218209Y-105121714D01*
X73151016Y-105140866D01*
X73084135Y-105120650D01*
X73039618Y-105069275D01*
X73012568Y-105011267D01*
X73012567Y-105011265D01*
X73008581Y-105005573D01*
X72882047Y-104824861D01*
X72882045Y-104824858D01*
X72721141Y-104663954D01*
X72534734Y-104533432D01*
X72534732Y-104533431D01*
X72328497Y-104437261D01*
X72328488Y-104437258D01*
X72108697Y-104378366D01*
X72108687Y-104378364D01*
X71987671Y-104367777D01*
X71922603Y-104342324D01*
X71881624Y-104285734D01*
X71877746Y-104215972D01*
X71910796Y-104156570D01*
X76220548Y-99846819D01*
X76281871Y-99813334D01*
X76308229Y-99810500D01*
X83840920Y-99810500D01*
X83985908Y-99781659D01*
X83985908Y-99781658D01*
X83985913Y-99781658D01*
X84028037Y-99764208D01*
X84059292Y-99755834D01*
X84141262Y-99745044D01*
X84141268Y-99745041D01*
X84142400Y-99744739D01*
X84143579Y-99744738D01*
X84149323Y-99743983D01*
X84149422Y-99744738D01*
X84199578Y-99744737D01*
X84199678Y-99743983D01*
X84205406Y-99744737D01*
X84206591Y-99744737D01*
X84207735Y-99745043D01*
X84207738Y-99745044D01*
X84289705Y-99755834D01*
X84320967Y-99764210D01*
X84363088Y-99781658D01*
X84363092Y-99781658D01*
X84363093Y-99781659D01*
X84508080Y-99810500D01*
X84508083Y-99810500D01*
X84655919Y-99810500D01*
X84800907Y-99781659D01*
X84800907Y-99781658D01*
X84800912Y-99781658D01*
X84843036Y-99764208D01*
X84874291Y-99755834D01*
X84956262Y-99745044D01*
X85102341Y-99684536D01*
X85227782Y-99588282D01*
X85324036Y-99462841D01*
X85373647Y-99343066D01*
X85400524Y-99302842D01*
X85633702Y-99069665D01*
X85660955Y-99028877D01*
X85715834Y-98946745D01*
X85744917Y-98876533D01*
X85772409Y-98810162D01*
X85801250Y-98665167D01*
X85801250Y-98637222D01*
X85808208Y-98596267D01*
X85836118Y-98516504D01*
X85836119Y-98516499D01*
X85856315Y-98337253D01*
X85856315Y-98337246D01*
X85836119Y-98158000D01*
X85836118Y-98157995D01*
X85776539Y-97987728D01*
X85680566Y-97834988D01*
X85553012Y-97707434D01*
X85400272Y-97611461D01*
X85400268Y-97611459D01*
X85393994Y-97608438D01*
X85394875Y-97606608D01*
X85358809Y-97583942D01*
X78298818Y-90523950D01*
X78265333Y-90462627D01*
X78262499Y-90436269D01*
X78262499Y-90408999D01*
X86528341Y-90408999D01*
X86528341Y-90409000D01*
X86548936Y-90644403D01*
X86548938Y-90644413D01*
X86610094Y-90872655D01*
X86610096Y-90872659D01*
X86610097Y-90872663D01*
X86678207Y-91018725D01*
X86709965Y-91086830D01*
X86709967Y-91086834D01*
X86802679Y-91219239D01*
X86833419Y-91263141D01*
X86845501Y-91280395D01*
X86845506Y-91280402D01*
X87012597Y-91447493D01*
X87012603Y-91447498D01*
X87198158Y-91577425D01*
X87241783Y-91632002D01*
X87248977Y-91701500D01*
X87217454Y-91763855D01*
X87198158Y-91780575D01*
X87012597Y-91910505D01*
X86845505Y-92077597D01*
X86709965Y-92271169D01*
X86709964Y-92271171D01*
X86610098Y-92485335D01*
X86610094Y-92485344D01*
X86548938Y-92713586D01*
X86548936Y-92713596D01*
X86528341Y-92948999D01*
X86528341Y-92949000D01*
X86548936Y-93184403D01*
X86548938Y-93184413D01*
X86610094Y-93412655D01*
X86610096Y-93412659D01*
X86610097Y-93412663D01*
X86709965Y-93626830D01*
X86709967Y-93626834D01*
X86818281Y-93781521D01*
X86845501Y-93820396D01*
X86845506Y-93820402D01*
X86967430Y-93942326D01*
X87000915Y-94003649D01*
X86995931Y-94073341D01*
X86954059Y-94129274D01*
X86923083Y-94146189D01*
X86791669Y-94195203D01*
X86791664Y-94195206D01*
X86676455Y-94281452D01*
X86676452Y-94281455D01*
X86590206Y-94396664D01*
X86590202Y-94396671D01*
X86539908Y-94531517D01*
X86533501Y-94591116D01*
X86533500Y-94591127D01*
X86533500Y-96386870D01*
X86533501Y-96386876D01*
X86539908Y-96446483D01*
X86590202Y-96581328D01*
X86590206Y-96581335D01*
X86676452Y-96696544D01*
X86676455Y-96696547D01*
X86791664Y-96782793D01*
X86791671Y-96782797D01*
X86926517Y-96833091D01*
X86926516Y-96833091D01*
X86933444Y-96833835D01*
X86986127Y-96839500D01*
X88781872Y-96839499D01*
X88841483Y-96833091D01*
X88976331Y-96782796D01*
X89091546Y-96696546D01*
X89177796Y-96581331D01*
X89228091Y-96446483D01*
X89234500Y-96386873D01*
X89234499Y-94591128D01*
X89228091Y-94531517D01*
X89220625Y-94511500D01*
X89177797Y-94396671D01*
X89177793Y-94396664D01*
X89091547Y-94281455D01*
X89091544Y-94281452D01*
X88976335Y-94195206D01*
X88976328Y-94195202D01*
X88844917Y-94146189D01*
X88788983Y-94104318D01*
X88764566Y-94038853D01*
X88779418Y-93970580D01*
X88800563Y-93942332D01*
X88922495Y-93820401D01*
X89058035Y-93626830D01*
X89157903Y-93412663D01*
X89219063Y-93184408D01*
X89239659Y-92949000D01*
X89219063Y-92713592D01*
X89157903Y-92485337D01*
X89058035Y-92271171D01*
X88963464Y-92136108D01*
X88922494Y-92077597D01*
X88755402Y-91910506D01*
X88755396Y-91910501D01*
X88569842Y-91780575D01*
X88526217Y-91725998D01*
X88519023Y-91656500D01*
X88550546Y-91594145D01*
X88569842Y-91577425D01*
X88602486Y-91554567D01*
X88755401Y-91447495D01*
X88922495Y-91280401D01*
X89058035Y-91086830D01*
X89157903Y-90872663D01*
X89219063Y-90644408D01*
X89239659Y-90409000D01*
X89219063Y-90173592D01*
X89166522Y-89977504D01*
X89157905Y-89945344D01*
X89157904Y-89945343D01*
X89157903Y-89945337D01*
X89058035Y-89731171D01*
X89007142Y-89658487D01*
X88922494Y-89537597D01*
X88755402Y-89370506D01*
X88755395Y-89370501D01*
X88561834Y-89234967D01*
X88561830Y-89234965D01*
X88561828Y-89234964D01*
X88347663Y-89135097D01*
X88347659Y-89135096D01*
X88347655Y-89135094D01*
X88119413Y-89073938D01*
X88119403Y-89073936D01*
X87884001Y-89053341D01*
X87883999Y-89053341D01*
X87648596Y-89073936D01*
X87648586Y-89073938D01*
X87420344Y-89135094D01*
X87420335Y-89135098D01*
X87206171Y-89234964D01*
X87206169Y-89234965D01*
X87012597Y-89370505D01*
X86845505Y-89537597D01*
X86709965Y-89731169D01*
X86709964Y-89731171D01*
X86610098Y-89945335D01*
X86610094Y-89945344D01*
X86548938Y-90173586D01*
X86548936Y-90173596D01*
X86528341Y-90408999D01*
X78262499Y-90408999D01*
X78262499Y-89576129D01*
X78262498Y-89576123D01*
X78256091Y-89516516D01*
X78205797Y-89381671D01*
X78205793Y-89381664D01*
X78119547Y-89266455D01*
X78119544Y-89266452D01*
X78004335Y-89180206D01*
X78004328Y-89180202D01*
X77869482Y-89129908D01*
X77869483Y-89129908D01*
X77809883Y-89123501D01*
X77809881Y-89123500D01*
X77809873Y-89123500D01*
X77809864Y-89123500D01*
X76114129Y-89123500D01*
X76114123Y-89123501D01*
X76054516Y-89129908D01*
X75919671Y-89180202D01*
X75919664Y-89180206D01*
X75804455Y-89266452D01*
X75804452Y-89266455D01*
X75718206Y-89381664D01*
X75718202Y-89381671D01*
X75667908Y-89516516D01*
X75664137Y-89551596D01*
X75637398Y-89616146D01*
X75580006Y-89655994D01*
X75510180Y-89658487D01*
X75450092Y-89622834D01*
X75439273Y-89609462D01*
X75422045Y-89584858D01*
X75261141Y-89423954D01*
X75074734Y-89293432D01*
X75074732Y-89293431D01*
X74868497Y-89197261D01*
X74868488Y-89197258D01*
X74648697Y-89138366D01*
X74648693Y-89138365D01*
X74648692Y-89138365D01*
X74648691Y-89138364D01*
X74648686Y-89138364D01*
X74422002Y-89118532D01*
X74421998Y-89118532D01*
X74195313Y-89138364D01*
X74195302Y-89138366D01*
X73975511Y-89197258D01*
X73975502Y-89197261D01*
X73769267Y-89293431D01*
X73769265Y-89293432D01*
X73582858Y-89423954D01*
X73421954Y-89584858D01*
X73291432Y-89771265D01*
X73291431Y-89771267D01*
X73264382Y-89829275D01*
X73218209Y-89881714D01*
X73151016Y-89900866D01*
X73084135Y-89880650D01*
X73039618Y-89829275D01*
X73012568Y-89771267D01*
X73012567Y-89771265D01*
X72882045Y-89584858D01*
X72721141Y-89423954D01*
X72534734Y-89293432D01*
X72534732Y-89293431D01*
X72328497Y-89197261D01*
X72328488Y-89197258D01*
X72108697Y-89138366D01*
X72108693Y-89138365D01*
X72108692Y-89138365D01*
X72108691Y-89138364D01*
X72108686Y-89138364D01*
X71882002Y-89118532D01*
X71881998Y-89118532D01*
X71655313Y-89138364D01*
X71655302Y-89138366D01*
X71435511Y-89197258D01*
X71435502Y-89197261D01*
X71229267Y-89293431D01*
X71229265Y-89293432D01*
X71042858Y-89423954D01*
X70881954Y-89584858D01*
X70751432Y-89771265D01*
X70751431Y-89771267D01*
X70724382Y-89829275D01*
X70678209Y-89881714D01*
X70611016Y-89900866D01*
X70544135Y-89880650D01*
X70499618Y-89829275D01*
X70472568Y-89771267D01*
X70472567Y-89771265D01*
X70342045Y-89584858D01*
X70181141Y-89423954D01*
X69994734Y-89293432D01*
X69994732Y-89293431D01*
X69788497Y-89197261D01*
X69788488Y-89197258D01*
X69568697Y-89138366D01*
X69568693Y-89138365D01*
X69568692Y-89138365D01*
X69568691Y-89138364D01*
X69568686Y-89138364D01*
X69342002Y-89118532D01*
X69341998Y-89118532D01*
X69115313Y-89138364D01*
X69115302Y-89138366D01*
X68895511Y-89197258D01*
X68895502Y-89197261D01*
X68689267Y-89293431D01*
X68689265Y-89293432D01*
X68502858Y-89423954D01*
X68341954Y-89584858D01*
X68211432Y-89771265D01*
X68211431Y-89771267D01*
X68184382Y-89829275D01*
X68138209Y-89881714D01*
X68071016Y-89900866D01*
X68004135Y-89880650D01*
X67959618Y-89829275D01*
X67932568Y-89771267D01*
X67932567Y-89771265D01*
X67802045Y-89584858D01*
X67641141Y-89423954D01*
X67454734Y-89293432D01*
X67454732Y-89293431D01*
X67248497Y-89197261D01*
X67248488Y-89197258D01*
X67028697Y-89138366D01*
X67028693Y-89138365D01*
X67028692Y-89138365D01*
X67028691Y-89138364D01*
X67028686Y-89138364D01*
X66802002Y-89118532D01*
X66801998Y-89118532D01*
X66575313Y-89138364D01*
X66575302Y-89138366D01*
X66355511Y-89197258D01*
X66355502Y-89197261D01*
X66149267Y-89293431D01*
X66149265Y-89293432D01*
X65962858Y-89423954D01*
X65801954Y-89584858D01*
X65671432Y-89771265D01*
X65671431Y-89771267D01*
X65644382Y-89829275D01*
X65598209Y-89881714D01*
X65531016Y-89900866D01*
X65464135Y-89880650D01*
X65419618Y-89829275D01*
X65392568Y-89771267D01*
X65392567Y-89771265D01*
X65262045Y-89584858D01*
X65101141Y-89423954D01*
X64914734Y-89293432D01*
X64914732Y-89293431D01*
X64708497Y-89197261D01*
X64708488Y-89197258D01*
X64488697Y-89138366D01*
X64488693Y-89138365D01*
X64488692Y-89138365D01*
X64488691Y-89138364D01*
X64488686Y-89138364D01*
X64262002Y-89118532D01*
X64261998Y-89118532D01*
X64035313Y-89138364D01*
X64035302Y-89138366D01*
X63815511Y-89197258D01*
X63815502Y-89197261D01*
X63609267Y-89293431D01*
X63609265Y-89293432D01*
X63422858Y-89423954D01*
X63261954Y-89584858D01*
X63131432Y-89771265D01*
X63131431Y-89771267D01*
X63104382Y-89829275D01*
X63058209Y-89881714D01*
X62991016Y-89900866D01*
X62924135Y-89880650D01*
X62879618Y-89829275D01*
X62852568Y-89771267D01*
X62852567Y-89771265D01*
X62722045Y-89584858D01*
X62561141Y-89423954D01*
X62374734Y-89293432D01*
X62374732Y-89293431D01*
X62168497Y-89197261D01*
X62168488Y-89197258D01*
X61948697Y-89138366D01*
X61948693Y-89138365D01*
X61948692Y-89138365D01*
X61948691Y-89138364D01*
X61948686Y-89138364D01*
X61722002Y-89118532D01*
X61721998Y-89118532D01*
X61495313Y-89138364D01*
X61495302Y-89138366D01*
X61275511Y-89197258D01*
X61275502Y-89197261D01*
X61069267Y-89293431D01*
X61069265Y-89293432D01*
X60882858Y-89423954D01*
X60721954Y-89584858D01*
X60591432Y-89771265D01*
X60591431Y-89771267D01*
X60564382Y-89829275D01*
X60518209Y-89881714D01*
X60451016Y-89900866D01*
X60384135Y-89880650D01*
X60339618Y-89829275D01*
X60312568Y-89771267D01*
X60312567Y-89771265D01*
X60182045Y-89584858D01*
X60021141Y-89423954D01*
X59834734Y-89293432D01*
X59834732Y-89293431D01*
X59628497Y-89197261D01*
X59628488Y-89197258D01*
X59408697Y-89138366D01*
X59408693Y-89138365D01*
X59408692Y-89138365D01*
X59408691Y-89138364D01*
X59408686Y-89138364D01*
X59182002Y-89118532D01*
X59181998Y-89118532D01*
X58955313Y-89138364D01*
X58955302Y-89138366D01*
X58735511Y-89197258D01*
X58735502Y-89197261D01*
X58529267Y-89293431D01*
X58529265Y-89293432D01*
X58342858Y-89423954D01*
X58181954Y-89584858D01*
X58051432Y-89771265D01*
X58051431Y-89771267D01*
X58024382Y-89829275D01*
X57978209Y-89881714D01*
X57911016Y-89900866D01*
X57844135Y-89880650D01*
X57799618Y-89829275D01*
X57772568Y-89771267D01*
X57772567Y-89771265D01*
X57642045Y-89584858D01*
X57481141Y-89423954D01*
X57294734Y-89293432D01*
X57294732Y-89293431D01*
X57088497Y-89197261D01*
X57088488Y-89197258D01*
X56868697Y-89138366D01*
X56868693Y-89138365D01*
X56868692Y-89138365D01*
X56868691Y-89138364D01*
X56868686Y-89138364D01*
X56642002Y-89118532D01*
X56641998Y-89118532D01*
X56415313Y-89138364D01*
X56415302Y-89138366D01*
X56195511Y-89197258D01*
X56195502Y-89197261D01*
X55989267Y-89293431D01*
X55989265Y-89293432D01*
X55802858Y-89423954D01*
X55641954Y-89584858D01*
X55511432Y-89771265D01*
X55511431Y-89771267D01*
X55484382Y-89829275D01*
X55438209Y-89881714D01*
X55371016Y-89900866D01*
X55304135Y-89880650D01*
X55259618Y-89829275D01*
X55232568Y-89771267D01*
X55232567Y-89771265D01*
X55102045Y-89584858D01*
X54941141Y-89423954D01*
X54754734Y-89293432D01*
X54754732Y-89293431D01*
X54548497Y-89197261D01*
X54548488Y-89197258D01*
X54328697Y-89138366D01*
X54328693Y-89138365D01*
X54328692Y-89138365D01*
X54328691Y-89138364D01*
X54328686Y-89138364D01*
X54102002Y-89118532D01*
X54101998Y-89118532D01*
X53875313Y-89138364D01*
X53875302Y-89138366D01*
X53655511Y-89197258D01*
X53655502Y-89197261D01*
X53449267Y-89293431D01*
X53449265Y-89293432D01*
X53262858Y-89423954D01*
X53101954Y-89584858D01*
X52971432Y-89771265D01*
X52971431Y-89771267D01*
X52944382Y-89829275D01*
X52898209Y-89881714D01*
X52831016Y-89900866D01*
X52764135Y-89880650D01*
X52719618Y-89829275D01*
X52692568Y-89771267D01*
X52692567Y-89771265D01*
X52562045Y-89584858D01*
X52401141Y-89423954D01*
X52214734Y-89293432D01*
X52214732Y-89293431D01*
X52008497Y-89197261D01*
X52008488Y-89197258D01*
X51788697Y-89138366D01*
X51788693Y-89138365D01*
X51788692Y-89138365D01*
X51788691Y-89138364D01*
X51788686Y-89138364D01*
X51562002Y-89118532D01*
X51561998Y-89118532D01*
X51335313Y-89138364D01*
X51335302Y-89138366D01*
X51115511Y-89197258D01*
X51115502Y-89197261D01*
X50909267Y-89293431D01*
X50909265Y-89293432D01*
X50722858Y-89423954D01*
X50561954Y-89584858D01*
X50431432Y-89771265D01*
X50431431Y-89771267D01*
X50404382Y-89829275D01*
X50358209Y-89881714D01*
X50291016Y-89900866D01*
X50224135Y-89880650D01*
X50179618Y-89829275D01*
X50152568Y-89771267D01*
X50152567Y-89771265D01*
X50022045Y-89584858D01*
X49861141Y-89423954D01*
X49674734Y-89293432D01*
X49674732Y-89293431D01*
X49468497Y-89197261D01*
X49468488Y-89197258D01*
X49248697Y-89138366D01*
X49248693Y-89138365D01*
X49248692Y-89138365D01*
X49248691Y-89138364D01*
X49248686Y-89138364D01*
X49022002Y-89118532D01*
X49021998Y-89118532D01*
X48795313Y-89138364D01*
X48795302Y-89138366D01*
X48575511Y-89197258D01*
X48575502Y-89197261D01*
X48369267Y-89293431D01*
X48369265Y-89293432D01*
X48182858Y-89423954D01*
X48021954Y-89584858D01*
X47891432Y-89771265D01*
X47891431Y-89771267D01*
X47864382Y-89829275D01*
X47818209Y-89881714D01*
X47751016Y-89900866D01*
X47684135Y-89880650D01*
X47639618Y-89829275D01*
X47612568Y-89771267D01*
X47612567Y-89771265D01*
X47482045Y-89584858D01*
X47321141Y-89423954D01*
X47134734Y-89293432D01*
X47134732Y-89293431D01*
X46928497Y-89197261D01*
X46928488Y-89197258D01*
X46708697Y-89138366D01*
X46708693Y-89138365D01*
X46708692Y-89138365D01*
X46708691Y-89138364D01*
X46708686Y-89138364D01*
X46482002Y-89118532D01*
X46481998Y-89118532D01*
X46255313Y-89138364D01*
X46255302Y-89138366D01*
X46035511Y-89197258D01*
X46035502Y-89197261D01*
X45829267Y-89293431D01*
X45829265Y-89293432D01*
X45642858Y-89423954D01*
X45481954Y-89584858D01*
X45351432Y-89771265D01*
X45351431Y-89771267D01*
X45324382Y-89829275D01*
X45278209Y-89881714D01*
X45211016Y-89900866D01*
X45144135Y-89880650D01*
X45099618Y-89829275D01*
X45072568Y-89771267D01*
X45072567Y-89771265D01*
X44942045Y-89584858D01*
X44781141Y-89423954D01*
X44594734Y-89293432D01*
X44594732Y-89293431D01*
X44388497Y-89197261D01*
X44388488Y-89197258D01*
X44168697Y-89138366D01*
X44168693Y-89138365D01*
X44168692Y-89138365D01*
X44168691Y-89138364D01*
X44168686Y-89138364D01*
X43942002Y-89118532D01*
X43941998Y-89118532D01*
X43715313Y-89138364D01*
X43715302Y-89138366D01*
X43495511Y-89197258D01*
X43495502Y-89197261D01*
X43289267Y-89293431D01*
X43289265Y-89293432D01*
X43102858Y-89423954D01*
X42941954Y-89584858D01*
X42811432Y-89771265D01*
X42811431Y-89771267D01*
X42784382Y-89829275D01*
X42738209Y-89881714D01*
X42671016Y-89900866D01*
X42604135Y-89880650D01*
X42559618Y-89829275D01*
X42532568Y-89771267D01*
X42532567Y-89771265D01*
X42402045Y-89584858D01*
X42241141Y-89423954D01*
X42054734Y-89293432D01*
X42054732Y-89293431D01*
X41848497Y-89197261D01*
X41848488Y-89197258D01*
X41628697Y-89138366D01*
X41628693Y-89138365D01*
X41628692Y-89138365D01*
X41628691Y-89138364D01*
X41628686Y-89138364D01*
X41402002Y-89118532D01*
X41401998Y-89118532D01*
X41175313Y-89138364D01*
X41175302Y-89138366D01*
X40955511Y-89197258D01*
X40955502Y-89197261D01*
X40749267Y-89293431D01*
X40749265Y-89293432D01*
X40562858Y-89423954D01*
X40401954Y-89584858D01*
X40271432Y-89771265D01*
X40271431Y-89771267D01*
X40175261Y-89977502D01*
X40175258Y-89977511D01*
X40116366Y-90197302D01*
X40116364Y-90197313D01*
X40096532Y-90423998D01*
X40096532Y-90424001D01*
X40116364Y-90650686D01*
X40116366Y-90650697D01*
X40175258Y-90870488D01*
X40175261Y-90870497D01*
X40271431Y-91076732D01*
X40271432Y-91076734D01*
X40401954Y-91263141D01*
X40562858Y-91424045D01*
X40596353Y-91447498D01*
X40749266Y-91554568D01*
X40955504Y-91650739D01*
X41175308Y-91709635D01*
X41337230Y-91723801D01*
X41401998Y-91729468D01*
X41402000Y-91729468D01*
X41402002Y-91729468D01*
X41458807Y-91724498D01*
X41628692Y-91709635D01*
X41848496Y-91650739D01*
X42054734Y-91554568D01*
X42241139Y-91424047D01*
X42402047Y-91263139D01*
X42532568Y-91076734D01*
X42559618Y-91018724D01*
X42605790Y-90966285D01*
X42672983Y-90947133D01*
X42739865Y-90967348D01*
X42784382Y-91018725D01*
X42811429Y-91076728D01*
X42811432Y-91076734D01*
X42941954Y-91263141D01*
X43102858Y-91424045D01*
X43136353Y-91447498D01*
X43289266Y-91554568D01*
X43495504Y-91650739D01*
X43715308Y-91709635D01*
X43877230Y-91723801D01*
X43941998Y-91729468D01*
X43942000Y-91729468D01*
X43942002Y-91729468D01*
X43998807Y-91724498D01*
X44168692Y-91709635D01*
X44388496Y-91650739D01*
X44594734Y-91554568D01*
X44781139Y-91424047D01*
X44942047Y-91263139D01*
X45072568Y-91076734D01*
X45099618Y-91018724D01*
X45145790Y-90966285D01*
X45212983Y-90947133D01*
X45279865Y-90967348D01*
X45324382Y-91018725D01*
X45351429Y-91076728D01*
X45351432Y-91076734D01*
X45481954Y-91263141D01*
X45642858Y-91424045D01*
X45676353Y-91447498D01*
X45829266Y-91554568D01*
X46035504Y-91650739D01*
X46255308Y-91709635D01*
X46417230Y-91723801D01*
X46481998Y-91729468D01*
X46482000Y-91729468D01*
X46482002Y-91729468D01*
X46538807Y-91724498D01*
X46708692Y-91709635D01*
X46928496Y-91650739D01*
X47134734Y-91554568D01*
X47321139Y-91424047D01*
X47482047Y-91263139D01*
X47612568Y-91076734D01*
X47639618Y-91018724D01*
X47685790Y-90966285D01*
X47752983Y-90947133D01*
X47819865Y-90967348D01*
X47864382Y-91018725D01*
X47891429Y-91076728D01*
X47891432Y-91076734D01*
X48021954Y-91263141D01*
X48182858Y-91424045D01*
X48216353Y-91447498D01*
X48369266Y-91554568D01*
X48575504Y-91650739D01*
X48795308Y-91709635D01*
X48957230Y-91723801D01*
X49021998Y-91729468D01*
X49022000Y-91729468D01*
X49022002Y-91729468D01*
X49078807Y-91724498D01*
X49248692Y-91709635D01*
X49468496Y-91650739D01*
X49674734Y-91554568D01*
X49861139Y-91424047D01*
X50022047Y-91263139D01*
X50152568Y-91076734D01*
X50179618Y-91018724D01*
X50225790Y-90966285D01*
X50292983Y-90947133D01*
X50359865Y-90967348D01*
X50404382Y-91018725D01*
X50431429Y-91076728D01*
X50431432Y-91076734D01*
X50561954Y-91263141D01*
X50722858Y-91424045D01*
X50756353Y-91447498D01*
X50909266Y-91554568D01*
X51115504Y-91650739D01*
X51335308Y-91709635D01*
X51497230Y-91723801D01*
X51561998Y-91729468D01*
X51562000Y-91729468D01*
X51562002Y-91729468D01*
X51618807Y-91724498D01*
X51788692Y-91709635D01*
X52008496Y-91650739D01*
X52214734Y-91554568D01*
X52401139Y-91424047D01*
X52562047Y-91263139D01*
X52692568Y-91076734D01*
X52719618Y-91018724D01*
X52765790Y-90966285D01*
X52832983Y-90947133D01*
X52899865Y-90967348D01*
X52944382Y-91018725D01*
X52971429Y-91076728D01*
X52971432Y-91076734D01*
X53101954Y-91263141D01*
X53262858Y-91424045D01*
X53296353Y-91447498D01*
X53449266Y-91554568D01*
X53655504Y-91650739D01*
X53875308Y-91709635D01*
X54037230Y-91723801D01*
X54101998Y-91729468D01*
X54102000Y-91729468D01*
X54102002Y-91729468D01*
X54158807Y-91724498D01*
X54328692Y-91709635D01*
X54548496Y-91650739D01*
X54754734Y-91554568D01*
X54941139Y-91424047D01*
X55102047Y-91263139D01*
X55232568Y-91076734D01*
X55259618Y-91018724D01*
X55305790Y-90966285D01*
X55372983Y-90947133D01*
X55439865Y-90967348D01*
X55484382Y-91018725D01*
X55511429Y-91076728D01*
X55511432Y-91076734D01*
X55641954Y-91263141D01*
X55802858Y-91424045D01*
X55836353Y-91447498D01*
X55989266Y-91554568D01*
X56195504Y-91650739D01*
X56415308Y-91709635D01*
X56577230Y-91723801D01*
X56641998Y-91729468D01*
X56642000Y-91729468D01*
X56642002Y-91729468D01*
X56698807Y-91724498D01*
X56868692Y-91709635D01*
X57088496Y-91650739D01*
X57294734Y-91554568D01*
X57481139Y-91424047D01*
X57642047Y-91263139D01*
X57772568Y-91076734D01*
X57799618Y-91018724D01*
X57845790Y-90966285D01*
X57912983Y-90947133D01*
X57979865Y-90967348D01*
X58024382Y-91018725D01*
X58051429Y-91076728D01*
X58051432Y-91076734D01*
X58181954Y-91263141D01*
X58342858Y-91424045D01*
X58376353Y-91447498D01*
X58529266Y-91554568D01*
X58735504Y-91650739D01*
X58955308Y-91709635D01*
X59117230Y-91723801D01*
X59181998Y-91729468D01*
X59182000Y-91729468D01*
X59182002Y-91729468D01*
X59238807Y-91724498D01*
X59408692Y-91709635D01*
X59628496Y-91650739D01*
X59834734Y-91554568D01*
X60021139Y-91424047D01*
X60182047Y-91263139D01*
X60312568Y-91076734D01*
X60339618Y-91018724D01*
X60385790Y-90966285D01*
X60452983Y-90947133D01*
X60519865Y-90967348D01*
X60564382Y-91018725D01*
X60591429Y-91076728D01*
X60591432Y-91076734D01*
X60721954Y-91263141D01*
X60882858Y-91424045D01*
X60916353Y-91447498D01*
X61069266Y-91554568D01*
X61275504Y-91650739D01*
X61495308Y-91709635D01*
X61657230Y-91723801D01*
X61721998Y-91729468D01*
X61722000Y-91729468D01*
X61722002Y-91729468D01*
X61778807Y-91724498D01*
X61948692Y-91709635D01*
X62168496Y-91650739D01*
X62374734Y-91554568D01*
X62561139Y-91424047D01*
X62722047Y-91263139D01*
X62852568Y-91076734D01*
X62879618Y-91018724D01*
X62925790Y-90966285D01*
X62992983Y-90947133D01*
X63059865Y-90967348D01*
X63104382Y-91018725D01*
X63131429Y-91076728D01*
X63131432Y-91076734D01*
X63261954Y-91263141D01*
X63422858Y-91424045D01*
X63456353Y-91447498D01*
X63609266Y-91554568D01*
X63815504Y-91650739D01*
X64035308Y-91709635D01*
X64197230Y-91723801D01*
X64261998Y-91729468D01*
X64262000Y-91729468D01*
X64262002Y-91729468D01*
X64318807Y-91724498D01*
X64488692Y-91709635D01*
X64708496Y-91650739D01*
X64914734Y-91554568D01*
X65101139Y-91424047D01*
X65262047Y-91263139D01*
X65392568Y-91076734D01*
X65419618Y-91018724D01*
X65465790Y-90966285D01*
X65532983Y-90947133D01*
X65599865Y-90967348D01*
X65644382Y-91018725D01*
X65671429Y-91076728D01*
X65671432Y-91076734D01*
X65801954Y-91263141D01*
X65962858Y-91424045D01*
X65996353Y-91447498D01*
X66149266Y-91554568D01*
X66355504Y-91650739D01*
X66575308Y-91709635D01*
X66737230Y-91723801D01*
X66801998Y-91729468D01*
X66802000Y-91729468D01*
X66802002Y-91729468D01*
X66858807Y-91724498D01*
X67028692Y-91709635D01*
X67248496Y-91650739D01*
X67454734Y-91554568D01*
X67641139Y-91424047D01*
X67802047Y-91263139D01*
X67932568Y-91076734D01*
X67959618Y-91018724D01*
X68005790Y-90966285D01*
X68072983Y-90947133D01*
X68139865Y-90967348D01*
X68184382Y-91018725D01*
X68211429Y-91076728D01*
X68211432Y-91076734D01*
X68341954Y-91263141D01*
X68502858Y-91424045D01*
X68536353Y-91447498D01*
X68689266Y-91554568D01*
X68895504Y-91650739D01*
X69115308Y-91709635D01*
X69277230Y-91723801D01*
X69341998Y-91729468D01*
X69342000Y-91729468D01*
X69342002Y-91729468D01*
X69398807Y-91724498D01*
X69568692Y-91709635D01*
X69788496Y-91650739D01*
X69994734Y-91554568D01*
X70181139Y-91424047D01*
X70342047Y-91263139D01*
X70472568Y-91076734D01*
X70499618Y-91018724D01*
X70545790Y-90966285D01*
X70612983Y-90947133D01*
X70679865Y-90967348D01*
X70724382Y-91018725D01*
X70751429Y-91076728D01*
X70751432Y-91076734D01*
X70881954Y-91263141D01*
X71042858Y-91424045D01*
X71076353Y-91447498D01*
X71229266Y-91554568D01*
X71435504Y-91650739D01*
X71655308Y-91709635D01*
X71817230Y-91723801D01*
X71881998Y-91729468D01*
X71882000Y-91729468D01*
X71882002Y-91729468D01*
X71938807Y-91724498D01*
X72108692Y-91709635D01*
X72328496Y-91650739D01*
X72534734Y-91554568D01*
X72721139Y-91424047D01*
X72882047Y-91263139D01*
X73012568Y-91076734D01*
X73039618Y-91018724D01*
X73085790Y-90966285D01*
X73152983Y-90947133D01*
X73219865Y-90967348D01*
X73264382Y-91018725D01*
X73291429Y-91076728D01*
X73291432Y-91076734D01*
X73421954Y-91263141D01*
X73582858Y-91424045D01*
X73616353Y-91447498D01*
X73769266Y-91554568D01*
X73975504Y-91650739D01*
X74195308Y-91709635D01*
X74357230Y-91723801D01*
X74421998Y-91729468D01*
X74422000Y-91729468D01*
X74422002Y-91729468D01*
X74478807Y-91724498D01*
X74648692Y-91709635D01*
X74868496Y-91650739D01*
X75074734Y-91554568D01*
X75261139Y-91424047D01*
X75422047Y-91263139D01*
X75439272Y-91238539D01*
X75493848Y-91194913D01*
X75563346Y-91187718D01*
X75625701Y-91219239D01*
X75661116Y-91279468D01*
X75664138Y-91296406D01*
X75667908Y-91331483D01*
X75718202Y-91466328D01*
X75718206Y-91466335D01*
X75804452Y-91581544D01*
X75804455Y-91581547D01*
X75919664Y-91667793D01*
X75919671Y-91667797D01*
X76054517Y-91718091D01*
X76054516Y-91718091D01*
X76061444Y-91718835D01*
X76114127Y-91724500D01*
X77325269Y-91724499D01*
X77392308Y-91744184D01*
X77412950Y-91760818D01*
X83749952Y-98097819D01*
X83783437Y-98159142D01*
X83778453Y-98228834D01*
X83736581Y-98284767D01*
X83671117Y-98309184D01*
X83662271Y-98309500D01*
X75872080Y-98309500D01*
X75727092Y-98338340D01*
X75727082Y-98338343D01*
X75590511Y-98394912D01*
X75590498Y-98394919D01*
X75467584Y-98477048D01*
X75467580Y-98477051D01*
X69781911Y-104162719D01*
X69720588Y-104196204D01*
X69674832Y-104197511D01*
X69460097Y-104163500D01*
X69460092Y-104163500D01*
X69223908Y-104163500D01*
X69223903Y-104163500D01*
X68990631Y-104200446D01*
X68766003Y-104273433D01*
X68555566Y-104380657D01*
X68473964Y-104439945D01*
X68364490Y-104519483D01*
X68364488Y-104519485D01*
X68364487Y-104519485D01*
X68197485Y-104686487D01*
X68197485Y-104686488D01*
X68197483Y-104686490D01*
X68182749Y-104706770D01*
X68058652Y-104877573D01*
X68056112Y-104881719D01*
X68054618Y-104880803D01*
X68011827Y-104926105D01*
X67944005Y-104942895D01*
X67877872Y-104920352D01*
X67847750Y-104890132D01*
X67802045Y-104824858D01*
X67641141Y-104663954D01*
X67454734Y-104533432D01*
X67454732Y-104533431D01*
X67248497Y-104437261D01*
X67248488Y-104437258D01*
X67028697Y-104378366D01*
X67028693Y-104378365D01*
X67028692Y-104378365D01*
X67028691Y-104378364D01*
X67028686Y-104378364D01*
X66802002Y-104358532D01*
X66801998Y-104358532D01*
X66575313Y-104378364D01*
X66575302Y-104378366D01*
X66355511Y-104437258D01*
X66355502Y-104437261D01*
X66149267Y-104533431D01*
X66149265Y-104533432D01*
X65962858Y-104663954D01*
X65801954Y-104824858D01*
X65671432Y-105011265D01*
X65671431Y-105011267D01*
X65644382Y-105069275D01*
X65598209Y-105121714D01*
X65531016Y-105140866D01*
X65464135Y-105120650D01*
X65419618Y-105069275D01*
X65392568Y-105011267D01*
X65392567Y-105011265D01*
X65388581Y-105005573D01*
X65262047Y-104824861D01*
X65262045Y-104824858D01*
X65101141Y-104663954D01*
X64914734Y-104533432D01*
X64914732Y-104533431D01*
X64708497Y-104437261D01*
X64708488Y-104437258D01*
X64488697Y-104378366D01*
X64488693Y-104378365D01*
X64488692Y-104378365D01*
X64488691Y-104378364D01*
X64488686Y-104378364D01*
X64262002Y-104358532D01*
X64261998Y-104358532D01*
X64035313Y-104378364D01*
X64035302Y-104378366D01*
X63815511Y-104437258D01*
X63815502Y-104437261D01*
X63609267Y-104533431D01*
X63609265Y-104533432D01*
X63422858Y-104663954D01*
X63261954Y-104824858D01*
X63131432Y-105011265D01*
X63131431Y-105011267D01*
X63104382Y-105069275D01*
X63058209Y-105121714D01*
X62991016Y-105140866D01*
X62924135Y-105120650D01*
X62879618Y-105069275D01*
X62852568Y-105011267D01*
X62852567Y-105011265D01*
X62848581Y-105005573D01*
X62722047Y-104824861D01*
X62722045Y-104824858D01*
X62561141Y-104663954D01*
X62374734Y-104533432D01*
X62374732Y-104533431D01*
X62168497Y-104437261D01*
X62168488Y-104437258D01*
X61948697Y-104378366D01*
X61948693Y-104378365D01*
X61948692Y-104378365D01*
X61948691Y-104378364D01*
X61948686Y-104378364D01*
X61722002Y-104358532D01*
X61721998Y-104358532D01*
X61495313Y-104378364D01*
X61495302Y-104378366D01*
X61275511Y-104437258D01*
X61275502Y-104437261D01*
X61069267Y-104533431D01*
X61069265Y-104533432D01*
X60882858Y-104663954D01*
X60721954Y-104824858D01*
X60591432Y-105011265D01*
X60591431Y-105011267D01*
X60564382Y-105069275D01*
X60518209Y-105121714D01*
X60451016Y-105140866D01*
X60384135Y-105120650D01*
X60339618Y-105069275D01*
X60312568Y-105011267D01*
X60312567Y-105011265D01*
X60308581Y-105005573D01*
X60182047Y-104824861D01*
X60182045Y-104824858D01*
X60021141Y-104663954D01*
X59834734Y-104533432D01*
X59834732Y-104533431D01*
X59628497Y-104437261D01*
X59628488Y-104437258D01*
X59408697Y-104378366D01*
X59408693Y-104378365D01*
X59408692Y-104378365D01*
X59408691Y-104378364D01*
X59408686Y-104378364D01*
X59182002Y-104358532D01*
X59181998Y-104358532D01*
X58955313Y-104378364D01*
X58955302Y-104378366D01*
X58735511Y-104437258D01*
X58735502Y-104437261D01*
X58529267Y-104533431D01*
X58529265Y-104533432D01*
X58342858Y-104663954D01*
X58181954Y-104824858D01*
X58051432Y-105011265D01*
X58051431Y-105011267D01*
X58024382Y-105069275D01*
X57978209Y-105121714D01*
X57911016Y-105140866D01*
X57844135Y-105120650D01*
X57799618Y-105069275D01*
X57772568Y-105011267D01*
X57772567Y-105011265D01*
X57768581Y-105005573D01*
X57642047Y-104824861D01*
X57642045Y-104824858D01*
X57481141Y-104663954D01*
X57294734Y-104533432D01*
X57294732Y-104533431D01*
X57088497Y-104437261D01*
X57088488Y-104437258D01*
X56868697Y-104378366D01*
X56868693Y-104378365D01*
X56868692Y-104378365D01*
X56868691Y-104378364D01*
X56868686Y-104378364D01*
X56642002Y-104358532D01*
X56641998Y-104358532D01*
X56415313Y-104378364D01*
X56415302Y-104378366D01*
X56195511Y-104437258D01*
X56195502Y-104437261D01*
X55989267Y-104533431D01*
X55989265Y-104533432D01*
X55802858Y-104663954D01*
X55641954Y-104824858D01*
X55511432Y-105011265D01*
X55511431Y-105011267D01*
X55484382Y-105069275D01*
X55438209Y-105121714D01*
X55371016Y-105140866D01*
X55304135Y-105120650D01*
X55259618Y-105069275D01*
X55232568Y-105011267D01*
X55232567Y-105011265D01*
X55228581Y-105005573D01*
X55102047Y-104824861D01*
X55102045Y-104824858D01*
X54941141Y-104663954D01*
X54754734Y-104533432D01*
X54754732Y-104533431D01*
X54548497Y-104437261D01*
X54548488Y-104437258D01*
X54328697Y-104378366D01*
X54328693Y-104378365D01*
X54328692Y-104378365D01*
X54328691Y-104378364D01*
X54328686Y-104378364D01*
X54102002Y-104358532D01*
X54101998Y-104358532D01*
X53875313Y-104378364D01*
X53875302Y-104378366D01*
X53655511Y-104437258D01*
X53655502Y-104437261D01*
X53449267Y-104533431D01*
X53449265Y-104533432D01*
X53262858Y-104663954D01*
X53101954Y-104824858D01*
X52971432Y-105011265D01*
X52971431Y-105011267D01*
X52944382Y-105069275D01*
X52898209Y-105121714D01*
X52831016Y-105140866D01*
X52764135Y-105120650D01*
X52719618Y-105069275D01*
X52692568Y-105011267D01*
X52692567Y-105011265D01*
X52688581Y-105005573D01*
X52562047Y-104824861D01*
X52562045Y-104824858D01*
X52401141Y-104663954D01*
X52214734Y-104533432D01*
X52214732Y-104533431D01*
X52008497Y-104437261D01*
X52008488Y-104437258D01*
X51788697Y-104378366D01*
X51788693Y-104378365D01*
X51788692Y-104378365D01*
X51788691Y-104378364D01*
X51788686Y-104378364D01*
X51562002Y-104358532D01*
X51561998Y-104358532D01*
X51335313Y-104378364D01*
X51335302Y-104378366D01*
X51115511Y-104437258D01*
X51115502Y-104437261D01*
X50909267Y-104533431D01*
X50909265Y-104533432D01*
X50722858Y-104663954D01*
X50561954Y-104824858D01*
X50431432Y-105011265D01*
X50431431Y-105011267D01*
X50404382Y-105069275D01*
X50358209Y-105121714D01*
X50291016Y-105140866D01*
X50224135Y-105120650D01*
X50179618Y-105069275D01*
X50152568Y-105011267D01*
X50152567Y-105011265D01*
X50148581Y-105005573D01*
X50022047Y-104824861D01*
X50022045Y-104824858D01*
X49861141Y-104663954D01*
X49674734Y-104533432D01*
X49674732Y-104533431D01*
X49468497Y-104437261D01*
X49468488Y-104437258D01*
X49248697Y-104378366D01*
X49248693Y-104378365D01*
X49248692Y-104378365D01*
X49248691Y-104378364D01*
X49248686Y-104378364D01*
X49022002Y-104358532D01*
X49021998Y-104358532D01*
X48795313Y-104378364D01*
X48795302Y-104378366D01*
X48575511Y-104437258D01*
X48575502Y-104437261D01*
X48369267Y-104533431D01*
X48369265Y-104533432D01*
X48182858Y-104663954D01*
X48021954Y-104824858D01*
X47891432Y-105011265D01*
X47891431Y-105011267D01*
X47864382Y-105069275D01*
X47818209Y-105121714D01*
X47751016Y-105140866D01*
X47684135Y-105120650D01*
X47639618Y-105069275D01*
X47612568Y-105011267D01*
X47612567Y-105011265D01*
X47608581Y-105005573D01*
X47482047Y-104824861D01*
X47482045Y-104824858D01*
X47321141Y-104663954D01*
X47134734Y-104533432D01*
X47134732Y-104533431D01*
X46928497Y-104437261D01*
X46928488Y-104437258D01*
X46708697Y-104378366D01*
X46708693Y-104378365D01*
X46708692Y-104378365D01*
X46708691Y-104378364D01*
X46708686Y-104378364D01*
X46482002Y-104358532D01*
X46481998Y-104358532D01*
X46255313Y-104378364D01*
X46255302Y-104378366D01*
X46035511Y-104437258D01*
X46035502Y-104437261D01*
X45829267Y-104533431D01*
X45829265Y-104533432D01*
X45642858Y-104663954D01*
X45481954Y-104824858D01*
X45351432Y-105011265D01*
X45351431Y-105011267D01*
X45324382Y-105069275D01*
X45278209Y-105121714D01*
X45211016Y-105140866D01*
X45144135Y-105120650D01*
X45099618Y-105069275D01*
X45072568Y-105011267D01*
X45072567Y-105011265D01*
X45068581Y-105005573D01*
X44942047Y-104824861D01*
X44942045Y-104824858D01*
X44781141Y-104663954D01*
X44594734Y-104533432D01*
X44594732Y-104533431D01*
X44388497Y-104437261D01*
X44388488Y-104437258D01*
X44168697Y-104378366D01*
X44168693Y-104378365D01*
X44168692Y-104378365D01*
X44168691Y-104378364D01*
X44168686Y-104378364D01*
X43942002Y-104358532D01*
X43941998Y-104358532D01*
X43715313Y-104378364D01*
X43715302Y-104378366D01*
X43495511Y-104437258D01*
X43495502Y-104437261D01*
X43289267Y-104533431D01*
X43289265Y-104533432D01*
X43102858Y-104663954D01*
X42941954Y-104824858D01*
X42811432Y-105011265D01*
X42811431Y-105011267D01*
X42784382Y-105069275D01*
X42738209Y-105121714D01*
X42671016Y-105140866D01*
X42604135Y-105120650D01*
X42559618Y-105069275D01*
X42532568Y-105011267D01*
X42532567Y-105011265D01*
X42528581Y-105005573D01*
X42402047Y-104824861D01*
X42402045Y-104824858D01*
X42241141Y-104663954D01*
X42054734Y-104533432D01*
X42054732Y-104533431D01*
X41848497Y-104437261D01*
X41848488Y-104437258D01*
X41628697Y-104378366D01*
X41628693Y-104378365D01*
X41628692Y-104378365D01*
X41628691Y-104378364D01*
X41628686Y-104378364D01*
X41402002Y-104358532D01*
X41401998Y-104358532D01*
X41175313Y-104378364D01*
X41175302Y-104378366D01*
X40955511Y-104437258D01*
X40955502Y-104437261D01*
X40749267Y-104533431D01*
X40749265Y-104533432D01*
X40562858Y-104663954D01*
X40401954Y-104824858D01*
X40271432Y-105011265D01*
X40271431Y-105011267D01*
X40175261Y-105217502D01*
X40175258Y-105217511D01*
X40116366Y-105437302D01*
X40116364Y-105437313D01*
X40096532Y-105663998D01*
X40096532Y-105664001D01*
X40116364Y-105890686D01*
X40116366Y-105890697D01*
X40175258Y-106110488D01*
X40175261Y-106110497D01*
X40271431Y-106316732D01*
X40271432Y-106316734D01*
X40401954Y-106503141D01*
X40562858Y-106664045D01*
X40562861Y-106664047D01*
X40749266Y-106794568D01*
X40955504Y-106890739D01*
X41175308Y-106949635D01*
X41337230Y-106963801D01*
X41401998Y-106969468D01*
X41402000Y-106969468D01*
X41402002Y-106969468D01*
X41458673Y-106964509D01*
X41628692Y-106949635D01*
X41848496Y-106890739D01*
X42054734Y-106794568D01*
X42241139Y-106664047D01*
X42402047Y-106503139D01*
X42532568Y-106316734D01*
X42559618Y-106258724D01*
X42605790Y-106206285D01*
X42672983Y-106187133D01*
X42739865Y-106207348D01*
X42784382Y-106258725D01*
X42811429Y-106316728D01*
X42811432Y-106316734D01*
X42941954Y-106503141D01*
X43102858Y-106664045D01*
X43102861Y-106664047D01*
X43289266Y-106794568D01*
X43495504Y-106890739D01*
X43715308Y-106949635D01*
X43877230Y-106963801D01*
X43941998Y-106969468D01*
X43942000Y-106969468D01*
X43942002Y-106969468D01*
X43998673Y-106964509D01*
X44168692Y-106949635D01*
X44388496Y-106890739D01*
X44594734Y-106794568D01*
X44781139Y-106664047D01*
X44942047Y-106503139D01*
X45072568Y-106316734D01*
X45099618Y-106258724D01*
X45145790Y-106206285D01*
X45212983Y-106187133D01*
X45279865Y-106207348D01*
X45324382Y-106258725D01*
X45351429Y-106316728D01*
X45351432Y-106316734D01*
X45481954Y-106503141D01*
X45642858Y-106664045D01*
X45642861Y-106664047D01*
X45829266Y-106794568D01*
X46035504Y-106890739D01*
X46255308Y-106949635D01*
X46417230Y-106963801D01*
X46481998Y-106969468D01*
X46482000Y-106969468D01*
X46482002Y-106969468D01*
X46538673Y-106964509D01*
X46708692Y-106949635D01*
X46928496Y-106890739D01*
X47134734Y-106794568D01*
X47321139Y-106664047D01*
X47482047Y-106503139D01*
X47612568Y-106316734D01*
X47639618Y-106258724D01*
X47685790Y-106206285D01*
X47752983Y-106187133D01*
X47819865Y-106207348D01*
X47864382Y-106258725D01*
X47891429Y-106316728D01*
X47891432Y-106316734D01*
X48021954Y-106503141D01*
X48182858Y-106664045D01*
X48182861Y-106664047D01*
X48369266Y-106794568D01*
X48575504Y-106890739D01*
X48795308Y-106949635D01*
X48957230Y-106963801D01*
X49021998Y-106969468D01*
X49022000Y-106969468D01*
X49022002Y-106969468D01*
X49078673Y-106964509D01*
X49248692Y-106949635D01*
X49468496Y-106890739D01*
X49674734Y-106794568D01*
X49861139Y-106664047D01*
X50022047Y-106503139D01*
X50152568Y-106316734D01*
X50179618Y-106258724D01*
X50225790Y-106206285D01*
X50292983Y-106187133D01*
X50359865Y-106207348D01*
X50404382Y-106258725D01*
X50431429Y-106316728D01*
X50431432Y-106316734D01*
X50561954Y-106503141D01*
X50722858Y-106664045D01*
X50722861Y-106664047D01*
X50909266Y-106794568D01*
X51115504Y-106890739D01*
X51335308Y-106949635D01*
X51497230Y-106963801D01*
X51561998Y-106969468D01*
X51562000Y-106969468D01*
X51562002Y-106969468D01*
X51618673Y-106964509D01*
X51788692Y-106949635D01*
X52008496Y-106890739D01*
X52214734Y-106794568D01*
X52401139Y-106664047D01*
X52562047Y-106503139D01*
X52692568Y-106316734D01*
X52719618Y-106258724D01*
X52765790Y-106206285D01*
X52832983Y-106187133D01*
X52899865Y-106207348D01*
X52944382Y-106258725D01*
X52971429Y-106316728D01*
X52971432Y-106316734D01*
X53101954Y-106503141D01*
X53262858Y-106664045D01*
X53262861Y-106664047D01*
X53449266Y-106794568D01*
X53655504Y-106890739D01*
X53875308Y-106949635D01*
X54037230Y-106963801D01*
X54101998Y-106969468D01*
X54102000Y-106969468D01*
X54102002Y-106969468D01*
X54158673Y-106964509D01*
X54328692Y-106949635D01*
X54548496Y-106890739D01*
X54754734Y-106794568D01*
X54941139Y-106664047D01*
X55102047Y-106503139D01*
X55232568Y-106316734D01*
X55259618Y-106258724D01*
X55305790Y-106206285D01*
X55372983Y-106187133D01*
X55439865Y-106207348D01*
X55484382Y-106258725D01*
X55511429Y-106316728D01*
X55511432Y-106316734D01*
X55641954Y-106503141D01*
X55802858Y-106664045D01*
X55802861Y-106664047D01*
X55989266Y-106794568D01*
X56195504Y-106890739D01*
X56415308Y-106949635D01*
X56577230Y-106963801D01*
X56641998Y-106969468D01*
X56642000Y-106969468D01*
X56642002Y-106969468D01*
X56698673Y-106964509D01*
X56868692Y-106949635D01*
X57088496Y-106890739D01*
X57294734Y-106794568D01*
X57481139Y-106664047D01*
X57642047Y-106503139D01*
X57772568Y-106316734D01*
X57799618Y-106258724D01*
X57845790Y-106206285D01*
X57912983Y-106187133D01*
X57979865Y-106207348D01*
X58024382Y-106258725D01*
X58051429Y-106316728D01*
X58051432Y-106316734D01*
X58181954Y-106503141D01*
X58342858Y-106664045D01*
X58342861Y-106664047D01*
X58529266Y-106794568D01*
X58735504Y-106890739D01*
X58955308Y-106949635D01*
X59117230Y-106963801D01*
X59181998Y-106969468D01*
X59182000Y-106969468D01*
X59182002Y-106969468D01*
X59238673Y-106964509D01*
X59408692Y-106949635D01*
X59628496Y-106890739D01*
X59834734Y-106794568D01*
X60021139Y-106664047D01*
X60182047Y-106503139D01*
X60312568Y-106316734D01*
X60339618Y-106258724D01*
X60385790Y-106206285D01*
X60452983Y-106187133D01*
X60519865Y-106207348D01*
X60564382Y-106258725D01*
X60591429Y-106316728D01*
X60591432Y-106316734D01*
X60721954Y-106503141D01*
X60882858Y-106664045D01*
X60882861Y-106664047D01*
X61069266Y-106794568D01*
X61275504Y-106890739D01*
X61495308Y-106949635D01*
X61657230Y-106963801D01*
X61721998Y-106969468D01*
X61722000Y-106969468D01*
X61722002Y-106969468D01*
X61778673Y-106964509D01*
X61948692Y-106949635D01*
X62168496Y-106890739D01*
X62374734Y-106794568D01*
X62561139Y-106664047D01*
X62722047Y-106503139D01*
X62852568Y-106316734D01*
X62879618Y-106258724D01*
X62925790Y-106206285D01*
X62992983Y-106187133D01*
X63059865Y-106207348D01*
X63104382Y-106258725D01*
X63131429Y-106316728D01*
X63131432Y-106316734D01*
X63261954Y-106503141D01*
X63422858Y-106664045D01*
X63422861Y-106664047D01*
X63609266Y-106794568D01*
X63815504Y-106890739D01*
X64035308Y-106949635D01*
X64197230Y-106963801D01*
X64261998Y-106969468D01*
X64262000Y-106969468D01*
X64262002Y-106969468D01*
X64318673Y-106964509D01*
X64488692Y-106949635D01*
X64708496Y-106890739D01*
X64914734Y-106794568D01*
X65101139Y-106664047D01*
X65262047Y-106503139D01*
X65392568Y-106316734D01*
X65419618Y-106258724D01*
X65465790Y-106206285D01*
X65532983Y-106187133D01*
X65599865Y-106207348D01*
X65644382Y-106258725D01*
X65671429Y-106316728D01*
X65671432Y-106316734D01*
X65801954Y-106503141D01*
X65962858Y-106664045D01*
X65962861Y-106664047D01*
X66149266Y-106794568D01*
X66355504Y-106890739D01*
X66575308Y-106949635D01*
X66737230Y-106963801D01*
X66801998Y-106969468D01*
X66802000Y-106969468D01*
X66802002Y-106969468D01*
X66858673Y-106964509D01*
X67028692Y-106949635D01*
X67248496Y-106890739D01*
X67454734Y-106794568D01*
X67641139Y-106664047D01*
X67771793Y-106533392D01*
X67833114Y-106499909D01*
X67902806Y-106504893D01*
X67958740Y-106546764D01*
X67969958Y-106564780D01*
X68058657Y-106738862D01*
X68197483Y-106929938D01*
X70076062Y-108808517D01*
X70267138Y-108947343D01*
X70328321Y-108978517D01*
X70477575Y-109054566D01*
X70477577Y-109054566D01*
X70477580Y-109054568D01*
X70597984Y-109093689D01*
X70702203Y-109127553D01*
X70935475Y-109164500D01*
X70935480Y-109164500D01*
X75487500Y-109164500D01*
X75554539Y-109184185D01*
X75600294Y-109236989D01*
X75611500Y-109288500D01*
X75611500Y-111671614D01*
X75611028Y-111682420D01*
X75606341Y-111735997D01*
X75606341Y-111736001D01*
X75611028Y-111789578D01*
X75611500Y-111800385D01*
X75611501Y-112633862D01*
X75611501Y-112633876D01*
X75617908Y-112693483D01*
X75668202Y-112828328D01*
X75668206Y-112828335D01*
X75754452Y-112943544D01*
X75754455Y-112943547D01*
X75869664Y-113029793D01*
X75869671Y-113029797D01*
X76004517Y-113080091D01*
X76004516Y-113080091D01*
X76011444Y-113080835D01*
X76064127Y-113086500D01*
X76897613Y-113086499D01*
X76908422Y-113086971D01*
X76962000Y-113091659D01*
X77015578Y-113086971D01*
X77026387Y-113086499D01*
X77859871Y-113086499D01*
X77859872Y-113086499D01*
X77919483Y-113080091D01*
X78054331Y-113029796D01*
X78169546Y-112943546D01*
X78255796Y-112828331D01*
X78306091Y-112693483D01*
X78312500Y-112633873D01*
X78312499Y-111800381D01*
X78312971Y-111789572D01*
X78317659Y-111736000D01*
X78312971Y-111682420D01*
X78312499Y-111671615D01*
X78312499Y-109288500D01*
X78332184Y-109221461D01*
X78384988Y-109175706D01*
X78436499Y-109164500D01*
X80567500Y-109164500D01*
X80634539Y-109184185D01*
X80680294Y-109236989D01*
X80691500Y-109288500D01*
X80691500Y-111671614D01*
X80691028Y-111682420D01*
X80686341Y-111735997D01*
X80686341Y-111736001D01*
X80691028Y-111789578D01*
X80691500Y-111800385D01*
X80691501Y-112633862D01*
X80691501Y-112633876D01*
X80697908Y-112693483D01*
X80748202Y-112828328D01*
X80748206Y-112828335D01*
X80834452Y-112943544D01*
X80834455Y-112943547D01*
X80949664Y-113029793D01*
X80949671Y-113029797D01*
X81084517Y-113080091D01*
X81084516Y-113080091D01*
X81091444Y-113080835D01*
X81144127Y-113086500D01*
X81977613Y-113086499D01*
X81988422Y-113086971D01*
X82042000Y-113091659D01*
X82095578Y-113086971D01*
X82106387Y-113086499D01*
X82939871Y-113086499D01*
X82939872Y-113086499D01*
X82999483Y-113080091D01*
X83134331Y-113029796D01*
X83249546Y-112943546D01*
X83335796Y-112828331D01*
X83386091Y-112693483D01*
X83392500Y-112633873D01*
X83392499Y-111800381D01*
X83392971Y-111789572D01*
X83397659Y-111736000D01*
X83392971Y-111682420D01*
X83392499Y-111671615D01*
X83392499Y-109038129D01*
X83392498Y-109038123D01*
X83386091Y-108978516D01*
X83335797Y-108843671D01*
X83335793Y-108843664D01*
X83249547Y-108728455D01*
X83249544Y-108728452D01*
X83134335Y-108642206D01*
X83134328Y-108642202D01*
X82999482Y-108591908D01*
X82999483Y-108591908D01*
X82939883Y-108585501D01*
X82939881Y-108585500D01*
X82939873Y-108585500D01*
X82939865Y-108585500D01*
X82706750Y-108585500D01*
X82639711Y-108565815D01*
X82593956Y-108513011D01*
X82584012Y-108443853D01*
X82613037Y-108380297D01*
X82619069Y-108373819D01*
X87191819Y-103801069D01*
X87253142Y-103767584D01*
X87322834Y-103772568D01*
X87378767Y-103814440D01*
X87403184Y-103879904D01*
X87403500Y-103888750D01*
X87403500Y-104003270D01*
X87383815Y-104070309D01*
X87367181Y-104090951D01*
X86278796Y-105179336D01*
X83999050Y-107459080D01*
X83999044Y-107459088D01*
X83949812Y-107532768D01*
X83949813Y-107532769D01*
X83916921Y-107581996D01*
X83916914Y-107582008D01*
X83860342Y-107718586D01*
X83860340Y-107718592D01*
X83831500Y-107863579D01*
X83831500Y-144912500D01*
X83811815Y-144979539D01*
X83759011Y-145025294D01*
X83707500Y-145036500D01*
X81138500Y-145036500D01*
X81071461Y-145016815D01*
X81025706Y-144964011D01*
X81014500Y-144912500D01*
X81014500Y-121084079D01*
X80985659Y-120939092D01*
X80985658Y-120939091D01*
X80985658Y-120939087D01*
X80939173Y-120826861D01*
X80929087Y-120802511D01*
X80929080Y-120802498D01*
X80846952Y-120679585D01*
X80796548Y-120629181D01*
X80742416Y-120575049D01*
X71998818Y-111831450D01*
X71965333Y-111770127D01*
X71962499Y-111743769D01*
X71962499Y-111570385D01*
X71962971Y-111559576D01*
X71967659Y-111506000D01*
X71967659Y-111505999D01*
X71962971Y-111452421D01*
X71962499Y-111441613D01*
X71962499Y-110608129D01*
X71962498Y-110608123D01*
X71962497Y-110608116D01*
X71956091Y-110548517D01*
X71937286Y-110498099D01*
X71905797Y-110413671D01*
X71905793Y-110413664D01*
X71819547Y-110298455D01*
X71819544Y-110298452D01*
X71704335Y-110212206D01*
X71704328Y-110212202D01*
X71569482Y-110161908D01*
X71569483Y-110161908D01*
X71509883Y-110155501D01*
X71509881Y-110155500D01*
X71509873Y-110155500D01*
X71509865Y-110155500D01*
X70676380Y-110155500D01*
X70665573Y-110155028D01*
X70639024Y-110152705D01*
X70612001Y-110150341D01*
X70611998Y-110150341D01*
X70558424Y-110155028D01*
X70547617Y-110155500D01*
X67914129Y-110155500D01*
X67914123Y-110155501D01*
X67854516Y-110161908D01*
X67719671Y-110212202D01*
X67719664Y-110212206D01*
X67604455Y-110298452D01*
X67604452Y-110298455D01*
X67518206Y-110413664D01*
X67518202Y-110413671D01*
X67467908Y-110548517D01*
X67461501Y-110608116D01*
X67461501Y-110608123D01*
X67461500Y-110608135D01*
X67461500Y-112088693D01*
X67441815Y-112155732D01*
X67389011Y-112201487D01*
X67319853Y-112211431D01*
X67268610Y-112191796D01*
X67219128Y-112158734D01*
X67214635Y-112155732D01*
X67177495Y-112130916D01*
X67177492Y-112130914D01*
X67177491Y-112130914D01*
X67040917Y-112074343D01*
X67040907Y-112074340D01*
X66895920Y-112045500D01*
X66895918Y-112045500D01*
X55425918Y-112045500D01*
X55278083Y-112045500D01*
X55278081Y-112045500D01*
X55133093Y-112074340D01*
X55133083Y-112074343D01*
X54996512Y-112130912D01*
X54996499Y-112130919D01*
X54873585Y-112213048D01*
X54873581Y-112213051D01*
X51487052Y-115599579D01*
X51487049Y-115599582D01*
X51442694Y-115665964D01*
X51442695Y-115665965D01*
X51404914Y-115722509D01*
X51348343Y-115859083D01*
X51348340Y-115859093D01*
X51319500Y-116004080D01*
X51319500Y-164727536D01*
X51299815Y-164794575D01*
X51283181Y-164815217D01*
X49842476Y-166255921D01*
X49781153Y-166289406D01*
X49711461Y-166284422D01*
X49655528Y-166242550D01*
X49647803Y-166229652D01*
X49647276Y-166229957D01*
X49644567Y-166225265D01*
X49514045Y-166038858D01*
X49353141Y-165877954D01*
X49166734Y-165747432D01*
X49166728Y-165747429D01*
X49108725Y-165720382D01*
X49056285Y-165674210D01*
X49037133Y-165607017D01*
X49057348Y-165540135D01*
X49108725Y-165495618D01*
X49166734Y-165468568D01*
X49353139Y-165338047D01*
X49514047Y-165177139D01*
X49644568Y-164990734D01*
X49740739Y-164784496D01*
X49799635Y-164564692D01*
X49819468Y-164338000D01*
X49799635Y-164111308D01*
X49740739Y-163891504D01*
X49644568Y-163685266D01*
X49514047Y-163498861D01*
X49514045Y-163498858D01*
X49353141Y-163337954D01*
X49166734Y-163207432D01*
X49166728Y-163207429D01*
X49108725Y-163180382D01*
X49056285Y-163134210D01*
X49037133Y-163067017D01*
X49057348Y-163000135D01*
X49108725Y-162955618D01*
X49166734Y-162928568D01*
X49353139Y-162798047D01*
X49514047Y-162637139D01*
X49644568Y-162450734D01*
X49740739Y-162244496D01*
X49799635Y-162024692D01*
X49819468Y-161798000D01*
X49799635Y-161571308D01*
X49740739Y-161351504D01*
X49644568Y-161145266D01*
X49524330Y-160973547D01*
X49514045Y-160958858D01*
X49353141Y-160797954D01*
X49166734Y-160667432D01*
X49166728Y-160667429D01*
X49108725Y-160640382D01*
X49056285Y-160594210D01*
X49037133Y-160527017D01*
X49057348Y-160460135D01*
X49108725Y-160415618D01*
X49166734Y-160388568D01*
X49353139Y-160258047D01*
X49514047Y-160097139D01*
X49644568Y-159910734D01*
X49740739Y-159704496D01*
X49799635Y-159484692D01*
X49819468Y-159258000D01*
X49799635Y-159031308D01*
X49740739Y-158811504D01*
X49644568Y-158605266D01*
X49526450Y-158436575D01*
X49514045Y-158418858D01*
X49353141Y-158257954D01*
X49166734Y-158127432D01*
X49166728Y-158127429D01*
X49108725Y-158100382D01*
X49056285Y-158054210D01*
X49037133Y-157987017D01*
X49057348Y-157920135D01*
X49108725Y-157875618D01*
X49166734Y-157848568D01*
X49353139Y-157718047D01*
X49514047Y-157557139D01*
X49644568Y-157370734D01*
X49740739Y-157164496D01*
X49799635Y-156944692D01*
X49819468Y-156718000D01*
X49799635Y-156491308D01*
X49740739Y-156271504D01*
X49644568Y-156065266D01*
X49514047Y-155878861D01*
X49514045Y-155878858D01*
X49353141Y-155717954D01*
X49166734Y-155587432D01*
X49166728Y-155587429D01*
X49108725Y-155560382D01*
X49056285Y-155514210D01*
X49037133Y-155447017D01*
X49057348Y-155380135D01*
X49108725Y-155335618D01*
X49121011Y-155329889D01*
X49166734Y-155308568D01*
X49353139Y-155178047D01*
X49514047Y-155017139D01*
X49644568Y-154830734D01*
X49740739Y-154624496D01*
X49799635Y-154404692D01*
X49819468Y-154178000D01*
X49817559Y-154156185D01*
X49799635Y-153951313D01*
X49799635Y-153951308D01*
X49740739Y-153731504D01*
X49644568Y-153525266D01*
X49524330Y-153353547D01*
X49514045Y-153338858D01*
X49353141Y-153177954D01*
X49166734Y-153047432D01*
X49166732Y-153047431D01*
X48960497Y-152951261D01*
X48960488Y-152951258D01*
X48740697Y-152892366D01*
X48740693Y-152892365D01*
X48740692Y-152892365D01*
X48740691Y-152892364D01*
X48740686Y-152892364D01*
X48514002Y-152872532D01*
X48513998Y-152872532D01*
X48287313Y-152892364D01*
X48287302Y-152892366D01*
X48067511Y-152951258D01*
X48067502Y-152951261D01*
X47861267Y-153047431D01*
X47861265Y-153047432D01*
X47674858Y-153177954D01*
X47513954Y-153338858D01*
X47383432Y-153525265D01*
X47383431Y-153525267D01*
X47287261Y-153731502D01*
X47287258Y-153731511D01*
X47228366Y-153951302D01*
X47228364Y-153951313D01*
X47208532Y-154177998D01*
X47208532Y-154178001D01*
X47228364Y-154404686D01*
X47228366Y-154404697D01*
X47287258Y-154624488D01*
X47287261Y-154624497D01*
X47383431Y-154830732D01*
X47383432Y-154830734D01*
X47513954Y-155017141D01*
X47674858Y-155178045D01*
X47674861Y-155178047D01*
X47861266Y-155308568D01*
X47906989Y-155329889D01*
X47919275Y-155335618D01*
X47971714Y-155381791D01*
X47990866Y-155448984D01*
X47970650Y-155515865D01*
X47919275Y-155560382D01*
X47861267Y-155587431D01*
X47861265Y-155587432D01*
X47779902Y-155644403D01*
X47714069Y-155690500D01*
X47707535Y-155695075D01*
X47641329Y-155717402D01*
X47636412Y-155717500D01*
X43645782Y-155717500D01*
X43578743Y-155697815D01*
X43558101Y-155681181D01*
X40243890Y-152366970D01*
X40210405Y-152305647D01*
X40208043Y-152290096D01*
X40201069Y-152210385D01*
X40197063Y-152164592D01*
X40135903Y-151936337D01*
X40036035Y-151722171D01*
X39995536Y-151664331D01*
X39900494Y-151528597D01*
X39733402Y-151361506D01*
X39733396Y-151361501D01*
X39547842Y-151231575D01*
X39504217Y-151176998D01*
X39497023Y-151107500D01*
X39528546Y-151045145D01*
X39547842Y-151028425D01*
X39570026Y-151012891D01*
X39733401Y-150898495D01*
X39900495Y-150731401D01*
X40036035Y-150537830D01*
X40135903Y-150323663D01*
X40197063Y-150095408D01*
X40217659Y-149860000D01*
X40197063Y-149624592D01*
X40135903Y-149396337D01*
X40036035Y-149182171D01*
X40007603Y-149141565D01*
X39900494Y-148988597D01*
X39733402Y-148821506D01*
X39733396Y-148821501D01*
X39547842Y-148691575D01*
X39504217Y-148636998D01*
X39497023Y-148567500D01*
X39528546Y-148505145D01*
X39547842Y-148488425D01*
X39570026Y-148472891D01*
X39733401Y-148358495D01*
X39900495Y-148191401D01*
X40036035Y-147997830D01*
X40135903Y-147783663D01*
X40146848Y-147742811D01*
X40183211Y-147683153D01*
X40246057Y-147652622D01*
X40315432Y-147660915D01*
X40354304Y-147687224D01*
X41383735Y-148716655D01*
X41383764Y-148716686D01*
X41526214Y-148859136D01*
X41526218Y-148859139D01*
X41690079Y-148968628D01*
X41690092Y-148968635D01*
X41818833Y-149021961D01*
X41872159Y-149044049D01*
X41872164Y-149044051D01*
X41940571Y-149057658D01*
X41961334Y-149061788D01*
X42065456Y-149082500D01*
X42065459Y-149082500D01*
X42065460Y-149082500D01*
X42262540Y-149082500D01*
X47636412Y-149082500D01*
X47703451Y-149102185D01*
X47707523Y-149104917D01*
X47861266Y-149212568D01*
X47884384Y-149223348D01*
X47919275Y-149239618D01*
X47971714Y-149285791D01*
X47990866Y-149352984D01*
X47970650Y-149419865D01*
X47919275Y-149464381D01*
X47919118Y-149464455D01*
X47861267Y-149491431D01*
X47861265Y-149491432D01*
X47674858Y-149621954D01*
X47513954Y-149782858D01*
X47383432Y-149969265D01*
X47383431Y-149969267D01*
X47287261Y-150175502D01*
X47287258Y-150175511D01*
X47228366Y-150395302D01*
X47228364Y-150395313D01*
X47208532Y-150621998D01*
X47208532Y-150622001D01*
X47228364Y-150848686D01*
X47228366Y-150848697D01*
X47287258Y-151068488D01*
X47287261Y-151068497D01*
X47383431Y-151274732D01*
X47383432Y-151274734D01*
X47513954Y-151461141D01*
X47674858Y-151622045D01*
X47674861Y-151622047D01*
X47861266Y-151752568D01*
X48067504Y-151848739D01*
X48287308Y-151907635D01*
X48449230Y-151921801D01*
X48513998Y-151927468D01*
X48514000Y-151927468D01*
X48514002Y-151927468D01*
X48570807Y-151922498D01*
X48740692Y-151907635D01*
X48960496Y-151848739D01*
X49166734Y-151752568D01*
X49353139Y-151622047D01*
X49514047Y-151461139D01*
X49644568Y-151274734D01*
X49740739Y-151068496D01*
X49799635Y-150848692D01*
X49819468Y-150622000D01*
X49799635Y-150395308D01*
X49740739Y-150175504D01*
X49644568Y-149969266D01*
X49514047Y-149782861D01*
X49514045Y-149782858D01*
X49353141Y-149621954D01*
X49166734Y-149491432D01*
X49166728Y-149491429D01*
X49108882Y-149464455D01*
X49108724Y-149464381D01*
X49056285Y-149418210D01*
X49037133Y-149351017D01*
X49057348Y-149284135D01*
X49108725Y-149239618D01*
X49166734Y-149212568D01*
X49353139Y-149082047D01*
X49514047Y-148921139D01*
X49644568Y-148734734D01*
X49740739Y-148528496D01*
X49799635Y-148308692D01*
X49819468Y-148082000D01*
X49799635Y-147855308D01*
X49740739Y-147635504D01*
X49644568Y-147429266D01*
X49514047Y-147242861D01*
X49514045Y-147242858D01*
X49353141Y-147081954D01*
X49166734Y-146951432D01*
X49166728Y-146951429D01*
X49108725Y-146924382D01*
X49056285Y-146878210D01*
X49037133Y-146811017D01*
X49057348Y-146744135D01*
X49108725Y-146699618D01*
X49166734Y-146672568D01*
X49353139Y-146542047D01*
X49514047Y-146381139D01*
X49644568Y-146194734D01*
X49740739Y-145988496D01*
X49799635Y-145768692D01*
X49819468Y-145542000D01*
X49799635Y-145315308D01*
X49740739Y-145095504D01*
X49644568Y-144889266D01*
X49514047Y-144702861D01*
X49514045Y-144702858D01*
X49353141Y-144541954D01*
X49166734Y-144411432D01*
X49166728Y-144411429D01*
X49108725Y-144384382D01*
X49056285Y-144338210D01*
X49037133Y-144271017D01*
X49057348Y-144204135D01*
X49108725Y-144159618D01*
X49166734Y-144132568D01*
X49353139Y-144002047D01*
X49514047Y-143841139D01*
X49644568Y-143654734D01*
X49740739Y-143448496D01*
X49799635Y-143228692D01*
X49819468Y-143002000D01*
X49799635Y-142775308D01*
X49740739Y-142555504D01*
X49644568Y-142349266D01*
X49514047Y-142162861D01*
X49514045Y-142162858D01*
X49353141Y-142001954D01*
X49166734Y-141871432D01*
X49166728Y-141871429D01*
X49108725Y-141844382D01*
X49056285Y-141798210D01*
X49037133Y-141731017D01*
X49057348Y-141664135D01*
X49108725Y-141619618D01*
X49166734Y-141592568D01*
X49353139Y-141462047D01*
X49514047Y-141301139D01*
X49644568Y-141114734D01*
X49740739Y-140908496D01*
X49799635Y-140688692D01*
X49819468Y-140462000D01*
X49799635Y-140235308D01*
X49740739Y-140015504D01*
X49644568Y-139809266D01*
X49514047Y-139622861D01*
X49514045Y-139622858D01*
X49353141Y-139461954D01*
X49166734Y-139331432D01*
X49166728Y-139331429D01*
X49108725Y-139304382D01*
X49056285Y-139258210D01*
X49037133Y-139191017D01*
X49057348Y-139124135D01*
X49108725Y-139079618D01*
X49166734Y-139052568D01*
X49353139Y-138922047D01*
X49514047Y-138761139D01*
X49644568Y-138574734D01*
X49740739Y-138368496D01*
X49799635Y-138148692D01*
X49819468Y-137922000D01*
X49799635Y-137695308D01*
X49740739Y-137475504D01*
X49644568Y-137269266D01*
X49514047Y-137082861D01*
X49514045Y-137082858D01*
X49353141Y-136921954D01*
X49166734Y-136791432D01*
X49166728Y-136791429D01*
X49108725Y-136764382D01*
X49056285Y-136718210D01*
X49037133Y-136651017D01*
X49057348Y-136584135D01*
X49108725Y-136539618D01*
X49166734Y-136512568D01*
X49353139Y-136382047D01*
X49514047Y-136221139D01*
X49644568Y-136034734D01*
X49740739Y-135828496D01*
X49799635Y-135608692D01*
X49819468Y-135382000D01*
X49799635Y-135155308D01*
X49740739Y-134935504D01*
X49644568Y-134729266D01*
X49514047Y-134542861D01*
X49514045Y-134542858D01*
X49353141Y-134381954D01*
X49166734Y-134251432D01*
X49166728Y-134251429D01*
X49108725Y-134224382D01*
X49056285Y-134178210D01*
X49037133Y-134111017D01*
X49057348Y-134044135D01*
X49108725Y-133999618D01*
X49166734Y-133972568D01*
X49353139Y-133842047D01*
X49514047Y-133681139D01*
X49644568Y-133494734D01*
X49740739Y-133288496D01*
X49799635Y-133068692D01*
X49819468Y-132842000D01*
X49799635Y-132615308D01*
X49740739Y-132395504D01*
X49644568Y-132189266D01*
X49514047Y-132002861D01*
X49514045Y-132002858D01*
X49353141Y-131841954D01*
X49166734Y-131711432D01*
X49166732Y-131711431D01*
X48960497Y-131615261D01*
X48960488Y-131615258D01*
X48740697Y-131556366D01*
X48740693Y-131556365D01*
X48740692Y-131556365D01*
X48740691Y-131556364D01*
X48740686Y-131556364D01*
X48514002Y-131536532D01*
X48513998Y-131536532D01*
X48287313Y-131556364D01*
X48287302Y-131556366D01*
X48067511Y-131615258D01*
X48067502Y-131615261D01*
X47861267Y-131711431D01*
X47861265Y-131711432D01*
X47674858Y-131841954D01*
X47513954Y-132002858D01*
X47383432Y-132189265D01*
X47383431Y-132189267D01*
X47287261Y-132395502D01*
X47287258Y-132395511D01*
X47228366Y-132615302D01*
X47228364Y-132615313D01*
X47208532Y-132841998D01*
X47208532Y-132842001D01*
X47228364Y-133068686D01*
X47228366Y-133068697D01*
X47287258Y-133288488D01*
X47287261Y-133288497D01*
X47383431Y-133494732D01*
X47383432Y-133494734D01*
X47513954Y-133681141D01*
X47674858Y-133842045D01*
X47674861Y-133842047D01*
X47861266Y-133972568D01*
X47919275Y-133999618D01*
X47971714Y-134045791D01*
X47990866Y-134112984D01*
X47970650Y-134179865D01*
X47919275Y-134224382D01*
X47861267Y-134251431D01*
X47861265Y-134251432D01*
X47789599Y-134301613D01*
X47727378Y-134345181D01*
X47707535Y-134359075D01*
X47641329Y-134381402D01*
X47636412Y-134381500D01*
X42629782Y-134381500D01*
X42562743Y-134361815D01*
X42542101Y-134345181D01*
X40243890Y-132046970D01*
X40210405Y-131985647D01*
X40208043Y-131970096D01*
X40201069Y-131890385D01*
X40197063Y-131844592D01*
X40135903Y-131616337D01*
X40036035Y-131402171D01*
X39912330Y-131225500D01*
X39900494Y-131208597D01*
X39733402Y-131041506D01*
X39733396Y-131041501D01*
X39547842Y-130911575D01*
X39504217Y-130856998D01*
X39497023Y-130787500D01*
X39528546Y-130725145D01*
X39547842Y-130708425D01*
X39676332Y-130618455D01*
X39733401Y-130578495D01*
X39900495Y-130411401D01*
X40036035Y-130217830D01*
X40135903Y-130003663D01*
X40197063Y-129775408D01*
X40217659Y-129540000D01*
X40197063Y-129304592D01*
X40135903Y-129076337D01*
X40036035Y-128862171D01*
X40020169Y-128839511D01*
X39900494Y-128668597D01*
X39733402Y-128501506D01*
X39733396Y-128501501D01*
X39547842Y-128371575D01*
X39504217Y-128316998D01*
X39497023Y-128247500D01*
X39528546Y-128185145D01*
X39547842Y-128168425D01*
X39605029Y-128128382D01*
X39733401Y-128038495D01*
X39900495Y-127871401D01*
X40036035Y-127677830D01*
X40135903Y-127463663D01*
X40146848Y-127422811D01*
X40183211Y-127363153D01*
X40246057Y-127332622D01*
X40315432Y-127340915D01*
X40354304Y-127367224D01*
X40367735Y-127380655D01*
X40367764Y-127380686D01*
X40510214Y-127523136D01*
X40510218Y-127523139D01*
X40674079Y-127632628D01*
X40674092Y-127632635D01*
X40802833Y-127685961D01*
X40845133Y-127703482D01*
X40856164Y-127708051D01*
X40904507Y-127717667D01*
X40940745Y-127724875D01*
X41049456Y-127746500D01*
X41049459Y-127746500D01*
X41049460Y-127746500D01*
X41246540Y-127746500D01*
X47636412Y-127746500D01*
X47703451Y-127766185D01*
X47707523Y-127768917D01*
X47861266Y-127876568D01*
X47884384Y-127887348D01*
X47919275Y-127903618D01*
X47971714Y-127949791D01*
X47990866Y-128016984D01*
X47970650Y-128083865D01*
X47919275Y-128128381D01*
X47919118Y-128128455D01*
X47861267Y-128155431D01*
X47861265Y-128155432D01*
X47674858Y-128285954D01*
X47513954Y-128446858D01*
X47383432Y-128633265D01*
X47383431Y-128633267D01*
X47287261Y-128839502D01*
X47287258Y-128839511D01*
X47228366Y-129059302D01*
X47228364Y-129059313D01*
X47208532Y-129285998D01*
X47208532Y-129286001D01*
X47228364Y-129512686D01*
X47228366Y-129512697D01*
X47287258Y-129732488D01*
X47287261Y-129732497D01*
X47383431Y-129938732D01*
X47383432Y-129938734D01*
X47513954Y-130125141D01*
X47674858Y-130286045D01*
X47674861Y-130286047D01*
X47861266Y-130416568D01*
X48067504Y-130512739D01*
X48287308Y-130571635D01*
X48449230Y-130585801D01*
X48513998Y-130591468D01*
X48514000Y-130591468D01*
X48514002Y-130591468D01*
X48570807Y-130586498D01*
X48740692Y-130571635D01*
X48960496Y-130512739D01*
X49166734Y-130416568D01*
X49353139Y-130286047D01*
X49514047Y-130125139D01*
X49644568Y-129938734D01*
X49740739Y-129732496D01*
X49799635Y-129512692D01*
X49819468Y-129286000D01*
X49799635Y-129059308D01*
X49740739Y-128839504D01*
X49644568Y-128633266D01*
X49514047Y-128446861D01*
X49514045Y-128446858D01*
X49353141Y-128285954D01*
X49166734Y-128155432D01*
X49166728Y-128155429D01*
X49108882Y-128128455D01*
X49108724Y-128128381D01*
X49056285Y-128082210D01*
X49037133Y-128015017D01*
X49057348Y-127948135D01*
X49108725Y-127903618D01*
X49166734Y-127876568D01*
X49353139Y-127746047D01*
X49514047Y-127585139D01*
X49644568Y-127398734D01*
X49740739Y-127192496D01*
X49799635Y-126972692D01*
X49819468Y-126746000D01*
X49799635Y-126519308D01*
X49740739Y-126299504D01*
X49644568Y-126093266D01*
X49514047Y-125906861D01*
X49514045Y-125906858D01*
X49353141Y-125745954D01*
X49166734Y-125615432D01*
X49166728Y-125615429D01*
X49108725Y-125588382D01*
X49056285Y-125542210D01*
X49037133Y-125475017D01*
X49057348Y-125408135D01*
X49108725Y-125363618D01*
X49166734Y-125336568D01*
X49353139Y-125206047D01*
X49514047Y-125045139D01*
X49644568Y-124858734D01*
X49740739Y-124652496D01*
X49799635Y-124432692D01*
X49819468Y-124206000D01*
X49799635Y-123979308D01*
X49740739Y-123759504D01*
X49644568Y-123553266D01*
X49514047Y-123366861D01*
X49514045Y-123366858D01*
X49353141Y-123205954D01*
X49166734Y-123075432D01*
X49166728Y-123075429D01*
X49108725Y-123048382D01*
X49056285Y-123002210D01*
X49037133Y-122935017D01*
X49057348Y-122868135D01*
X49108725Y-122823618D01*
X49166734Y-122796568D01*
X49353139Y-122666047D01*
X49514047Y-122505139D01*
X49644568Y-122318734D01*
X49740739Y-122112496D01*
X49799635Y-121892692D01*
X49819468Y-121666000D01*
X49799635Y-121439308D01*
X49740739Y-121219504D01*
X49644568Y-121013266D01*
X49514047Y-120826861D01*
X49514045Y-120826858D01*
X49353141Y-120665954D01*
X49166734Y-120535432D01*
X49166728Y-120535429D01*
X49108725Y-120508382D01*
X49056285Y-120462210D01*
X49037133Y-120395017D01*
X49057348Y-120328135D01*
X49108725Y-120283618D01*
X49166734Y-120256568D01*
X49353139Y-120126047D01*
X49514047Y-119965139D01*
X49644568Y-119778734D01*
X49740739Y-119572496D01*
X49799635Y-119352692D01*
X49819468Y-119126000D01*
X49799635Y-118899308D01*
X49740739Y-118679504D01*
X49644568Y-118473266D01*
X49514047Y-118286861D01*
X49514045Y-118286858D01*
X49353141Y-118125954D01*
X49166734Y-117995432D01*
X49166728Y-117995429D01*
X49108725Y-117968382D01*
X49056285Y-117922210D01*
X49037133Y-117855017D01*
X49057348Y-117788135D01*
X49108725Y-117743618D01*
X49166734Y-117716568D01*
X49353139Y-117586047D01*
X49514047Y-117425139D01*
X49644568Y-117238734D01*
X49740739Y-117032496D01*
X49799635Y-116812692D01*
X49819468Y-116586000D01*
X49799635Y-116359308D01*
X49740739Y-116139504D01*
X49644568Y-115933266D01*
X49514047Y-115746861D01*
X49514045Y-115746858D01*
X49353141Y-115585954D01*
X49166734Y-115455432D01*
X49166728Y-115455429D01*
X49108725Y-115428382D01*
X49056285Y-115382210D01*
X49037133Y-115315017D01*
X49057348Y-115248135D01*
X49108725Y-115203618D01*
X49166734Y-115176568D01*
X49353139Y-115046047D01*
X49514047Y-114885139D01*
X49644568Y-114698734D01*
X49740739Y-114492496D01*
X49799635Y-114272692D01*
X49819468Y-114046000D01*
X49799635Y-113819308D01*
X49740739Y-113599504D01*
X49644568Y-113393266D01*
X49514047Y-113206861D01*
X49514045Y-113206858D01*
X49353141Y-113045954D01*
X49166734Y-112915432D01*
X49166728Y-112915429D01*
X49108725Y-112888382D01*
X49056285Y-112842210D01*
X49037133Y-112775017D01*
X49057348Y-112708135D01*
X49108725Y-112663618D01*
X49166734Y-112636568D01*
X49353139Y-112506047D01*
X49514047Y-112345139D01*
X49644568Y-112158734D01*
X49740739Y-111952496D01*
X49799635Y-111732692D01*
X49819468Y-111506000D01*
X49799635Y-111279308D01*
X49740739Y-111059504D01*
X49644568Y-110853266D01*
X49514047Y-110666861D01*
X49514045Y-110666858D01*
X49353141Y-110505954D01*
X49166734Y-110375432D01*
X49166732Y-110375431D01*
X48960497Y-110279261D01*
X48960488Y-110279258D01*
X48740697Y-110220366D01*
X48740693Y-110220365D01*
X48740692Y-110220365D01*
X48740691Y-110220364D01*
X48740686Y-110220364D01*
X48514002Y-110200532D01*
X48513998Y-110200532D01*
X48287313Y-110220364D01*
X48287302Y-110220366D01*
X48067511Y-110279258D01*
X48067502Y-110279261D01*
X47861267Y-110375431D01*
X47861265Y-110375432D01*
X47674858Y-110505954D01*
X47513954Y-110666858D01*
X47383432Y-110853265D01*
X47383431Y-110853267D01*
X47287261Y-111059502D01*
X47287258Y-111059511D01*
X47228366Y-111279302D01*
X47228364Y-111279313D01*
X47208532Y-111505998D01*
X47208532Y-111506001D01*
X47228364Y-111732686D01*
X47228366Y-111732697D01*
X47287258Y-111952488D01*
X47287261Y-111952497D01*
X47383431Y-112158732D01*
X47383432Y-112158734D01*
X47513954Y-112345141D01*
X47674858Y-112506045D01*
X47674861Y-112506047D01*
X47861266Y-112636568D01*
X47919275Y-112663618D01*
X47971714Y-112709791D01*
X47990866Y-112776984D01*
X47970650Y-112843865D01*
X47919275Y-112888382D01*
X47861267Y-112915431D01*
X47861265Y-112915432D01*
X47764765Y-112983002D01*
X47727378Y-113009181D01*
X47707535Y-113023075D01*
X47641329Y-113045402D01*
X47636412Y-113045500D01*
X41613782Y-113045500D01*
X41546743Y-113025815D01*
X41526101Y-113009181D01*
X40243890Y-111726970D01*
X40210405Y-111665647D01*
X40208043Y-111650096D01*
X40201069Y-111570385D01*
X40197063Y-111524592D01*
X40135903Y-111296337D01*
X40036035Y-111082171D01*
X40020169Y-111059511D01*
X39900494Y-110888597D01*
X39733402Y-110721506D01*
X39733395Y-110721501D01*
X39539834Y-110585967D01*
X39539830Y-110585965D01*
X39539828Y-110585964D01*
X39325663Y-110486097D01*
X39325659Y-110486096D01*
X39325655Y-110486094D01*
X39097413Y-110424938D01*
X39097403Y-110424936D01*
X38862001Y-110404341D01*
X38861999Y-110404341D01*
X38626596Y-110424936D01*
X38626586Y-110424938D01*
X38398344Y-110486094D01*
X38398335Y-110486098D01*
X38184171Y-110585964D01*
X38184169Y-110585965D01*
X37990597Y-110721505D01*
X37823505Y-110888597D01*
X37687965Y-111082169D01*
X37687964Y-111082171D01*
X37588098Y-111296335D01*
X37588094Y-111296344D01*
X37526938Y-111524586D01*
X37526936Y-111524596D01*
X37506341Y-111759999D01*
X37506341Y-111760000D01*
X37526936Y-111995403D01*
X37526938Y-111995413D01*
X37588094Y-112223655D01*
X37588096Y-112223659D01*
X37588097Y-112223663D01*
X37658262Y-112374132D01*
X37687965Y-112437830D01*
X37687967Y-112437834D01*
X37823501Y-112631395D01*
X37823506Y-112631402D01*
X37990597Y-112798493D01*
X37990603Y-112798498D01*
X38176158Y-112928425D01*
X38219783Y-112983002D01*
X38226977Y-113052500D01*
X38195454Y-113114855D01*
X38176158Y-113131575D01*
X37990597Y-113261505D01*
X37823505Y-113428597D01*
X37687965Y-113622169D01*
X37687964Y-113622171D01*
X37588098Y-113836335D01*
X37588094Y-113836344D01*
X37526938Y-114064586D01*
X37526936Y-114064596D01*
X37506341Y-114299999D01*
X37506341Y-114300000D01*
X37526936Y-114535403D01*
X37526938Y-114535413D01*
X37588094Y-114763655D01*
X37588096Y-114763659D01*
X37588097Y-114763663D01*
X37672126Y-114943864D01*
X37687965Y-114977830D01*
X37687967Y-114977834D01*
X37823501Y-115171395D01*
X37823506Y-115171402D01*
X37990597Y-115338493D01*
X37990603Y-115338498D01*
X38176158Y-115468425D01*
X38219783Y-115523002D01*
X38226977Y-115592500D01*
X38195454Y-115654855D01*
X38176158Y-115671575D01*
X37990597Y-115801505D01*
X37823505Y-115968597D01*
X37687965Y-116162169D01*
X37687964Y-116162171D01*
X37588098Y-116376335D01*
X37588094Y-116376344D01*
X37526938Y-116604586D01*
X37526936Y-116604596D01*
X37506341Y-116839999D01*
X37506341Y-116840000D01*
X37526936Y-117075403D01*
X37526938Y-117075413D01*
X37588094Y-117303655D01*
X37588096Y-117303659D01*
X37588097Y-117303663D01*
X37687965Y-117517830D01*
X37687967Y-117517834D01*
X37823501Y-117711395D01*
X37823506Y-117711402D01*
X37990597Y-117878493D01*
X37990603Y-117878498D01*
X38176158Y-118008425D01*
X38219783Y-118063002D01*
X38226977Y-118132500D01*
X38195454Y-118194855D01*
X38176158Y-118211575D01*
X37990597Y-118341505D01*
X37823505Y-118508597D01*
X37687965Y-118702169D01*
X37687964Y-118702171D01*
X37588098Y-118916335D01*
X37588094Y-118916344D01*
X37526938Y-119144586D01*
X37526936Y-119144596D01*
X37506341Y-119379999D01*
X37506341Y-119380000D01*
X37526936Y-119615403D01*
X37526938Y-119615413D01*
X37588094Y-119843655D01*
X37588096Y-119843659D01*
X37588097Y-119843663D01*
X37672126Y-120023864D01*
X37687965Y-120057830D01*
X37687967Y-120057834D01*
X37823501Y-120251395D01*
X37823506Y-120251402D01*
X37990597Y-120418493D01*
X37990603Y-120418498D01*
X38176158Y-120548425D01*
X38219783Y-120603002D01*
X38226977Y-120672500D01*
X38195454Y-120734855D01*
X38176158Y-120751575D01*
X37990597Y-120881505D01*
X37823505Y-121048597D01*
X37687965Y-121242169D01*
X37687964Y-121242171D01*
X37588098Y-121456335D01*
X37588094Y-121456344D01*
X37526938Y-121684586D01*
X37526936Y-121684596D01*
X37506341Y-121919999D01*
X37506341Y-121920000D01*
X37526936Y-122155403D01*
X37526938Y-122155413D01*
X37588094Y-122383655D01*
X37588096Y-122383659D01*
X37588097Y-122383663D01*
X37672126Y-122563864D01*
X37687965Y-122597830D01*
X37687967Y-122597834D01*
X37823501Y-122791395D01*
X37823506Y-122791402D01*
X37990597Y-122958493D01*
X37990603Y-122958498D01*
X38176158Y-123088425D01*
X38219783Y-123143002D01*
X38226977Y-123212500D01*
X38195454Y-123274855D01*
X38176158Y-123291575D01*
X37990597Y-123421505D01*
X37823505Y-123588597D01*
X37687965Y-123782169D01*
X37687964Y-123782171D01*
X37588098Y-123996335D01*
X37588094Y-123996344D01*
X37526938Y-124224586D01*
X37526936Y-124224596D01*
X37506341Y-124459999D01*
X37506341Y-124460000D01*
X37526936Y-124695403D01*
X37526938Y-124695413D01*
X37588094Y-124923655D01*
X37588096Y-124923659D01*
X37588097Y-124923663D01*
X37672126Y-125103864D01*
X37687965Y-125137830D01*
X37687967Y-125137834D01*
X37823501Y-125331395D01*
X37823506Y-125331402D01*
X37990597Y-125498493D01*
X37990603Y-125498498D01*
X38176158Y-125628425D01*
X38219783Y-125683002D01*
X38226977Y-125752500D01*
X38195454Y-125814855D01*
X38176158Y-125831575D01*
X37990597Y-125961505D01*
X37823505Y-126128597D01*
X37687965Y-126322169D01*
X37687964Y-126322171D01*
X37588098Y-126536335D01*
X37588094Y-126536344D01*
X37526938Y-126764586D01*
X37526936Y-126764596D01*
X37506341Y-126999999D01*
X37506341Y-127000000D01*
X37526936Y-127235403D01*
X37526938Y-127235413D01*
X37588094Y-127463655D01*
X37588096Y-127463659D01*
X37588097Y-127463663D01*
X37666887Y-127632628D01*
X37687965Y-127677830D01*
X37687967Y-127677834D01*
X37823501Y-127871395D01*
X37823506Y-127871402D01*
X37990597Y-128038493D01*
X37990603Y-128038498D01*
X38176158Y-128168425D01*
X38219783Y-128223002D01*
X38226977Y-128292500D01*
X38195454Y-128354855D01*
X38176158Y-128371575D01*
X37990597Y-128501505D01*
X37823505Y-128668597D01*
X37687965Y-128862169D01*
X37687964Y-128862171D01*
X37588098Y-129076335D01*
X37588094Y-129076344D01*
X37526938Y-129304586D01*
X37526936Y-129304596D01*
X37506341Y-129539999D01*
X37506341Y-129540000D01*
X37526936Y-129775403D01*
X37526938Y-129775413D01*
X37588094Y-130003655D01*
X37588096Y-130003659D01*
X37588097Y-130003663D01*
X37648820Y-130133883D01*
X37687965Y-130217830D01*
X37687967Y-130217834D01*
X37823501Y-130411395D01*
X37823506Y-130411402D01*
X37990597Y-130578493D01*
X37990603Y-130578498D01*
X38176158Y-130708425D01*
X38219783Y-130763002D01*
X38226977Y-130832500D01*
X38195454Y-130894855D01*
X38176158Y-130911575D01*
X37990597Y-131041505D01*
X37823505Y-131208597D01*
X37687965Y-131402169D01*
X37687964Y-131402171D01*
X37588098Y-131616335D01*
X37588094Y-131616344D01*
X37526938Y-131844586D01*
X37526936Y-131844596D01*
X37506341Y-132079999D01*
X37506341Y-132080000D01*
X37526936Y-132315403D01*
X37526938Y-132315413D01*
X37588094Y-132543655D01*
X37588096Y-132543659D01*
X37588097Y-132543663D01*
X37621503Y-132615302D01*
X37687965Y-132757830D01*
X37687967Y-132757834D01*
X37823501Y-132951395D01*
X37823506Y-132951402D01*
X37990597Y-133118493D01*
X37990603Y-133118498D01*
X38176158Y-133248425D01*
X38219783Y-133303002D01*
X38226977Y-133372500D01*
X38195454Y-133434855D01*
X38176158Y-133451575D01*
X37990597Y-133581505D01*
X37823505Y-133748597D01*
X37687965Y-133942169D01*
X37687964Y-133942171D01*
X37588098Y-134156335D01*
X37588094Y-134156344D01*
X37526938Y-134384586D01*
X37526936Y-134384596D01*
X37506341Y-134619999D01*
X37506341Y-134620000D01*
X37526936Y-134855403D01*
X37526938Y-134855413D01*
X37588094Y-135083655D01*
X37588096Y-135083659D01*
X37588097Y-135083663D01*
X37621503Y-135155302D01*
X37687965Y-135297830D01*
X37687967Y-135297834D01*
X37823501Y-135491395D01*
X37823506Y-135491402D01*
X37990597Y-135658493D01*
X37990603Y-135658498D01*
X38176158Y-135788425D01*
X38219783Y-135843002D01*
X38226977Y-135912500D01*
X38195454Y-135974855D01*
X38176158Y-135991575D01*
X37990597Y-136121505D01*
X37823505Y-136288597D01*
X37687965Y-136482169D01*
X37687964Y-136482171D01*
X37588098Y-136696335D01*
X37588094Y-136696344D01*
X37526938Y-136924586D01*
X37526936Y-136924596D01*
X37506341Y-137159999D01*
X37506341Y-137160000D01*
X37526936Y-137395403D01*
X37526938Y-137395413D01*
X37588094Y-137623655D01*
X37588096Y-137623659D01*
X37588097Y-137623663D01*
X37642655Y-137740663D01*
X37687965Y-137837830D01*
X37687967Y-137837834D01*
X37823501Y-138031395D01*
X37823506Y-138031402D01*
X37990597Y-138198493D01*
X37990603Y-138198498D01*
X38176158Y-138328425D01*
X38219783Y-138383002D01*
X38226977Y-138452500D01*
X38195454Y-138514855D01*
X38176158Y-138531575D01*
X37990597Y-138661505D01*
X37823505Y-138828597D01*
X37687965Y-139022169D01*
X37687964Y-139022171D01*
X37588098Y-139236335D01*
X37588094Y-139236344D01*
X37526938Y-139464586D01*
X37526936Y-139464596D01*
X37506341Y-139699999D01*
X37506341Y-139700000D01*
X37526936Y-139935403D01*
X37526938Y-139935413D01*
X37588094Y-140163655D01*
X37588096Y-140163659D01*
X37588097Y-140163663D01*
X37642655Y-140280663D01*
X37687965Y-140377830D01*
X37687967Y-140377834D01*
X37746902Y-140462001D01*
X37823505Y-140571401D01*
X37990599Y-140738495D01*
X38010709Y-140752576D01*
X38013969Y-140754859D01*
X38045945Y-140787541D01*
X38084860Y-140845781D01*
X38084863Y-140845785D01*
X38150768Y-140911690D01*
X38184253Y-140973013D01*
X38179269Y-141042705D01*
X38137397Y-141098638D01*
X38134211Y-141100946D01*
X37990594Y-141201508D01*
X37823505Y-141368597D01*
X37687965Y-141562169D01*
X37687964Y-141562171D01*
X37588098Y-141776335D01*
X37588094Y-141776344D01*
X37526938Y-142004586D01*
X37526936Y-142004596D01*
X37506341Y-142239999D01*
X37506341Y-142240000D01*
X37526936Y-142475403D01*
X37526938Y-142475413D01*
X37588094Y-142703655D01*
X37588096Y-142703659D01*
X37588097Y-142703663D01*
X37672126Y-142883864D01*
X37687965Y-142917830D01*
X37687967Y-142917834D01*
X37823501Y-143111395D01*
X37823506Y-143111402D01*
X37990597Y-143278493D01*
X37990603Y-143278498D01*
X38176158Y-143408425D01*
X38219783Y-143463002D01*
X38226977Y-143532500D01*
X38195454Y-143594855D01*
X38176158Y-143611575D01*
X37990597Y-143741505D01*
X37823505Y-143908597D01*
X37687965Y-144102169D01*
X37687964Y-144102171D01*
X37588098Y-144316335D01*
X37588094Y-144316344D01*
X37526938Y-144544586D01*
X37526936Y-144544596D01*
X37506341Y-144779999D01*
X37506341Y-144780000D01*
X37526936Y-145015403D01*
X37526938Y-145015413D01*
X37588094Y-145243655D01*
X37588096Y-145243659D01*
X37588097Y-145243663D01*
X37621503Y-145315302D01*
X37687965Y-145457830D01*
X37687967Y-145457834D01*
X37823501Y-145651395D01*
X37823506Y-145651402D01*
X37990597Y-145818493D01*
X37990603Y-145818498D01*
X38176158Y-145948425D01*
X38219783Y-146003002D01*
X38226977Y-146072500D01*
X38195454Y-146134855D01*
X38176158Y-146151575D01*
X37990597Y-146281505D01*
X37823505Y-146448597D01*
X37687965Y-146642169D01*
X37687964Y-146642171D01*
X37588098Y-146856335D01*
X37588094Y-146856344D01*
X37526938Y-147084586D01*
X37526936Y-147084596D01*
X37506341Y-147319999D01*
X37506341Y-147320000D01*
X37526936Y-147555403D01*
X37526938Y-147555413D01*
X37588094Y-147783655D01*
X37588096Y-147783659D01*
X37588097Y-147783663D01*
X37621503Y-147855302D01*
X37687965Y-147997830D01*
X37687967Y-147997834D01*
X37823501Y-148191395D01*
X37823506Y-148191402D01*
X37990597Y-148358493D01*
X37990603Y-148358498D01*
X38176158Y-148488425D01*
X38219783Y-148543002D01*
X38226977Y-148612500D01*
X38195454Y-148674855D01*
X38176158Y-148691575D01*
X37990597Y-148821505D01*
X37823505Y-148988597D01*
X37687965Y-149182169D01*
X37687964Y-149182171D01*
X37588098Y-149396335D01*
X37588094Y-149396344D01*
X37526938Y-149624586D01*
X37526936Y-149624596D01*
X37506341Y-149859999D01*
X37506341Y-149860000D01*
X37526936Y-150095403D01*
X37526938Y-150095413D01*
X37588094Y-150323655D01*
X37588096Y-150323659D01*
X37588097Y-150323663D01*
X37620345Y-150392819D01*
X37687965Y-150537830D01*
X37687967Y-150537834D01*
X37823501Y-150731395D01*
X37823506Y-150731402D01*
X37990597Y-150898493D01*
X37990603Y-150898498D01*
X38176158Y-151028425D01*
X38219783Y-151083002D01*
X38226977Y-151152500D01*
X38195454Y-151214855D01*
X38176158Y-151231575D01*
X37990597Y-151361505D01*
X37823505Y-151528597D01*
X37687965Y-151722169D01*
X37687964Y-151722171D01*
X37588098Y-151936335D01*
X37588094Y-151936344D01*
X37526938Y-152164586D01*
X37526936Y-152164596D01*
X37506341Y-152399999D01*
X37506341Y-152400000D01*
X37526936Y-152635403D01*
X37526938Y-152635413D01*
X37588094Y-152863655D01*
X37588096Y-152863659D01*
X37588097Y-152863663D01*
X37667404Y-153033737D01*
X37687965Y-153077830D01*
X37687967Y-153077834D01*
X37823501Y-153271395D01*
X37823506Y-153271402D01*
X37990597Y-153438493D01*
X37990603Y-153438498D01*
X38176158Y-153568425D01*
X38219783Y-153623002D01*
X38226977Y-153692500D01*
X38195454Y-153754855D01*
X38176158Y-153771575D01*
X37990597Y-153901505D01*
X37823505Y-154068597D01*
X37687965Y-154262169D01*
X37687964Y-154262171D01*
X37588098Y-154476335D01*
X37588094Y-154476344D01*
X37526938Y-154704586D01*
X37526936Y-154704596D01*
X37506341Y-154939999D01*
X37506341Y-154940000D01*
X37526936Y-155175403D01*
X37526938Y-155175413D01*
X37588094Y-155403655D01*
X37588096Y-155403659D01*
X37588097Y-155403663D01*
X37666681Y-155572186D01*
X37687965Y-155617830D01*
X37687967Y-155617834D01*
X37796281Y-155772521D01*
X37814906Y-155799121D01*
X37823501Y-155811395D01*
X37823506Y-155811402D01*
X37990597Y-155978493D01*
X37990603Y-155978498D01*
X38176158Y-156108425D01*
X38219783Y-156163002D01*
X38226977Y-156232500D01*
X38195454Y-156294855D01*
X38176158Y-156311575D01*
X37990597Y-156441505D01*
X37823505Y-156608597D01*
X37687965Y-156802169D01*
X37687964Y-156802171D01*
X37588098Y-157016335D01*
X37588094Y-157016344D01*
X37526938Y-157244586D01*
X37526936Y-157244596D01*
X37506341Y-157479999D01*
X37506341Y-157480000D01*
X37526936Y-157715403D01*
X37526938Y-157715413D01*
X37588094Y-157943655D01*
X37588096Y-157943659D01*
X37588097Y-157943663D01*
X37672126Y-158123864D01*
X37687965Y-158157830D01*
X37687967Y-158157834D01*
X37823501Y-158351395D01*
X37823506Y-158351402D01*
X37990597Y-158518493D01*
X37990603Y-158518498D01*
X38176158Y-158648425D01*
X38219783Y-158703002D01*
X38226977Y-158772500D01*
X38195454Y-158834855D01*
X38176158Y-158851575D01*
X37990597Y-158981505D01*
X37823505Y-159148597D01*
X37687965Y-159342169D01*
X37687964Y-159342171D01*
X37588098Y-159556335D01*
X37588094Y-159556344D01*
X37526938Y-159784586D01*
X37526936Y-159784596D01*
X37506341Y-160019999D01*
X37506341Y-160020000D01*
X37526936Y-160255403D01*
X37526938Y-160255413D01*
X37588094Y-160483655D01*
X37588096Y-160483659D01*
X37588097Y-160483663D01*
X37662944Y-160644172D01*
X37687965Y-160697830D01*
X37687967Y-160697834D01*
X37823501Y-160891395D01*
X37823506Y-160891402D01*
X37945430Y-161013326D01*
X37978915Y-161074649D01*
X37973931Y-161144341D01*
X37932059Y-161200274D01*
X37901083Y-161217189D01*
X37769669Y-161266203D01*
X37769664Y-161266206D01*
X37654455Y-161352452D01*
X37654452Y-161352455D01*
X37568206Y-161467664D01*
X37568202Y-161467671D01*
X37517908Y-161602517D01*
X37511501Y-161662116D01*
X37511500Y-161662135D01*
X37511500Y-163457870D01*
X37511501Y-163457876D01*
X37517908Y-163517483D01*
X37568202Y-163652328D01*
X37568206Y-163652335D01*
X37654452Y-163767544D01*
X37654455Y-163767547D01*
X37769664Y-163853793D01*
X37769671Y-163853797D01*
X37904517Y-163904091D01*
X37904516Y-163904091D01*
X37911444Y-163904835D01*
X37964127Y-163910500D01*
X38746217Y-163910499D01*
X38813256Y-163930183D01*
X38833898Y-163946818D01*
X42077562Y-167190482D01*
X42111047Y-167251805D01*
X42106063Y-167321497D01*
X42064191Y-167377430D01*
X42014073Y-167399780D01*
X41981092Y-167406340D01*
X41981086Y-167406342D01*
X41844508Y-167462914D01*
X41844496Y-167462921D01*
X41795269Y-167495813D01*
X41721588Y-167545044D01*
X41721580Y-167545050D01*
X40203449Y-169063181D01*
X40142126Y-169096666D01*
X40115768Y-169099500D01*
X38980129Y-169099500D01*
X38980123Y-169099501D01*
X38920516Y-169105908D01*
X38785671Y-169156202D01*
X38785664Y-169156206D01*
X38670455Y-169242452D01*
X38670452Y-169242455D01*
X38584206Y-169357664D01*
X38584202Y-169357671D01*
X38533908Y-169492517D01*
X38527501Y-169552116D01*
X38527500Y-169552135D01*
X38527500Y-171347870D01*
X38527501Y-171347876D01*
X38533908Y-171407483D01*
X38584202Y-171542328D01*
X38584206Y-171542335D01*
X38670452Y-171657544D01*
X38670455Y-171657547D01*
X38785664Y-171743793D01*
X38785671Y-171743797D01*
X38920517Y-171794091D01*
X38920516Y-171794091D01*
X38927444Y-171794835D01*
X38980127Y-171800500D01*
X40775872Y-171800499D01*
X40835483Y-171794091D01*
X40970331Y-171743796D01*
X41085546Y-171657546D01*
X41171796Y-171542331D01*
X41222091Y-171407483D01*
X41228500Y-171347873D01*
X41228499Y-170212228D01*
X41248184Y-170145190D01*
X41264813Y-170124553D01*
X42474549Y-168914819D01*
X42535872Y-168881334D01*
X42562230Y-168878500D01*
X47150581Y-168878500D01*
X47217620Y-168898185D01*
X47263375Y-168950989D01*
X47273319Y-169020147D01*
X47270356Y-169034593D01*
X47228366Y-169191302D01*
X47228364Y-169191313D01*
X47208532Y-169417998D01*
X47208532Y-169418001D01*
X47228364Y-169644686D01*
X47228366Y-169644697D01*
X47287258Y-169864488D01*
X47287261Y-169864497D01*
X47383431Y-170070732D01*
X47383432Y-170070734D01*
X47513954Y-170257141D01*
X47674858Y-170418045D01*
X47714914Y-170446092D01*
X47861266Y-170548568D01*
X47884384Y-170559348D01*
X47919275Y-170575618D01*
X47971714Y-170621791D01*
X47990866Y-170688984D01*
X47970650Y-170755865D01*
X47919275Y-170800381D01*
X47919118Y-170800455D01*
X47861267Y-170827431D01*
X47861265Y-170827432D01*
X47674858Y-170957954D01*
X47513954Y-171118858D01*
X47383432Y-171305265D01*
X47383431Y-171305267D01*
X47287261Y-171511502D01*
X47287258Y-171511511D01*
X47228366Y-171731302D01*
X47228364Y-171731313D01*
X47208532Y-171957998D01*
X47208532Y-171958001D01*
X47228364Y-172184686D01*
X47228366Y-172184697D01*
X47287258Y-172404488D01*
X47287261Y-172404497D01*
X47383431Y-172610732D01*
X47383432Y-172610734D01*
X47513954Y-172797141D01*
X47674858Y-172958045D01*
X47674861Y-172958047D01*
X47861266Y-173088568D01*
X48067504Y-173184739D01*
X48287308Y-173243635D01*
X48449230Y-173257801D01*
X48513998Y-173263468D01*
X48514000Y-173263468D01*
X48514002Y-173263468D01*
X48570807Y-173258498D01*
X48740692Y-173243635D01*
X48960496Y-173184739D01*
X49166734Y-173088568D01*
X49353139Y-172958047D01*
X49514047Y-172797139D01*
X49644568Y-172610734D01*
X49740739Y-172404496D01*
X49799635Y-172184692D01*
X49819468Y-171958000D01*
X49799635Y-171731308D01*
X49740739Y-171511504D01*
X49644568Y-171305266D01*
X49514047Y-171118861D01*
X49514045Y-171118858D01*
X49353141Y-170957954D01*
X49166734Y-170827432D01*
X49166728Y-170827429D01*
X49108882Y-170800455D01*
X49108724Y-170800381D01*
X49056285Y-170754210D01*
X49037133Y-170687017D01*
X49057348Y-170620135D01*
X49108725Y-170575618D01*
X49166734Y-170548568D01*
X49353139Y-170418047D01*
X49514047Y-170257139D01*
X49644568Y-170070734D01*
X49740739Y-169864496D01*
X49799635Y-169644692D01*
X49819468Y-169418000D01*
X49799635Y-169191308D01*
X49740739Y-168971504D01*
X49644568Y-168765266D01*
X49626531Y-168739507D01*
X49604206Y-168673304D01*
X49621216Y-168605537D01*
X49640423Y-168580710D01*
X52652951Y-165568183D01*
X52735084Y-165445262D01*
X52791658Y-165308680D01*
X52815801Y-165187310D01*
X52820500Y-165163687D01*
X52820500Y-156717998D01*
X54828532Y-156717998D01*
X54828532Y-156718001D01*
X54848364Y-156944686D01*
X54848366Y-156944697D01*
X54907258Y-157164488D01*
X54907261Y-157164497D01*
X55003431Y-157370732D01*
X55003432Y-157370734D01*
X55133954Y-157557141D01*
X55294858Y-157718045D01*
X55294861Y-157718047D01*
X55481266Y-157848568D01*
X55523560Y-157868290D01*
X55539275Y-157875618D01*
X55591714Y-157921791D01*
X55610866Y-157988984D01*
X55590650Y-158055865D01*
X55539275Y-158100382D01*
X55481267Y-158127431D01*
X55481265Y-158127432D01*
X55294858Y-158257954D01*
X55133954Y-158418858D01*
X55003432Y-158605265D01*
X55003431Y-158605267D01*
X54907261Y-158811502D01*
X54907258Y-158811511D01*
X54848366Y-159031302D01*
X54848364Y-159031313D01*
X54828532Y-159257998D01*
X54828532Y-159258001D01*
X54848364Y-159484686D01*
X54848366Y-159484697D01*
X54907258Y-159704488D01*
X54907261Y-159704497D01*
X55003431Y-159910732D01*
X55003432Y-159910734D01*
X55133954Y-160097141D01*
X55294858Y-160258045D01*
X55294861Y-160258047D01*
X55481266Y-160388568D01*
X55524778Y-160408858D01*
X55539275Y-160415618D01*
X55591714Y-160461791D01*
X55610866Y-160528984D01*
X55590650Y-160595865D01*
X55539275Y-160640382D01*
X55481267Y-160667431D01*
X55481265Y-160667432D01*
X55294858Y-160797954D01*
X55133954Y-160958858D01*
X55003432Y-161145265D01*
X55003431Y-161145267D01*
X54907261Y-161351502D01*
X54907258Y-161351511D01*
X54848366Y-161571302D01*
X54848364Y-161571313D01*
X54828532Y-161797998D01*
X54828532Y-161798001D01*
X54848364Y-162024686D01*
X54848366Y-162024697D01*
X54907258Y-162244488D01*
X54907261Y-162244497D01*
X55003431Y-162450732D01*
X55003432Y-162450734D01*
X55133954Y-162637141D01*
X55294858Y-162798045D01*
X55294861Y-162798047D01*
X55481266Y-162928568D01*
X55524778Y-162948858D01*
X55539275Y-162955618D01*
X55591714Y-163001791D01*
X55610866Y-163068984D01*
X55590650Y-163135865D01*
X55539275Y-163180382D01*
X55481267Y-163207431D01*
X55481265Y-163207432D01*
X55294858Y-163337954D01*
X55133954Y-163498858D01*
X55003432Y-163685265D01*
X55003431Y-163685267D01*
X54907261Y-163891502D01*
X54907258Y-163891511D01*
X54848366Y-164111302D01*
X54848364Y-164111313D01*
X54828532Y-164337998D01*
X54828532Y-164338001D01*
X54848364Y-164564686D01*
X54848366Y-164564697D01*
X54907258Y-164784488D01*
X54907261Y-164784497D01*
X55003431Y-164990732D01*
X55003432Y-164990734D01*
X55133954Y-165177141D01*
X55294858Y-165338045D01*
X55294861Y-165338047D01*
X55481266Y-165468568D01*
X55524778Y-165488858D01*
X55539275Y-165495618D01*
X55591714Y-165541791D01*
X55610866Y-165608984D01*
X55590650Y-165675865D01*
X55539275Y-165720382D01*
X55481267Y-165747431D01*
X55481265Y-165747432D01*
X55294858Y-165877954D01*
X55133954Y-166038858D01*
X55003432Y-166225265D01*
X55003431Y-166225267D01*
X54907261Y-166431502D01*
X54907258Y-166431511D01*
X54848366Y-166651302D01*
X54848364Y-166651313D01*
X54828532Y-166877998D01*
X54828532Y-166878001D01*
X54848364Y-167104686D01*
X54848366Y-167104697D01*
X54907258Y-167324488D01*
X54907261Y-167324497D01*
X55003431Y-167530732D01*
X55003432Y-167530734D01*
X55133954Y-167717141D01*
X55294858Y-167878045D01*
X55294861Y-167878047D01*
X55481266Y-168008568D01*
X55539275Y-168035618D01*
X55591714Y-168081791D01*
X55610866Y-168148984D01*
X55590650Y-168215865D01*
X55539275Y-168260382D01*
X55481267Y-168287431D01*
X55481265Y-168287432D01*
X55294858Y-168417954D01*
X55133954Y-168578858D01*
X55003432Y-168765265D01*
X55003431Y-168765267D01*
X54907261Y-168971502D01*
X54907258Y-168971511D01*
X54848366Y-169191302D01*
X54848364Y-169191313D01*
X54828532Y-169417998D01*
X54828532Y-169418001D01*
X54848364Y-169644686D01*
X54848366Y-169644697D01*
X54907258Y-169864488D01*
X54907261Y-169864497D01*
X55003431Y-170070732D01*
X55003432Y-170070734D01*
X55133954Y-170257141D01*
X55294858Y-170418045D01*
X55319462Y-170435273D01*
X55363087Y-170489849D01*
X55370281Y-170559348D01*
X55338758Y-170621703D01*
X55278529Y-170657117D01*
X55261593Y-170660138D01*
X55226516Y-170663908D01*
X55091671Y-170714202D01*
X55091664Y-170714206D01*
X54976455Y-170800452D01*
X54976452Y-170800455D01*
X54890206Y-170915664D01*
X54890202Y-170915671D01*
X54839908Y-171050517D01*
X54833501Y-171110116D01*
X54833501Y-171110123D01*
X54833500Y-171110135D01*
X54833500Y-172805870D01*
X54833501Y-172805876D01*
X54839908Y-172865483D01*
X54890202Y-173000328D01*
X54890206Y-173000335D01*
X54976452Y-173115544D01*
X54976455Y-173115547D01*
X55091664Y-173201793D01*
X55091671Y-173201797D01*
X55226517Y-173252091D01*
X55226516Y-173252091D01*
X55233444Y-173252835D01*
X55286127Y-173258500D01*
X56981872Y-173258499D01*
X57041483Y-173252091D01*
X57176331Y-173201796D01*
X57291546Y-173115546D01*
X57377796Y-173000331D01*
X57428091Y-172865483D01*
X57434500Y-172805873D01*
X57434499Y-171110128D01*
X57428091Y-171050517D01*
X57393567Y-170957954D01*
X57377797Y-170915671D01*
X57377793Y-170915664D01*
X57291547Y-170800455D01*
X57291544Y-170800452D01*
X57176335Y-170714206D01*
X57176328Y-170714202D01*
X57041482Y-170663908D01*
X57041483Y-170663908D01*
X57006404Y-170660137D01*
X56941853Y-170633399D01*
X56902005Y-170576006D01*
X56899512Y-170506181D01*
X56935165Y-170446092D01*
X56948539Y-170435272D01*
X56973140Y-170418046D01*
X57134045Y-170257141D01*
X57134047Y-170257139D01*
X57264568Y-170070734D01*
X57360739Y-169864496D01*
X57419635Y-169644692D01*
X57439468Y-169418000D01*
X57419635Y-169191308D01*
X57360739Y-168971504D01*
X57264568Y-168765266D01*
X57134047Y-168578861D01*
X57134045Y-168578858D01*
X56973141Y-168417954D01*
X56786734Y-168287432D01*
X56786728Y-168287429D01*
X56728725Y-168260382D01*
X56676285Y-168214210D01*
X56657133Y-168147017D01*
X56677348Y-168080135D01*
X56728725Y-168035618D01*
X56786734Y-168008568D01*
X56973139Y-167878047D01*
X57134047Y-167717139D01*
X57264568Y-167530734D01*
X57360739Y-167324496D01*
X57419635Y-167104692D01*
X57439468Y-166878000D01*
X57419635Y-166651308D01*
X57360739Y-166431504D01*
X57264568Y-166225266D01*
X57134047Y-166038861D01*
X57134045Y-166038858D01*
X56973141Y-165877954D01*
X56786734Y-165747432D01*
X56786728Y-165747429D01*
X56728725Y-165720382D01*
X56676285Y-165674210D01*
X56657133Y-165607017D01*
X56677348Y-165540135D01*
X56728725Y-165495618D01*
X56786734Y-165468568D01*
X56973139Y-165338047D01*
X57134047Y-165177139D01*
X57264568Y-164990734D01*
X57360739Y-164784496D01*
X57419635Y-164564692D01*
X57439468Y-164338000D01*
X57419635Y-164111308D01*
X57360739Y-163891504D01*
X57264568Y-163685266D01*
X57134047Y-163498861D01*
X57134045Y-163498858D01*
X56973141Y-163337954D01*
X56786734Y-163207432D01*
X56786728Y-163207429D01*
X56728725Y-163180382D01*
X56676285Y-163134210D01*
X56657133Y-163067017D01*
X56677348Y-163000135D01*
X56728725Y-162955618D01*
X56786734Y-162928568D01*
X56973139Y-162798047D01*
X57134047Y-162637139D01*
X57264568Y-162450734D01*
X57360739Y-162244496D01*
X57419635Y-162024692D01*
X57439468Y-161798000D01*
X57419635Y-161571308D01*
X57360739Y-161351504D01*
X57264568Y-161145266D01*
X57144330Y-160973547D01*
X57134045Y-160958858D01*
X56973141Y-160797954D01*
X56786734Y-160667432D01*
X56786728Y-160667429D01*
X56728725Y-160640382D01*
X56676285Y-160594210D01*
X56657133Y-160527017D01*
X56677348Y-160460135D01*
X56728725Y-160415618D01*
X56786734Y-160388568D01*
X56973139Y-160258047D01*
X57134047Y-160097139D01*
X57264568Y-159910734D01*
X57360739Y-159704496D01*
X57419635Y-159484692D01*
X57439468Y-159258000D01*
X57419635Y-159031308D01*
X57360739Y-158811504D01*
X57264568Y-158605266D01*
X57146450Y-158436575D01*
X57134045Y-158418858D01*
X56973141Y-158257954D01*
X56786734Y-158127432D01*
X56786728Y-158127429D01*
X56728725Y-158100382D01*
X56676285Y-158054210D01*
X56657133Y-157987017D01*
X56677348Y-157920135D01*
X56728725Y-157875618D01*
X56786734Y-157848568D01*
X56973139Y-157718047D01*
X57134047Y-157557139D01*
X57264568Y-157370734D01*
X57360739Y-157164496D01*
X57419635Y-156944692D01*
X57439468Y-156718000D01*
X57419635Y-156491308D01*
X57360739Y-156271504D01*
X57264568Y-156065266D01*
X57134047Y-155878861D01*
X57134045Y-155878858D01*
X56973141Y-155717954D01*
X56786734Y-155587432D01*
X56786732Y-155587431D01*
X56580497Y-155491261D01*
X56580488Y-155491258D01*
X56360697Y-155432366D01*
X56360693Y-155432365D01*
X56360692Y-155432365D01*
X56360691Y-155432364D01*
X56360686Y-155432364D01*
X56134002Y-155412532D01*
X56133998Y-155412532D01*
X55907313Y-155432364D01*
X55907302Y-155432366D01*
X55687511Y-155491258D01*
X55687502Y-155491261D01*
X55481267Y-155587431D01*
X55481265Y-155587432D01*
X55294858Y-155717954D01*
X55133954Y-155878858D01*
X55003432Y-156065265D01*
X55003431Y-156065267D01*
X54907261Y-156271502D01*
X54907258Y-156271511D01*
X54848366Y-156491302D01*
X54848364Y-156491313D01*
X54828532Y-156717998D01*
X52820500Y-156717998D01*
X52820500Y-116440230D01*
X52840185Y-116373191D01*
X52856819Y-116352549D01*
X53780986Y-115428382D01*
X54721494Y-114487873D01*
X54782815Y-114454390D01*
X54852507Y-114459374D01*
X54908440Y-114501246D01*
X54921555Y-114523151D01*
X55003431Y-114698732D01*
X55003432Y-114698734D01*
X55133954Y-114885141D01*
X55294858Y-115046045D01*
X55294861Y-115046047D01*
X55481266Y-115176568D01*
X55524778Y-115196858D01*
X55539275Y-115203618D01*
X55591714Y-115249791D01*
X55610866Y-115316984D01*
X55590650Y-115383865D01*
X55539275Y-115428382D01*
X55481267Y-115455431D01*
X55481265Y-115455432D01*
X55294858Y-115585954D01*
X55133954Y-115746858D01*
X55003432Y-115933265D01*
X55003431Y-115933267D01*
X54907261Y-116139502D01*
X54907258Y-116139511D01*
X54848366Y-116359302D01*
X54848364Y-116359313D01*
X54828532Y-116585998D01*
X54828532Y-116586001D01*
X54848364Y-116812686D01*
X54848366Y-116812697D01*
X54907258Y-117032488D01*
X54907261Y-117032497D01*
X55003431Y-117238732D01*
X55003432Y-117238734D01*
X55133954Y-117425141D01*
X55294858Y-117586045D01*
X55294861Y-117586047D01*
X55481266Y-117716568D01*
X55524778Y-117736858D01*
X55539275Y-117743618D01*
X55591714Y-117789791D01*
X55610866Y-117856984D01*
X55590650Y-117923865D01*
X55539275Y-117968382D01*
X55481267Y-117995431D01*
X55481265Y-117995432D01*
X55294858Y-118125954D01*
X55133954Y-118286858D01*
X55003432Y-118473265D01*
X55003431Y-118473267D01*
X54907261Y-118679502D01*
X54907258Y-118679511D01*
X54848366Y-118899302D01*
X54848364Y-118899313D01*
X54828532Y-119125998D01*
X54828532Y-119126001D01*
X54848364Y-119352686D01*
X54848366Y-119352697D01*
X54907258Y-119572488D01*
X54907261Y-119572497D01*
X55003431Y-119778732D01*
X55003432Y-119778734D01*
X55133954Y-119965141D01*
X55294858Y-120126045D01*
X55294861Y-120126047D01*
X55481266Y-120256568D01*
X55524778Y-120276858D01*
X55539275Y-120283618D01*
X55591714Y-120329791D01*
X55610866Y-120396984D01*
X55590650Y-120463865D01*
X55539275Y-120508382D01*
X55481267Y-120535431D01*
X55481265Y-120535432D01*
X55294858Y-120665954D01*
X55133954Y-120826858D01*
X55003432Y-121013265D01*
X55003431Y-121013267D01*
X54907261Y-121219502D01*
X54907258Y-121219511D01*
X54848366Y-121439302D01*
X54848364Y-121439313D01*
X54828532Y-121665998D01*
X54828532Y-121666001D01*
X54848364Y-121892686D01*
X54848366Y-121892697D01*
X54907258Y-122112488D01*
X54907261Y-122112497D01*
X55003431Y-122318732D01*
X55003432Y-122318734D01*
X55133954Y-122505141D01*
X55294858Y-122666045D01*
X55294861Y-122666047D01*
X55481266Y-122796568D01*
X55524778Y-122816858D01*
X55539275Y-122823618D01*
X55591714Y-122869791D01*
X55610866Y-122936984D01*
X55590650Y-123003865D01*
X55539275Y-123048382D01*
X55481267Y-123075431D01*
X55481265Y-123075432D01*
X55294858Y-123205954D01*
X55133954Y-123366858D01*
X55003432Y-123553265D01*
X55003431Y-123553267D01*
X54907261Y-123759502D01*
X54907258Y-123759511D01*
X54848366Y-123979302D01*
X54848364Y-123979313D01*
X54828532Y-124205998D01*
X54828532Y-124206001D01*
X54848364Y-124432686D01*
X54848366Y-124432697D01*
X54907258Y-124652488D01*
X54907261Y-124652497D01*
X55003431Y-124858732D01*
X55003432Y-124858734D01*
X55133954Y-125045141D01*
X55294858Y-125206045D01*
X55294861Y-125206047D01*
X55481266Y-125336568D01*
X55524778Y-125356858D01*
X55539275Y-125363618D01*
X55591714Y-125409791D01*
X55610866Y-125476984D01*
X55590650Y-125543865D01*
X55539275Y-125588382D01*
X55481267Y-125615431D01*
X55481265Y-125615432D01*
X55294858Y-125745954D01*
X55133954Y-125906858D01*
X55003432Y-126093265D01*
X55003431Y-126093267D01*
X54907261Y-126299502D01*
X54907258Y-126299511D01*
X54848366Y-126519302D01*
X54848364Y-126519313D01*
X54828532Y-126745998D01*
X54828532Y-126746001D01*
X54848364Y-126972686D01*
X54848366Y-126972697D01*
X54907258Y-127192488D01*
X54907261Y-127192497D01*
X55003431Y-127398732D01*
X55003432Y-127398734D01*
X55133954Y-127585141D01*
X55294858Y-127746045D01*
X55319462Y-127763273D01*
X55363087Y-127817849D01*
X55370281Y-127887348D01*
X55338758Y-127949703D01*
X55278529Y-127985117D01*
X55261593Y-127988138D01*
X55226516Y-127991908D01*
X55091671Y-128042202D01*
X55091664Y-128042206D01*
X54976455Y-128128452D01*
X54976452Y-128128455D01*
X54890206Y-128243664D01*
X54890202Y-128243671D01*
X54839908Y-128378517D01*
X54833501Y-128438116D01*
X54833500Y-128438135D01*
X54833500Y-130133870D01*
X54833501Y-130133876D01*
X54839908Y-130193483D01*
X54890202Y-130328328D01*
X54890206Y-130328335D01*
X54976452Y-130443544D01*
X54976455Y-130443547D01*
X55091664Y-130529793D01*
X55091671Y-130529797D01*
X55226517Y-130580091D01*
X55226516Y-130580091D01*
X55233444Y-130580835D01*
X55286127Y-130586500D01*
X56981872Y-130586499D01*
X57041483Y-130580091D01*
X57176331Y-130529796D01*
X57291546Y-130443546D01*
X57377796Y-130328331D01*
X57428091Y-130193483D01*
X57434500Y-130133873D01*
X57434499Y-129195095D01*
X57454183Y-129128057D01*
X57506987Y-129082302D01*
X57576146Y-129072358D01*
X57639702Y-129101383D01*
X57646179Y-129107414D01*
X65925284Y-137386520D01*
X66062215Y-137465577D01*
X66214943Y-137506501D01*
X66214946Y-137506501D01*
X66380654Y-137506501D01*
X66380670Y-137506500D01*
X67337501Y-137506500D01*
X67404540Y-137526185D01*
X67450295Y-137578989D01*
X67461501Y-137630500D01*
X67461501Y-137803876D01*
X67467908Y-137863483D01*
X67518202Y-137998328D01*
X67518203Y-137998330D01*
X67595578Y-138101689D01*
X67619995Y-138167153D01*
X67605144Y-138235426D01*
X67595578Y-138250311D01*
X67518203Y-138353669D01*
X67518202Y-138353671D01*
X67467908Y-138488517D01*
X67461501Y-138548116D01*
X67461501Y-138548123D01*
X67461500Y-138548135D01*
X67461500Y-138721500D01*
X67441815Y-138788539D01*
X67389011Y-138834294D01*
X67337500Y-138845500D01*
X60498097Y-138845500D01*
X60431058Y-138825815D01*
X60410416Y-138809181D01*
X57425941Y-135824706D01*
X57392456Y-135763383D01*
X57393847Y-135704931D01*
X57406290Y-135658495D01*
X57419635Y-135608692D01*
X57439468Y-135382000D01*
X57419635Y-135155308D01*
X57360739Y-134935504D01*
X57264568Y-134729266D01*
X57134047Y-134542861D01*
X57134045Y-134542858D01*
X56973141Y-134381954D01*
X56786734Y-134251432D01*
X56786732Y-134251431D01*
X56580497Y-134155261D01*
X56580488Y-134155258D01*
X56360697Y-134096366D01*
X56360693Y-134096365D01*
X56360692Y-134096365D01*
X56360691Y-134096364D01*
X56360686Y-134096364D01*
X56134002Y-134076532D01*
X56133998Y-134076532D01*
X55907313Y-134096364D01*
X55907302Y-134096366D01*
X55687511Y-134155258D01*
X55687502Y-134155261D01*
X55481267Y-134251431D01*
X55481265Y-134251432D01*
X55294858Y-134381954D01*
X55133954Y-134542858D01*
X55003432Y-134729265D01*
X55003431Y-134729267D01*
X54907261Y-134935502D01*
X54907258Y-134935511D01*
X54848366Y-135155302D01*
X54848364Y-135155313D01*
X54828532Y-135381998D01*
X54828532Y-135382001D01*
X54848364Y-135608686D01*
X54848366Y-135608697D01*
X54907258Y-135828488D01*
X54907261Y-135828497D01*
X55003431Y-136034732D01*
X55003432Y-136034734D01*
X55133954Y-136221141D01*
X55294858Y-136382045D01*
X55294861Y-136382047D01*
X55481266Y-136512568D01*
X55524778Y-136532858D01*
X55539275Y-136539618D01*
X55591714Y-136585791D01*
X55610866Y-136652984D01*
X55590650Y-136719865D01*
X55539275Y-136764382D01*
X55481267Y-136791431D01*
X55481265Y-136791432D01*
X55294858Y-136921954D01*
X55133954Y-137082858D01*
X55003432Y-137269265D01*
X55003431Y-137269267D01*
X54907261Y-137475502D01*
X54907258Y-137475511D01*
X54848366Y-137695302D01*
X54848364Y-137695313D01*
X54828532Y-137921998D01*
X54828532Y-137922001D01*
X54848364Y-138148686D01*
X54848366Y-138148697D01*
X54907258Y-138368488D01*
X54907261Y-138368497D01*
X55003431Y-138574732D01*
X55003432Y-138574734D01*
X55133954Y-138761141D01*
X55294858Y-138922045D01*
X55294861Y-138922047D01*
X55481266Y-139052568D01*
X55524778Y-139072858D01*
X55539275Y-139079618D01*
X55591714Y-139125791D01*
X55610866Y-139192984D01*
X55590650Y-139259865D01*
X55539275Y-139304382D01*
X55481267Y-139331431D01*
X55481265Y-139331432D01*
X55294858Y-139461954D01*
X55133954Y-139622858D01*
X55003432Y-139809265D01*
X55003431Y-139809267D01*
X54907261Y-140015502D01*
X54907258Y-140015511D01*
X54848366Y-140235302D01*
X54848364Y-140235313D01*
X54828532Y-140461998D01*
X54828532Y-140462001D01*
X54848364Y-140688686D01*
X54848366Y-140688697D01*
X54907258Y-140908488D01*
X54907261Y-140908497D01*
X55003431Y-141114732D01*
X55003432Y-141114734D01*
X55133954Y-141301141D01*
X55294858Y-141462045D01*
X55294861Y-141462047D01*
X55481266Y-141592568D01*
X55539275Y-141619618D01*
X55591714Y-141665791D01*
X55610866Y-141732984D01*
X55590650Y-141799865D01*
X55539275Y-141844382D01*
X55481267Y-141871431D01*
X55481265Y-141871432D01*
X55294858Y-142001954D01*
X55133954Y-142162858D01*
X55003432Y-142349265D01*
X55003431Y-142349267D01*
X54907261Y-142555502D01*
X54907258Y-142555511D01*
X54848366Y-142775302D01*
X54848364Y-142775313D01*
X54828532Y-143001998D01*
X54828532Y-143002001D01*
X54848364Y-143228686D01*
X54848366Y-143228697D01*
X54907258Y-143448488D01*
X54907261Y-143448497D01*
X55003431Y-143654732D01*
X55003432Y-143654734D01*
X55133954Y-143841141D01*
X55294858Y-144002045D01*
X55294861Y-144002047D01*
X55481266Y-144132568D01*
X55524778Y-144152858D01*
X55539275Y-144159618D01*
X55591714Y-144205791D01*
X55610866Y-144272984D01*
X55590650Y-144339865D01*
X55539275Y-144384382D01*
X55481267Y-144411431D01*
X55481265Y-144411432D01*
X55294858Y-144541954D01*
X55133954Y-144702858D01*
X55003432Y-144889265D01*
X55003431Y-144889267D01*
X54907261Y-145095502D01*
X54907258Y-145095511D01*
X54848366Y-145315302D01*
X54848364Y-145315313D01*
X54828532Y-145541998D01*
X54828532Y-145542001D01*
X54848364Y-145768686D01*
X54848366Y-145768697D01*
X54907258Y-145988488D01*
X54907261Y-145988497D01*
X55003431Y-146194732D01*
X55003432Y-146194734D01*
X55133954Y-146381141D01*
X55294858Y-146542045D01*
X55294861Y-146542047D01*
X55481266Y-146672568D01*
X55524778Y-146692858D01*
X55539275Y-146699618D01*
X55591714Y-146745791D01*
X55610866Y-146812984D01*
X55590650Y-146879865D01*
X55539275Y-146924382D01*
X55481267Y-146951431D01*
X55481265Y-146951432D01*
X55294858Y-147081954D01*
X55133954Y-147242858D01*
X55003432Y-147429265D01*
X55003431Y-147429267D01*
X54907261Y-147635502D01*
X54907258Y-147635511D01*
X54848366Y-147855302D01*
X54848364Y-147855313D01*
X54828532Y-148081998D01*
X54828532Y-148082001D01*
X54848364Y-148308686D01*
X54848366Y-148308697D01*
X54907258Y-148528488D01*
X54907261Y-148528497D01*
X55003431Y-148734732D01*
X55003432Y-148734734D01*
X55133954Y-148921141D01*
X55294858Y-149082045D01*
X55319462Y-149099273D01*
X55363087Y-149153849D01*
X55370281Y-149223348D01*
X55338758Y-149285703D01*
X55278529Y-149321117D01*
X55261593Y-149324138D01*
X55226516Y-149327908D01*
X55091671Y-149378202D01*
X55091664Y-149378206D01*
X54976455Y-149464452D01*
X54976452Y-149464455D01*
X54890206Y-149579664D01*
X54890202Y-149579671D01*
X54839908Y-149714517D01*
X54833501Y-149774116D01*
X54833501Y-149774123D01*
X54833500Y-149774135D01*
X54833500Y-151469870D01*
X54833501Y-151469876D01*
X54839908Y-151529483D01*
X54890202Y-151664328D01*
X54890206Y-151664335D01*
X54976452Y-151779544D01*
X54976455Y-151779547D01*
X55091664Y-151865793D01*
X55091671Y-151865797D01*
X55226517Y-151916091D01*
X55226516Y-151916091D01*
X55233444Y-151916835D01*
X55286127Y-151922500D01*
X56981872Y-151922499D01*
X57041483Y-151916091D01*
X57176331Y-151865796D01*
X57291546Y-151779546D01*
X57377796Y-151664331D01*
X57428091Y-151529483D01*
X57434500Y-151469873D01*
X57434499Y-149774128D01*
X57428091Y-149714517D01*
X57393567Y-149621954D01*
X57377797Y-149579671D01*
X57377793Y-149579664D01*
X57291547Y-149464455D01*
X57291544Y-149464452D01*
X57176335Y-149378206D01*
X57176328Y-149378202D01*
X57041482Y-149327908D01*
X57041483Y-149327908D01*
X57006404Y-149324137D01*
X56941853Y-149297399D01*
X56902005Y-149240006D01*
X56899512Y-149170181D01*
X56935165Y-149110092D01*
X56948539Y-149099272D01*
X56973140Y-149082046D01*
X57134045Y-148921141D01*
X57134047Y-148921139D01*
X57264568Y-148734734D01*
X57360739Y-148528496D01*
X57419635Y-148308692D01*
X57439468Y-148082000D01*
X57419635Y-147855308D01*
X57360739Y-147635504D01*
X57264568Y-147429266D01*
X57134047Y-147242861D01*
X57134045Y-147242858D01*
X56973141Y-147081954D01*
X56786734Y-146951432D01*
X56786728Y-146951429D01*
X56728725Y-146924382D01*
X56676285Y-146878210D01*
X56657133Y-146811017D01*
X56677348Y-146744135D01*
X56728725Y-146699618D01*
X56786734Y-146672568D01*
X56973139Y-146542047D01*
X57134047Y-146381139D01*
X57264568Y-146194734D01*
X57360739Y-145988496D01*
X57419635Y-145768692D01*
X57439468Y-145542000D01*
X57419635Y-145315308D01*
X57360739Y-145095504D01*
X57264568Y-144889266D01*
X57134047Y-144702861D01*
X57134045Y-144702858D01*
X56973141Y-144541954D01*
X56786734Y-144411432D01*
X56786728Y-144411429D01*
X56728725Y-144384382D01*
X56676285Y-144338210D01*
X56657133Y-144271017D01*
X56677348Y-144204135D01*
X56728725Y-144159618D01*
X56786734Y-144132568D01*
X56973139Y-144002047D01*
X57134047Y-143841139D01*
X57264568Y-143654734D01*
X57360739Y-143448496D01*
X57419635Y-143228692D01*
X57439468Y-143002000D01*
X57419635Y-142775308D01*
X57360739Y-142555504D01*
X57264568Y-142349266D01*
X57134047Y-142162861D01*
X57134045Y-142162858D01*
X56973141Y-142001954D01*
X56786734Y-141871432D01*
X56786728Y-141871429D01*
X56728725Y-141844382D01*
X56676285Y-141798210D01*
X56657133Y-141731017D01*
X56677348Y-141664135D01*
X56728725Y-141619618D01*
X56786734Y-141592568D01*
X56973139Y-141462047D01*
X57134047Y-141301139D01*
X57264568Y-141114734D01*
X57360739Y-140908496D01*
X57419635Y-140688692D01*
X57439468Y-140462000D01*
X57432219Y-140379149D01*
X57445985Y-140310652D01*
X57494600Y-140260469D01*
X57562628Y-140244535D01*
X57628472Y-140267910D01*
X57643428Y-140280663D01*
X62253139Y-144890374D01*
X62253149Y-144890385D01*
X62257479Y-144894715D01*
X62257480Y-144894716D01*
X62369284Y-145006520D01*
X62369286Y-145006521D01*
X62369290Y-145006524D01*
X62421211Y-145036500D01*
X62506216Y-145085577D01*
X62617715Y-145115453D01*
X62658942Y-145126500D01*
X62658943Y-145126500D01*
X67337501Y-145126500D01*
X67404540Y-145146185D01*
X67450295Y-145198989D01*
X67461501Y-145250500D01*
X67461501Y-145423876D01*
X67467908Y-145483483D01*
X67518202Y-145618328D01*
X67518203Y-145618330D01*
X67595578Y-145721689D01*
X67619995Y-145787153D01*
X67605144Y-145855426D01*
X67595578Y-145870311D01*
X67518203Y-145973669D01*
X67518202Y-145973671D01*
X67467908Y-146108517D01*
X67461501Y-146168116D01*
X67461501Y-146168123D01*
X67461500Y-146168135D01*
X67461500Y-147963870D01*
X67461501Y-147963876D01*
X67467908Y-148023483D01*
X67518202Y-148158328D01*
X67518203Y-148158330D01*
X67595578Y-148261689D01*
X67619995Y-148327153D01*
X67605144Y-148395426D01*
X67595578Y-148410311D01*
X67518203Y-148513669D01*
X67518202Y-148513671D01*
X67467908Y-148648517D01*
X67461501Y-148708116D01*
X67461501Y-148708123D01*
X67461500Y-148708135D01*
X67461500Y-150503870D01*
X67461501Y-150503876D01*
X67467908Y-150563483D01*
X67518202Y-150698328D01*
X67518203Y-150698330D01*
X67595578Y-150801689D01*
X67619995Y-150867153D01*
X67605144Y-150935426D01*
X67595578Y-150950311D01*
X67518203Y-151053669D01*
X67518202Y-151053671D01*
X67467908Y-151188517D01*
X67461501Y-151248116D01*
X67461500Y-151248127D01*
X67461500Y-152087028D01*
X67461501Y-152811500D01*
X67441816Y-152878539D01*
X67389013Y-152924294D01*
X67337501Y-152935500D01*
X62704670Y-152935500D01*
X62704654Y-152935499D01*
X62697058Y-152935499D01*
X62538943Y-152935499D01*
X62386215Y-152976423D01*
X62263226Y-153047431D01*
X62249281Y-153055482D01*
X60474032Y-154830732D01*
X58813286Y-156491478D01*
X58813284Y-156491480D01*
X58757382Y-156547381D01*
X58701481Y-156603282D01*
X58701480Y-156603284D01*
X58686455Y-156629309D01*
X58622423Y-156740215D01*
X58581499Y-156892943D01*
X58581499Y-156892945D01*
X58581499Y-157061046D01*
X58581500Y-157061059D01*
X58581500Y-174959902D01*
X58561815Y-175026941D01*
X58545181Y-175047583D01*
X56617530Y-176975233D01*
X56556207Y-177008718D01*
X56497756Y-177007327D01*
X56369413Y-176972938D01*
X56369403Y-176972936D01*
X56134001Y-176952341D01*
X56133999Y-176952341D01*
X55898596Y-176972936D01*
X55898586Y-176972938D01*
X55670344Y-177034094D01*
X55670335Y-177034098D01*
X55456171Y-177133964D01*
X55456169Y-177133965D01*
X55262597Y-177269505D01*
X55095505Y-177436597D01*
X54959965Y-177630169D01*
X54959964Y-177630171D01*
X54860098Y-177844335D01*
X54860094Y-177844344D01*
X54798938Y-178072586D01*
X54798936Y-178072596D01*
X54778341Y-178307999D01*
X54778341Y-178308000D01*
X54798936Y-178543403D01*
X54798938Y-178543413D01*
X54860094Y-178771655D01*
X54860096Y-178771659D01*
X54860097Y-178771663D01*
X54880772Y-178816000D01*
X54959965Y-178985830D01*
X54959967Y-178985834D01*
X55068281Y-179140521D01*
X55095505Y-179179401D01*
X55262599Y-179346495D01*
X55359384Y-179414265D01*
X55456165Y-179482032D01*
X55456167Y-179482033D01*
X55456170Y-179482035D01*
X55670337Y-179581903D01*
X55898592Y-179643063D01*
X56075034Y-179658500D01*
X56133999Y-179663659D01*
X56134000Y-179663659D01*
X56134001Y-179663659D01*
X56192966Y-179658500D01*
X56369408Y-179643063D01*
X56597663Y-179581903D01*
X56811830Y-179482035D01*
X57005401Y-179346495D01*
X57172495Y-179179401D01*
X57308035Y-178985830D01*
X57407903Y-178771663D01*
X57469063Y-178543408D01*
X57489659Y-178308000D01*
X57469063Y-178072592D01*
X57434671Y-177944239D01*
X57436334Y-177874393D01*
X57466763Y-177824470D01*
X59550713Y-175740521D01*
X59550716Y-175740520D01*
X59662520Y-175628716D01*
X59712639Y-175541904D01*
X59741577Y-175491785D01*
X59782501Y-175339057D01*
X59782501Y-175180943D01*
X59782501Y-175173348D01*
X59782500Y-175173330D01*
X59782500Y-166498499D01*
X59802185Y-166431460D01*
X59854989Y-166385705D01*
X59906495Y-166374499D01*
X60981872Y-166374499D01*
X61041483Y-166368091D01*
X61176331Y-166317796D01*
X61291546Y-166231546D01*
X61377796Y-166116331D01*
X61428091Y-165981483D01*
X61434500Y-165921873D01*
X61434499Y-165176128D01*
X61434499Y-165176127D01*
X63533500Y-165176127D01*
X63533500Y-165176134D01*
X63533500Y-165176135D01*
X63533500Y-165921870D01*
X63533501Y-165921876D01*
X63539908Y-165981483D01*
X63590202Y-166116328D01*
X63590206Y-166116335D01*
X63676452Y-166231544D01*
X63676455Y-166231547D01*
X63791664Y-166317793D01*
X63791671Y-166317797D01*
X63926517Y-166368091D01*
X63926516Y-166368091D01*
X63933444Y-166368835D01*
X63986127Y-166374500D01*
X65131872Y-166374499D01*
X65191483Y-166368091D01*
X65326331Y-166317796D01*
X65441546Y-166231546D01*
X65527796Y-166116331D01*
X65578091Y-165981483D01*
X65584500Y-165921873D01*
X65584499Y-165176128D01*
X65578091Y-165116517D01*
X65531176Y-164990732D01*
X65527797Y-164981671D01*
X65527793Y-164981664D01*
X65441547Y-164866455D01*
X65441544Y-164866452D01*
X65326335Y-164780206D01*
X65326330Y-164780203D01*
X65240166Y-164748066D01*
X65184233Y-164706194D01*
X65159816Y-164640730D01*
X65159500Y-164631884D01*
X65159500Y-159479096D01*
X65179185Y-159412057D01*
X65195814Y-159391420D01*
X67249821Y-157337412D01*
X67311142Y-157303929D01*
X67380834Y-157308913D01*
X67436767Y-157350785D01*
X67461184Y-157416249D01*
X67461500Y-157425095D01*
X67461500Y-158123870D01*
X67461501Y-158123876D01*
X67467908Y-158183483D01*
X67518202Y-158318328D01*
X67518203Y-158318330D01*
X67595578Y-158421689D01*
X67619995Y-158487153D01*
X67605144Y-158555426D01*
X67595578Y-158570311D01*
X67518203Y-158673669D01*
X67518202Y-158673671D01*
X67467908Y-158808517D01*
X67461501Y-158868116D01*
X67461501Y-158868123D01*
X67461500Y-158868135D01*
X67461500Y-160663870D01*
X67461501Y-160663876D01*
X67467908Y-160723483D01*
X67518202Y-160858328D01*
X67518206Y-160858335D01*
X67604452Y-160973544D01*
X67604455Y-160973547D01*
X67719664Y-161059793D01*
X67719671Y-161059797D01*
X67854517Y-161110091D01*
X67854516Y-161110091D01*
X67861444Y-161110835D01*
X67914127Y-161116500D01*
X70547611Y-161116499D01*
X70558419Y-161116971D01*
X70611999Y-161121659D01*
X70612000Y-161121659D01*
X70612001Y-161121659D01*
X70665580Y-161116971D01*
X70676388Y-161116499D01*
X71509871Y-161116499D01*
X71509872Y-161116499D01*
X71569483Y-161110091D01*
X71704331Y-161059796D01*
X71819546Y-160973546D01*
X71905796Y-160858331D01*
X71956091Y-160723483D01*
X71962500Y-160663873D01*
X71962499Y-159830383D01*
X71962971Y-159819576D01*
X71967659Y-159766000D01*
X71967659Y-159765999D01*
X71962971Y-159712421D01*
X71962499Y-159701613D01*
X71962499Y-158868129D01*
X71962498Y-158868123D01*
X71962497Y-158868116D01*
X71956091Y-158808517D01*
X71916736Y-158703002D01*
X71905797Y-158673671D01*
X71905795Y-158673668D01*
X71854589Y-158605266D01*
X71828421Y-158570309D01*
X71804004Y-158504848D01*
X71818855Y-158436575D01*
X71828416Y-158421696D01*
X71905796Y-158318331D01*
X71956091Y-158183483D01*
X71962500Y-158123873D01*
X71962499Y-157290384D01*
X71962971Y-157279576D01*
X71967659Y-157226000D01*
X71967659Y-157225999D01*
X71962971Y-157172421D01*
X71962499Y-157161613D01*
X71962499Y-156680500D01*
X71982184Y-156613461D01*
X72034988Y-156567706D01*
X72086499Y-156556500D01*
X72823588Y-156556500D01*
X72890627Y-156576185D01*
X72900903Y-156583555D01*
X72903736Y-156585814D01*
X72903738Y-156585816D01*
X73017270Y-156657152D01*
X73054426Y-156680500D01*
X73056478Y-156681789D01*
X73159963Y-156718000D01*
X73226745Y-156741368D01*
X73226750Y-156741369D01*
X73405996Y-156761565D01*
X73406000Y-156761565D01*
X73406004Y-156761565D01*
X73585249Y-156741369D01*
X73585252Y-156741368D01*
X73585255Y-156741368D01*
X73755522Y-156681789D01*
X73876144Y-156605997D01*
X75821723Y-156605997D01*
X75821723Y-156606002D01*
X75840793Y-156823975D01*
X75840793Y-156823979D01*
X75897422Y-157035322D01*
X75897424Y-157035326D01*
X75897425Y-157035330D01*
X75904759Y-157051057D01*
X75989897Y-157233638D01*
X75989898Y-157233639D01*
X76115402Y-157412877D01*
X76270123Y-157567598D01*
X76449361Y-157693102D01*
X76647670Y-157785575D01*
X76859023Y-157842207D01*
X77041926Y-157858208D01*
X77076998Y-157861277D01*
X77077000Y-157861277D01*
X77077002Y-157861277D01*
X77105254Y-157858805D01*
X77294977Y-157842207D01*
X77506330Y-157785575D01*
X77704639Y-157693102D01*
X77883877Y-157567598D01*
X78038598Y-157412877D01*
X78164102Y-157233639D01*
X78256575Y-157035330D01*
X78313207Y-156823977D01*
X78332277Y-156606000D01*
X78332039Y-156603284D01*
X78322258Y-156491480D01*
X78313207Y-156388023D01*
X78256575Y-156176670D01*
X78164102Y-155978362D01*
X78164100Y-155978359D01*
X78164099Y-155978357D01*
X78038599Y-155799124D01*
X77991125Y-155751650D01*
X77883877Y-155644402D01*
X77710429Y-155522952D01*
X77704638Y-155518897D01*
X77605484Y-155472661D01*
X77506330Y-155426425D01*
X77506326Y-155426424D01*
X77506322Y-155426422D01*
X77294977Y-155369793D01*
X77077002Y-155350723D01*
X77076998Y-155350723D01*
X76931682Y-155363436D01*
X76859023Y-155369793D01*
X76859020Y-155369793D01*
X76647677Y-155426422D01*
X76647668Y-155426426D01*
X76449361Y-155518898D01*
X76449357Y-155518900D01*
X76270121Y-155644402D01*
X76115402Y-155799121D01*
X75989900Y-155978357D01*
X75989898Y-155978361D01*
X75971202Y-156018455D01*
X75898243Y-156174917D01*
X75897426Y-156176668D01*
X75897422Y-156176677D01*
X75840793Y-156388020D01*
X75840793Y-156388024D01*
X75821723Y-156605997D01*
X73876144Y-156605997D01*
X73908262Y-156585816D01*
X74035816Y-156458262D01*
X74131789Y-156305522D01*
X74191368Y-156135255D01*
X74191369Y-156135249D01*
X74211565Y-155956003D01*
X74211565Y-155955996D01*
X74191369Y-155776750D01*
X74191368Y-155776745D01*
X74162790Y-155695075D01*
X74131789Y-155606478D01*
X74130914Y-155605086D01*
X74035815Y-155453737D01*
X73908262Y-155326184D01*
X73755523Y-155230211D01*
X73585254Y-155170631D01*
X73585249Y-155170630D01*
X73406004Y-155150435D01*
X73405996Y-155150435D01*
X73226750Y-155170630D01*
X73226745Y-155170631D01*
X73056476Y-155230211D01*
X72903736Y-155326185D01*
X72900903Y-155328445D01*
X72898724Y-155329334D01*
X72897842Y-155329889D01*
X72897744Y-155329734D01*
X72836217Y-155354855D01*
X72823588Y-155355500D01*
X67861057Y-155355500D01*
X67702942Y-155355500D01*
X67550215Y-155396423D01*
X67550214Y-155396423D01*
X67550212Y-155396424D01*
X67550209Y-155396425D01*
X67500096Y-155425359D01*
X67500095Y-155425360D01*
X67462584Y-155447017D01*
X67413285Y-155475479D01*
X67413282Y-155475481D01*
X64078481Y-158810282D01*
X64078477Y-158810287D01*
X64064294Y-158834855D01*
X64057880Y-158845965D01*
X63999423Y-158947215D01*
X63958499Y-159099943D01*
X63958499Y-159099945D01*
X63958499Y-159268046D01*
X63958500Y-159268059D01*
X63958500Y-164631884D01*
X63938815Y-164698923D01*
X63886011Y-164744678D01*
X63877834Y-164748066D01*
X63791669Y-164780203D01*
X63791664Y-164780206D01*
X63676455Y-164866452D01*
X63676452Y-164866455D01*
X63590206Y-164981664D01*
X63590202Y-164981671D01*
X63539910Y-165116513D01*
X63539909Y-165116517D01*
X63533500Y-165176127D01*
X61434499Y-165176127D01*
X61428091Y-165116517D01*
X61381176Y-164990732D01*
X61377797Y-164981671D01*
X61377793Y-164981664D01*
X61291547Y-164866455D01*
X61291544Y-164866452D01*
X61176335Y-164780206D01*
X61176328Y-164780202D01*
X61041482Y-164729908D01*
X61041483Y-164729908D01*
X60981883Y-164723501D01*
X60981881Y-164723500D01*
X60981873Y-164723500D01*
X60981865Y-164723500D01*
X59906500Y-164723500D01*
X59839461Y-164703815D01*
X59793706Y-164651011D01*
X59782500Y-164599500D01*
X59782500Y-157272097D01*
X59802185Y-157205058D01*
X59818819Y-157184416D01*
X62830417Y-154172819D01*
X62891740Y-154139334D01*
X62918098Y-154136500D01*
X74855588Y-154136500D01*
X74922627Y-154156185D01*
X74932903Y-154163555D01*
X74935736Y-154165814D01*
X74935738Y-154165816D01*
X75088478Y-154261789D01*
X75258745Y-154321368D01*
X75258750Y-154321369D01*
X75437996Y-154341565D01*
X75438000Y-154341565D01*
X75438004Y-154341565D01*
X75617249Y-154321369D01*
X75617252Y-154321368D01*
X75617255Y-154321368D01*
X75787522Y-154261789D01*
X75940262Y-154165816D01*
X76067816Y-154038262D01*
X76163789Y-153885522D01*
X76223368Y-153715255D01*
X76228467Y-153670000D01*
X76243565Y-153536003D01*
X76243565Y-153535996D01*
X76223369Y-153356750D01*
X76223368Y-153356745D01*
X76193503Y-153271395D01*
X76163789Y-153186478D01*
X76158432Y-153177953D01*
X76095521Y-153077830D01*
X76067816Y-153033738D01*
X75940262Y-152906184D01*
X75918268Y-152892364D01*
X75787523Y-152810211D01*
X75617254Y-152750631D01*
X75617249Y-152750630D01*
X75438004Y-152730435D01*
X75437996Y-152730435D01*
X75258750Y-152750630D01*
X75258745Y-152750631D01*
X75088476Y-152810211D01*
X74935736Y-152906185D01*
X74932903Y-152908445D01*
X74930724Y-152909334D01*
X74929842Y-152909889D01*
X74929744Y-152909734D01*
X74868217Y-152934855D01*
X74855588Y-152935500D01*
X72086500Y-152935500D01*
X72019461Y-152915815D01*
X71973706Y-152863011D01*
X71962500Y-152811500D01*
X71962499Y-152210385D01*
X71962971Y-152199576D01*
X71967659Y-152146000D01*
X71967659Y-152145999D01*
X71962971Y-152092421D01*
X71962499Y-152081613D01*
X71962499Y-151248129D01*
X71962498Y-151248123D01*
X71962497Y-151248116D01*
X71956091Y-151188517D01*
X71937286Y-151138099D01*
X71905797Y-151053671D01*
X71905795Y-151053668D01*
X71876410Y-151014415D01*
X71828421Y-150950309D01*
X71804004Y-150884848D01*
X71818855Y-150816575D01*
X71828416Y-150801696D01*
X71905796Y-150698331D01*
X71956091Y-150563483D01*
X71962500Y-150503873D01*
X71962500Y-150480500D01*
X71982185Y-150413461D01*
X72034989Y-150367706D01*
X72086500Y-150356500D01*
X74567770Y-150356500D01*
X74634809Y-150376185D01*
X74655451Y-150392819D01*
X77168817Y-152906184D01*
X79681049Y-155418416D01*
X79738112Y-155475479D01*
X79785585Y-155522952D01*
X79908498Y-155605080D01*
X79908511Y-155605087D01*
X80020507Y-155651477D01*
X80045082Y-155661656D01*
X80045087Y-155661658D01*
X80045091Y-155661658D01*
X80045092Y-155661659D01*
X80190079Y-155690500D01*
X80190082Y-155690500D01*
X80337917Y-155690500D01*
X80803259Y-155690500D01*
X80870298Y-155710185D01*
X80916053Y-155762989D01*
X80925997Y-155832147D01*
X80904834Y-155885623D01*
X80839900Y-155978357D01*
X80839898Y-155978361D01*
X80821202Y-156018455D01*
X80748243Y-156174917D01*
X80747426Y-156176668D01*
X80747422Y-156176677D01*
X80690793Y-156388020D01*
X80690793Y-156388024D01*
X80671723Y-156605997D01*
X80671723Y-156606002D01*
X80690793Y-156823975D01*
X80690793Y-156823979D01*
X80747422Y-157035322D01*
X80747424Y-157035326D01*
X80747425Y-157035330D01*
X80754759Y-157051057D01*
X80839897Y-157233638D01*
X80839898Y-157233639D01*
X80965402Y-157412877D01*
X81120123Y-157567598D01*
X81299361Y-157693102D01*
X81497670Y-157785575D01*
X81709023Y-157842207D01*
X81891926Y-157858208D01*
X81926998Y-157861277D01*
X81927000Y-157861277D01*
X81927002Y-157861277D01*
X81955254Y-157858805D01*
X82144977Y-157842207D01*
X82356330Y-157785575D01*
X82554639Y-157693102D01*
X82733877Y-157567598D01*
X82888598Y-157412877D01*
X83014102Y-157233639D01*
X83106575Y-157035330D01*
X83163207Y-156823977D01*
X83182277Y-156606000D01*
X83182039Y-156603284D01*
X83172258Y-156491480D01*
X83163207Y-156388023D01*
X83106575Y-156176670D01*
X83014102Y-155978362D01*
X83014100Y-155978359D01*
X83014099Y-155978357D01*
X82949166Y-155885623D01*
X82926839Y-155819417D01*
X82943849Y-155751650D01*
X82994797Y-155703837D01*
X83050741Y-155690500D01*
X83893920Y-155690500D01*
X83991462Y-155671096D01*
X84038913Y-155661658D01*
X84175495Y-155605084D01*
X84224729Y-155572186D01*
X84298416Y-155522952D01*
X85143819Y-154677549D01*
X85205142Y-154644064D01*
X85274834Y-154649048D01*
X85330767Y-154690920D01*
X85355184Y-154756384D01*
X85355500Y-154765230D01*
X85355500Y-156029918D01*
X85355500Y-156029920D01*
X85355499Y-156029920D01*
X85384340Y-156174907D01*
X85384343Y-156174917D01*
X85440914Y-156311492D01*
X85440915Y-156311494D01*
X85440916Y-156311495D01*
X85452030Y-156328129D01*
X85469716Y-156354597D01*
X85469717Y-156354600D01*
X85523046Y-156434414D01*
X85523052Y-156434421D01*
X86897580Y-157808948D01*
X86897583Y-157808951D01*
X86986391Y-157868290D01*
X87031196Y-157921902D01*
X87041500Y-157971391D01*
X87041500Y-158123869D01*
X87041501Y-158123876D01*
X87047908Y-158183483D01*
X87098202Y-158318328D01*
X87098203Y-158318330D01*
X87175578Y-158421689D01*
X87199995Y-158487153D01*
X87185144Y-158555426D01*
X87175578Y-158570311D01*
X87098203Y-158673669D01*
X87098202Y-158673671D01*
X87047908Y-158808517D01*
X87041501Y-158868116D01*
X87041501Y-158868123D01*
X87041500Y-158868135D01*
X87041500Y-159701616D01*
X87041028Y-159712423D01*
X87036341Y-159765997D01*
X87036341Y-159766002D01*
X87041028Y-159819576D01*
X87041500Y-159830383D01*
X87041501Y-160665500D01*
X87021817Y-160732539D01*
X86969013Y-160778294D01*
X86917501Y-160789500D01*
X83351387Y-160789500D01*
X83284348Y-160769815D01*
X83238593Y-160717011D01*
X83228649Y-160647853D01*
X83257674Y-160584297D01*
X83260127Y-160581550D01*
X83335979Y-160499153D01*
X83462924Y-160304849D01*
X83556157Y-160092300D01*
X83613134Y-159867305D01*
X83613135Y-159867297D01*
X83632300Y-159636006D01*
X83632300Y-159635993D01*
X83613135Y-159404702D01*
X83613133Y-159404691D01*
X83556157Y-159179699D01*
X83462924Y-158967151D01*
X83335983Y-158772852D01*
X83335980Y-158772849D01*
X83335979Y-158772847D01*
X83178784Y-158602087D01*
X83178779Y-158602083D01*
X83178777Y-158602081D01*
X82995634Y-158459535D01*
X82995628Y-158459531D01*
X82791504Y-158349064D01*
X82791495Y-158349061D01*
X82571984Y-158273702D01*
X82400282Y-158245050D01*
X82343049Y-158235500D01*
X82110951Y-158235500D01*
X82065164Y-158243140D01*
X81882015Y-158273702D01*
X81662504Y-158349061D01*
X81662495Y-158349064D01*
X81458371Y-158459531D01*
X81458365Y-158459535D01*
X81275222Y-158602081D01*
X81275219Y-158602084D01*
X81275216Y-158602086D01*
X81275216Y-158602087D01*
X81272290Y-158605266D01*
X81118016Y-158772852D01*
X80991075Y-158967151D01*
X80897842Y-159179699D01*
X80840866Y-159404691D01*
X80840864Y-159404702D01*
X80821700Y-159635993D01*
X80821700Y-159636006D01*
X80840864Y-159867297D01*
X80840866Y-159867308D01*
X80897842Y-160092300D01*
X80991075Y-160304848D01*
X81118016Y-160499147D01*
X81118019Y-160499151D01*
X81118021Y-160499153D01*
X81193844Y-160581519D01*
X81224765Y-160644172D01*
X81216905Y-160713598D01*
X81172757Y-160767753D01*
X81106340Y-160789444D01*
X81102613Y-160789500D01*
X77901387Y-160789500D01*
X77834348Y-160769815D01*
X77788593Y-160717011D01*
X77778649Y-160647853D01*
X77807674Y-160584297D01*
X77810127Y-160581550D01*
X77885979Y-160499153D01*
X78012924Y-160304849D01*
X78106157Y-160092300D01*
X78163134Y-159867305D01*
X78163135Y-159867297D01*
X78182300Y-159636006D01*
X78182300Y-159635993D01*
X78163135Y-159404702D01*
X78163133Y-159404691D01*
X78106157Y-159179699D01*
X78012924Y-158967151D01*
X77885983Y-158772852D01*
X77885980Y-158772849D01*
X77885979Y-158772847D01*
X77728784Y-158602087D01*
X77728779Y-158602083D01*
X77728777Y-158602081D01*
X77545634Y-158459535D01*
X77545628Y-158459531D01*
X77341504Y-158349064D01*
X77341495Y-158349061D01*
X77121984Y-158273702D01*
X76950282Y-158245050D01*
X76893049Y-158235500D01*
X76660951Y-158235500D01*
X76615164Y-158243140D01*
X76432015Y-158273702D01*
X76212504Y-158349061D01*
X76212495Y-158349064D01*
X76008371Y-158459531D01*
X76008365Y-158459535D01*
X75825222Y-158602081D01*
X75825219Y-158602084D01*
X75825216Y-158602086D01*
X75825216Y-158602087D01*
X75822290Y-158605266D01*
X75668016Y-158772852D01*
X75541075Y-158967151D01*
X75447842Y-159179699D01*
X75390866Y-159404691D01*
X75390864Y-159404702D01*
X75371700Y-159635993D01*
X75371700Y-159636006D01*
X75390864Y-159867297D01*
X75390866Y-159867308D01*
X75447842Y-160092300D01*
X75541075Y-160304848D01*
X75668016Y-160499147D01*
X75668019Y-160499151D01*
X75668021Y-160499153D01*
X75743844Y-160581519D01*
X75774765Y-160644172D01*
X75766905Y-160713598D01*
X75722757Y-160767753D01*
X75656340Y-160789444D01*
X75652613Y-160789500D01*
X72832108Y-160789500D01*
X72704812Y-160823608D01*
X72590686Y-160889500D01*
X72590683Y-160889502D01*
X60559502Y-172920683D01*
X60559500Y-172920686D01*
X60493608Y-173034812D01*
X60459500Y-173162108D01*
X60459500Y-179480689D01*
X60444332Y-179540116D01*
X60390132Y-179639376D01*
X60380567Y-179654260D01*
X60220185Y-179868504D01*
X60208599Y-179881874D01*
X60019368Y-180071105D01*
X60005998Y-180082691D01*
X59791754Y-180243073D01*
X59776870Y-180252638D01*
X59630922Y-180332332D01*
X59571495Y-180347500D01*
X43878172Y-180347500D01*
X43811133Y-180327815D01*
X43765378Y-180275011D01*
X43755434Y-180205853D01*
X43784459Y-180142297D01*
X43843237Y-180104523D01*
X43846079Y-180103725D01*
X43880038Y-180094625D01*
X43897663Y-180089903D01*
X44111830Y-179990035D01*
X44305401Y-179854495D01*
X44472495Y-179687401D01*
X44608035Y-179493830D01*
X44707903Y-179279663D01*
X44769063Y-179051408D01*
X44789659Y-178816000D01*
X44769063Y-178580592D01*
X44707903Y-178352337D01*
X44608035Y-178138171D01*
X44562117Y-178072592D01*
X44472494Y-177944597D01*
X44305402Y-177777506D01*
X44305395Y-177777501D01*
X44111834Y-177641967D01*
X44111830Y-177641965D01*
X44086533Y-177630169D01*
X43897663Y-177542097D01*
X43897659Y-177542096D01*
X43897655Y-177542094D01*
X43669413Y-177480938D01*
X43669403Y-177480936D01*
X43434001Y-177460341D01*
X43433999Y-177460341D01*
X43198596Y-177480936D01*
X43198586Y-177480938D01*
X42970344Y-177542094D01*
X42970335Y-177542098D01*
X42756171Y-177641964D01*
X42756169Y-177641965D01*
X42562600Y-177777503D01*
X42440673Y-177899430D01*
X42379350Y-177932914D01*
X42309658Y-177927930D01*
X42253725Y-177886058D01*
X42236810Y-177855081D01*
X42187797Y-177723671D01*
X42187793Y-177723664D01*
X42101547Y-177608455D01*
X42101544Y-177608452D01*
X41986335Y-177522206D01*
X41986328Y-177522202D01*
X41851482Y-177471908D01*
X41851483Y-177471908D01*
X41791883Y-177465501D01*
X41791881Y-177465500D01*
X41791873Y-177465500D01*
X41791864Y-177465500D01*
X39996129Y-177465500D01*
X39996123Y-177465501D01*
X39936516Y-177471908D01*
X39801671Y-177522202D01*
X39801664Y-177522206D01*
X39686455Y-177608452D01*
X39686452Y-177608455D01*
X39600206Y-177723664D01*
X39600202Y-177723671D01*
X39549908Y-177858517D01*
X39543501Y-177918116D01*
X39543500Y-177918135D01*
X39543500Y-179713870D01*
X39543501Y-179713876D01*
X39549908Y-179773483D01*
X39600202Y-179908328D01*
X39600206Y-179908335D01*
X39686452Y-180023544D01*
X39686455Y-180023547D01*
X39801664Y-180109793D01*
X39809454Y-180114047D01*
X39807875Y-180116938D01*
X39850958Y-180149189D01*
X39875375Y-180214653D01*
X39860524Y-180282926D01*
X39811119Y-180332332D01*
X39751691Y-180347500D01*
X35927253Y-180347500D01*
X35867826Y-180332332D01*
X35825253Y-180309085D01*
X35721876Y-180252637D01*
X35706993Y-180243073D01*
X35581579Y-180149189D01*
X35492749Y-180082691D01*
X35479379Y-180071105D01*
X35290148Y-179881874D01*
X35278562Y-179868504D01*
X35268077Y-179854498D01*
X35118176Y-179654255D01*
X35108620Y-179639385D01*
X35059666Y-179549732D01*
X35044500Y-179490308D01*
X35044500Y-177410135D01*
X49703500Y-177410135D01*
X49703500Y-179205870D01*
X49703501Y-179205876D01*
X49709908Y-179265483D01*
X49760202Y-179400328D01*
X49760206Y-179400335D01*
X49846452Y-179515544D01*
X49846455Y-179515547D01*
X49961664Y-179601793D01*
X49961671Y-179601797D01*
X50096517Y-179652091D01*
X50096516Y-179652091D01*
X50103444Y-179652835D01*
X50156127Y-179658500D01*
X51951872Y-179658499D01*
X52011483Y-179652091D01*
X52146331Y-179601796D01*
X52261546Y-179515546D01*
X52347796Y-179400331D01*
X52398091Y-179265483D01*
X52404500Y-179205873D01*
X52404499Y-177410128D01*
X52398091Y-177350517D01*
X52347796Y-177215669D01*
X52347795Y-177215668D01*
X52347793Y-177215664D01*
X52261547Y-177100455D01*
X52261544Y-177100452D01*
X52146335Y-177014206D01*
X52146328Y-177014202D01*
X52011482Y-176963908D01*
X52011483Y-176963908D01*
X51951883Y-176957501D01*
X51951881Y-176957500D01*
X51951873Y-176957500D01*
X51951864Y-176957500D01*
X50156129Y-176957500D01*
X50156123Y-176957501D01*
X50096516Y-176963908D01*
X49961671Y-177014202D01*
X49961664Y-177014206D01*
X49846455Y-177100452D01*
X49846452Y-177100455D01*
X49760206Y-177215664D01*
X49760202Y-177215671D01*
X49709908Y-177350517D01*
X49703501Y-177410116D01*
X49703501Y-177410123D01*
X49703500Y-177410135D01*
X35044500Y-177410135D01*
X35044500Y-104506984D01*
X35064185Y-104439945D01*
X35066904Y-104435890D01*
X35115994Y-104365782D01*
X35129878Y-104349237D01*
X35286731Y-104192384D01*
X35303281Y-104178497D01*
X35334600Y-104156568D01*
X35336948Y-104154924D01*
X35403155Y-104132597D01*
X35408070Y-104132500D01*
X37403890Y-104132500D01*
X37403892Y-104132500D01*
X37531186Y-104098392D01*
X37645314Y-104032500D01*
X37738500Y-103939314D01*
X37804392Y-103825186D01*
X37838500Y-103697892D01*
X37838500Y-92136108D01*
X37804392Y-92008814D01*
X37738500Y-91894686D01*
X37645314Y-91801500D01*
X37574851Y-91760818D01*
X37531187Y-91735608D01*
X37465811Y-91718091D01*
X37403892Y-91701500D01*
X37403891Y-91701500D01*
X35488389Y-91701500D01*
X35421350Y-91681815D01*
X35417265Y-91679075D01*
X35303282Y-91599263D01*
X35286725Y-91585369D01*
X35129881Y-91428525D01*
X35115987Y-91411967D01*
X35066925Y-91341898D01*
X35044598Y-91275691D01*
X35044500Y-91270775D01*
X35044500Y-86386188D01*
X54445407Y-86386188D01*
X54445407Y-86574987D01*
X54482236Y-86760136D01*
X54482238Y-86760144D01*
X54554483Y-86934560D01*
X54554488Y-86934569D01*
X54659368Y-87091533D01*
X54659369Y-87091534D01*
X54659370Y-87091535D01*
X54672456Y-87104621D01*
X54672461Y-87104627D01*
X54679524Y-87111690D01*
X55420322Y-87852488D01*
X55534450Y-87918380D01*
X55661744Y-87952488D01*
X55661746Y-87952488D01*
X55793527Y-87952488D01*
X55793529Y-87952488D01*
X55920822Y-87918380D01*
X56034950Y-87852488D01*
X56128136Y-87759302D01*
X56128137Y-87759299D01*
X56133676Y-87753761D01*
X56134183Y-87753181D01*
X56672280Y-87215083D01*
X56672285Y-87215080D01*
X56682489Y-87204876D01*
X56682490Y-87204876D01*
X56700685Y-87186681D01*
X56729085Y-87158282D01*
X56782749Y-87104616D01*
X56795830Y-87091535D01*
X56900715Y-86934563D01*
X56972962Y-86760144D01*
X57009793Y-86574983D01*
X57009793Y-86386193D01*
X57009793Y-86386190D01*
X57009792Y-86386188D01*
X56972963Y-86201039D01*
X56972962Y-86201032D01*
X56900715Y-86026613D01*
X56900714Y-86026612D01*
X56900711Y-86026606D01*
X56795830Y-85869641D01*
X56795827Y-85869637D01*
X56662338Y-85736148D01*
X56662334Y-85736145D01*
X56505369Y-85631264D01*
X56505360Y-85631259D01*
X56330944Y-85559014D01*
X56330936Y-85559012D01*
X56145786Y-85522183D01*
X56145783Y-85522183D01*
X55956993Y-85522183D01*
X55956990Y-85522183D01*
X55771834Y-85559012D01*
X55765999Y-85560783D01*
X55765374Y-85558723D01*
X55705565Y-85565144D01*
X55689324Y-85560375D01*
X55689201Y-85560783D01*
X55683365Y-85559012D01*
X55498210Y-85522183D01*
X55498207Y-85522183D01*
X55309417Y-85522183D01*
X55309414Y-85522183D01*
X55124263Y-85559012D01*
X55124255Y-85559014D01*
X54949839Y-85631259D01*
X54949830Y-85631264D01*
X54792865Y-85736145D01*
X54792861Y-85736148D01*
X54659372Y-85869637D01*
X54659369Y-85869641D01*
X54554488Y-86026606D01*
X54554483Y-86026615D01*
X54482238Y-86201031D01*
X54482236Y-86201039D01*
X54445407Y-86386188D01*
X35044500Y-86386188D01*
X35044500Y-85629451D01*
X35059668Y-85570024D01*
X35065839Y-85558723D01*
X35108618Y-85480378D01*
X35118180Y-85465501D01*
X35278562Y-85251256D01*
X35290141Y-85237892D01*
X35479386Y-85048647D01*
X35492740Y-85037075D01*
X35707004Y-84876678D01*
X35721868Y-84867126D01*
X35764832Y-84843667D01*
X35824257Y-84828500D01*
X94472491Y-84828500D01*
X94531915Y-84843666D01*
G37*
%TD.AperFunction*%
%TA.AperFunction,Conductor*%
G36*
X66526809Y-113566185D02*
G01*
X66547451Y-113582819D01*
X67425181Y-114460549D01*
X67458666Y-114521872D01*
X67461500Y-114548230D01*
X67461500Y-114943870D01*
X67461501Y-114943876D01*
X67467908Y-115003483D01*
X67518202Y-115138328D01*
X67518206Y-115138335D01*
X67604452Y-115253544D01*
X67604455Y-115253547D01*
X67719664Y-115339793D01*
X67719671Y-115339797D01*
X67854517Y-115390091D01*
X67854516Y-115390091D01*
X67861444Y-115390835D01*
X67914127Y-115396500D01*
X70547611Y-115396499D01*
X70558419Y-115396971D01*
X70611999Y-115401659D01*
X70612000Y-115401659D01*
X70612001Y-115401659D01*
X70665580Y-115396971D01*
X70676388Y-115396499D01*
X71509871Y-115396499D01*
X71509872Y-115396499D01*
X71569483Y-115390091D01*
X71704331Y-115339796D01*
X71819546Y-115253546D01*
X71905796Y-115138331D01*
X71956091Y-115003483D01*
X71962500Y-114943873D01*
X71962499Y-114217228D01*
X71982183Y-114150190D01*
X72034987Y-114104435D01*
X72104146Y-114094491D01*
X72167702Y-114123516D01*
X72174180Y-114129548D01*
X79477181Y-121432548D01*
X79510666Y-121493871D01*
X79513500Y-121520229D01*
X79513500Y-141906769D01*
X79493815Y-141973808D01*
X79441011Y-142019563D01*
X79371853Y-142029507D01*
X79308297Y-142000482D01*
X79301819Y-141994450D01*
X71998818Y-134691449D01*
X71965333Y-134630126D01*
X71962499Y-134603768D01*
X71962499Y-134430385D01*
X71962971Y-134419576D01*
X71967659Y-134366000D01*
X71967659Y-134365999D01*
X71962971Y-134312421D01*
X71962499Y-134301613D01*
X71962499Y-133468129D01*
X71962498Y-133468123D01*
X71962497Y-133468116D01*
X71956091Y-133408517D01*
X71937286Y-133358099D01*
X71905797Y-133273671D01*
X71905795Y-133273668D01*
X71876410Y-133234415D01*
X71828421Y-133170309D01*
X71804004Y-133104848D01*
X71818855Y-133036575D01*
X71828416Y-133021696D01*
X71905796Y-132918331D01*
X71956091Y-132783483D01*
X71962500Y-132723873D01*
X71962499Y-131890384D01*
X71962971Y-131879576D01*
X71967659Y-131826000D01*
X71967659Y-131825999D01*
X71962971Y-131772421D01*
X71962499Y-131761613D01*
X71962499Y-130928129D01*
X71962498Y-130928123D01*
X71962497Y-130928116D01*
X71956091Y-130868517D01*
X71937286Y-130818099D01*
X71905797Y-130733671D01*
X71905793Y-130733664D01*
X71819547Y-130618455D01*
X71819544Y-130618452D01*
X71704335Y-130532206D01*
X71704328Y-130532202D01*
X71569482Y-130481908D01*
X71569483Y-130481908D01*
X71509883Y-130475501D01*
X71509881Y-130475500D01*
X71509873Y-130475500D01*
X71509865Y-130475500D01*
X70676380Y-130475500D01*
X70665573Y-130475028D01*
X70639024Y-130472705D01*
X70612001Y-130470341D01*
X70611998Y-130470341D01*
X70558424Y-130475028D01*
X70547617Y-130475500D01*
X67914129Y-130475500D01*
X67914123Y-130475501D01*
X67854516Y-130481908D01*
X67719671Y-130532202D01*
X67719664Y-130532206D01*
X67604455Y-130618452D01*
X67604452Y-130618455D01*
X67518206Y-130733664D01*
X67518202Y-130733671D01*
X67467908Y-130868517D01*
X67461501Y-130928116D01*
X67461501Y-130928123D01*
X67461500Y-130928135D01*
X67461500Y-131101500D01*
X67441815Y-131168539D01*
X67389011Y-131214294D01*
X67337500Y-131225500D01*
X64054097Y-131225500D01*
X63987058Y-131205815D01*
X63966416Y-131189181D01*
X57425941Y-124648706D01*
X57392456Y-124587383D01*
X57393847Y-124528931D01*
X57419635Y-124432692D01*
X57439468Y-124206000D01*
X57432219Y-124123149D01*
X57445985Y-124054652D01*
X57494600Y-124004469D01*
X57562628Y-123988535D01*
X57628472Y-124011910D01*
X57643428Y-124024663D01*
X60729139Y-127110374D01*
X60729149Y-127110385D01*
X60733479Y-127114715D01*
X60733480Y-127114716D01*
X60845284Y-127226520D01*
X60860688Y-127235413D01*
X60932095Y-127276639D01*
X60932097Y-127276641D01*
X60970151Y-127298611D01*
X60982215Y-127305577D01*
X61134943Y-127346501D01*
X61134946Y-127346501D01*
X61300653Y-127346501D01*
X61300669Y-127346500D01*
X67337501Y-127346500D01*
X67404540Y-127366185D01*
X67450295Y-127418989D01*
X67461501Y-127470500D01*
X67461501Y-127643876D01*
X67467908Y-127703483D01*
X67518202Y-127838328D01*
X67518206Y-127838335D01*
X67604452Y-127953544D01*
X67604455Y-127953547D01*
X67719664Y-128039793D01*
X67719671Y-128039797D01*
X67854517Y-128090091D01*
X67854516Y-128090091D01*
X67861444Y-128090835D01*
X67914127Y-128096500D01*
X70547611Y-128096499D01*
X70558419Y-128096971D01*
X70611999Y-128101659D01*
X70612000Y-128101659D01*
X70612001Y-128101659D01*
X70665580Y-128096971D01*
X70676388Y-128096499D01*
X71509871Y-128096499D01*
X71509872Y-128096499D01*
X71569483Y-128090091D01*
X71704331Y-128039796D01*
X71819546Y-127953546D01*
X71905796Y-127838331D01*
X71956091Y-127703483D01*
X71962500Y-127643873D01*
X71962499Y-126810384D01*
X71962971Y-126799576D01*
X71967659Y-126746000D01*
X71967659Y-126745999D01*
X71962971Y-126692421D01*
X71962499Y-126681613D01*
X71962499Y-125848129D01*
X71962498Y-125848123D01*
X71962497Y-125848116D01*
X71956091Y-125788517D01*
X71937286Y-125738099D01*
X71905797Y-125653671D01*
X71905795Y-125653668D01*
X71886898Y-125628425D01*
X71828421Y-125550309D01*
X71804004Y-125484848D01*
X71818855Y-125416575D01*
X71828416Y-125401696D01*
X71905796Y-125298331D01*
X71956091Y-125163483D01*
X71962500Y-125103873D01*
X71962499Y-124270384D01*
X71962971Y-124259576D01*
X71967659Y-124206000D01*
X71967659Y-124205999D01*
X71962971Y-124152421D01*
X71962499Y-124141613D01*
X71962499Y-123308129D01*
X71962498Y-123308123D01*
X71962497Y-123308116D01*
X71956091Y-123248517D01*
X71937286Y-123198099D01*
X71905797Y-123113671D01*
X71905795Y-123113668D01*
X71886898Y-123088425D01*
X71828421Y-123010309D01*
X71804004Y-122944848D01*
X71818855Y-122876575D01*
X71828416Y-122861696D01*
X71905796Y-122758331D01*
X71956091Y-122623483D01*
X71962500Y-122563873D01*
X71962499Y-121730384D01*
X71962971Y-121719576D01*
X71967659Y-121666000D01*
X71967659Y-121665999D01*
X71962971Y-121612421D01*
X71962499Y-121601613D01*
X71962499Y-120768129D01*
X71962498Y-120768123D01*
X71962497Y-120768116D01*
X71956091Y-120708517D01*
X71937286Y-120658099D01*
X71905797Y-120573671D01*
X71905795Y-120573668D01*
X71886898Y-120548425D01*
X71828421Y-120470309D01*
X71804004Y-120404848D01*
X71818855Y-120336575D01*
X71828416Y-120321696D01*
X71905796Y-120218331D01*
X71956091Y-120083483D01*
X71962500Y-120023873D01*
X71962499Y-119190384D01*
X71962971Y-119179576D01*
X71967659Y-119126000D01*
X71967659Y-119125999D01*
X71962971Y-119072421D01*
X71962499Y-119061613D01*
X71962499Y-118228129D01*
X71962498Y-118228123D01*
X71962497Y-118228116D01*
X71956091Y-118168517D01*
X71937286Y-118118099D01*
X71905797Y-118033671D01*
X71905793Y-118033664D01*
X71819547Y-117918455D01*
X71819544Y-117918452D01*
X71704335Y-117832206D01*
X71704328Y-117832202D01*
X71569482Y-117781908D01*
X71569483Y-117781908D01*
X71509883Y-117775501D01*
X71509881Y-117775500D01*
X71509873Y-117775500D01*
X71509865Y-117775500D01*
X70676380Y-117775500D01*
X70665573Y-117775028D01*
X70639024Y-117772705D01*
X70612001Y-117770341D01*
X70611998Y-117770341D01*
X70558424Y-117775028D01*
X70547617Y-117775500D01*
X67914129Y-117775500D01*
X67914123Y-117775501D01*
X67854516Y-117781908D01*
X67719671Y-117832202D01*
X67719664Y-117832206D01*
X67604455Y-117918452D01*
X67604452Y-117918455D01*
X67518206Y-118033664D01*
X67518202Y-118033671D01*
X67467908Y-118168517D01*
X67461501Y-118228116D01*
X67461501Y-118228123D01*
X67461500Y-118228135D01*
X67461500Y-118401500D01*
X67441815Y-118468539D01*
X67389011Y-118514294D01*
X67337500Y-118525500D01*
X61514097Y-118525500D01*
X61447058Y-118505815D01*
X61426416Y-118489181D01*
X57425941Y-114488706D01*
X57392456Y-114427383D01*
X57393847Y-114368931D01*
X57400972Y-114342341D01*
X57419635Y-114272692D01*
X57439468Y-114046000D01*
X57419635Y-113819308D01*
X57406308Y-113769573D01*
X57388362Y-113702593D01*
X57390025Y-113632743D01*
X57429188Y-113574881D01*
X57493417Y-113547377D01*
X57508137Y-113546500D01*
X66459770Y-113546500D01*
X66526809Y-113566185D01*
G37*
%TD.AperFunction*%
%TD*%
M02*
