%TF.GenerationSoftware,KiCad,Pcbnew,8.0.2*%
%TF.CreationDate,2024-05-01T01:53:47-07:00*%
%TF.ProjectId,DRIVER,44524956-4552-42e6-9b69-6361645f7063,rev?*%
%TF.SameCoordinates,Original*%
%TF.FileFunction,OtherDrawing,Comment*%
%FSLAX46Y46*%
G04 Gerber Fmt 4.6, Leading zero omitted, Abs format (unit mm)*
G04 Created by KiCad (PCBNEW 8.0.2) date 2024-05-01 01:53:47*
%MOMM*%
%LPD*%
G01*
G04 APERTURE LIST*
%ADD10C,0.100000*%
G04 APERTURE END LIST*
D10*
%TO.C,U1*%
X83202000Y-160536000D02*
X75802000Y-160536000D01*
X75802000Y-155836000D01*
X83202000Y-155836000D01*
X83202000Y-160536000D01*
G36*
X83202000Y-160536000D02*
G01*
X75802000Y-160536000D01*
X75802000Y-155836000D01*
X83202000Y-155836000D01*
X83202000Y-160536000D01*
G37*
X83002000Y-149136000D02*
X81002000Y-149136000D01*
X81002000Y-147136000D01*
X83002000Y-147136000D01*
X83002000Y-149136000D01*
G36*
X83002000Y-149136000D02*
G01*
X81002000Y-149136000D01*
X81002000Y-147136000D01*
X83002000Y-147136000D01*
X83002000Y-149136000D01*
G37*
X83002000Y-151636000D02*
X81002000Y-151636000D01*
X81002000Y-149636000D01*
X83002000Y-149636000D01*
X83002000Y-151636000D01*
G36*
X83002000Y-151636000D02*
G01*
X81002000Y-151636000D01*
X81002000Y-149636000D01*
X83002000Y-149636000D01*
X83002000Y-151636000D01*
G37*
X83002000Y-154136000D02*
X81002000Y-154136000D01*
X81002000Y-152136000D01*
X83002000Y-152136000D01*
X83002000Y-154136000D01*
G36*
X83002000Y-154136000D02*
G01*
X81002000Y-154136000D01*
X81002000Y-152136000D01*
X83002000Y-152136000D01*
X83002000Y-154136000D01*
G37*
%TD*%
M02*
