M48
; DRILL file {KiCad 8.0.2} date 2024-05-01T01:53:23-0700
; FORMAT={-:-/ absolute / metric / decimal}
; #@! TF.CreationDate,2024-05-01T01:53:23-07:00
; #@! TF.GenerationSoftware,Kicad,Pcbnew,8.0.2
; #@! TF.FileFunction,MixedPlating,1,2
FMAT,2
METRIC
; #@! TA.AperFunction,Plated,PTH,ViaDrill
T1C0.300
; #@! TA.AperFunction,Plated,PTH,ComponentDrill
T2C0.800
; #@! TA.AperFunction,Plated,PTH,ComponentDrill
T3C1.000
; #@! TA.AperFunction,Plated,PTH,ComponentDrill
T4C1.020
; #@! TA.AperFunction,NonPlated,NPTH,ComponentDrill
T5C1.500
; #@! TA.AperFunction,NonPlated,NPTH,ComponentDrill
T6C1.800
%
G90
G05
T1
X73.406Y-155.956
X75.438Y-153.536
X78.74Y-148.336
X80.264Y-148.336
X85.051Y-98.337
X89.154Y-102.441
T2
X48.514Y-111.506
X48.514Y-114.046
X48.514Y-116.586
X48.514Y-119.126
X48.514Y-121.666
X48.514Y-124.206
X48.514Y-126.746
X48.514Y-129.286
X48.514Y-132.842
X48.514Y-135.382
X48.514Y-137.922
X48.514Y-140.462
X48.514Y-143.002
X48.514Y-145.542
X48.514Y-148.082
X48.514Y-150.622
X48.514Y-154.178
X48.514Y-156.718
X48.514Y-159.258
X48.514Y-161.798
X48.514Y-164.338
X48.514Y-166.878
X48.514Y-169.418
X48.514Y-171.958
X56.134Y-111.506
X56.134Y-114.046
X56.134Y-116.586
X56.134Y-119.126
X56.134Y-121.666
X56.134Y-124.206
X56.134Y-126.746
X56.134Y-129.286
X56.134Y-132.842
X56.134Y-135.382
X56.134Y-137.922
X56.134Y-140.462
X56.134Y-143.002
X56.134Y-145.542
X56.134Y-148.082
X56.134Y-150.622
X56.134Y-154.178
X56.134Y-156.718
X56.134Y-159.258
X56.134Y-161.798
X56.134Y-164.338
X56.134Y-166.878
X56.134Y-169.418
X56.134Y-171.958
T3
X38.862Y-111.76
X38.862Y-114.3
X38.862Y-116.84
X38.862Y-119.38
X38.862Y-121.92
X38.862Y-124.46
X38.862Y-132.08
X38.862Y-134.62
X38.862Y-137.16
X38.862Y-139.7
X38.862Y-142.24
X38.862Y-144.78
X38.862Y-152.4
X38.862Y-154.94
X38.862Y-157.48
X38.862Y-160.02
X38.862Y-162.56
X39.878Y-170.45
X39.878Y-172.99
X40.894Y-178.816
X41.402Y-90.424
X41.402Y-105.664
X43.434Y-178.816
X43.942Y-90.424
X43.942Y-105.664
X46.482Y-90.424
X46.482Y-105.664
X49.022Y-90.424
X49.022Y-105.664
X51.054Y-178.308
X51.562Y-90.424
X51.562Y-105.664
X53.594Y-178.308
X54.102Y-90.424
X54.102Y-105.664
X56.134Y-178.308
X56.642Y-90.424
X56.642Y-105.664
X59.182Y-90.424
X59.182Y-105.664
X61.722Y-90.424
X61.722Y-105.664
X64.262Y-90.424
X64.262Y-105.664
X66.802Y-90.424
X66.802Y-105.664
X69.342Y-90.424
X69.342Y-105.664
X71.882Y-90.424
X71.882Y-105.664
X74.422Y-90.424
X74.422Y-105.664
X76.962Y-90.424
X76.962Y-105.664
X87.884Y-87.869
X87.884Y-90.409
X87.884Y-92.949
X87.884Y-95.489
X93.218Y-96.012
X93.218Y-98.552
T4
X70.612Y-111.506
X70.612Y-114.046
X70.612Y-116.586
X70.612Y-119.126
X70.612Y-121.666
X70.612Y-124.206
X70.612Y-126.746
X70.612Y-129.286
X70.612Y-131.826
X70.612Y-134.366
X70.612Y-136.906
X70.612Y-139.446
X70.612Y-141.986
X70.612Y-144.526
X70.612Y-147.066
X70.612Y-149.606
X70.612Y-152.146
X70.612Y-154.686
X70.612Y-157.226
X70.612Y-159.766
X76.962Y-111.736
X79.502Y-111.736
X82.042Y-111.736
X88.392Y-111.506
X88.392Y-114.046
X88.392Y-116.586
X88.392Y-119.126
X88.392Y-121.666
X88.392Y-124.206
X88.392Y-126.746
X88.392Y-129.286
X88.392Y-131.826
X88.392Y-134.366
X88.392Y-136.906
X88.392Y-139.446
X88.392Y-141.986
X88.392Y-144.526
X88.392Y-147.066
X88.392Y-149.606
X88.392Y-152.146
X88.392Y-154.686
X88.392Y-157.226
X88.392Y-159.766
T5
X77.077Y-156.606
X81.927Y-156.606
T6
X76.777Y-159.636
X82.227Y-159.636
M30
